<svg width="28" height="28" viewBox="0 0 28 28" fill="none" xmlns="http://www.w3.org/2000/svg">
<circle cx="14" cy="14" r="14" fill="#3A223E"/>
<path d="M20 11.6032C20.001 10.4913 19.7252 9.39726 19.198 8.4226C18.6709 7.44795 17.9096 6.62432 16.9848 6.02823C16.0601 5.43214 15.0019 5.08294 13.9086 5.01305C12.8153 4.94316 11.7223 5.15486 10.7311 5.62848C9.74001 6.10209 8.88291 6.82227 8.23945 7.7221C7.59599 8.62192 7.18704 9.67221 7.05061 10.7754C6.91417 11.8786 7.05467 12.9989 7.45906 14.0322C7.86344 15.0655 8.51859 15.9783 9.36363 16.6858V22.3982C9.36303 22.5006 9.38857 22.6013 9.43777 22.6907C9.48696 22.78 9.55812 22.8549 9.64432 22.908C9.72982 22.9626 9.82767 22.994 9.92853 22.9992C10.0294 23.0045 10.1299 22.9834 10.2205 22.938L13.5 21.2663L16.7795 22.938C16.8634 22.9756 16.9538 22.996 17.0455 22.998C17.2022 22.998 17.3525 22.9348 17.4633 22.8223C17.5741 22.7098 17.6364 22.5573 17.6364 22.3982V16.6858C18.3756 16.0683 18.9709 15.2922 19.3796 14.4134C19.7883 13.5346 20.0001 12.5749 20 11.6032ZM8.18182 11.6032C8.18182 10.5356 8.49372 9.49207 9.07809 8.60445C9.66246 7.71683 10.493 7.02501 11.4648 6.61648C12.4366 6.20796 13.5059 6.10107 14.5375 6.30933C15.5691 6.5176 16.5168 7.03166 17.2605 7.78652C18.0043 8.54138 18.5108 9.50313 18.716 10.5502C18.9212 11.5972 18.8159 12.6824 18.4134 13.6687C18.0108 14.655 17.3292 15.498 16.4546 16.0911C15.5801 16.6841 14.5518 17.0007 13.5 17.0007C12.0901 16.9987 10.7386 16.4294 9.74163 15.4176C8.74471 14.4058 8.18377 13.0341 8.18182 11.6032ZM16.4545 21.4312L13.7659 20.0593C13.683 20.0188 13.5921 19.9977 13.5 19.9977C13.4079 19.9977 13.317 20.0188 13.2341 20.0593L10.5455 21.4312V17.4805C11.4605 17.9537 12.473 18.2005 13.5 18.2005C14.527 18.2005 15.5395 17.9537 16.4545 17.4805V21.4312ZM13.5 15.8013C14.3181 15.8013 15.1178 15.555 15.798 15.0937C16.4783 14.6325 17.0084 13.9768 17.3215 13.2097C17.6346 12.4426 17.7165 11.5985 17.5569 10.7842C17.3973 9.96981 17.0033 9.22178 16.4248 8.63466C15.8464 8.04755 15.1093 7.64772 14.307 7.48574C13.5046 7.32375 12.6729 7.40689 11.9171 7.72463C11.1613 8.04238 10.5152 8.58046 10.0607 9.27083C9.60623 9.9612 9.36363 10.7729 9.36363 11.6032C9.36363 12.7166 9.79943 13.7844 10.5751 14.5717C11.3509 15.359 12.403 15.8013 13.5 15.8013ZM13.5 8.60453C14.0844 8.60453 14.6556 8.78039 15.1415 9.10989C15.6273 9.43938 16.006 9.9077 16.2296 10.4556C16.4533 11.0036 16.5118 11.6065 16.3978 12.1882C16.2838 12.7698 16.0024 13.3041 15.5892 13.7235C15.176 14.1429 14.6495 14.4285 14.0764 14.5442C13.5033 14.6599 12.9092 14.6005 12.3693 14.3735C11.8295 14.1466 11.368 13.7622 11.0434 13.2691C10.7187 12.776 10.5455 12.1962 10.5455 11.6032C10.5474 10.8085 10.8593 10.0469 11.413 9.48499C11.9666 8.92307 12.717 8.60651 13.5 8.60453Z" fill="#C937A0"/>
</svg>
