<svg width="28" height="28" viewBox="0 0 28 28" fill="none" xmlns="http://www.w3.org/2000/svg">
<circle cx="14" cy="14" r="14" fill="#1D3F44"/>
<path d="M8.21771 8.22439C8.21771 7.61096 8.46139 7.02266 8.89515 6.5889C9.32891 6.15514 9.91721 5.91146 10.5306 5.91146C11.1441 5.91146 11.7324 6.15514 12.1661 6.5889C12.5999 7.02266 12.8436 7.61096 12.8436 8.22439C12.8436 8.83781 12.5999 9.42611 12.1661 9.85987C11.7324 10.2936 11.1441 10.5373 10.5306 10.5373C9.91721 10.5373 9.32891 10.2936 8.89515 9.85987C8.46139 9.42611 8.21771 8.83781 8.21771 8.22439V8.22439ZM10.5306 7.06792C10.2239 7.06792 9.92977 7.18977 9.71289 7.40664C9.49601 7.62352 9.37417 7.91767 9.37417 8.22439C9.37417 8.5311 9.49601 8.82525 9.71289 9.04213C9.92977 9.25901 10.2239 9.38085 10.5306 9.38085C10.8373 9.38085 11.1315 9.25901 11.3484 9.04213C11.5653 8.82525 11.6871 8.5311 11.6871 8.22439C11.6871 7.91767 11.5653 7.62352 11.3484 7.40664C11.1315 7.18977 10.8373 7.06792 10.5306 7.06792V7.06792ZM16.0574 10.0562C15.8151 9.87141 15.6117 9.64055 15.4589 9.37689C15.3061 9.11324 15.207 8.82199 15.1671 8.51989C15.1272 8.21778 15.1474 7.91077 15.2266 7.61651C15.3057 7.32224 15.4422 7.04651 15.6283 6.80516C15.8143 6.56382 16.0462 6.36161 16.3106 6.21017C16.575 6.05872 16.8668 5.96102 17.1691 5.92268C17.4714 5.88434 17.7783 5.90611 18.0722 5.98675C18.366 6.06738 18.6411 6.20529 18.8815 6.39255C19.3548 6.77118 19.6606 7.32049 19.733 7.92228C19.8054 8.52408 19.6388 9.13026 19.2688 9.6104C18.8988 10.0905 18.3552 10.4063 17.7548 10.4896C17.1544 10.573 16.5453 10.4174 16.0585 10.0562H16.0574ZM17.4694 7.06792C17.1627 7.06792 16.8685 7.18977 16.6517 7.40664C16.4348 7.62352 16.3129 7.91767 16.3129 8.22439C16.3129 8.5311 16.4348 8.82525 16.6517 9.04213C16.8685 9.25901 17.1627 9.38085 17.4694 9.38085C17.7761 9.38085 18.0703 9.25901 18.2872 9.04213C18.504 8.82525 18.6259 8.5311 18.6259 8.22439C18.6259 7.91767 18.504 7.62352 18.2872 7.40664C18.0703 7.18977 17.7761 7.06792 17.4694 7.06792V7.06792ZM7.63948 11.6938H10.7272C10.6 12.0557 10.5306 12.4455 10.5306 12.8502H7.63948C7.48612 12.8502 7.33905 12.9112 7.23061 13.0196C7.12217 13.128 7.06125 13.2751 7.06125 13.4285C7.06125 14.3733 7.4371 15.0741 8.03036 15.5506C8.30329 15.7703 8.63057 15.9472 9.00064 16.0768C8.72888 16.3656 8.51946 16.7073 8.3854 17.0806C7.99721 16.9246 7.63375 16.7131 7.30642 16.4526C6.43676 15.753 5.90479 14.7191 5.90479 13.4285C5.90479 12.9684 6.08755 12.5272 6.41287 12.2019C6.73818 11.8765 7.17941 11.6938 7.63948 11.6938V11.6938ZM11.997 11.6938C11.6903 12.2253 11.6073 12.8569 11.7663 13.4496C11.9253 14.0424 12.3132 14.5477 12.8447 14.8544C13.3763 15.1611 14.0079 15.2441 14.6006 15.0851C15.1933 14.9262 15.6986 14.5382 16.0053 14.0067C16.312 13.4752 16.395 12.8436 16.2361 12.2508C16.0771 11.6581 15.6892 11.1528 15.1576 10.8461C14.6261 10.5394 13.9945 10.4564 13.4018 10.6153C12.809 10.7743 12.3037 11.1622 11.997 11.6938V11.6938ZM13.741 11.7227C13.9104 11.6844 14.0863 11.6847 14.2556 11.7235C14.4249 11.7623 14.5834 11.8386 14.7193 11.9468C14.8551 12.0551 14.965 12.1924 15.0406 12.3488C15.1163 12.5052 15.1559 12.6765 15.1565 12.8502C15.1564 13.0678 15.0949 13.281 14.9791 13.4652C14.8633 13.6494 14.6979 13.7972 14.5019 13.8917C14.3058 13.9861 14.0871 14.0233 13.8709 13.999C13.6547 13.9747 13.4497 13.8899 13.2795 13.7543C13.1093 13.6187 12.9808 13.4379 12.9088 13.2326C12.8367 13.0273 12.8241 12.8058 12.8723 12.5936C12.9205 12.3814 13.0276 12.1871 13.1812 12.0331C13.3349 11.879 13.5289 11.7714 13.741 11.7227ZM19.9697 15.5506C19.6968 15.7703 19.3695 15.9472 18.9994 16.0768C19.2708 16.3657 19.4798 16.7074 19.6135 17.0806C20.0067 16.9198 20.371 16.7105 20.6936 16.4526C21.5633 15.753 22.0953 14.7191 22.0953 13.4285C22.0953 12.9684 21.9125 12.5272 21.5872 12.2019C21.2619 11.8765 20.8206 11.6938 20.3606 11.6938H17.2728C17.4 12.0557 17.4694 12.4455 17.4694 12.8502H20.3606C20.5139 12.8502 20.661 12.9112 20.7694 13.0196C20.8779 13.128 20.9388 13.2751 20.9388 13.4285C20.9388 14.3733 20.5629 15.0741 19.9697 15.5506V15.5506ZM16.8912 16.3196C17.3512 16.3196 17.7925 16.5024 18.1178 16.8277C18.4431 17.153 18.6259 17.5942 18.6259 18.0543C18.6259 19.3449 18.0951 20.3788 17.2242 21.0785C16.3673 21.7666 15.2178 22.1019 14 22.1019C12.7823 22.1019 11.6327 21.7666 10.7758 21.0785C9.90615 20.3788 9.37417 19.3449 9.37417 18.0543C9.37356 17.8263 9.41802 17.6005 9.50498 17.3898C9.59194 17.179 9.71969 16.9875 9.88089 16.8263C10.0421 16.6651 10.2336 16.5374 10.4443 16.4504C10.655 16.3635 10.8809 16.319 11.1089 16.3196H16.8912ZM16.8912 17.4761H11.1089C10.9555 17.4761 10.8084 17.537 10.7 17.6454C10.5916 17.7539 10.5306 17.901 10.5306 18.0543C10.5306 18.9991 10.9065 19.7 11.4998 20.1764C12.1081 20.6645 12.9823 20.9455 14 20.9455C15.0177 20.9455 15.892 20.6645 16.5003 20.1764C17.0936 19.7 17.4694 18.9991 17.4694 18.0543C17.4694 17.901 17.4085 17.7539 17.3001 17.6454C17.1916 17.537 17.0445 17.4761 16.8912 17.4761V17.4761Z" fill="#37C9C0"/>
</svg>
