<svg width="38" height="32" viewBox="0 0 38 32" fill="none" xmlns="http://www.w3.org/2000/svg">
<path d="M0.5 10C0.5 4.7533 4.7533 0.5 10 0.5H28C33.2467 0.5 37.5 4.7533 37.5 10V22C37.5 27.2467 33.2467 31.5 28 31.5H10C4.75329 31.5 0.5 27.2467 0.5 22V10Z" fill="#CDFFDD"/>
<path d="M0.5 10C0.5 4.7533 4.7533 0.5 10 0.5H28C33.2467 0.5 37.5 4.7533 37.5 10V22C37.5 27.2467 33.2467 31.5 28 31.5H10C4.75329 31.5 0.5 27.2467 0.5 22V10Z" stroke="#009017"/>
<g clip-path="url(#clip0_2261_21650)">
<path fill-rule="evenodd" clip-rule="evenodd" d="M19 8.5C14.8579 8.5 11.5 11.8579 11.5 16C11.5 20.1421 14.8579 23.5 19 23.5C23.1421 23.5 26.5 20.1421 26.5 16C26.5 11.8579 23.1421 8.5 19 8.5ZM10 16C10 11.0294 14.0294 7 19 7C23.9705 7 28 11.0294 28 16C28 20.9705 23.9705 25 19 25C14.0294 25 10 20.9705 10 16Z" fill="#009017"/>
<path fill-rule="evenodd" clip-rule="evenodd" d="M23.2569 13.196C23.5626 13.4755 23.5838 13.9499 23.3043 14.2556L18.5043 19.5056C18.3628 19.6604 18.1628 19.7489 17.953 19.7495C17.7432 19.7501 17.5427 19.6628 17.4002 19.5088L14.6252 16.5088C14.3439 16.2047 14.3624 15.7302 14.6665 15.4489C14.9706 15.1677 15.4451 15.1861 15.7264 15.4903L17.9476 17.8915L22.1973 13.2434C22.4767 12.9377 22.9512 12.9165 23.2569 13.196Z" fill="#009017"/>
</g>
<defs>
<clipPath id="clip0_2261_21650">
<rect width="18" height="18" fill="white" transform="translate(10 7)"/>
</clipPath>
</defs>
</svg>
