<svg width="17" height="18" viewBox="0 0 17 18" fill="none" xmlns="http://www.w3.org/2000/svg">
<path d="M16.2724 1.07293L16.2519 1.05427C15.8606 0.696857 15.3534 0.5 14.8237 0.5C14.2299 0.5 13.6597 0.751383 13.2594 1.18963L5.68956 9.47704C5.62056 9.55257 5.56823 9.64169 5.53588 9.7387L4.64578 12.4071C4.54287 12.7156 4.59452 13.0568 4.78392 13.3197C4.97483 13.5847 5.2824 13.7429 5.60673 13.7429C5.74701 13.7429 5.88418 13.7141 6.01423 13.6571L8.59141 12.5297C8.68511 12.4887 8.76916 12.4285 8.83811 12.353L16.408 4.06565C17.1957 3.20333 17.1349 1.8609 16.2724 1.07293ZM6.35118 11.9142L6.87348 10.3484L6.91753 10.3001L7.90747 11.2043L7.86342 11.2526L6.35118 11.9142ZM15.3287 3.07976L8.89337 10.1251L7.90343 9.22088L14.3387 2.17553C14.4646 2.03773 14.6368 1.96181 14.8237 1.96181C14.9877 1.96181 15.1448 2.02282 15.2663 2.13382L15.2867 2.15248C15.5539 2.39656 15.5727 2.81254 15.3287 3.07976Z" fill="#686868"/>
<path d="M14.804 7.24325C14.4003 7.24325 14.0731 7.5705 14.0731 7.97416V14.1794C14.0731 15.2043 13.2392 16.0382 12.2143 16.0382H3.35576C2.33079 16.0382 1.49697 15.2043 1.49697 14.1794V5.39284C1.49697 4.36791 2.33083 3.53405 3.35576 3.53405H9.76761C10.1713 3.53405 10.4985 3.2068 10.4985 2.80314C10.4985 2.39949 10.1713 2.07224 9.76761 2.07224H3.35576C1.52474 2.07224 0.0351562 3.56187 0.0351562 5.39284V14.1794C0.0351562 16.0103 1.52479 17.5 3.35576 17.5H12.2142C14.0452 17.5 15.5349 16.0103 15.5349 14.1794V7.97416C15.5349 7.5705 15.2076 7.24325 14.804 7.24325Z" fill="#686868"/>
</svg>
