<svg width="24" height="24" viewBox="0 0 24 24" fill="none" xmlns="http://www.w3.org/2000/svg">
<g clip-path="url(#clip0_2342_86999)">
<path d="M11.8345 3.41508L14.3915 0.896237H13.244C12.9965 0.896237 12.7959 0.695607 12.7959 0.448118C12.7959 0.200629 12.9965 3.69073e-08 13.244 3.69073e-08H15.4848C15.6006 -4.68445e-05 15.7165 0.0445708 15.8042 0.133642C15.8949 0.225735 15.9377 0.347133 15.9327 0.466847V2.63892C15.9327 2.88641 15.7321 3.08704 15.4846 3.08704C15.2371 3.08704 15.0365 2.88641 15.0365 2.63892V1.51895L12.4635 4.05356C12.2871 4.22724 12.0034 4.22511 11.8297 4.0488C11.6561 3.87248 11.6582 3.58876 11.8345 3.41508Z" fill="white"/>
<path d="M20.2695 0.900573V0.896237H19.1197C18.8722 0.896237 18.6716 0.695607 18.6716 0.448118C18.6716 0.200629 18.8722 3.69073e-08 19.1197 3.69073e-08H21.3603C21.4213 3.69073e-08 21.4795 0.0121864 21.5325 0.0342576C21.5855 0.0562857 21.6351 0.0889339 21.6781 0.132192C21.7211 0.175479 21.7535 0.225347 21.7752 0.278534C21.7921 0.319804 21.803 0.364153 21.8069 0.410506L21.81 0.410156V1.00055H21.8084V2.63892C21.8084 2.88641 21.6078 3.08704 21.3603 3.08704C21.1128 3.08704 20.9122 2.88641 20.9122 2.63892V1.52545L13.2616 9.1308C13.1769 9.21494 13.0622 9.26184 12.9429 9.2611C12.8235 9.26037 12.7094 9.21206 12.6258 9.12689L10.3037 6.76099L3.00558 14.0592C2.83058 14.2342 2.54684 14.2342 2.37184 14.0592C2.19684 13.8842 2.19684 13.6004 2.37184 13.4254L9.98985 5.80742C10.0744 5.72286 10.1892 5.67561 10.3088 5.67617C10.4284 5.67673 10.5428 5.72505 10.6265 5.81039L12.9496 8.17724L20.2695 0.900573Z" fill="white"/>
<path fill-rule="evenodd" clip-rule="evenodd" d="M18.4419 7.38867C18.6243 7.20618 18.8685 7.12049 19.1197 7.12049H21.2607C21.5119 7.12049 21.7561 7.20618 21.9386 7.38867C22.1211 7.57115 22.2067 7.81531 22.2067 8.06652V20.9628H22.854C23.1052 20.9628 23.3494 21.0484 23.5319 21.2309C23.7144 21.4134 23.8001 21.6576 23.8001 21.9088V23.054C23.8001 23.3052 23.7144 23.5493 23.5319 23.7318C23.3494 23.9143 23.1052 24 22.854 24H0.946028C0.694821 24 0.45066 23.9143 0.268176 23.7318C0.0856915 23.5493 0 23.3052 0 23.054V21.9088C0 21.442 0.371175 20.9628 0.946028 20.9628H1.59292V16.5796C1.59292 16.3284 1.67861 16.0842 1.8611 15.9017C2.04358 15.7193 2.28774 15.6336 2.53895 15.6336H4.67996C4.93116 15.6336 5.17532 15.7193 5.35781 15.9017C5.54029 16.0842 5.62599 16.3284 5.62599 16.5796V20.9628H7.12049V13.7925C7.12049 13.5413 7.20618 13.2971 7.38867 13.1146C7.57115 12.9321 7.81531 12.8464 8.06652 12.8464H10.2075C10.4587 12.8464 10.7029 12.9321 10.8854 13.1146C11.0679 13.2971 11.1536 13.5413 11.1536 13.7925V20.9628H12.6471V10.8536C12.6471 10.6024 12.7328 10.3583 12.9153 10.1758C13.0977 9.99331 13.3419 9.90761 13.5931 9.90761H15.7341C15.9853 9.90761 16.2295 9.99331 16.412 10.1758C16.5945 10.3583 16.6802 10.6024 16.6802 10.8536V20.9628H18.1737V8.06652C18.1737 7.81531 18.2594 7.57115 18.4419 7.38867ZM19.0758 8.02355C19.074 8.02832 19.0699 8.0417 19.0699 8.06652V20.9624H21.3105V8.06652C21.3105 8.0417 21.3064 8.02832 21.3046 8.02355L21.3037 8.02264C21.2989 8.02081 21.2855 8.01673 21.2607 8.01673H19.1197C19.0949 8.01673 19.0815 8.02081 19.0767 8.02264L19.0758 8.02355ZM13.5492 10.8107C13.5474 10.8154 13.5433 10.8288 13.5433 10.8536V20.9612H15.7839V10.8536C15.7839 10.8288 15.7798 10.8154 15.778 10.8107L15.7771 10.8098C15.7723 10.8079 15.7589 10.8039 15.7341 10.8039H13.5931C13.5683 10.8039 13.5549 10.8079 13.5501 10.8098L13.5492 10.8107ZM8.01673 13.7925C8.01673 13.7677 8.02081 13.7543 8.02264 13.7495L8.02355 13.7486C8.02832 13.7468 8.0417 13.7427 8.06652 13.7427H10.2075C10.2323 13.7427 10.2457 13.7468 10.2505 13.7486L10.2514 13.7495C10.2532 13.7543 10.2573 13.7677 10.2573 13.7925V20.9624H8.01673V13.7925ZM2.49507 16.5366C2.49324 16.5414 2.48916 16.5548 2.48916 16.5796V20.9612H4.72975V16.5796C4.72975 16.5548 4.72566 16.5414 4.72383 16.5366L4.72292 16.5357C4.71816 16.5339 4.70478 16.5298 4.67996 16.5298H2.53895C2.51413 16.5298 2.50075 16.5339 2.49598 16.5357L2.49507 16.5366ZM0.896237 21.9088C0.896237 21.906 0.896872 21.9001 0.899973 21.8924C0.903062 21.8847 0.90759 21.8776 0.912643 21.8722C0.917462 21.8671 0.92196 21.8642 0.925652 21.8625C0.92875 21.8611 0.934701 21.859 0.946028 21.859H22.854C22.8789 21.859 22.8922 21.8631 22.897 21.8649L22.8979 21.8658C22.8997 21.8706 22.9038 21.884 22.9038 21.9088V23.054C22.9038 23.0788 22.8997 23.0922 22.8979 23.0969L22.897 23.0978C22.8922 23.0997 22.8789 23.1038 22.854 23.1038H0.946028C0.921208 23.1038 0.907827 23.0997 0.903061 23.0978L0.902155 23.0969C0.900322 23.0922 0.896237 23.0788 0.896237 23.054V21.9088Z" fill="white"/>
</g>
<defs>
<clipPath id="clip0_2342_86999">
<rect width="24" height="24" fill="white"/>
</clipPath>
</defs>
</svg>
