<svg xmlns="http://www.w3.org/2000/svg" width="24" height="24" viewBox="0 0 24 24" fill="none">
  <g clip-path="url(#clip0_84_3904)">
    <path fill-rule="evenodd" clip-rule="evenodd" d="M13.6 9.60078V9.44798L11.6 8.44798V10.0008C11.6 10.4426 11.2418 10.8008 10.8 10.8008H10C9.55817 10.8008 9.2 10.4426 9.2 10.0008V8.28958C9.08053 8.21971 8.98107 8.12025 8.9112 8.00078H8.4C7.73726 8.00078 7.2 7.46352 7.2 6.80078C7.2 6.13804 7.73726 5.60078 8.4 5.60078H8.9112C9.05296 5.35408 9.31547 5.20164 9.6 5.20078H11.5056L13.6 4.15358V4.00078C13.6 3.55895 13.9582 3.20078 14.4 3.20078H15.2C15.6418 3.20078 16 3.55895 16 4.00078V9.60078C16 10.0426 15.6418 10.4008 15.2 10.4008H14.4C13.9582 10.4008 13.6 10.0426 13.6 9.60078ZM15.2 4.00078H14.4V9.60078H15.2V4.00078ZM12 7.75358L13.6 8.55358V5.04798L12 5.84798V7.75358ZM11.2 7.60078V6.00078H9.6V7.60078H11.2ZM8.4 6.40078C8.17909 6.40078 8 6.57987 8 6.80078C8 7.0217 8.17909 7.20078 8.4 7.20078H8.8V6.40078H8.4ZM10 8.40078V10.0008H10.8V8.40078H10Z" fill="white"/>
    <path fill-rule="evenodd" clip-rule="evenodd" d="M20.7999 16.0008V16.8244C22.2577 16.9856 23.4714 18.0162 23.8667 19.4287C24.2619 20.8411 23.7595 22.352 22.5971 23.2464C22.5895 23.2512 22.5835 23.2576 22.5759 23.262C21.2925 24.247 19.5074 24.247 18.2239 23.262C18.2199 23.2597 18.2163 23.2568 18.2127 23.2538C18.2095 23.2513 18.2063 23.2487 18.2027 23.2464C17.0404 22.352 16.5379 20.8411 16.9332 19.4287C17.3284 18.0162 18.5421 16.9856 19.9999 16.8244V16.0008C19.9999 15.7799 19.8208 15.6008 19.5999 15.6008H12.3999V16.8244C13.8577 16.9856 15.0714 18.0162 15.4667 19.4287C15.8619 20.8411 15.3595 22.352 14.1971 23.2464C14.1936 23.2487 14.1904 23.2513 14.1872 23.2538C14.1836 23.2568 14.18 23.2597 14.1759 23.262C12.8925 24.247 11.1074 24.247 9.82394 23.262C9.81989 23.2597 9.8163 23.2568 9.81268 23.2538C9.80949 23.2513 9.80629 23.2487 9.80274 23.2464C8.64035 22.352 8.13792 20.8411 8.53318 19.4287C8.92845 18.0162 10.1421 16.9856 11.5999 16.8244V15.6008H4.39993C4.17902 15.6008 3.99993 15.7799 3.99993 16.0008V16.8244C5.45773 16.9856 6.67142 18.0162 7.06669 19.4287C7.46195 20.8411 6.95952 22.352 5.79713 23.2464C5.79358 23.2487 5.79038 23.2513 5.78719 23.2538C5.78357 23.2568 5.77998 23.2597 5.77593 23.262C4.49248 24.247 2.70739 24.247 1.42394 23.262C1.41989 23.2597 1.4163 23.2568 1.41268 23.2538C1.40949 23.2513 1.40629 23.2487 1.40274 23.2464C0.240353 22.352 -0.262081 20.8411 0.133184 19.4287C0.528449 18.0162 1.74214 16.9856 3.19993 16.8244V16.0008C3.19993 15.3381 3.73719 14.8008 4.39993 14.8008H11.5999V13.5804C7.92868 13.3641 5.09467 10.2681 5.20288 6.5921C5.31109 2.91607 8.32231 -0.0078125 11.9999 -0.0078125C15.6776 -0.0078125 18.6888 2.91607 18.797 6.5921C18.9052 10.2681 16.0712 13.3641 12.3999 13.5804V14.8008H19.5999C20.2627 14.8008 20.7999 15.3381 20.7999 16.0008ZM11.9999 0.800813C8.68623 0.800813 5.99994 3.4871 5.99994 6.80081C6.00368 10.113 8.68778 12.7971 11.9999 12.8008C15.3136 12.8008 17.9999 10.1145 17.9999 6.80081C17.9999 3.4871 15.3136 0.800813 11.9999 0.800813ZM3.59994 21.6004C2.89327 21.6004 2.2714 22.0668 2.07354 22.7452C3.00048 23.3527 4.19939 23.3527 5.12633 22.7452C4.92847 22.0668 4.3066 21.6004 3.59994 21.6004ZM3.59994 19.2008C3.15811 19.2008 2.79994 19.559 2.79994 20.0008C2.79994 20.4426 3.15811 20.8008 3.59994 20.8008C4.04176 20.8008 4.39993 20.4426 4.39993 20.0008C4.39993 19.559 4.04176 19.2008 3.59994 19.2008ZM5.75993 22.1812C6.17432 21.6805 6.40071 21.0507 6.39994 20.4008C6.4005 19.1665 5.59271 18.0774 4.41133 17.7197C3.22995 17.362 1.9537 17.8201 1.26948 18.8474C0.585261 19.8748 0.654502 21.229 1.43993 22.1812C1.65521 21.7261 2.00774 21.3499 2.44794 21.1056C1.84035 20.4748 1.85288 19.4727 2.47606 18.8572C3.09924 18.2418 4.10143 18.2418 4.72461 18.8572C5.34779 19.4727 5.36032 20.4748 4.75274 21.1056C5.19263 21.3501 5.54487 21.7262 5.75993 22.1812ZM11.9999 21.6004C11.2933 21.6004 10.6714 22.0668 10.4735 22.7452C11.4005 23.3527 12.5994 23.3527 13.5263 22.7452C13.3285 22.0668 12.7066 21.6004 11.9999 21.6004ZM11.9999 19.2008C11.5581 19.2008 11.1999 19.559 11.1999 20.0008C11.1999 20.4426 11.5581 20.8008 11.9999 20.8008C12.4418 20.8008 12.7999 20.4426 12.7999 20.0008C12.7999 19.559 12.4418 19.2008 11.9999 19.2008ZM14.1599 22.1812C14.5743 21.6805 14.8007 21.0507 14.7999 20.4008C14.8005 19.1665 13.9927 18.0774 12.8113 17.7197C11.6299 17.362 10.3537 17.8201 9.66948 18.8474C8.98526 19.8748 9.0545 21.229 9.83994 22.1812C10.0552 21.7261 10.4077 21.3499 10.8479 21.1056C10.2403 20.4748 10.2529 19.4727 10.8761 18.8572C11.4992 18.2418 12.5014 18.2418 13.1246 18.8572C13.7478 19.4727 13.7603 20.4748 13.1527 21.1056C13.5926 21.3501 13.9449 21.7262 14.1599 22.1812ZM20.3999 21.6004C19.6933 21.6004 19.0714 22.0668 18.8735 22.7452C19.8005 23.3527 20.9994 23.3527 21.9263 22.7452C21.7285 22.0668 21.1066 21.6004 20.3999 21.6004ZM20.3999 19.2008C19.9581 19.2008 19.5999 19.559 19.5999 20.0008C19.5999 20.4426 19.9581 20.8008 20.3999 20.8008C20.8418 20.8008 21.1999 20.4426 21.1999 20.0008C21.1999 19.559 20.8418 19.2008 20.3999 19.2008ZM21.5527 21.1056C21.9926 21.3501 22.3449 21.7262 22.5599 22.1812C23.4998 21.0417 23.3929 19.3681 22.3157 18.3575C21.2384 17.3469 19.5614 17.3469 18.4842 18.3575C17.4069 19.3681 17.3 21.0417 18.2399 22.1812C18.4552 21.7261 18.8077 21.3499 19.2479 21.1056C18.6403 20.4748 18.6529 19.4727 19.2761 18.8572C19.8992 18.2418 20.9014 18.2418 21.5246 18.8572C22.1478 19.4727 22.1603 20.4748 21.5527 21.1056Z" fill="white"/>
  </g>
  <defs>
    <clipPath id="clip0_84_3904">
      <rect width="24" height="24" fill="white"/>
    </clipPath>
  </defs>
</svg>