<svg width="40" height="40" viewBox="0 0 40 40" fill="none" xmlns="http://www.w3.org/2000/svg">
<rect width="40" height="40" rx="20" fill="#04D9FF"/>
<path fill-rule="evenodd" clip-rule="evenodd" d="M26.8066 21.0208C26.9488 21.0841 27.0762 21.1765 27.1806 21.2919C27.2834 21.4049 27.3614 21.5383 27.4095 21.6833C27.4576 21.8284 27.4746 21.9819 27.4596 22.134C27.2385 24.2896 26.2263 26.2867 24.6186 27.7395C23.0109 29.1924 20.9217 29.9977 18.7548 30C18.4197 30.0001 18.0849 29.9815 17.7519 29.9442C16.1899 29.7652 14.705 29.1684 13.4536 28.2165C12.2023 27.2646 11.2307 25.9929 10.6413 24.5354C10.0519 23.0778 9.86643 21.4882 10.1044 19.9341C10.3424 18.38 10.995 16.9188 11.9936 15.7043V14.708H11.4026C11.2478 14.7078 11.0961 14.664 10.9651 14.5814C10.8341 14.4988 10.7291 14.3809 10.6622 14.2413C10.5952 14.1016 10.5692 13.9459 10.5869 13.7921C10.6047 13.6382 10.6655 13.4925 10.7625 13.3718L13.2296 10.3071C13.3065 10.2113 13.404 10.1339 13.5148 10.0808C13.6256 10.0276 13.7469 10 13.8698 10C13.9927 10 14.114 10.0276 14.2248 10.0808C14.3356 10.1339 14.4331 10.2113 14.51 10.3071L16.5109 12.7923C16.9573 12.6739 17.4123 12.591 17.8717 12.5445C18.0241 12.5299 18.178 12.5473 18.3233 12.5956C18.4686 12.6439 18.6021 12.7221 18.7154 12.8252C18.8307 12.9296 18.9228 13.057 18.9859 13.1992C19.0489 13.3415 19.0815 13.4953 19.0815 13.6508V20.4728C19.0817 20.5921 19.1291 20.7064 19.2134 20.7907C19.2977 20.875 19.412 20.9224 19.5313 20.9226H19.5342C21.1262 20.9226 24.7292 20.9226 26.3549 20.9242C26.5105 20.9246 26.6644 20.9575 26.8066 21.0208ZM11.315 14.0253C11.3412 14.042 11.3715 14.0511 11.4026 14.0514H11.9936C12.1677 14.0514 12.3347 14.1205 12.4578 14.2437C12.581 14.3668 12.6502 14.5338 12.6502 14.708V22.9827C12.6508 23.026 12.6683 23.0673 12.699 23.098C12.7296 23.1286 12.771 23.1461 12.8143 23.1468H14.9236C14.9671 23.1468 15.0089 23.1295 15.0397 23.0987C15.0705 23.068 15.0878 23.0262 15.0878 22.9827V14.708C15.0878 14.5338 15.1569 14.3668 15.2801 14.2437C15.4032 14.1205 15.5702 14.0514 15.7444 14.0514H16.3369C16.368 14.0511 16.3984 14.042 16.4246 14.0253C16.4508 14.0086 16.4718 13.9849 16.4851 13.9568C16.4985 13.9287 16.5036 13.8975 16.5001 13.8666C16.4965 13.8357 16.4844 13.8064 16.465 13.7822L15.8281 12.9893L13.9978 10.7175C13.9823 10.6985 13.9628 10.6832 13.9406 10.6727C13.9185 10.6622 13.8943 10.6568 13.8698 10.6568C13.8453 10.6568 13.8211 10.6622 13.7989 10.6727C13.7768 10.6832 13.7572 10.6985 13.7417 10.7175L11.2746 13.7822C11.2552 13.8064 11.243 13.8357 11.2395 13.8666C11.2359 13.8975 11.2411 13.9287 11.2545 13.9568C11.2678 13.9849 11.2888 14.0086 11.315 14.0253ZM25.8643 25.1105C26.3764 24.1687 26.6966 23.1347 26.8063 22.0684C26.8077 22.0531 26.8082 22.0377 26.8079 22.0224C26.8077 21.9148 26.7673 21.8112 26.6947 21.7319C26.6516 21.6845 26.5992 21.6466 26.5407 21.6206C26.4822 21.5946 26.4189 21.5811 26.3549 21.5808C24.7292 21.5792 21.1262 21.5792 19.5342 21.5792H19.5313C19.2379 21.5791 18.9565 21.4625 18.7491 21.255C18.5416 21.0476 18.425 20.7662 18.4249 20.4728V13.6508C18.425 13.5868 18.4117 13.5234 18.3856 13.4648C18.3596 13.4063 18.3215 13.3539 18.2739 13.3111C18.2286 13.2695 18.1751 13.2379 18.1169 13.2184C18.0586 13.1989 17.9969 13.1919 17.9357 13.1978C17.6093 13.2304 17.2853 13.2836 16.9656 13.357L16.9771 13.3718C17.0741 13.4925 17.1349 13.6382 17.1526 13.7921C17.1704 13.9459 17.1443 14.1016 17.0774 14.2413C17.0105 14.3809 16.9055 14.4988 16.7745 14.5814C16.6435 14.664 16.4918 14.7078 16.3369 14.708H15.7444V22.9827C15.7444 23.2003 15.6579 23.4091 15.504 23.563C15.35 23.7169 15.1413 23.8034 14.9236 23.8034H12.8143C12.5966 23.8034 12.3879 23.7169 12.234 23.563C12.08 23.4091 11.9936 23.2003 11.9936 22.9827V16.8058C11.2338 17.9597 10.7823 19.289 10.6819 20.6669C10.5816 22.0449 10.8359 23.4256 11.4205 24.6774C12.0051 25.9292 12.9005 27.0104 14.0215 27.818C15.1425 28.6256 16.4516 29.1327 17.8241 29.2909C18.8892 29.4126 19.9678 29.3219 20.9975 29.0239C22.0272 28.7259 22.9876 28.2265 23.823 27.5548C24.6584 26.883 25.3522 26.0522 25.8643 25.1105Z" fill="#F6FEFE"/>
<path fill-rule="evenodd" clip-rule="evenodd" d="M23.1231 17.8673C22.9338 17.8674 22.7488 17.8113 22.5914 17.7061C22.434 17.601 22.3113 17.4515 22.2388 17.2766C22.1664 17.1017 22.1475 16.9093 22.1844 16.7237C22.2214 16.538 22.3126 16.3675 22.4465 16.2337L24.8128 13.8672C24.9017 13.7782 25.0072 13.7077 25.1234 13.6596C25.2395 13.6114 25.364 13.5866 25.4897 13.5866C25.6154 13.5866 25.7399 13.6114 25.8561 13.6596C25.9722 13.7077 26.0777 13.7782 26.1666 13.8672C26.3461 14.0467 26.4469 14.2902 26.4469 14.544C26.4469 14.7979 26.3461 15.0414 26.1666 15.2209L23.8 17.5874C23.7112 17.6763 23.6056 17.7468 23.4895 17.7949C23.3733 17.8429 23.2488 17.8675 23.1231 17.8673ZM25.4896 14.2432C25.4501 14.2431 25.411 14.2508 25.3746 14.266C25.3381 14.2811 25.305 14.3033 25.2772 14.3314L22.9105 16.6979C22.8826 16.7258 22.8604 16.759 22.8452 16.7955C22.8301 16.8319 22.8223 16.8711 22.8223 16.9106C22.8223 16.9501 22.8301 16.9892 22.8452 17.0257C22.8604 17.0622 22.8826 17.0953 22.9105 17.1232C22.967 17.1794 23.0434 17.2109 23.1231 17.2109C23.2028 17.2109 23.2792 17.1794 23.3357 17.1232L25.7024 14.7567C25.7587 14.7003 25.7903 14.6238 25.7903 14.544C25.7903 14.4643 25.7587 14.3878 25.7024 14.3314C25.6745 14.3033 25.6414 14.2811 25.6049 14.2659C25.5683 14.2508 25.5292 14.2431 25.4896 14.2432Z" fill="#F6FEFE"/>
<path fill-rule="evenodd" clip-rule="evenodd" d="M22.0477 15.1999C22.2031 15.3038 22.3859 15.3593 22.5728 15.3593C22.8235 15.3591 23.0638 15.2594 23.2411 15.0822C23.4183 14.9049 23.518 14.6646 23.5183 14.414C23.5183 14.227 23.4629 14.0443 23.359 13.8888C23.2552 13.7334 23.1075 13.6122 22.9348 13.5406C22.7621 13.4691 22.572 13.4503 22.3886 13.4868C22.2053 13.5233 22.0368 13.6133 21.9046 13.7455C21.7724 13.8777 21.6823 14.0461 21.6459 14.2295C21.6094 14.4128 21.6281 14.6029 21.6996 14.7756C21.7711 14.9484 21.8922 15.096 22.0477 15.1999ZM22.4125 14.174C22.4599 14.1422 22.5157 14.1253 22.5728 14.1253C22.6494 14.1253 22.7228 14.1557 22.777 14.2099C22.8312 14.264 22.8616 14.3374 22.8617 14.414C22.8617 14.4711 22.8448 14.5269 22.8131 14.5744C22.7814 14.6219 22.7363 14.6589 22.6835 14.6807C22.6308 14.7026 22.5727 14.7083 22.5167 14.6972C22.4607 14.6861 22.4093 14.6586 22.3689 14.6182C22.3285 14.5778 22.301 14.5264 22.2898 14.4704C22.2787 14.4144 22.2844 14.3564 22.3062 14.3036C22.328 14.2508 22.365 14.2057 22.4125 14.174Z" fill="#F6FEFE"/>
<path fill-rule="evenodd" clip-rule="evenodd" d="M26.1623 17.8865C25.9753 17.8865 25.7924 17.8311 25.6369 17.7272C25.4814 17.6234 25.3602 17.4757 25.2886 17.3029C25.217 17.1302 25.1983 16.9401 25.2348 16.7567C25.2712 16.5732 25.3613 16.4047 25.4935 16.2725C25.6257 16.1403 25.7942 16.0502 25.9776 16.0137C26.161 15.9772 26.3511 15.9959 26.5239 16.0675C26.6967 16.139 26.8443 16.2602 26.9482 16.4157C27.0521 16.5712 27.1076 16.754 27.1076 16.941C27.1073 17.1916 27.0076 17.4319 26.8304 17.6092C26.6532 17.7864 26.4129 17.8862 26.1623 17.8865ZM26.1623 16.6523C26.1051 16.6522 26.0492 16.6692 26.0017 16.7009C25.9542 16.7326 25.9171 16.7777 25.8952 16.8305C25.8733 16.8833 25.8676 16.9414 25.8787 16.9975C25.8899 17.0536 25.9174 17.105 25.9578 17.1455C25.9982 17.1859 26.0497 17.2134 26.1058 17.2245C26.1618 17.2357 26.2199 17.2299 26.2727 17.2081C26.3255 17.1862 26.3707 17.1491 26.4024 17.1016C26.4341 17.054 26.451 16.9982 26.451 16.941C26.451 16.903 26.4436 16.8655 26.4291 16.8304C26.4146 16.7953 26.3934 16.7634 26.3666 16.7365C26.3398 16.7096 26.3079 16.6883 26.2729 16.6737C26.2378 16.6592 26.2002 16.6523 26.1623 16.6523Z" fill="#F6FEFE"/>
<path fill-rule="evenodd" clip-rule="evenodd" d="M28.8853 19.9749H21.2155C20.9214 19.9745 20.6396 19.8575 20.4317 19.6496C20.2238 19.4417 20.1068 19.1598 20.1065 18.8657V11.1967C20.1067 11.0417 20.1391 10.8883 20.2017 10.7465C20.2643 10.6046 20.3557 10.4773 20.4701 10.3725C20.5821 10.2702 20.7141 10.1921 20.8578 10.1434C21.0015 10.0946 21.1537 10.0762 21.3049 10.0892C23.5411 10.2904 25.6357 11.2703 27.2234 12.8579C28.811 14.4455 29.7909 16.5401 29.9921 18.7763C30.0053 18.9275 29.987 19.0798 29.9382 19.2235C29.8894 19.3672 29.8113 19.4992 29.7088 19.6111C29.6042 19.7255 29.477 19.8168 29.3352 19.8794C29.1935 19.9421 29.0403 19.9746 28.8853 19.9749ZM21.2073 10.7422C21.0983 10.7424 20.9935 10.7837 20.9138 10.8579C20.8666 10.901 20.8289 10.9535 20.8031 11.0119C20.7772 11.0703 20.7638 11.1335 20.7637 11.1974V18.8664C20.764 18.9861 20.8117 19.1009 20.8964 19.1855C20.981 19.2702 21.0957 19.3179 21.2155 19.3183H28.8846C28.9485 19.3182 29.0117 19.3048 29.0701 19.2789C29.1286 19.2531 29.181 19.2154 29.2241 19.1683C29.2656 19.1239 29.2972 19.0714 29.317 19.014C29.3368 18.9566 29.3443 18.8957 29.339 18.8352C29.1516 16.752 28.2388 14.8008 26.7599 13.3218C25.2809 11.8428 23.3296 10.9301 21.2465 10.7427C21.2334 10.7422 21.2204 10.7422 21.2073 10.7422Z" fill="#F6FEFE"/>
</svg>
