<svg width="41" height="40" viewBox="0 0 41 40" fill="none" xmlns="http://www.w3.org/2000/svg">
<rect x="0.798828" width="40" height="40" rx="20" fill="#C5FFFF"/>
<path fill-rule="evenodd" clip-rule="evenodd" d="M26.9524 23.5991H24.092C24.0525 23.5991 24.0146 23.6148 23.9867 23.6428C23.9587 23.6707 23.943 23.7086 23.943 23.748C23.943 23.7875 23.9587 23.8254 23.9867 23.8533C24.0146 23.8813 24.0525 23.897 24.092 23.897H26.9523C26.9918 23.897 27.0297 23.8813 27.0576 23.8533C27.0856 23.8254 27.1012 23.7875 27.1012 23.748C27.1012 23.7086 27.0856 23.6707 27.0576 23.6428C27.0297 23.6148 26.9919 23.5991 26.9524 23.5991ZM24.5012 23.1001H26.5431L27.0314 22.2545C27.0568 22.2119 27.0702 22.1632 27.0703 22.1136C27.0703 22.0639 27.0571 22.0152 27.0318 21.9725L27.0314 21.9727C27.0081 21.9288 26.9728 21.8923 26.9297 21.8674C26.8865 21.8426 26.8372 21.8304 26.7875 21.8323H24.257C24.2076 21.8314 24.1588 21.8435 24.1156 21.8675H24.1146C24.0721 21.893 24.037 21.9293 24.013 21.9727L24.0126 21.9724C23.9874 22.0151 23.9741 22.0639 23.9742 22.1135C23.9743 22.1631 23.9877 22.2118 24.013 22.2545L24.5013 23.1L24.5012 23.1001ZM25.3453 21.3333H24.257C24.1198 21.3326 23.9849 21.3683 23.8661 21.4368L23.8663 21.4372C23.7481 21.5058 23.6501 21.6045 23.5823 21.7232V21.7242C23.5122 21.8418 23.4752 21.9762 23.4752 22.1131C23.4752 22.2501 23.5122 22.3845 23.5823 22.5021L23.9382 23.1186C23.8265 23.1458 23.724 23.2023 23.6414 23.2822C23.5587 23.3621 23.4989 23.4625 23.4679 23.5732C23.437 23.684 23.4361 23.8009 23.4653 23.9121C23.4945 24.0233 23.5528 24.1247 23.6342 24.2059C23.6454 24.2171 23.657 24.2279 23.6691 24.2383C23.5328 24.3448 23.4048 24.4614 23.2862 24.5873V18.2266H25.3455V21.3332L25.3453 21.3333ZM23.2564 25.4429C23.2523 25.4506 23.2478 25.4581 23.2429 25.4653C23.2252 25.4947 23.2079 25.5245 23.1909 25.5546C22.894 26.092 22.7398 26.6967 22.7433 27.3108C22.7433 28.1717 23.0289 28.6843 23.4954 28.9774C23.9863 29.286 24.6912 29.3758 25.4862 29.3758C26.2825 29.3758 27.0061 29.2854 27.5159 28.9753C27.9992 28.6815 28.3011 28.1694 28.3011 27.3107C28.3045 26.6967 28.1504 26.0921 27.8534 25.5547C27.589 25.0705 27.195 24.6693 26.7157 24.3961H24.3287C23.887 24.6468 23.5177 25.0075 23.2564 25.443V25.4429ZM18.8463 28.5706H20.9055V20.2365H18.8464V28.5706H18.8463ZM14.4066 28.5706H16.4658V22.0265H14.4066V28.5706H14.4066ZM13.1683 29.0696C13.1021 29.0696 13.0386 29.0434 12.9918 28.9966C12.945 28.9498 12.9187 28.8863 12.9187 28.8201C12.9187 28.7539 12.945 28.6905 12.9918 28.6437C13.0386 28.5969 13.1021 28.5706 13.1683 28.5706H13.9076V21.777C13.9076 21.7108 13.9339 21.6474 13.9807 21.6006C14.0275 21.5538 14.0909 21.5275 14.1571 21.5275H16.7154C16.7816 21.5275 16.845 21.5538 16.8918 21.6006C16.9386 21.6474 16.9649 21.7108 16.9649 21.777V28.5706H18.3473V19.987C18.3473 19.9208 18.3736 19.8573 18.4204 19.8105C18.4672 19.7638 18.5307 19.7375 18.5968 19.7375H21.1551C21.2213 19.7375 21.2848 19.7638 21.3316 19.8105C21.3784 19.8573 21.4046 19.9208 21.4046 19.987V28.5706H22.49C22.3313 28.2354 22.2443 27.8212 22.2443 27.3108C22.241 26.6113 22.4173 25.9227 22.7562 25.3108C22.7663 25.2927 22.7766 25.2748 22.787 25.257V17.9771C22.787 17.911 22.8133 17.8475 22.8601 17.8007C22.9069 17.7539 22.9703 17.7276 23.0365 17.7276H25.5948C25.661 17.7276 25.7245 17.7539 25.7713 17.8007C25.8181 17.8475 25.8444 17.911 25.8444 17.9771V21.3333H26.7873C26.9242 21.3326 27.0589 21.3684 27.1774 21.4369C27.296 21.5054 27.3942 21.6042 27.462 21.7232V21.7242C27.5321 21.8418 27.5691 21.9762 27.5691 22.1131C27.5691 22.2501 27.5321 22.3845 27.462 22.5021L27.1061 23.1186C27.2178 23.1458 27.3202 23.2022 27.4028 23.2821C27.4855 23.3621 27.5454 23.4625 27.5763 23.5732C27.6073 23.6839 27.6082 23.8009 27.579 23.9121C27.5498 24.0233 27.4915 24.1247 27.4101 24.2059C27.3989 24.2171 27.3872 24.2279 27.3752 24.2383C27.7477 24.5317 28.058 24.8963 28.288 25.3109C28.627 25.9228 28.8033 26.6114 28.8 27.3109C28.8 28.3716 28.4059 29.017 27.7751 29.4007C27.1709 29.7679 26.3622 29.8753 25.4861 29.8753C24.6085 29.8753 23.8171 29.7677 23.2301 29.3988C23.0825 29.3069 22.9474 29.1963 22.8281 29.0699L13.1683 29.0696ZM27.1969 11.125C27.2631 11.125 27.3265 11.1513 27.3733 11.1981C27.4201 11.2449 27.4464 11.3084 27.4464 11.3745C27.4464 11.4407 27.4201 11.5042 27.3733 11.551C27.3265 11.5978 27.2631 11.6241 27.1969 11.6241H25.9291C25.8629 11.6241 25.7995 11.5978 25.7527 11.551C25.7059 11.5042 25.6796 11.4407 25.6796 11.3745C25.6796 11.3084 25.7059 11.2449 25.7527 11.1981C25.7995 11.1513 25.8629 11.125 25.9291 11.125H27.1969ZM24.5649 11.125C24.6311 11.125 24.6945 11.1513 24.7413 11.1981C24.7881 11.2449 24.8144 11.3084 24.8144 11.3745C24.8144 11.4407 24.7881 11.5042 24.7413 11.551C24.6945 11.5978 24.6311 11.6241 24.5649 11.6241H23.2971C23.2309 11.6241 23.1675 11.5978 23.1207 11.551C23.0739 11.5042 23.0476 11.4407 23.0476 11.3745C23.0476 11.3084 23.0739 11.2449 23.1207 11.1981C23.1675 11.1513 23.2309 11.125 23.2971 11.125H24.5649ZM21.9329 11.125C21.9991 11.125 22.0625 11.1513 22.1093 11.1981C22.1561 11.2449 22.1824 11.3084 22.1824 11.3745C22.1824 11.4407 22.1561 11.5042 22.1093 11.551C22.0625 11.5978 21.9991 11.6241 21.9329 11.6241H20.6651C20.5989 11.6241 20.5354 11.5978 20.4886 11.551C20.4418 11.5042 20.4155 11.4407 20.4155 11.3745C20.4155 11.3084 20.4418 11.2449 20.4886 11.1981C20.5354 11.1513 20.5989 11.125 20.6651 11.125H21.9329ZM19.3009 11.125C19.367 11.125 19.4305 11.1513 19.4773 11.1981C19.5241 11.2449 19.5504 11.3084 19.5504 11.3745C19.5504 11.4407 19.5241 11.5042 19.4773 11.551C19.4305 11.5978 19.367 11.6241 19.3009 11.6241H18.0331C17.9669 11.6241 17.9034 11.5978 17.8566 11.551C17.8098 11.5042 17.7836 11.4407 17.7836 11.3745C17.7836 11.3084 17.8098 11.2449 17.8566 11.1981C17.9034 11.1513 17.9669 11.125 18.0331 11.125H19.3009ZM16.6689 11.125C16.735 11.125 16.7985 11.1513 16.8453 11.1981C16.8921 11.2449 16.9184 11.3084 16.9184 11.3745C16.9184 11.4407 16.8921 11.5042 16.8453 11.551C16.7985 11.5978 16.735 11.6241 16.6689 11.6241H15.4011C15.3349 11.6241 15.2714 11.5978 15.2246 11.551C15.1778 11.5042 15.1515 11.4407 15.1515 11.3745C15.1515 11.3084 15.1778 11.2449 15.2246 11.1981C15.2714 11.1513 15.3349 11.125 15.4011 11.125H16.6689ZM14.0368 11.125C14.103 11.125 14.1665 11.1513 14.2133 11.1981C14.2601 11.2449 14.2864 11.3084 14.2864 11.3745C14.2864 11.4407 14.2601 11.5042 14.2133 11.551C14.1665 11.5978 14.103 11.6241 14.0368 11.6241H12.7691C12.7029 11.6241 12.6394 11.5978 12.5926 11.551C12.5458 11.5042 12.5195 11.4407 12.5195 11.3745C12.5195 11.3084 12.5458 11.2449 12.5926 11.1981C12.6394 11.1513 12.7029 11.125 12.7691 11.125H14.0368ZM30.0784 28.6763C30.0784 28.7424 30.0521 28.8059 30.0054 28.8527C29.9586 28.8995 29.8951 28.9258 29.8289 28.9258C29.7627 28.9258 29.6993 28.8995 29.6525 28.8527C29.6057 28.8059 29.5794 28.7424 29.5794 28.6763V27.3906C29.5794 27.3244 29.6057 27.261 29.6525 27.2142C29.6993 27.1674 29.7627 27.1411 29.8289 27.1411C29.8951 27.1411 29.9586 27.1674 30.0054 27.2142C30.0521 27.261 30.0784 27.3244 30.0784 27.3906V28.6764V28.6763ZM30.0784 26.0069C30.0784 26.0731 30.0521 26.1366 30.0054 26.1834C29.9586 26.2302 29.8951 26.2564 29.8289 26.2564C29.7627 26.2564 29.6993 26.2302 29.6525 26.1834C29.6057 26.1366 29.5794 26.0731 29.5794 26.0069V24.7212C29.5794 24.655 29.6057 24.5915 29.6525 24.5447C29.6993 24.4979 29.7627 24.4716 29.8289 24.4716C29.8951 24.4716 29.9586 24.4979 30.0054 24.5447C30.0521 24.5915 30.0784 24.655 30.0784 24.7212V26.0069ZM30.0784 23.3376C30.0784 23.4038 30.0521 23.4672 30.0054 23.514C29.9586 23.5608 29.8951 23.5871 29.8289 23.5871C29.7627 23.5871 29.6993 23.5608 29.6525 23.514C29.6057 23.4672 29.5794 23.4038 29.5794 23.3376V22.0518C29.5794 21.9857 29.6057 21.9222 29.6525 21.8754C29.6993 21.8286 29.7627 21.8023 29.8289 21.8023C29.8951 21.8023 29.9586 21.8286 30.0054 21.8754C30.0521 21.9222 30.0784 21.9857 30.0784 22.0518V23.3376ZM30.0784 20.6683C30.0784 20.7345 30.0521 20.7979 30.0054 20.8447C29.9586 20.8915 29.8951 20.9178 29.8289 20.9178C29.7627 20.9178 29.6993 20.8915 29.6525 20.8447C29.6057 20.7979 29.5794 20.7345 29.5794 20.6683V19.3825C29.5794 19.3163 29.6057 19.2529 29.6525 19.2061C29.6993 19.1593 29.7627 19.133 29.8289 19.133C29.8951 19.133 29.9586 19.1593 30.0054 19.2061C30.0521 19.2529 30.0784 19.3163 30.0784 19.3825V20.6683ZM30.0784 17.9989C30.0784 18.0651 30.0521 18.1286 30.0054 18.1754C29.9586 18.2222 29.8951 18.2485 29.8289 18.2485C29.7627 18.2485 29.6993 18.2222 29.6525 18.1754C29.6057 18.1286 29.5794 18.0651 29.5794 17.9989V16.7132C29.5794 16.647 29.6057 16.5835 29.6525 16.5367C29.6993 16.4899 29.7627 16.4636 29.8289 16.4636C29.8951 16.4636 29.9586 16.4899 30.0054 16.5367C30.0521 16.5835 30.0784 16.647 30.0784 16.7132V17.9989ZM30.0784 15.3296C30.0784 15.3958 30.0521 15.4593 30.0054 15.5061C29.9586 15.5529 29.8951 15.5791 29.8289 15.5791C29.7627 15.5791 29.6993 15.5529 29.6525 15.5061C29.6057 15.4593 29.5794 15.3958 29.5794 15.3296V14.0439C29.5794 13.9777 29.6057 13.9142 29.6525 13.8674C29.6993 13.8206 29.7627 13.7943 29.8289 13.7943C29.8951 13.7943 29.9586 13.8206 30.0054 13.8674C30.0521 13.9142 30.0784 13.9777 30.0784 14.0439V15.3296ZM30.0784 12.6603C30.0784 12.7265 30.0521 12.7899 30.0054 12.8367C29.9586 12.8835 29.8951 12.9098 29.8289 12.9098C29.7627 12.9098 29.6993 12.8835 29.6525 12.8367C29.6057 12.7899 29.5794 12.7265 29.5794 12.6603V11.6241H28.5611C28.5284 11.6241 28.4959 11.6176 28.4656 11.6051C28.4354 11.5925 28.4079 11.5741 28.3847 11.551C28.3615 11.5278 28.3431 11.5003 28.3306 11.47C28.3181 11.4397 28.3116 11.4073 28.3116 11.3745C28.3116 11.3418 28.3181 11.3093 28.3306 11.279C28.3431 11.2488 28.3615 11.2213 28.3847 11.1981C28.4079 11.1749 28.4354 11.1565 28.4656 11.144C28.4959 11.1315 28.5284 11.125 28.5611 11.125H29.8289C29.8951 11.125 29.9586 11.1513 30.0054 11.1981C30.0521 11.2449 30.0784 11.3084 30.0784 11.3745V12.6602V12.6603ZM25.4802 13.6953L23.862 13.5294C23.7964 13.5226 23.7307 13.5423 23.6795 13.5839C23.6283 13.6256 23.5958 13.6859 23.5891 13.7516C23.5823 13.8172 23.602 13.8829 23.6436 13.9341C23.6853 13.9853 23.7456 14.0178 23.8112 14.0245L24.8627 14.1323C23.4416 15.2942 21.6616 16.2912 19.6967 17.0526C17.4712 17.9128 15.1309 18.4398 12.7514 18.6163C12.6858 18.6213 12.6248 18.6521 12.5818 18.702C12.5388 18.7518 12.5172 18.8166 12.5219 18.8823C12.5265 18.948 12.557 19.0092 12.6066 19.0525C12.6561 19.0958 12.7209 19.1177 12.7866 19.1134C15.2155 18.933 17.6044 18.3949 19.8762 17.5166C21.8804 16.74 23.6989 15.7225 25.1567 14.5357L25.0529 15.5496C25.0462 15.6152 25.0658 15.6809 25.1075 15.7321C25.1491 15.7833 25.2094 15.8158 25.2751 15.8225C25.3407 15.8293 25.4064 15.8096 25.4576 15.768C25.5088 15.7263 25.5413 15.666 25.548 15.6004L25.7139 13.9827C25.7194 13.9482 25.7175 13.913 25.7084 13.8792C25.6993 13.8455 25.6832 13.8141 25.6612 13.787C25.6391 13.7599 25.6116 13.7377 25.5805 13.7219C25.5493 13.7061 25.5152 13.697 25.4803 13.6953L25.4802 13.6953ZM25.5343 25.9576C25.4078 25.9555 25.2848 25.9992 25.1882 26.0808C25.1498 26.1128 25.1188 26.1526 25.0971 26.1976C25.0755 26.2427 25.0638 26.2918 25.0627 26.3417C25.0627 26.6221 25.3156 26.6746 25.5691 26.7272C26.0243 26.8216 26.4807 26.9162 26.4807 27.6087C26.4796 27.7296 26.4526 27.849 26.4014 27.9586C26.3502 28.0682 26.2759 28.1655 26.1838 28.2439C26.0685 28.3443 25.9317 28.4169 25.7839 28.456V28.6293C25.7839 28.6955 25.7576 28.759 25.7108 28.8058C25.664 28.8526 25.6005 28.8789 25.5343 28.8789C25.4682 28.8789 25.4047 28.8526 25.3579 28.8058C25.3111 28.759 25.2848 28.6955 25.2848 28.6293V28.4676C25.1188 28.4321 24.9646 28.3551 24.8366 28.2437C24.7444 28.1653 24.6702 28.068 24.619 27.9584C24.5677 27.8488 24.5407 27.7295 24.5397 27.6085C24.5397 27.5423 24.566 27.4789 24.6128 27.4321C24.6596 27.3853 24.723 27.359 24.7892 27.359C24.8554 27.359 24.9189 27.3853 24.9657 27.4321C25.0125 27.4789 25.0387 27.5423 25.0387 27.6085C25.0398 27.6584 25.0515 27.7076 25.0731 27.7526C25.0947 27.7976 25.1258 27.8374 25.1641 27.8694C25.2619 27.9491 25.3841 27.9926 25.5102 27.9926C25.6363 27.9926 25.7586 27.9491 25.8563 27.8694C25.8947 27.8374 25.9258 27.7976 25.9474 27.7526C25.969 27.7076 25.9808 27.6584 25.9818 27.6085C25.9818 27.3205 25.7255 27.2674 25.47 27.2144C25.0164 27.1203 24.564 27.0265 24.564 26.3416C24.565 26.2206 24.5921 26.1012 24.6433 25.9916C24.6945 25.882 24.7687 25.7848 24.8609 25.7064C24.9825 25.6005 25.128 25.5256 25.2849 25.4881V25.3209C25.2849 25.2548 25.3112 25.1913 25.358 25.1445C25.4048 25.0977 25.4683 25.0714 25.5345 25.0714C25.6006 25.0714 25.6641 25.0977 25.7109 25.1445C25.7577 25.1913 25.784 25.2548 25.784 25.3209V25.4883C25.9409 25.5258 26.0864 25.6007 26.2081 25.7066C26.3002 25.7849 26.3744 25.8822 26.4257 25.9918C26.4769 26.1014 26.5039 26.2208 26.505 26.3418C26.505 26.4079 26.4787 26.4714 26.4319 26.5182C26.3851 26.565 26.3216 26.5913 26.2554 26.5913C26.1892 26.5913 26.1258 26.565 26.079 26.5182C26.0322 26.4714 26.0059 26.4079 26.0059 26.3418C26.0049 26.2918 25.9932 26.2427 25.9715 26.1977C25.9499 26.1527 25.9188 26.1128 25.8805 26.0809C25.7838 25.9992 25.6608 25.9553 25.5343 25.9575V25.9576Z" fill="#27313E" stroke="#27313E" stroke-width="0.1"/>
</svg>
