<svg width="38" height="33" viewBox="0 0 38 33" fill="none" xmlns="http://www.w3.org/2000/svg">
<path d="M0.5 10.4492C0.5 5.20251 4.7533 0.949219 10 0.949219H28C33.2467 0.949219 37.5 5.20251 37.5 10.4492V22.4492C37.5 27.6959 33.2467 31.9492 28 31.9492H10C4.75329 31.9492 0.5 27.6959 0.5 22.4492V10.4492Z" fill="#FFE1E1"/>
<path d="M0.5 10.4492C0.5 5.20251 4.7533 0.949219 10 0.949219H28C33.2467 0.949219 37.5 5.20251 37.5 10.4492V22.4492C37.5 27.6959 33.2467 31.9492 28 31.9492H10C4.75329 31.9492 0.5 27.6959 0.5 22.4492V10.4492Z" stroke="#F20000"/>
<g clip-path="url(#clip0_2282_84330)">
<path d="M19 9.44922C15.136 9.44922 12 12.5852 12 16.4492C12 20.3132 15.136 23.4492 19 23.4492C22.864 23.4492 26 20.3132 26 16.4492C26 12.5852 22.864 9.44922 19 9.44922ZM13.4 16.4492C13.4 13.3552 15.906 10.8492 19 10.8492C20.295 10.8492 21.485 11.2902 22.43 12.0322L14.583 19.8792C13.8141 18.9015 13.3974 17.6931 13.4 16.4492ZM19 22.0492C17.705 22.0492 16.515 21.6082 15.57 20.8662L23.417 13.0192C24.1859 13.997 24.6026 15.2054 24.6 16.4492C24.6 19.5432 22.094 22.0492 19 22.0492Z" fill="#F20000"/>
</g>
<defs>
<clipPath id="clip0_2282_84330">
<rect width="18" height="18" fill="white" transform="translate(10 7.44922)"/>
</clipPath>
</defs>
</svg>
