<svg width="56" height="56" viewBox="0 0 56 56" fill="none" xmlns="http://www.w3.org/2000/svg">
<g id="Group 48097603">
<path id="Vector" d="M28 54.5C42.6355 54.5 54.5 42.6355 54.5 28C54.5 13.3645 42.6355 1.5 28 1.5C13.3645 1.5 1.5 13.3645 1.5 28C1.5 42.6355 13.3645 54.5 28 54.5Z" fill="#2A5F9E" stroke="white" stroke-width="3"/>
<g id="Group">
<path id="Vector_2" d="M28.0625 12.4375L28.6094 14.1563H30.4062L29 15.25L29.5469 16.9688L28.0625 15.875L26.5781 16.9688L27.125 15.25L25.7188 14.1563H27.5156L28.0625 12.4375Z" fill="#FFCE31"/>
<path id="Vector_3" d="M28.0625 39L28.6094 40.7187H30.4062L29 41.7344L29.5469 43.5312L28.0625 42.4375L26.5781 43.5312L27.125 41.7344L25.7188 40.7187H27.5156L28.0625 39Z" fill="#FFCE31"/>
<path id="Vector_4" d="M34.625 36.8135L35.1719 38.5322H37.0469L35.5625 39.626L36.1094 41.3447L34.625 40.251L33.1406 41.3447L33.7656 39.626L32.2812 38.5322H34.0781L34.625 36.8135Z" fill="#FFCE31"/>
<path id="Vector_5" d="M39.1563 32.2812L39.7031 34H41.5781L40.0938 35.0937L40.6406 36.8125L39.1563 35.7187L37.6719 36.8125L38.2969 35.0937L36.8125 34H38.6094L39.1563 32.2812Z" fill="#FFCE31"/>
<path id="Vector_6" d="M41.3437 25.7188L41.8906 27.4375H43.6875L42.2031 28.5313L42.75 30.25L41.3437 29.1563L39.8594 30.25L40.4062 28.5313L38.9219 27.4375H40.7187L41.3437 25.7188Z" fill="#FFCE31"/>
<path id="Vector_7" d="M39.1563 19.0781L39.7031 20.875H41.5781L40.0938 21.8906L40.6406 23.6094L39.1563 22.5938L37.6719 23.6094L38.2969 21.8906L36.8125 20.875H38.6094L39.1563 19.0781Z" fill="#FFCE31"/>
<path id="Vector_8" d="M34.625 14.5479L35.1719 16.3447H37.0469L35.5625 17.3604L36.1094 19.0791L34.625 18.0635L33.1406 19.0791L33.7656 17.3604L32.2812 16.3447H34.0781L34.625 14.5479Z" fill="#FFCE31"/>
<path id="Vector_9" d="M21.5 36.8135L20.9531 38.5322H19.0781L20.5625 39.626L20.0156 41.3447L21.5 40.251L22.9844 41.3447L22.3594 39.626L23.8438 38.5322H22.0469L21.5 36.8135Z" fill="#FFCE31"/>
<path id="Vector_10" d="M16.9687 32.2812L16.4219 34H14.5469L16.0313 35.0937L15.4844 36.8125L16.9687 35.7187L18.4531 36.8125L17.8281 35.0937L19.3125 34H17.5156L16.9687 32.2812Z" fill="#FFCE31"/>
<path id="Vector_11" d="M14.7812 25.7188L14.2344 27.4375H12.4375L13.9219 28.5313L13.375 30.25L14.7812 29.1563L16.2656 30.25L15.7188 28.5313L17.2031 27.4375H15.4062L14.7812 25.7188Z" fill="#FFCE31"/>
<path id="Vector_12" d="M16.9687 19.0781L16.4219 20.875H14.5469L16.0313 21.8906L15.4844 23.6094L16.9687 22.5938L18.4531 23.6094L17.8281 21.8906L19.3125 20.875H17.5156L16.9687 19.0781Z" fill="#FFCE31"/>
<path id="Vector_13" d="M21.5 14.5479L20.9531 16.3447H19.0781L20.5625 17.3604L20.0156 19.0791L21.5 18.0635L22.9844 19.0791L22.3594 17.3604L23.8438 16.3447H22.0469L21.5 14.5479Z" fill="#FFCE31"/>
</g>
</g>
</svg>
