<svg xmlns="http://www.w3.org/2000/svg" width="17" height="18" viewBox="0 0 17 18" fill="none">
  <g clip-path="url(#clip0_1724_109468)">
    <path d="M5.77172 9.67152C5.77172 9.9897 5.51393 10.2475 5.196 10.2475H3.87593C3.558 10.2475 3.30021 9.9897 3.30021 9.67152C3.30021 9.35335 3.558 9.09551 3.87593 9.09551H5.196C5.5139 9.09551 5.77172 9.35335 5.77172 9.67152Z" fill="#686868"/>
    <path d="M13.6998 9.67152C13.6998 9.9897 13.442 10.2475 13.1241 10.2475H11.804C11.4861 10.2475 11.2283 9.9897 11.2283 9.67152C11.2283 9.35335 11.4861 9.09551 11.804 9.09551H13.1241C13.442 9.09551 13.6998 9.35335 13.6998 9.67152Z" fill="#686868"/>
    <path d="M9.73194 9.67152C9.73194 9.9897 9.47415 10.2475 9.15622 10.2475H7.83616C7.51823 10.2475 7.26044 9.9897 7.26044 9.67152C7.26044 9.35335 7.51823 9.09551 7.83616 9.09551H9.15622C9.47412 9.09551 9.73194 9.35335 9.73194 9.67152Z" fill="#686868"/>
    <path d="M5.77172 13.6335C5.77172 13.9517 5.51393 14.2095 5.196 14.2095H3.87593C3.558 14.2095 3.30021 13.9517 3.30021 13.6335C3.30021 13.3153 3.558 13.0575 3.87593 13.0575H5.196C5.5139 13.0575 5.77172 13.3153 5.77172 13.6335Z" fill="#686868"/>
    <path d="M13.6998 13.6335C13.6998 13.9517 13.442 14.2095 13.1241 14.2095H11.804C11.4861 14.2095 11.2283 13.9517 11.2283 13.6335C11.2283 13.3153 11.4861 13.0575 11.804 13.0575H13.1241C13.442 13.0575 13.6998 13.3153 13.6998 13.6335Z" fill="#686868"/>
    <path d="M9.73194 13.6335C9.73194 13.9517 9.47415 14.2095 9.15622 14.2095H7.83616C7.51823 14.2095 7.26044 13.9517 7.26044 13.6335C7.26044 13.3153 7.51823 13.0575 7.83616 13.0575H9.15622C9.47412 13.0575 9.73194 13.3153 9.73194 13.6335Z" fill="#686868"/>
    <path fill-rule="evenodd" clip-rule="evenodd" d="M13.0397 1.07602V1.82065H13.7765C15.5538 1.82065 17 3.26743 17 5.04563V14.275C17 16.0532 15.5538 17.5 13.7765 17.5H3.22353C1.44619 17.5 0 16.0532 0 14.275V5.04563C0 3.26743 1.44619 1.82065 3.22353 1.82065H3.96023V1.07602C3.96023 0.757842 4.21802 0.5 4.53595 0.5C4.85388 0.5 5.11167 0.757842 5.11167 1.07602V1.82065H11.8883V1.07602C11.8883 0.757842 12.1461 0.5 12.464 0.5C12.782 0.5 13.0397 0.757842 13.0397 1.07602ZM3.96023 4.37767V2.97269H3.22353C2.08085 2.97269 1.15144 3.90257 1.15144 5.04563V5.78264H15.8486V5.04563C15.8486 3.90257 14.9192 2.97269 13.7765 2.97269H13.0398V4.37767C13.0398 4.69584 12.782 4.95369 12.4641 4.95369C12.1461 4.95369 11.8883 4.69584 11.8883 4.37767V2.97269H5.11167V4.37767C5.11167 4.69584 4.85388 4.95369 4.53595 4.95369C4.21802 4.95369 3.96023 4.69584 3.96023 4.37767ZM15.8486 6.93468H1.15144V14.275C1.15144 15.4181 2.08085 16.348 3.22353 16.348H13.7765C14.9192 16.348 15.8486 15.4181 15.8486 14.275V6.93468Z" fill="#686868"/>
  </g>
  <defs>
    <clipPath id="clip0_1724_109468">
      <rect width="17" height="17" fill="white" transform="translate(0 0.5)"/>
    </clipPath>
  </defs>
</svg>