<svg width="24" height="24" viewBox="0 0 24 24" fill="none" xmlns="http://www.w3.org/2000/svg">
<path d="M4.66683 5.33325C4.3132 5.33325 3.97407 5.47373 3.72402 5.72377C3.47397 5.97383 3.3335 6.31296 3.3335 6.66659V19.3333C3.3335 19.6869 3.47397 20.0261 3.72402 20.2761C3.97407 20.5261 4.3132 20.6666 4.66683 20.6666H19.3335C19.6871 20.6666 20.0263 20.5261 20.2763 20.2761C20.5263 20.0261 20.6668 19.6869 20.6668 19.3333V6.66659C20.6668 6.31296 20.5263 5.97383 20.2763 5.72377C20.0263 5.47373 19.6871 5.33325 19.3335 5.33325H16.6668" stroke="#4BB390" stroke-linecap="round" stroke-linejoin="round"/>
<path d="M3.3335 10H20.6668" stroke="#4BB390" stroke-linecap="round" stroke-linejoin="round"/>
<path d="M7.3335 3.33325V7.33325" stroke="#4BB390" stroke-linecap="round" stroke-linejoin="round"/>
<path d="M16.667 3.33325V7.33325" stroke="#4BB390" stroke-linecap="round" stroke-linejoin="round"/>
<path d="M7.3335 5.33325H14.0002" stroke="#4BB390" stroke-linecap="round" stroke-linejoin="round"/>
</svg>
