<svg width="31" height="32" viewBox="0 0 31 32" fill="none" xmlns="http://www.w3.org/2000/svg">
<path d="M0.5 10.5C0.5 5.25329 4.75329 1 10 1H21C26.2467 1 30.5 5.25329 30.5 10.5V21.5C30.5 26.7467 26.2467 31 21 31H10C4.75329 31 0.5 26.7467 0.5 21.5V10.5Z" stroke="#767676"/>
<mask id="path-2-outside-1_3133_55563" maskUnits="userSpaceOnUse" x="7.5" y="7" width="15" height="18" fill="black">
<rect fill="white" x="7.5" y="7" width="15" height="18"/>
<path d="M11.2889 23.9678C11.3311 23.9907 11.3788 24.0017 11.4268 23.9998C11.4748 23.9978 11.5214 23.9829 11.5617 23.9566L13.7659 22.5166L15.9702 23.9566C16.0104 23.9828 16.057 23.9977 16.1049 23.9997C16.1529 24.0016 16.2005 23.9906 16.2427 23.9677C16.285 23.9449 16.3202 23.911 16.3448 23.8698C16.3694 23.8285 16.3824 23.7814 16.3824 23.7334V18.1334C16.6373 18.0903 16.8754 17.9782 17.071 17.8091C17.2665 17.6401 17.412 17.4207 17.4915 17.1748L17.6672 16.6337C17.725 16.457 17.837 16.303 17.9872 16.1935L18.4475 15.858C18.6029 15.7457 18.733 15.6022 18.8296 15.4367C20.3323 15.1327 21.6118 14.338 22.2696 13.2407C22.2945 13.1992 22.3077 13.1517 22.3077 13.1033C22.3077 13.0549 22.2945 13.0075 22.2696 12.966C21.4782 11.6476 19.7896 10.7644 17.8918 10.6487C17.7903 10.5493 17.7134 10.4276 17.6672 10.2932L17.491 9.74815C17.3984 9.46468 17.2186 9.21774 16.9772 9.04268C16.7358 8.86761 16.4452 8.77339 16.147 8.77349H15.5766C15.3903 8.77333 15.2089 8.71476 15.0577 8.60602L14.5966 8.26923C14.3547 8.09422 14.0638 8 13.7653 8C13.4667 8 13.1758 8.09422 12.9339 8.26923L12.4731 8.60576C12.3222 8.71444 12.141 8.7731 11.955 8.77349H11.3843C11.0859 8.77346 10.795 8.86793 10.5536 9.04336C10.3121 9.21878 10.1323 9.46615 10.0401 9.75002L9.86408 10.2937C9.80621 10.4703 9.69426 10.6243 9.54408 10.7337L9.08435 11.0692C8.84189 11.2434 8.66133 11.4904 8.56896 11.7743C8.47659 12.0581 8.47721 12.3641 8.57075 12.6476L8.74675 13.1921C8.80426 13.369 8.80426 13.5595 8.74675 13.7364L8.57102 14.2772C8.47715 14.5611 8.47631 14.8675 8.56864 15.1519C8.66096 15.4364 8.84163 15.6839 9.08435 15.8585L9.54595 16.1945C9.69616 16.3039 9.80812 16.4579 9.86595 16.6345L10.0422 17.1761C10.1218 17.4215 10.267 17.6405 10.4621 17.8092C10.6572 17.978 10.8948 18.0901 11.1491 18.1334V23.7334C11.1492 23.7814 11.1622 23.8286 11.1868 23.8698C11.2113 23.9111 11.2466 23.945 11.2889 23.9678ZM11.6825 18.1545H11.955C12.0872 18.1545 12.2176 18.1848 12.3363 18.243V22.8137L11.6825 23.2404V18.1545ZM13.6201 21.9756L12.871 22.4657V18.6116L12.9363 18.659C13.1782 18.834 13.469 18.9282 13.7675 18.9282C14.066 18.9282 14.3569 18.834 14.5987 18.659L14.663 18.6124V22.4654L13.911 21.9758C13.8677 21.9477 13.8172 21.9327 13.7655 21.9327C13.7139 21.9327 13.6633 21.9474 13.6201 21.9756ZM15.195 22.8134V18.2401C15.3141 18.183 15.4445 18.1536 15.5766 18.154H15.8491V23.2409L15.195 22.8134ZM12.6638 12.9668C12.6388 13.0083 12.6256 13.0559 12.6256 13.1044C12.6256 13.1529 12.6388 13.2005 12.6638 13.242C13.3585 14.3959 14.7369 15.2172 16.3392 15.482C15.9969 15.9184 15.5492 16.2606 15.0383 16.4764C14.5274 16.6922 13.9699 16.7746 13.4184 16.7158C12.8669 16.657 12.3394 16.4589 11.8854 16.1402C11.4315 15.8215 11.0661 15.3926 10.8234 14.8938C10.5808 14.3951 10.469 13.8428 10.4985 13.2889C10.5279 12.7351 10.6978 12.1978 10.9919 11.7276C11.2861 11.2574 11.695 10.8697 12.1802 10.601C12.6654 10.3322 13.211 10.1913 13.7657 10.1913C14.4791 10.1892 15.1731 10.4237 15.739 10.858C14.3963 11.2105 13.2691 11.9615 12.6638 12.9668ZM15.6534 11.4343C15.2315 11.8884 14.9971 12.4853 14.9971 13.1052C14.9971 13.7251 15.2315 14.322 15.6534 14.7761C14.6724 14.5126 13.8103 13.923 13.2089 13.1044C13.8105 12.2863 14.6726 11.6973 15.6534 11.4343ZM15.5302 13.1057C15.5296 12.7287 15.6393 12.3597 15.8458 12.0442C16.0522 11.7287 16.3464 11.4805 16.6921 11.33C17.0378 11.1795 17.42 11.1334 17.7916 11.1973C18.1632 11.2612 18.5079 11.4324 18.7835 11.6897C18.732 11.6814 18.6799 11.6761 18.6278 11.674C18.2903 11.6789 17.9684 11.8163 17.7315 12.0567C17.4946 12.297 17.3617 12.6209 17.3617 12.9584C17.3617 13.2959 17.4946 13.6198 17.7315 13.8601C17.9684 14.1005 18.2903 14.2379 18.6278 14.2428C18.7873 14.2421 18.9452 14.2113 19.0934 14.1521C18.8675 14.5042 18.5336 14.7736 18.1417 14.9199C17.7498 15.0662 17.321 15.0816 16.9197 14.9638C16.5183 14.8459 16.166 14.6011 15.9154 14.2662C15.6648 13.9312 15.5299 13.524 15.5302 13.1057ZM19.3792 12.9583C19.3793 13.1069 19.3353 13.2521 19.2528 13.3757C19.1703 13.4993 19.0529 13.5956 18.9157 13.6525C18.7784 13.7094 18.6274 13.7243 18.4816 13.6953C18.3359 13.6664 18.202 13.5949 18.097 13.4898C17.9919 13.3848 17.9203 13.2509 17.8913 13.1052C17.8623 12.9595 17.8771 12.8084 17.934 12.6711C17.9908 12.5338 18.0871 12.4165 18.2107 12.334C18.3342 12.2514 18.4795 12.2073 18.628 12.2073C18.8271 12.2076 19.018 12.2868 19.1588 12.4276C19.2996 12.5683 19.3789 12.7592 19.3792 12.9583ZM21.7259 13.1044C21.1249 13.924 20.2623 14.514 19.2806 14.7769C19.7027 14.3227 19.9374 13.7255 19.9374 13.1053C19.9374 12.4852 19.7027 11.888 19.2806 11.4337C20.2615 11.6963 21.1236 12.2857 21.7243 13.1044H21.7259ZM10.5475 17.011L10.3713 16.4695C10.2782 16.186 10.0986 15.939 9.85768 15.7631L9.39661 15.4268C9.24539 15.3182 9.13279 15.1642 9.07523 14.9871C9.01767 14.8101 9.01816 14.6193 9.07662 14.4425L9.25315 13.9004C9.34542 13.6167 9.34542 13.311 9.25315 13.0273L9.07662 12.4825C9.01848 12.3062 9.01817 12.1158 9.07573 11.9393C9.13329 11.7627 9.24571 11.6092 9.39661 11.5009L9.85955 11.1639C10.0995 10.9879 10.2783 10.7412 10.3707 10.4583L10.5465 9.91535C10.6039 9.73837 10.7159 9.58413 10.8664 9.4748C11.017 9.36546 11.1983 9.30665 11.3843 9.30682H11.955C12.2537 9.30623 12.5446 9.21183 12.7867 9.03695L13.247 8.70176C13.3978 8.59282 13.5791 8.53418 13.7651 8.53418C13.9512 8.53418 14.1325 8.59282 14.2833 8.70176L14.7451 9.03802C14.9873 9.21246 15.2781 9.30648 15.5766 9.30682H16.147C16.3328 9.30675 16.5138 9.36548 16.6642 9.4746C16.8145 9.58372 16.9265 9.73763 16.984 9.91428L17.1606 10.4607C17.1815 10.5228 17.2066 10.5833 17.2358 10.642C16.9535 10.6511 16.672 10.6773 16.3928 10.7207C15.8281 10.1806 15.1106 9.8276 14.3381 9.70984C13.5656 9.59208 12.7756 9.71526 12.0755 10.0626C11.3755 10.4099 10.7996 10.9645 10.4261 11.651C10.0525 12.3374 9.89964 13.1222 9.98815 13.8986C10.0767 14.675 10.4023 15.4053 10.9207 15.99C11.4391 16.5747 12.1251 16.9855 12.8854 17.1664C13.6456 17.3472 14.4431 17.2894 15.1693 17.0008C15.8955 16.7122 16.5151 16.2068 16.9438 15.5535C17.1166 15.5665 17.2904 15.5756 17.4667 15.5756C17.6315 15.5756 17.7947 15.5676 17.9568 15.5561L17.6728 15.7631C17.4322 15.9391 17.2528 16.1863 17.16 16.4697L16.9843 17.0108C16.9273 17.1881 16.8155 17.3427 16.6651 17.4524C16.5146 17.5622 16.3332 17.6214 16.147 17.6214H15.5766C15.291 17.6204 15.0118 17.7066 14.7766 17.8686L14.7793 17.8726C14.7682 17.8792 14.7575 17.8864 14.7473 17.8942L14.7443 17.8913L14.2843 18.2265C14.1336 18.3356 13.9523 18.3943 13.7662 18.3943C13.5801 18.3943 13.3988 18.3356 13.2481 18.2265L12.7785 17.8854L12.7761 17.8892C12.7685 17.8834 12.7606 17.878 12.7523 17.8732L12.7545 17.8686C12.5192 17.7066 12.2401 17.6204 11.9545 17.6214H11.3838C11.1978 17.6211 11.0167 17.5619 10.8664 17.4522C10.7162 17.3426 10.6045 17.1881 10.5475 17.011Z"/>
</mask>
<path d="M11.2889 23.9678C11.3311 23.9907 11.3788 24.0017 11.4268 23.9998C11.4748 23.9978 11.5214 23.9829 11.5617 23.9566L13.7659 22.5166L15.9702 23.9566C16.0104 23.9828 16.057 23.9977 16.1049 23.9997C16.1529 24.0016 16.2005 23.9906 16.2427 23.9677C16.285 23.9449 16.3202 23.911 16.3448 23.8698C16.3694 23.8285 16.3824 23.7814 16.3824 23.7334V18.1334C16.6373 18.0903 16.8754 17.9782 17.071 17.8091C17.2665 17.6401 17.412 17.4207 17.4915 17.1748L17.6672 16.6337C17.725 16.457 17.837 16.303 17.9872 16.1935L18.4475 15.858C18.6029 15.7457 18.733 15.6022 18.8296 15.4367C20.3323 15.1327 21.6118 14.338 22.2696 13.2407C22.2945 13.1992 22.3077 13.1517 22.3077 13.1033C22.3077 13.0549 22.2945 13.0075 22.2696 12.966C21.4782 11.6476 19.7896 10.7644 17.8918 10.6487C17.7903 10.5493 17.7134 10.4276 17.6672 10.2932L17.491 9.74815C17.3984 9.46468 17.2186 9.21774 16.9772 9.04268C16.7358 8.86761 16.4452 8.77339 16.147 8.77349H15.5766C15.3903 8.77333 15.2089 8.71476 15.0577 8.60602L14.5966 8.26923C14.3547 8.09422 14.0638 8 13.7653 8C13.4667 8 13.1758 8.09422 12.9339 8.26923L12.4731 8.60576C12.3222 8.71444 12.141 8.7731 11.955 8.77349H11.3843C11.0859 8.77346 10.795 8.86793 10.5536 9.04336C10.3121 9.21878 10.1323 9.46615 10.0401 9.75002L9.86408 10.2937C9.80621 10.4703 9.69426 10.6243 9.54408 10.7337L9.08435 11.0692C8.84189 11.2434 8.66133 11.4904 8.56896 11.7743C8.47659 12.0581 8.47721 12.3641 8.57075 12.6476L8.74675 13.1921C8.80426 13.369 8.80426 13.5595 8.74675 13.7364L8.57102 14.2772C8.47715 14.5611 8.47631 14.8675 8.56864 15.1519C8.66096 15.4364 8.84163 15.6839 9.08435 15.8585L9.54595 16.1945C9.69616 16.3039 9.80812 16.4579 9.86595 16.6345L10.0422 17.1761C10.1218 17.4215 10.267 17.6405 10.4621 17.8092C10.6572 17.978 10.8948 18.0901 11.1491 18.1334V23.7334C11.1492 23.7814 11.1622 23.8286 11.1868 23.8698C11.2113 23.9111 11.2466 23.945 11.2889 23.9678ZM11.6825 18.1545H11.955C12.0872 18.1545 12.2176 18.1848 12.3363 18.243V22.8137L11.6825 23.2404V18.1545ZM13.6201 21.9756L12.871 22.4657V18.6116L12.9363 18.659C13.1782 18.834 13.469 18.9282 13.7675 18.9282C14.066 18.9282 14.3569 18.834 14.5987 18.659L14.663 18.6124V22.4654L13.911 21.9758C13.8677 21.9477 13.8172 21.9327 13.7655 21.9327C13.7139 21.9327 13.6633 21.9474 13.6201 21.9756ZM15.195 22.8134V18.2401C15.3141 18.183 15.4445 18.1536 15.5766 18.154H15.8491V23.2409L15.195 22.8134ZM12.6638 12.9668C12.6388 13.0083 12.6256 13.0559 12.6256 13.1044C12.6256 13.1529 12.6388 13.2005 12.6638 13.242C13.3585 14.3959 14.7369 15.2172 16.3392 15.482C15.9969 15.9184 15.5492 16.2606 15.0383 16.4764C14.5274 16.6922 13.9699 16.7746 13.4184 16.7158C12.8669 16.657 12.3394 16.4589 11.8854 16.1402C11.4315 15.8215 11.0661 15.3926 10.8234 14.8938C10.5808 14.3951 10.469 13.8428 10.4985 13.2889C10.5279 12.7351 10.6978 12.1978 10.9919 11.7276C11.2861 11.2574 11.695 10.8697 12.1802 10.601C12.6654 10.3322 13.211 10.1913 13.7657 10.1913C14.4791 10.1892 15.1731 10.4237 15.739 10.858C14.3963 11.2105 13.2691 11.9615 12.6638 12.9668ZM15.6534 11.4343C15.2315 11.8884 14.9971 12.4853 14.9971 13.1052C14.9971 13.7251 15.2315 14.322 15.6534 14.7761C14.6724 14.5126 13.8103 13.923 13.2089 13.1044C13.8105 12.2863 14.6726 11.6973 15.6534 11.4343ZM15.5302 13.1057C15.5296 12.7287 15.6393 12.3597 15.8458 12.0442C16.0522 11.7287 16.3464 11.4805 16.6921 11.33C17.0378 11.1795 17.42 11.1334 17.7916 11.1973C18.1632 11.2612 18.5079 11.4324 18.7835 11.6897C18.732 11.6814 18.6799 11.6761 18.6278 11.674C18.2903 11.6789 17.9684 11.8163 17.7315 12.0567C17.4946 12.297 17.3617 12.6209 17.3617 12.9584C17.3617 13.2959 17.4946 13.6198 17.7315 13.8601C17.9684 14.1005 18.2903 14.2379 18.6278 14.2428C18.7873 14.2421 18.9452 14.2113 19.0934 14.1521C18.8675 14.5042 18.5336 14.7736 18.1417 14.9199C17.7498 15.0662 17.321 15.0816 16.9197 14.9638C16.5183 14.8459 16.166 14.6011 15.9154 14.2662C15.6648 13.9312 15.5299 13.524 15.5302 13.1057ZM19.3792 12.9583C19.3793 13.1069 19.3353 13.2521 19.2528 13.3757C19.1703 13.4993 19.0529 13.5956 18.9157 13.6525C18.7784 13.7094 18.6274 13.7243 18.4816 13.6953C18.3359 13.6664 18.202 13.5949 18.097 13.4898C17.9919 13.3848 17.9203 13.2509 17.8913 13.1052C17.8623 12.9595 17.8771 12.8084 17.934 12.6711C17.9908 12.5338 18.0871 12.4165 18.2107 12.334C18.3342 12.2514 18.4795 12.2073 18.628 12.2073C18.8271 12.2076 19.018 12.2868 19.1588 12.4276C19.2996 12.5683 19.3789 12.7592 19.3792 12.9583ZM21.7259 13.1044C21.1249 13.924 20.2623 14.514 19.2806 14.7769C19.7027 14.3227 19.9374 13.7255 19.9374 13.1053C19.9374 12.4852 19.7027 11.888 19.2806 11.4337C20.2615 11.6963 21.1236 12.2857 21.7243 13.1044H21.7259ZM10.5475 17.011L10.3713 16.4695C10.2782 16.186 10.0986 15.939 9.85768 15.7631L9.39661 15.4268C9.24539 15.3182 9.13279 15.1642 9.07523 14.9871C9.01767 14.8101 9.01816 14.6193 9.07662 14.4425L9.25315 13.9004C9.34542 13.6167 9.34542 13.311 9.25315 13.0273L9.07662 12.4825C9.01848 12.3062 9.01817 12.1158 9.07573 11.9393C9.13329 11.7627 9.24571 11.6092 9.39661 11.5009L9.85955 11.1639C10.0995 10.9879 10.2783 10.7412 10.3707 10.4583L10.5465 9.91535C10.6039 9.73837 10.7159 9.58413 10.8664 9.4748C11.017 9.36546 11.1983 9.30665 11.3843 9.30682H11.955C12.2537 9.30623 12.5446 9.21183 12.7867 9.03695L13.247 8.70176C13.3978 8.59282 13.5791 8.53418 13.7651 8.53418C13.9512 8.53418 14.1325 8.59282 14.2833 8.70176L14.7451 9.03802C14.9873 9.21246 15.2781 9.30648 15.5766 9.30682H16.147C16.3328 9.30675 16.5138 9.36548 16.6642 9.4746C16.8145 9.58372 16.9265 9.73763 16.984 9.91428L17.1606 10.4607C17.1815 10.5228 17.2066 10.5833 17.2358 10.642C16.9535 10.6511 16.672 10.6773 16.3928 10.7207C15.8281 10.1806 15.1106 9.8276 14.3381 9.70984C13.5656 9.59208 12.7756 9.71526 12.0755 10.0626C11.3755 10.4099 10.7996 10.9645 10.4261 11.651C10.0525 12.3374 9.89964 13.1222 9.98815 13.8986C10.0767 14.675 10.4023 15.4053 10.9207 15.99C11.4391 16.5747 12.1251 16.9855 12.8854 17.1664C13.6456 17.3472 14.4431 17.2894 15.1693 17.0008C15.8955 16.7122 16.5151 16.2068 16.9438 15.5535C17.1166 15.5665 17.2904 15.5756 17.4667 15.5756C17.6315 15.5756 17.7947 15.5676 17.9568 15.5561L17.6728 15.7631C17.4322 15.9391 17.2528 16.1863 17.16 16.4697L16.9843 17.0108C16.9273 17.1881 16.8155 17.3427 16.6651 17.4524C16.5146 17.5622 16.3332 17.6214 16.147 17.6214H15.5766C15.291 17.6204 15.0118 17.7066 14.7766 17.8686L14.7793 17.8726C14.7682 17.8792 14.7575 17.8864 14.7473 17.8942L14.7443 17.8913L14.2843 18.2265C14.1336 18.3356 13.9523 18.3943 13.7662 18.3943C13.5801 18.3943 13.3988 18.3356 13.2481 18.2265L12.7785 17.8854L12.7761 17.8892C12.7685 17.8834 12.7606 17.878 12.7523 17.8732L12.7545 17.8686C12.5192 17.7066 12.2401 17.6204 11.9545 17.6214H11.3838C11.1978 17.6211 11.0167 17.5619 10.8664 17.4522C10.7162 17.3426 10.6045 17.1881 10.5475 17.011Z" fill="#767676"/>
<path d="M11.2889 23.9678C11.3311 23.9907 11.3788 24.0017 11.4268 23.9998C11.4748 23.9978 11.5214 23.9829 11.5617 23.9566L13.7659 22.5166L15.9702 23.9566C16.0104 23.9828 16.057 23.9977 16.1049 23.9997C16.1529 24.0016 16.2005 23.9906 16.2427 23.9677C16.285 23.9449 16.3202 23.911 16.3448 23.8698C16.3694 23.8285 16.3824 23.7814 16.3824 23.7334V18.1334C16.6373 18.0903 16.8754 17.9782 17.071 17.8091C17.2665 17.6401 17.412 17.4207 17.4915 17.1748L17.6672 16.6337C17.725 16.457 17.837 16.303 17.9872 16.1935L18.4475 15.858C18.6029 15.7457 18.733 15.6022 18.8296 15.4367C20.3323 15.1327 21.6118 14.338 22.2696 13.2407C22.2945 13.1992 22.3077 13.1517 22.3077 13.1033C22.3077 13.0549 22.2945 13.0075 22.2696 12.966C21.4782 11.6476 19.7896 10.7644 17.8918 10.6487C17.7903 10.5493 17.7134 10.4276 17.6672 10.2932L17.491 9.74815C17.3984 9.46468 17.2186 9.21774 16.9772 9.04268C16.7358 8.86761 16.4452 8.77339 16.147 8.77349H15.5766C15.3903 8.77333 15.2089 8.71476 15.0577 8.60602L14.5966 8.26923C14.3547 8.09422 14.0638 8 13.7653 8C13.4667 8 13.1758 8.09422 12.9339 8.26923L12.4731 8.60576C12.3222 8.71444 12.141 8.7731 11.955 8.77349H11.3843C11.0859 8.77346 10.795 8.86793 10.5536 9.04336C10.3121 9.21878 10.1323 9.46615 10.0401 9.75002L9.86408 10.2937C9.80621 10.4703 9.69426 10.6243 9.54408 10.7337L9.08435 11.0692C8.84189 11.2434 8.66133 11.4904 8.56896 11.7743C8.47659 12.0581 8.47721 12.3641 8.57075 12.6476L8.74675 13.1921C8.80426 13.369 8.80426 13.5595 8.74675 13.7364L8.57102 14.2772C8.47715 14.5611 8.47631 14.8675 8.56864 15.1519C8.66096 15.4364 8.84163 15.6839 9.08435 15.8585L9.54595 16.1945C9.69616 16.3039 9.80812 16.4579 9.86595 16.6345L10.0422 17.1761C10.1218 17.4215 10.267 17.6405 10.4621 17.8092C10.6572 17.978 10.8948 18.0901 11.1491 18.1334V23.7334C11.1492 23.7814 11.1622 23.8286 11.1868 23.8698C11.2113 23.9111 11.2466 23.945 11.2889 23.9678ZM11.6825 18.1545H11.955C12.0872 18.1545 12.2176 18.1848 12.3363 18.243V22.8137L11.6825 23.2404V18.1545ZM13.6201 21.9756L12.871 22.4657V18.6116L12.9363 18.659C13.1782 18.834 13.469 18.9282 13.7675 18.9282C14.066 18.9282 14.3569 18.834 14.5987 18.659L14.663 18.6124V22.4654L13.911 21.9758C13.8677 21.9477 13.8172 21.9327 13.7655 21.9327C13.7139 21.9327 13.6633 21.9474 13.6201 21.9756ZM15.195 22.8134V18.2401C15.3141 18.183 15.4445 18.1536 15.5766 18.154H15.8491V23.2409L15.195 22.8134ZM12.6638 12.9668C12.6388 13.0083 12.6256 13.0559 12.6256 13.1044C12.6256 13.1529 12.6388 13.2005 12.6638 13.242C13.3585 14.3959 14.7369 15.2172 16.3392 15.482C15.9969 15.9184 15.5492 16.2606 15.0383 16.4764C14.5274 16.6922 13.9699 16.7746 13.4184 16.7158C12.8669 16.657 12.3394 16.4589 11.8854 16.1402C11.4315 15.8215 11.0661 15.3926 10.8234 14.8938C10.5808 14.3951 10.469 13.8428 10.4985 13.2889C10.5279 12.7351 10.6978 12.1978 10.9919 11.7276C11.2861 11.2574 11.695 10.8697 12.1802 10.601C12.6654 10.3322 13.211 10.1913 13.7657 10.1913C14.4791 10.1892 15.1731 10.4237 15.739 10.858C14.3963 11.2105 13.2691 11.9615 12.6638 12.9668ZM15.6534 11.4343C15.2315 11.8884 14.9971 12.4853 14.9971 13.1052C14.9971 13.7251 15.2315 14.322 15.6534 14.7761C14.6724 14.5126 13.8103 13.923 13.2089 13.1044C13.8105 12.2863 14.6726 11.6973 15.6534 11.4343ZM15.5302 13.1057C15.5296 12.7287 15.6393 12.3597 15.8458 12.0442C16.0522 11.7287 16.3464 11.4805 16.6921 11.33C17.0378 11.1795 17.42 11.1334 17.7916 11.1973C18.1632 11.2612 18.5079 11.4324 18.7835 11.6897C18.732 11.6814 18.6799 11.6761 18.6278 11.674C18.2903 11.6789 17.9684 11.8163 17.7315 12.0567C17.4946 12.297 17.3617 12.6209 17.3617 12.9584C17.3617 13.2959 17.4946 13.6198 17.7315 13.8601C17.9684 14.1005 18.2903 14.2379 18.6278 14.2428C18.7873 14.2421 18.9452 14.2113 19.0934 14.1521C18.8675 14.5042 18.5336 14.7736 18.1417 14.9199C17.7498 15.0662 17.321 15.0816 16.9197 14.9638C16.5183 14.8459 16.166 14.6011 15.9154 14.2662C15.6648 13.9312 15.5299 13.524 15.5302 13.1057ZM19.3792 12.9583C19.3793 13.1069 19.3353 13.2521 19.2528 13.3757C19.1703 13.4993 19.0529 13.5956 18.9157 13.6525C18.7784 13.7094 18.6274 13.7243 18.4816 13.6953C18.3359 13.6664 18.202 13.5949 18.097 13.4898C17.9919 13.3848 17.9203 13.2509 17.8913 13.1052C17.8623 12.9595 17.8771 12.8084 17.934 12.6711C17.9908 12.5338 18.0871 12.4165 18.2107 12.334C18.3342 12.2514 18.4795 12.2073 18.628 12.2073C18.8271 12.2076 19.018 12.2868 19.1588 12.4276C19.2996 12.5683 19.3789 12.7592 19.3792 12.9583ZM21.7259 13.1044C21.1249 13.924 20.2623 14.514 19.2806 14.7769C19.7027 14.3227 19.9374 13.7255 19.9374 13.1053C19.9374 12.4852 19.7027 11.888 19.2806 11.4337C20.2615 11.6963 21.1236 12.2857 21.7243 13.1044H21.7259ZM10.5475 17.011L10.3713 16.4695C10.2782 16.186 10.0986 15.939 9.85768 15.7631L9.39661 15.4268C9.24539 15.3182 9.13279 15.1642 9.07523 14.9871C9.01767 14.8101 9.01816 14.6193 9.07662 14.4425L9.25315 13.9004C9.34542 13.6167 9.34542 13.311 9.25315 13.0273L9.07662 12.4825C9.01848 12.3062 9.01817 12.1158 9.07573 11.9393C9.13329 11.7627 9.24571 11.6092 9.39661 11.5009L9.85955 11.1639C10.0995 10.9879 10.2783 10.7412 10.3707 10.4583L10.5465 9.91535C10.6039 9.73837 10.7159 9.58413 10.8664 9.4748C11.017 9.36546 11.1983 9.30665 11.3843 9.30682H11.955C12.2537 9.30623 12.5446 9.21183 12.7867 9.03695L13.247 8.70176C13.3978 8.59282 13.5791 8.53418 13.7651 8.53418C13.9512 8.53418 14.1325 8.59282 14.2833 8.70176L14.7451 9.03802C14.9873 9.21246 15.2781 9.30648 15.5766 9.30682H16.147C16.3328 9.30675 16.5138 9.36548 16.6642 9.4746C16.8145 9.58372 16.9265 9.73763 16.984 9.91428L17.1606 10.4607C17.1815 10.5228 17.2066 10.5833 17.2358 10.642C16.9535 10.6511 16.672 10.6773 16.3928 10.7207C15.8281 10.1806 15.1106 9.8276 14.3381 9.70984C13.5656 9.59208 12.7756 9.71526 12.0755 10.0626C11.3755 10.4099 10.7996 10.9645 10.4261 11.651C10.0525 12.3374 9.89964 13.1222 9.98815 13.8986C10.0767 14.675 10.4023 15.4053 10.9207 15.99C11.4391 16.5747 12.1251 16.9855 12.8854 17.1664C13.6456 17.3472 14.4431 17.2894 15.1693 17.0008C15.8955 16.7122 16.5151 16.2068 16.9438 15.5535C17.1166 15.5665 17.2904 15.5756 17.4667 15.5756C17.6315 15.5756 17.7947 15.5676 17.9568 15.5561L17.6728 15.7631C17.4322 15.9391 17.2528 16.1863 17.16 16.4697L16.9843 17.0108C16.9273 17.1881 16.8155 17.3427 16.6651 17.4524C16.5146 17.5622 16.3332 17.6214 16.147 17.6214H15.5766C15.291 17.6204 15.0118 17.7066 14.7766 17.8686L14.7793 17.8726C14.7682 17.8792 14.7575 17.8864 14.7473 17.8942L14.7443 17.8913L14.2843 18.2265C14.1336 18.3356 13.9523 18.3943 13.7662 18.3943C13.5801 18.3943 13.3988 18.3356 13.2481 18.2265L12.7785 17.8854L12.7761 17.8892C12.7685 17.8834 12.7606 17.878 12.7523 17.8732L12.7545 17.8686C12.5192 17.7066 12.2401 17.6204 11.9545 17.6214H11.3838C11.1978 17.6211 11.0167 17.5619 10.8664 17.4522C10.7162 17.3426 10.6045 17.1881 10.5475 17.011Z" stroke="#767676" stroke-width="0.02" mask="url(#path-2-outside-1_3133_55563)"/>
</svg>
