<svg width="24" height="24" viewBox="0 0 24 24" fill="none" xmlns="http://www.w3.org/2000/svg">
<g id="nav icons" clip-path="url(#clip0_3233_109507)">
<g id="Vector">
<path d="M5.17525 7.52659H17.8829C18.1417 7.52659 18.3516 7.31669 18.3516 7.05785V4.23393C18.3516 3.97509 18.1417 3.76519 17.8829 3.76519H5.17525C4.91642 3.76519 4.70651 3.97509 4.70651 4.23393V7.05785C4.70651 7.31673 4.91642 7.52659 5.17525 7.52659ZM5.64399 4.70267H17.4141V6.58911H5.64399V4.70267Z" fill="white"/>
<path d="M18.3516 8.94045C18.3516 8.68156 18.1417 8.47171 17.8829 8.47171H5.17525C4.91642 8.47171 4.70651 8.68156 4.70651 8.94045C4.70651 9.19928 4.91642 9.40919 5.17525 9.40919H17.8829C18.1417 9.40919 18.3516 9.19933 18.3516 8.94045Z" fill="white"/>
<path d="M23.2303 14.8407C23.1488 14.6441 23.1178 14.3639 23.0581 14.0739V0.468739C23.0581 0.209854 22.8482 0 22.5894 0H0.468739C0.209854 0 0 0.209854 0 0.468739V16.9416C0 17.2004 0.209854 17.4103 0.468739 17.4103H14.914C14.972 17.5 15.0327 17.5858 15.0915 17.6689C15.3747 18.0695 15.3947 18.1139 15.4854 18.6223C15.5558 19.0173 15.6355 19.465 15.9682 19.7976C16.2987 20.1282 16.7306 20.2065 17.1788 20.2867V23.5307C17.1788 23.8898 17.5676 24.1162 17.8801 23.9377L19.2948 23.1294L20.7098 23.9377C21.0214 24.1159 21.4111 23.8907 21.4111 23.5307V20.2867C21.8547 20.2073 22.2903 20.1288 22.6215 19.7976C23.1214 19.2977 23.0528 18.5292 23.2303 18.1012C23.3995 17.6931 23.9994 17.2001 23.9994 16.471C23.9994 15.7418 23.399 15.2474 23.2303 14.8407ZM0.937478 16.4728V0.937478H22.1206V12.8279C21.8025 12.7052 21.4615 12.6727 21.1755 12.6095V3.76332C21.1755 3.50448 20.9656 3.29458 20.7068 3.29458C20.1867 3.29458 19.7636 2.87145 19.7636 2.35134C19.7636 2.09245 19.5537 1.8826 19.2948 1.8826H3.76332C3.50448 1.8826 3.29458 2.09245 3.29458 2.35134C3.29458 2.87145 2.87145 3.29458 2.35134 3.29458C2.0925 3.29458 1.8826 3.50448 1.8826 3.76332V13.647C1.8826 13.9058 2.0925 14.1157 2.35134 14.1157C2.87145 14.1157 3.29458 14.5389 3.29458 15.059C3.29458 15.3178 3.50448 15.5277 3.76332 15.5277H14.9165C14.7251 15.8229 14.5903 16.1195 14.5903 16.4728H0.937478ZM15.9682 13.1442C15.5566 13.5558 15.5322 14.1434 15.4334 14.5903H4.1729C4.0027 13.9292 3.48114 13.4076 2.82007 13.2374V4.1729C3.48118 4.00275 4.00275 3.48118 4.1729 2.82007H18.8852C19.0554 3.48118 19.577 4.0027 20.238 4.1729V12.0926C19.968 11.9175 19.6634 11.7663 19.2948 11.7663C18.5656 11.7663 18.0712 12.3667 17.6646 12.5354C17.2364 12.713 16.4682 12.6442 15.9682 13.1442ZM19.5272 22.1825C19.3832 22.1002 19.2063 22.1002 19.0621 22.1825L18.1163 22.723V20.688C18.4438 20.9195 18.8151 21.1755 19.2948 21.1755C19.7746 21.1755 20.146 20.9194 20.4736 20.6878V22.7231L19.5272 22.1825ZM22.3643 17.7421C22.15 18.2589 22.1819 18.9114 21.9586 19.1347C21.7596 19.3337 21.1559 19.3457 20.7984 19.4609C20.1049 19.6574 19.6771 20.238 19.2948 20.238C18.956 20.238 18.5323 19.7513 18.0237 19.5404C17.5094 19.3271 16.8538 19.3575 16.6311 19.1347C16.4095 18.9131 16.4372 18.2529 16.2254 17.7421C16.0147 17.2342 15.5277 16.8095 15.5277 16.4709C15.5277 16.1357 16.0293 15.6771 16.2093 15.2358C16.4401 14.714 16.4043 14.034 16.6311 13.8072C16.8527 13.5856 17.5129 13.6133 18.0237 13.4014C18.5315 13.1908 18.9563 12.7038 19.2948 12.7038C19.6302 12.7038 20.0883 13.2054 20.53 13.3854C21.0519 13.6161 21.7318 13.5804 21.9586 13.8072C22.1829 14.0315 22.1481 14.6784 22.3643 15.1998C22.5749 15.7076 23.062 16.1324 23.062 16.4709C23.062 16.8097 22.5752 17.2335 22.3643 17.7421Z" fill="white"/>
<path d="M19.2948 14.1196C17.9983 14.1196 16.9435 15.1744 16.9435 16.4709C16.9435 17.7675 17.9983 18.8223 19.2948 18.8223C20.5914 18.8223 21.6462 17.7675 21.6462 16.4709C21.6462 15.1744 20.5914 14.1196 19.2948 14.1196ZM19.2948 17.8848C18.5152 17.8848 17.881 17.2505 17.881 16.4709C17.881 15.6913 18.5152 15.0571 19.2948 15.0571C20.0744 15.0571 20.7087 15.6913 20.7087 16.4709C20.7087 17.2505 20.0744 17.8848 19.2948 17.8848Z" fill="white"/>
<path d="M10.8231 12.7076C10.5339 12.6583 9.35434 12.9522 8.63188 11.8685L8.38916 11.5044C8.2746 11.3325 8.0609 11.2559 7.86333 11.3158C7.66562 11.3756 7.53039 11.5579 7.53039 11.7644V12.4005C7.53039 12.5698 7.39262 12.7076 7.22322 12.7076C7.07735 12.7076 6.95065 12.6038 6.92201 12.4607L6.57613 10.7312C6.53047 10.5028 6.32634 10.3498 6.11029 10.3544C5.8845 10.3574 5.69298 10.521 5.65459 10.7435C5.44168 11.9782 4.7997 12.8955 4.79323 12.9047C4.64342 13.1152 4.69236 13.4075 4.90273 13.5578C5.11286 13.7079 5.40578 13.66 5.55657 13.4488C5.57279 13.4262 5.77744 13.1363 6.00623 12.6614C6.12862 13.2325 6.63772 13.6451 7.22322 13.6451C7.71347 13.6451 8.13839 13.3602 8.34121 12.9472C9.37956 13.8572 10.5047 13.6043 10.823 13.6451C11.0819 13.6451 11.2918 13.4352 11.2918 13.1763C11.2918 12.9175 11.082 12.7076 10.8231 12.7076Z" fill="#04D9FF"/>
</g>
</g>
<defs>
<clipPath id="clip0_3233_109507">
<rect width="24" height="24" fill="white"/>
</clipPath>
</defs>
</svg>
