<svg width="18" height="19" viewBox="0 0 18 19" fill="none" xmlns="http://www.w3.org/2000/svg">
<g id="ph:city">
<path id="Vector" d="M16.875 15.125H16.3125V6.6875C16.3125 6.53832 16.2532 6.39524 16.1477 6.28975C16.0423 6.18426 15.8992 6.125 15.75 6.125H11.25C11.1008 6.125 10.9577 6.18426 10.8523 6.28975C10.7468 6.39524 10.6875 6.53832 10.6875 6.6875V9.5H7.3125V3.3125C7.3125 3.16332 7.25324 3.02024 7.14775 2.91475C7.04226 2.80926 6.89918 2.75 6.75 2.75H2.25C2.10082 2.75 1.95774 2.80926 1.85225 2.91475C1.74676 3.02024 1.6875 3.16332 1.6875 3.3125V15.125H1.125C0.975816 15.125 0.832742 15.1843 0.727252 15.2898C0.621763 15.3952 0.5625 15.5383 0.5625 15.6875C0.5625 15.8367 0.621763 15.9798 0.727252 16.0852C0.832742 16.1907 0.975816 16.25 1.125 16.25H16.875C17.0242 16.25 17.1673 16.1907 17.2727 16.0852C17.3782 15.9798 17.4375 15.8367 17.4375 15.6875C17.4375 15.5383 17.3782 15.3952 17.2727 15.2898C17.1673 15.1843 17.0242 15.125 16.875 15.125ZM11.8125 7.25H15.1875V15.125H11.8125V7.25ZM10.6875 10.625V15.125H7.3125V10.625H10.6875ZM2.8125 3.875H6.1875V15.125H2.8125V3.875ZM5.0625 5.5625V6.6875C5.0625 6.83668 5.00324 6.97976 4.89775 7.08525C4.79226 7.19074 4.64918 7.25 4.5 7.25C4.35082 7.25 4.20774 7.19074 4.10225 7.08525C3.99676 6.97976 3.9375 6.83668 3.9375 6.6875V5.5625C3.9375 5.41332 3.99676 5.27024 4.10225 5.16475C4.20774 5.05926 4.35082 5 4.5 5C4.64918 5 4.79226 5.05926 4.89775 5.16475C5.00324 5.27024 5.0625 5.41332 5.0625 5.5625ZM5.0625 8.9375V10.0625C5.0625 10.2117 5.00324 10.3548 4.89775 10.4602C4.79226 10.5657 4.64918 10.625 4.5 10.625C4.35082 10.625 4.20774 10.5657 4.10225 10.4602C3.99676 10.3548 3.9375 10.2117 3.9375 10.0625V8.9375C3.9375 8.78832 3.99676 8.64524 4.10225 8.53975C4.20774 8.43426 4.35082 8.375 4.5 8.375C4.64918 8.375 4.79226 8.43426 4.89775 8.53975C5.00324 8.64524 5.0625 8.78832 5.0625 8.9375ZM5.0625 12.3125V13.4375C5.0625 13.5867 5.00324 13.7298 4.89775 13.8352C4.79226 13.9407 4.64918 14 4.5 14C4.35082 14 4.20774 13.9407 4.10225 13.8352C3.99676 13.7298 3.9375 13.5867 3.9375 13.4375V12.3125C3.9375 12.1633 3.99676 12.0202 4.10225 11.9148C4.20774 11.8093 4.35082 11.75 4.5 11.75C4.64918 11.75 4.79226 11.8093 4.89775 11.9148C5.00324 12.0202 5.0625 12.1633 5.0625 12.3125ZM8.4375 13.4375V12.3125C8.4375 12.1633 8.49676 12.0202 8.60225 11.9148C8.70774 11.8093 8.85082 11.75 9 11.75C9.14918 11.75 9.29226 11.8093 9.39775 11.9148C9.50324 12.0202 9.5625 12.1633 9.5625 12.3125V13.4375C9.5625 13.5867 9.50324 13.7298 9.39775 13.8352C9.29226 13.9407 9.14918 14 9 14C8.85082 14 8.70774 13.9407 8.60225 13.8352C8.49676 13.7298 8.4375 13.5867 8.4375 13.4375ZM12.9375 13.4375V12.3125C12.9375 12.1633 12.9968 12.0202 13.1023 11.9148C13.2077 11.8093 13.3508 11.75 13.5 11.75C13.6492 11.75 13.7923 11.8093 13.8977 11.9148C14.0032 12.0202 14.0625 12.1633 14.0625 12.3125V13.4375C14.0625 13.5867 14.0032 13.7298 13.8977 13.8352C13.7923 13.9407 13.6492 14 13.5 14C13.3508 14 13.2077 13.9407 13.1023 13.8352C12.9968 13.7298 12.9375 13.5867 12.9375 13.4375ZM12.9375 10.0625V8.9375C12.9375 8.78832 12.9968 8.64524 13.1023 8.53975C13.2077 8.43426 13.3508 8.375 13.5 8.375C13.6492 8.375 13.7923 8.43426 13.8977 8.53975C14.0032 8.64524 14.0625 8.78832 14.0625 8.9375V10.0625C14.0625 10.2117 14.0032 10.3548 13.8977 10.4602C13.7923 10.5657 13.6492 10.625 13.5 10.625C13.3508 10.625 13.2077 10.5657 13.1023 10.4602C12.9968 10.3548 12.9375 10.2117 12.9375 10.0625Z" fill="#161D26" stroke="white" stroke-width="0.2"/>
</g>
</svg>
