<svg width="17" height="18" viewBox="0 0 17 18" fill="none" xmlns="http://www.w3.org/2000/svg">
<g clip-path="url(#clip0_107_18083)">
<path fill-rule="evenodd" clip-rule="evenodd" d="M10.75 17.4375H4C1.82538 17.4375 0.0625 15.6746 0.0625 13.5V4.5C0.0625 2.32538 1.82538 0.5625 4 0.5625H10.1892C10.4997 0.5625 10.7517 0.8145 10.7517 1.125C10.7517 1.4355 10.4997 1.6875 10.1892 1.6875H4C2.44694 1.6875 1.1875 2.94694 1.1875 4.5V13.5C1.1875 15.0531 2.44694 16.3125 4 16.3125H10.75C10.9076 16.3125 11.0636 16.3053 11.2175 16.2912V14.1185C11.2175 12.7944 12.2942 11.7178 13.6183 11.7178H15.7912C15.8053 11.5637 15.8125 11.4077 15.8125 11.25V7.31138C15.8125 7.00087 16.0645 6.74888 16.375 6.74888C16.6855 6.74888 16.9375 7.00087 16.9375 7.31138V11.25C16.9375 14.6672 14.1672 17.4375 10.75 17.4375ZM15.5569 12.8428C15.0553 14.3577 13.8575 15.5554 12.3425 16.057V14.1185C12.3425 13.4154 12.9152 12.8428 13.6183 12.8428H15.5569Z" fill="#A6A6A6"/>
<path fill-rule="evenodd" clip-rule="evenodd" d="M3.99707 11.9686C3.99707 12.877 4.7362 13.615 5.64407 13.615C6.62001 13.615 7.57513 13.2196 8.26532 12.5289L16.0942 4.70054C16.9711 3.8236 16.9711 2.39598 16.0942 1.51848C15.2167 0.640977 13.7902 0.640977 12.9121 1.51848L5.08382 9.34679C4.38407 10.0465 3.99707 10.9775 3.99707 11.9686ZM13.7075 2.31329C13.9269 2.09448 14.2149 1.98479 14.5034 1.98479C14.7914 1.98479 15.0794 2.09391 15.2988 2.31329C15.737 2.75204 15.737 3.46585 15.2988 3.9046L7.46994 11.7324C6.98957 12.2139 6.32357 12.4895 5.64407 12.4895C5.35607 12.4895 5.12207 12.2555 5.12207 11.9686C5.12263 11.2784 5.39151 10.6293 5.8792 10.1416L13.7075 2.31329Z" fill="#A6A6A6"/>
</g>
<defs>
<clipPath id="clip0_107_18083">
<rect width="17" height="17" fill="white" transform="translate(0 0.5)"/>
</clipPath>
</defs>
</svg>
