<svg xmlns="http://www.w3.org/2000/svg" width="24" height="24" viewBox="0 0 24 24" fill="none">
  <g clip-path="url(#clip0_84_3912)">
    <path d="M10.4547 16.9238L10.2677 18.225C10.2577 18.2947 10.2669 18.3659 10.2944 18.4308C10.3218 18.4957 10.3665 18.5519 10.4235 18.5933C10.4806 18.6347 10.5478 18.6598 10.6181 18.6657C10.6883 18.6717 10.7588 18.6584 10.8221 18.6272L12.0005 18.0466L13.1776 18.6272C13.2409 18.6585 13.3114 18.6719 13.3817 18.6659C13.452 18.66 13.5193 18.635 13.5764 18.5936C13.6335 18.5521 13.6782 18.4959 13.7056 18.431C13.7331 18.366 13.7423 18.2948 13.7323 18.225L13.5453 16.9238L14.4605 15.9823C14.5097 15.9317 14.5441 15.8687 14.56 15.8001C14.576 15.7314 14.5729 15.6597 14.5511 15.5927C14.5293 15.5257 14.4896 15.4659 14.4363 15.4197C14.383 15.3736 14.3181 15.3429 14.2486 15.331L12.9552 15.1084L12.3432 13.9467C12.3103 13.8843 12.2611 13.8321 12.2008 13.7957C12.1404 13.7592 12.0713 13.74 12.0008 13.74C11.9304 13.7399 11.8613 13.7592 11.8009 13.7955C11.7406 13.8319 11.6913 13.8841 11.6584 13.9464L11.0451 15.1084L9.7515 15.331C9.68204 15.3429 9.61716 15.3736 9.56387 15.4197C9.51058 15.4659 9.47089 15.5257 9.44908 15.5927C9.42728 15.6597 9.42418 15.7314 9.44014 15.8001C9.45609 15.8687 9.49049 15.9317 9.53961 15.9823L10.4547 16.9238ZM11.364 15.8387C11.4225 15.8286 11.4778 15.8053 11.5258 15.7705C11.5737 15.7357 11.6131 15.6903 11.6407 15.6379L12.0003 14.9566L12.3591 15.6376C12.3867 15.6901 12.4261 15.7355 12.4741 15.7704C12.5221 15.8053 12.5774 15.8286 12.6359 15.8387L13.3935 15.9693L12.8575 16.521C12.8162 16.5634 12.7852 16.6148 12.7669 16.6711C12.7486 16.7274 12.7434 16.7872 12.7518 16.8458L12.8613 17.6081L12.172 17.268C12.1187 17.2417 12.0601 17.228 12.0007 17.228C11.9414 17.228 11.8828 17.2417 11.8295 17.268L11.1387 17.6081L11.2483 16.8454C11.2567 16.7868 11.2516 16.727 11.2333 16.6707C11.215 16.6144 11.184 16.563 11.1427 16.5206L10.6066 15.969L11.364 15.8387ZM5.27937 0.793548C5.19117 0.741827 5.12702 0.657312 5.10092 0.558456C5.07482 0.4596 5.08888 0.354431 5.14005 0.265911C5.19122 0.177392 5.27533 0.112711 5.37402 0.0859895C5.47271 0.0592685 5.57797 0.072678 5.66681 0.12329L6.97674 0.880645C7.02075 0.906088 7.05933 0.93995 7.09025 0.980299C7.12118 1.02065 7.14385 1.06669 7.15698 1.11581C7.17012 1.16492 7.17345 1.21614 7.16678 1.26653C7.16012 1.31693 7.1436 1.36553 7.11815 1.40954C7.09271 1.45355 7.05885 1.49212 7.0185 1.52305C6.97815 1.55398 6.93211 1.57665 6.88299 1.58978C6.83388 1.60291 6.78266 1.60624 6.73226 1.59958C6.68186 1.59292 6.63327 1.57639 6.58926 1.55095L5.27937 0.793548ZM5.27937 5.85929L6.58931 5.10353C6.63334 5.07811 6.68195 5.06162 6.73235 5.05499C6.78276 5.04836 6.83398 5.05172 6.88309 5.06488C6.9322 5.07804 6.97823 5.10075 7.01856 5.1317C7.0589 5.16266 7.09274 5.20125 7.11815 5.24528C7.14357 5.28931 7.16007 5.33792 7.1667 5.38833C7.17333 5.43874 7.16997 5.48995 7.15681 5.53906C7.14364 5.58817 7.12094 5.63421 7.08998 5.67454C7.05903 5.71487 7.02043 5.74871 6.9764 5.77413L5.66647 6.52989C5.57754 6.58122 5.47186 6.59512 5.37269 6.56854C5.27351 6.54196 5.18895 6.47706 5.13762 6.38814C5.08629 6.29921 5.07238 6.19353 5.09897 6.09436C5.12555 5.99518 5.19044 5.91062 5.27937 5.85929ZM16.89 1.40927C16.8646 1.36526 16.8481 1.31667 16.8414 1.26627C16.8348 1.21587 16.8381 1.16466 16.8512 1.11555C16.8644 1.06643 16.887 1.02039 16.918 0.980046C16.9489 0.9397 16.9875 0.905841 17.0315 0.880403L18.3415 0.12329C18.3855 0.0965427 18.4345 0.0788645 18.4855 0.0712933C18.5365 0.063722 18.5884 0.06641 18.6384 0.0791997C18.6883 0.0919893 18.7352 0.114623 18.7763 0.145773C18.8173 0.176922 18.8518 0.215961 18.8775 0.260597C18.9033 0.305233 18.9199 0.354569 18.9264 0.405709C18.9328 0.456848 18.929 0.508763 18.9151 0.558405C18.9013 0.608048 18.8776 0.654419 18.8456 0.694798C18.8135 0.735177 18.7738 0.76875 18.7286 0.793548L17.4189 1.55071C17.33 1.60208 17.2243 1.61603 17.1252 1.58951C17.026 1.56298 16.9414 1.49815 16.89 1.40927ZM16.89 5.24535C16.9414 5.15644 17.0259 5.09154 17.125 5.06495C17.2242 5.03835 17.3299 5.05223 17.4188 5.10353L18.7288 5.85929C18.8177 5.91062 18.8826 5.99518 18.9092 6.09436C18.9357 6.19353 18.9218 6.29921 18.8705 6.38814C18.8192 6.47706 18.7346 6.54196 18.6354 6.56854C18.5363 6.59512 18.4306 6.58122 18.3417 6.52989L17.0317 5.77413C16.9876 5.74872 16.949 5.71488 16.918 5.67454C16.8871 5.63419 16.8643 5.58815 16.8512 5.53902C16.838 5.4899 16.8347 5.43866 16.8413 5.38824C16.8479 5.33782 16.8645 5.2892 16.8899 5.24516L16.89 5.24535ZM0.387097 24H23.6129C23.7156 24 23.814 23.9592 23.8866 23.8866C23.9592 23.814 24 23.7156 24 23.6129V22.3154C24 22.2127 23.9592 22.1142 23.8866 22.0416C23.814 21.969 23.7156 21.9283 23.6129 21.9283H22.339V13.6604C22.339 13.5577 22.2982 13.4592 22.2256 13.3866C22.153 13.314 22.0545 13.2733 21.9519 13.2733H16.3244V10.0914C16.3244 9.98871 16.2836 9.89025 16.211 9.81765C16.1384 9.74506 16.0399 9.70427 15.9373 9.70427H14.9829V9.17235C14.9827 9.0184 14.9215 8.87078 14.8127 8.76192C14.7038 8.65305 14.5562 8.59184 14.4022 8.59171H14.2928V8.50834C14.2926 8.28098 14.2021 8.063 14.0414 7.90223C13.8806 7.74146 13.6626 7.65103 13.4353 7.65077H13.3482C13.1993 7.35837 13.0954 7.04516 13.04 6.72174C13.4938 6.54015 13.8923 6.24313 14.1959 5.86011C15.6524 5.65103 16.5783 4.7851 16.8102 3.40495C16.8417 3.22932 16.8334 3.04888 16.7859 2.87689C16.7384 2.70489 16.653 2.54572 16.536 2.41108C16.4217 2.274 16.2786 2.16394 16.1167 2.0888C15.9549 2.01366 15.7784 1.97531 15.6 1.97652H15.0592L15.0783 1.78253C15.196 1.74582 15.2989 1.67249 15.372 1.57321C15.4451 1.47394 15.4846 1.35392 15.4847 1.23063V0.566758C15.4846 0.416521 15.4248 0.272482 15.3186 0.166235C15.2124 0.0599872 15.0684 0.000204905 14.9181 0H9.09005C8.93979 0.000166496 8.79572 0.0599318 8.68947 0.166183C8.58322 0.272435 8.52346 0.416496 8.52329 0.566758V1.23063C8.52343 1.35392 8.56294 1.47394 8.63605 1.57321C8.70916 1.67248 8.81205 1.74581 8.92974 1.78253L8.94881 1.97652H8.4C8.2217 1.97675 8.04559 2.01579 7.8839 2.09092C7.72221 2.16606 7.5788 2.27549 7.46365 2.41161C7.3485 2.54773 7.26435 2.70729 7.21706 2.8792C7.16977 3.05111 7.16046 3.23126 7.18979 3.40713C7.42205 4.78853 8.35137 5.65539 9.81368 5.8619C10.1173 6.2442 10.5154 6.54063 10.9687 6.72189C10.9128 7.04528 10.8087 7.35845 10.6598 7.65092H10.5727C10.3453 7.65116 10.1273 7.74159 9.96654 7.90236C9.80576 8.06313 9.71532 8.28111 9.71506 8.50848V8.59186H9.60581C9.45185 8.592 9.30424 8.65322 9.19538 8.76208C9.08652 8.87094 9.0253 9.01855 9.02516 9.1725V9.70442H8.06274C7.96008 9.70442 7.86162 9.7452 7.78902 9.8178C7.71643 9.89039 7.67565 9.98885 7.67565 10.0915V13.2734H2.04813C1.94546 13.2734 1.84701 13.3142 1.77441 13.3868C1.70182 13.4594 1.66103 13.5578 1.66103 13.6605V21.9284H0.387097C0.284432 21.9284 0.185973 21.9692 0.113378 22.0418C0.0407833 22.1144 0 22.2128 0 22.3155V23.6129C0 23.7156 0.0407833 23.814 0.113378 23.8866C0.185973 23.9592 0.284432 24 0.387097 24ZM21.5648 14.0475V21.9283H16.3244V14.0475H21.5648ZM15.6 2.75071C15.6658 2.75092 15.7307 2.76541 15.7903 2.79319C15.85 2.82096 15.9029 2.86136 15.9453 2.91158C15.9878 2.9618 16.0189 3.02064 16.0364 3.08405C16.0539 3.14746 16.0574 3.21391 16.0467 3.27881C15.8845 4.24384 15.3101 4.7189 14.6924 4.94453C14.7638 4.73006 14.811 4.50826 14.8331 4.28327L14.9835 2.75071H15.6ZM9.29748 0.774194H14.7107V1.03423H9.29748V0.774194ZM7.95373 3.28065C7.94127 3.21538 7.94395 3.14813 7.96157 3.08406C7.97919 3.02 8.01126 2.96083 8.05534 2.91111C8.09657 2.8596 8.14914 2.81832 8.20897 2.79049C8.26879 2.76267 8.33424 2.74905 8.40019 2.75071H9.02502L9.17535 4.28323C9.19756 4.50948 9.24518 4.73252 9.31732 4.94811C8.69598 4.72403 8.11655 4.24931 7.95373 3.28065ZM11.486 6.07742C10.6404 5.86147 10.0358 5.12763 9.94573 4.20774L9.71032 1.80847H14.2977L14.0623 4.20784C13.9723 5.12753 13.3681 5.86142 12.5233 6.07747C12.4355 6.09989 12.3585 6.15235 12.3054 6.22573C12.2524 6.2991 12.2267 6.38875 12.2329 6.47908C12.2616 6.88123 12.3521 7.27655 12.5012 7.65111H11.5069C11.6559 7.27682 11.7468 6.88193 11.7764 6.48014C11.7829 6.38963 11.7574 6.29972 11.7043 6.22611C11.6512 6.1525 11.574 6.09987 11.4861 6.07742H11.486ZM10.4892 8.50858C10.4898 8.48664 10.4987 8.46575 10.5143 8.45024C10.5298 8.43472 10.5507 8.42576 10.5726 8.42521H13.4352C13.4571 8.42576 13.478 8.43472 13.4936 8.45024C13.5091 8.46576 13.518 8.48664 13.5186 8.50858V8.59195H10.4894L10.4892 8.50858ZM9.79931 9.36615H14.2085V9.70432H9.7995L9.79931 9.36615ZM8.44984 10.4785H15.5502V21.9283H8.44984V10.4785ZM2.43532 14.0475H7.67565V21.9283H2.43523L2.43532 14.0475ZM0.774194 22.7024H23.2258V23.2258H0.774194V22.7024Z" fill="white"/>
  </g>
  <defs>
    <clipPath id="clip0_84_3912">
      <rect width="24" height="24" fill="white"/>
    </clipPath>
  </defs>
</svg>