<svg width="17" height="16" viewBox="0 0 17 16" fill="none" xmlns="http://www.w3.org/2000/svg">
<path d="M9.73077 8H3.57692C3.23723 8 2.96154 7.72431 2.96154 7.38462C2.96154 7.04492 3.23723 6.76923 3.57692 6.76923H9.73077C10.0705 6.76923 10.3462 7.04492 10.3462 7.38462C10.3462 7.72431 10.0705 8 9.73077 8Z" fill="#A6A6A6"/>
<path d="M3.57692 10.4615H9.73077C10.0705 10.4615 10.3462 10.1858 10.3462 9.84615C10.3462 9.50646 10.0705 9.23077 9.73077 9.23077H3.57692C3.23723 9.23077 2.96154 9.50646 2.96154 9.84615C2.96154 10.1858 3.23723 10.4615 3.57692 10.4615Z" fill="#A6A6A6"/>
<path d="M9.73077 12.9231H3.57692C3.23723 12.9231 2.96154 12.6474 2.96154 12.3077C2.96154 11.968 3.23723 11.6923 3.57692 11.6923H9.73077C10.0705 11.6923 10.3462 11.968 10.3462 12.3077C10.3462 12.6474 10.0705 12.9231 9.73077 12.9231Z" fill="#A6A6A6"/>
<path fill-rule="evenodd" clip-rule="evenodd" d="M3.57692 3.69231H4.19231V3.07692C4.19231 2.26092 4.51662 1.47815 5.09323 0.900923C5.67046 0.324308 6.45323 0 7.26923 0H13.4231C14.2391 0 15.0218 0.324308 15.5991 0.900923C16.1757 1.47815 16.5 2.26092 16.5 3.07692V9.23077C16.5 10.0468 16.1757 10.8295 15.5991 11.4068C15.0218 11.9834 14.2391 12.3077 13.4231 12.3077H12.8077V12.9231C12.8077 13.7391 12.4834 14.5218 11.9068 15.0991C11.3295 15.6757 10.5468 16 9.73077 16H3.57692C2.76092 16 1.97815 15.6757 1.40092 15.0991C0.824308 14.5218 0.5 13.7391 0.5 12.9231V6.76923C0.5 5.95323 0.824308 5.17046 1.40092 4.59323C1.97815 4.01662 2.76092 3.69231 3.57692 3.69231ZM9.73077 4.92308H3.57692C3.08708 4.92308 2.61754 5.11754 2.27169 5.464C1.92523 5.80985 1.73077 6.27938 1.73077 6.76923V12.9231C1.73077 13.4129 1.92523 13.8825 2.27169 14.2283C2.61754 14.5748 3.08708 14.7692 3.57692 14.7692H9.73077C10.2206 14.7692 10.6902 14.5748 11.036 14.2283C11.3825 13.8825 11.5769 13.4129 11.5769 12.9231V6.76923C11.5769 6.27938 11.3825 5.80985 11.036 5.464C10.6902 5.11754 10.2206 4.92308 9.73077 4.92308ZM13.4231 11.0769H12.8077V6.76923C12.8077 5.95323 12.4834 5.17046 11.9068 4.59323C11.3295 4.01662 10.5468 3.69231 9.73077 3.69231H5.42308V3.07692C5.42308 2.58708 5.61754 2.11754 5.964 1.77169C6.30985 1.42523 6.77938 1.23077 7.26923 1.23077H13.4231C13.9129 1.23077 14.3825 1.42523 14.7283 1.77169C15.0748 2.11754 15.2692 2.58708 15.2692 3.07692V9.23077C15.2692 9.72062 15.0748 10.1902 14.7283 10.536C14.3825 10.8825 13.9129 11.0769 13.4231 11.0769Z" fill="#A6A6A6"/>
</svg>
