<svg xmlns="http://www.w3.org/2000/svg" width="24" height="24" viewBox="0 0 24 24" fill="none">
  <path d="M22.687 5.17901C22.5667 5.03143 19.6883 1.55431 15.0174 0.377809C13.0147 -0.125936 10.9858 -0.125936 8.98277 0.377809C4.31195 1.55401 1.43381 5.03143 1.31346 5.17901C1.16244 5.36409 1.16244 5.63277 1.31346 5.81785C1.41482 5.94192 3.46747 8.42167 6.89682 9.90643C5.88963 10.7818 5.09977 11.9205 4.62772 13.2398C4.62159 13.2574 4.61575 13.2749 4.60961 13.2922C4.57836 13.3806 4.54885 13.4698 4.52052 13.5597C4.50241 13.6177 4.48488 13.6763 4.46823 13.7353C4.45392 13.7849 4.4399 13.8343 4.42675 13.8843C4.40601 13.9617 4.38615 14.039 4.36775 14.1173C4.36453 14.1307 4.36074 14.1441 4.35752 14.1575C4.35694 14.1604 4.35723 14.1634 4.35665 14.1664C4.22052 14.7555 4.14604 15.3685 4.14604 15.9996C4.14604 19.172 5.9685 21.9193 8.60274 23.2121C8.60945 23.216 8.61559 23.2204 8.6226 23.224C8.83934 23.3293 9.06281 23.4242 9.29007 23.509C9.32746 23.523 9.36543 23.5355 9.40341 23.5489C9.47731 23.5754 9.55121 23.6016 9.62599 23.6257C9.68967 23.6462 9.75393 23.6647 9.8182 23.6837C9.85734 23.6953 9.8959 23.7081 9.93504 23.7188C9.93796 23.7197 9.94088 23.7194 9.9441 23.72C10.5999 23.9012 11.289 24 12.0005 24C13.818 24 15.4921 23.3659 16.8244 22.3061C16.8367 22.298 16.8495 22.2909 16.8609 22.2814C16.8925 22.2561 16.9217 22.2287 16.9529 22.2031C16.9889 22.1734 17.0236 22.1433 17.0587 22.1133C17.1314 22.0508 17.2039 21.988 17.2743 21.9228C17.2819 21.916 17.2892 21.9085 17.2965 21.9017C18.3335 20.9385 19.0839 19.7314 19.494 18.3969C19.4972 18.3865 19.5007 18.3761 19.5039 18.3654C19.5352 18.2624 19.5638 18.1583 19.591 18.0535C19.6 18.0178 19.6094 17.9821 19.6181 17.9464C19.6403 17.8566 19.6608 17.7658 19.6798 17.6748C19.6909 17.6215 19.7014 17.5679 19.7113 17.5144C19.7262 17.4349 19.7405 17.3555 19.7534 17.2752C19.7642 17.2061 19.7735 17.1365 19.7826 17.0669C19.7917 16.9981 19.801 16.9297 19.8083 16.8604C19.8174 16.7726 19.8241 16.6839 19.8302 16.5956C19.8343 16.5417 19.8396 16.4884 19.8422 16.4346C19.8498 16.29 19.8542 16.1451 19.8542 15.9993C19.8542 15.8707 19.8507 15.7428 19.8445 15.6154C19.8425 15.5759 19.8393 15.5363 19.8369 15.4967C19.8314 15.4084 19.8253 15.3203 19.8171 15.2325C19.813 15.1882 19.8077 15.1438 19.8031 15.0995C19.794 15.0159 19.7835 14.9329 19.7718 14.8499C19.7657 14.8064 19.7592 14.763 19.7522 14.7195C19.7388 14.6341 19.7236 14.5493 19.7075 14.4651C19.7002 14.4262 19.6929 14.3872 19.6847 14.3482C19.6652 14.2539 19.6439 14.1604 19.6211 14.0673C19.6143 14.0396 19.6082 14.0114 19.6012 13.984C19.5407 13.7472 19.47 13.5127 19.388 13.2812C19.3865 13.277 19.3842 13.2738 19.3827 13.2699C18.9133 11.9562 18.1141 10.8032 17.0888 9.91268C20.5266 8.42852 22.5848 5.94192 22.6862 5.81785C22.8381 5.63277 22.8381 5.36409 22.687 5.17901ZM17.0791 20.7106C17.1148 20.5755 17.1554 20.4324 17.1922 20.3009C17.522 19.1274 17.8959 17.7974 17.2562 17.1457C16.9898 16.8744 16.7169 16.8104 16.4999 16.8104C16.3819 16.8104 16.2802 16.8294 16.2054 16.844C16.1599 16.7333 16.0857 16.4822 16.008 15.9285C15.8724 14.96 16.3363 14.6972 17.1682 14.3161C17.5234 14.1533 17.8591 13.9995 18.1103 13.7436C18.1783 13.6737 18.3495 13.7168 18.5236 13.7998C18.5248 13.8004 18.526 13.8007 18.5271 13.8013C18.5373 13.8326 18.5458 13.8641 18.5555 13.8953C18.5613 13.9138 18.5666 13.9322 18.5724 13.951C18.5987 14.0385 18.6232 14.1262 18.646 14.2146C18.6513 14.2339 18.6565 14.2536 18.6612 14.2732C18.7144 14.4863 18.7579 14.7017 18.7912 14.9192C18.7944 14.9406 18.7967 14.962 18.7999 14.9832C18.8122 15.0686 18.823 15.154 18.8321 15.2396C18.8356 15.273 18.8388 15.306 18.8417 15.3393C18.849 15.4179 18.8549 15.4967 18.8595 15.5756C18.8616 15.6074 18.8636 15.6395 18.8651 15.6717C18.8701 15.7809 18.8733 15.8901 18.8733 15.9996C18.8733 16.1156 18.8703 16.2314 18.8645 16.3465C18.863 16.3795 18.8598 16.412 18.8578 16.445C18.8528 16.5277 18.8473 16.6101 18.8394 16.6926C18.8362 16.7268 18.8315 16.7604 18.8277 16.7946C18.8186 16.8764 18.809 16.9577 18.7973 17.0389C18.7929 17.0681 18.7877 17.0969 18.7833 17.1261C18.7696 17.213 18.7547 17.2993 18.7377 17.3853C18.7336 17.4067 18.7287 17.4278 18.7243 17.4492C18.7047 17.5444 18.6834 17.6388 18.6597 17.7328C18.6571 17.7438 18.6542 17.7548 18.6513 17.7661C18.3723 18.8629 17.836 19.8742 17.0777 20.7175C17.0783 20.7145 17.0786 20.7127 17.0791 20.7106ZM17.4159 13.0366C17.2918 13.1631 17.0362 13.2797 16.7654 13.4038C15.9788 13.7647 14.7893 14.3092 15.0358 16.0701C15.1725 17.0425 15.3393 17.4882 15.6513 17.7152C15.93 17.917 16.2122 17.8622 16.3804 17.828C16.4216 17.8203 16.4862 17.806 16.5087 17.8104C16.513 17.8119 16.5323 17.8226 16.5621 17.8527C16.7926 18.0881 16.3828 19.546 16.2481 20.0254C16.1047 20.5351 15.9916 20.9377 15.9916 21.2171C15.9916 21.3483 16.0036 21.4973 16.0261 21.6678C14.8939 22.5048 13.5031 22.9999 12.0002 22.9999C11.6932 22.9999 11.3918 22.9773 11.0956 22.9375C11.2183 22.7932 11.3357 22.6438 11.4403 22.4852C11.9848 21.7482 12.4048 21.4798 12.8103 21.2203C13.0761 21.0504 13.3507 20.8752 13.6276 20.5925C14.4981 19.7058 14.0967 18.4067 13.6276 17.9289C13.4181 17.7155 13.1371 17.6792 12.8897 17.6471C12.4305 17.5879 12.0338 17.5367 11.8408 16.5536C11.6217 15.4348 10.9936 15.0843 10.6387 14.9748C10.0755 14.8011 9.47526 14.9858 9.15394 15.2611C8.88988 15.2521 8.1488 14.863 7.9563 14.4717C7.7527 14.0551 7.7673 13.2113 7.88853 12.9405C7.99252 13.02 8.14792 13.2422 8.22124 13.3467C8.41549 13.624 8.61646 13.9111 8.95998 13.9406C9.14839 13.9551 9.32541 13.8858 9.46533 13.7436C9.79249 13.41 10.542 12.1517 10.9498 11.3986C11.0337 11.2442 11.1041 11.1094 11.1523 11.01C11.1829 10.9892 11.2507 10.9809 11.3331 10.9791C11.4309 10.9767 11.5504 10.9838 11.6617 10.9934C11.7324 10.9993 11.7993 11.0062 11.8539 11.0118C12.2468 11.0529 12.6876 11.0966 13.0673 10.9499C13.105 10.9353 13.1427 10.9211 13.1792 10.9026C13.2183 10.8827 13.2551 10.8601 13.2908 10.8354C13.4476 10.7277 13.5733 10.5744 13.6667 10.3763C13.738 10.2254 13.79 10.0481 13.8245 9.84573C13.8543 9.67107 13.8706 9.47796 13.873 9.26522C14.1884 9.35627 14.4946 9.46963 14.7899 9.60412C14.813 9.61454 14.836 9.62525 14.8588 9.63596C15.004 9.7038 15.1471 9.77551 15.2868 9.85317C15.2964 9.85852 15.3052 9.86418 15.3145 9.86924C15.3718 9.90137 15.4281 9.93499 15.4842 9.96891C15.5698 10.0204 15.6539 10.0739 15.7372 10.129C15.8315 10.1915 15.9241 10.256 16.015 10.3233C16.8656 10.9493 17.5708 11.7679 18.0673 12.717C17.758 12.7534 17.5442 12.906 17.4159 13.0366ZM7.17111 8.93494C4.71536 7.83818 3.00331 6.1874 2.3557 5.49858C3.00331 4.80946 4.71536 3.15897 7.17111 2.06222C7.15154 2.09078 7.1346 2.12113 7.11561 2.14999C7.06508 2.22587 7.016 2.30264 6.96926 2.38089C6.94239 2.42552 6.91639 2.47075 6.89098 2.51598C6.84629 2.59542 6.80364 2.67576 6.76245 2.75699C6.74054 2.80043 6.71805 2.84387 6.69702 2.88791C6.65087 2.98521 6.60793 3.08399 6.56674 3.18426C6.55505 3.21283 6.54162 3.2408 6.53023 3.26996C6.4794 3.39939 6.43295 3.53091 6.39118 3.66421C6.38096 3.69664 6.37278 3.73026 6.36285 3.76299C6.33276 3.86446 6.30443 3.96681 6.27989 4.07006C6.2685 4.11737 6.25856 4.16498 6.24834 4.21258C6.22877 4.30453 6.21095 4.39706 6.19547 4.49019C6.187 4.54048 6.17911 4.59047 6.1721 4.64105C6.15837 4.73835 6.14756 4.83624 6.1388 4.93473C6.13471 4.97936 6.12945 5.0237 6.12624 5.06862C6.11631 5.21145 6.10988 5.35457 6.10988 5.49917C6.10988 5.64348 6.11602 5.7869 6.12624 5.92972C6.12945 5.97465 6.13471 6.01899 6.1388 6.06362C6.14786 6.16211 6.15866 6.26 6.1721 6.357C6.17911 6.40758 6.18729 6.45757 6.19547 6.50786C6.21095 6.60099 6.22877 6.69352 6.24834 6.78547C6.25856 6.83307 6.2685 6.88098 6.27989 6.92829C6.30472 7.03184 6.33305 7.13389 6.36285 7.23536C6.37278 7.26809 6.38096 7.30141 6.39118 7.33414C6.43325 7.46744 6.4794 7.59896 6.53023 7.72839C6.54162 7.75725 6.55505 7.78522 6.56674 7.81408C6.60793 7.91376 6.65087 8.01284 6.69702 8.11014C6.71805 8.15418 6.74054 8.19762 6.76245 8.24106C6.80364 8.32229 6.84629 8.40263 6.89098 8.48207C6.91668 8.5276 6.94268 8.57253 6.96926 8.61746C7.016 8.69542 7.06508 8.77218 7.11561 8.84806C7.1346 8.87603 7.15154 8.90608 7.17111 8.93494ZM9.96133 22.6837C9.94819 22.6795 9.93475 22.6762 9.9219 22.6721C9.73027 22.6102 9.54216 22.5411 9.35783 22.4635C9.35783 22.4626 9.35783 22.462 9.35783 22.4614C9.48782 21.0492 9.4478 20.1173 9.23778 19.6892C9.07829 19.3642 8.82941 19.1286 8.58871 18.9007C8.22913 18.5597 8.00859 18.3317 8.00859 17.9562C8.00859 17.7057 8.02407 17.5793 8.03283 17.5108C8.04656 17.4016 8.08892 17.0675 7.72261 16.8815C7.69399 16.8669 7.61687 16.8274 7.43839 16.6461C7.38464 16.5914 7.31892 16.55 7.24677 16.5256C6.87433 16.3992 6.2276 15.4214 5.84114 14.8374C5.6688 14.5776 5.5131 14.3422 5.37231 14.153C5.37202 14.1527 5.37202 14.1524 5.37172 14.1524C5.37757 14.1298 5.38487 14.1078 5.391 14.0855C5.4097 14.0185 5.42839 13.9516 5.44884 13.8858C5.90248 12.4147 6.8013 11.1802 7.97178 10.3197C8.06409 10.2519 8.15756 10.1858 8.25337 10.1224C8.33516 10.0686 8.41812 10.0159 8.50196 9.96534C8.56505 9.92755 8.62932 9.89155 8.69329 9.85584C8.69767 9.85346 8.70205 9.85079 8.70643 9.84841C8.84343 9.77253 8.98364 9.70201 9.1259 9.63566C9.15131 9.62376 9.17673 9.61156 9.20273 9.59995C9.75043 9.35269 10.3346 9.17744 10.9437 9.08252C10.9545 9.08103 10.9653 9.07955 10.9761 9.07776C11.0687 9.06378 11.1622 9.05158 11.256 9.04146C11.2825 9.03849 11.3088 9.03551 11.3354 9.03283C11.4181 9.0248 11.501 9.01855 11.5846 9.01349C11.6138 9.01171 11.6424 9.00933 11.6716 9.00814C11.7806 9.00278 11.8901 8.99951 12.0005 8.99951C12.1384 8.99951 12.2778 9.00486 12.4171 9.01349C12.4434 9.01528 12.4697 9.01766 12.496 9.01974C12.6166 9.02867 12.7375 9.04057 12.8585 9.05574C12.869 9.05723 12.8792 9.05753 12.8897 9.05902V9.05991C12.9055 9.57437 12.8313 9.86596 12.7708 9.9698V9.9701C12.7606 9.98796 12.7507 10.0019 12.7416 10.0085C12.5929 10.0844 12.2392 10.0472 11.9553 10.0177C11.8723 10.0091 11.7844 10.0002 11.6944 9.99301C11.6909 9.99272 11.6877 9.99242 11.6842 9.99212C11.5916 9.98944 11.499 9.98498 11.4067 9.98022C11.4 9.98022 11.3932 9.97992 11.3868 9.97992C11.0115 9.982 10.6346 10.0638 10.3899 10.3852C10.3504 10.437 10.3133 10.4932 10.2812 10.5584C10.2619 10.5976 10.24 10.6411 10.2166 10.6857C10.1898 10.7378 10.1603 10.794 10.129 10.8523C10.082 10.9401 10.0309 11.0332 9.97623 11.1308C9.67068 11.6768 9.26845 12.3427 9.00029 12.7358C8.76252 12.3963 8.40673 11.9125 7.83858 11.9125C7.52924 11.9125 7.2605 12.0743 7.08114 12.3695C6.6976 13.0015 6.76683 14.2807 7.07939 14.9189C7.39866 15.5681 8.32377 16.1367 8.95531 16.2406C9.39669 16.3123 9.6514 16.1644 9.78607 16.0273C9.84595 15.9695 10.1141 15.855 10.3624 15.9344C10.6773 16.0365 10.8172 16.434 10.8791 16.75C11.211 18.4383 12.2234 18.5692 12.767 18.6394C12.8313 18.6477 12.9145 18.6585 12.9625 18.6692C13.032 18.7611 13.1275 18.9545 13.1538 19.1937C13.1839 19.4734 13.11 19.7058 12.9341 19.8855C12.7352 20.0882 12.5287 20.2206 12.2889 20.3735C11.8507 20.6538 11.305 21.0025 10.6478 21.8961C10.6419 21.9035 10.6373 21.9106 10.632 21.9181C10.4091 22.2576 10.1652 22.5084 9.96133 22.6837ZM12.0002 7.99856C10.6469 7.99856 9.54566 6.87681 9.54566 5.49858C9.54566 4.12005 10.6469 2.9983 12.0002 2.9983C13.3536 2.9983 14.4545 4.12005 14.4545 5.49858C14.4548 6.87681 13.3536 7.99856 12.0002 7.99856ZM14.6979 1.32817C14.6993 1.32847 14.7005 1.32877 14.702 1.32906C14.7312 1.3487 14.7586 1.37042 14.7875 1.39036C14.8352 1.42398 14.8828 1.45701 14.9289 1.49212C14.9657 1.52009 15.0014 1.54925 15.0373 1.57811C15.0823 1.61441 15.1276 1.65012 15.1711 1.68761C15.2058 1.71766 15.2394 1.7489 15.2733 1.77985C15.3157 1.81853 15.3583 1.85691 15.3992 1.89649C15.4322 1.92862 15.4635 1.96224 15.4953 1.99497C15.5348 2.03544 15.5748 2.07591 15.6128 2.11816C15.6437 2.15237 15.6732 2.18808 15.7033 2.22289C15.7398 2.26544 15.7766 2.30769 15.8117 2.35143C15.8409 2.38773 15.8681 2.42552 15.8961 2.46242C15.9297 2.50675 15.9636 2.55049 15.9954 2.59602C16.0226 2.6344 16.0477 2.67427 16.0737 2.71384C16.1038 2.75937 16.1348 2.8046 16.1634 2.85101C16.1885 2.89207 16.2119 2.93403 16.2355 2.97568C16.2624 3.0221 16.2902 3.06822 16.3153 3.11583C16.3384 3.15927 16.3594 3.20361 16.3813 3.24764C16.4047 3.29465 16.4289 3.34137 16.4508 3.38927C16.4721 3.43569 16.4908 3.483 16.5107 3.53001C16.5306 3.57703 16.5513 3.62374 16.5697 3.67135C16.5887 3.72015 16.6048 3.77043 16.6223 3.81982C16.6386 3.86684 16.6565 3.91355 16.6714 3.96116C16.6874 4.01263 16.7011 4.0653 16.716 4.11737C16.7292 4.16408 16.7438 4.2105 16.7555 4.25751C16.7692 4.31256 16.78 4.3682 16.792 4.42384C16.8019 4.46907 16.813 4.5143 16.8215 4.56012C16.8323 4.61933 16.8405 4.67943 16.8495 4.73924C16.856 4.78239 16.8639 4.82523 16.8694 4.86838C16.8779 4.93592 16.8828 5.00406 16.8884 5.0722C16.8913 5.1085 16.896 5.1445 16.8983 5.1811C16.9047 5.28613 16.908 5.39176 16.908 5.49798C16.908 5.60391 16.9047 5.70984 16.8983 5.81457C16.896 5.85117 16.8913 5.88717 16.8884 5.92347C16.8826 5.99161 16.8776 6.05975 16.8694 6.12729C16.8641 6.17074 16.856 6.21358 16.8495 6.25643C16.8405 6.31624 16.8326 6.37634 16.8215 6.43555C16.8127 6.48137 16.8016 6.5263 16.792 6.57183C16.78 6.62747 16.7689 6.68341 16.7555 6.73816C16.7435 6.78547 16.7292 6.83188 16.716 6.8783C16.7011 6.93037 16.6877 6.98304 16.6714 7.03481C16.6562 7.08242 16.6386 7.12883 16.6223 7.17585C16.6048 7.22554 16.5887 7.27552 16.5697 7.32432C16.5513 7.37223 16.5306 7.41864 16.5107 7.46566C16.4908 7.51267 16.4721 7.55998 16.4508 7.60669C16.4289 7.6546 16.4047 7.70102 16.3813 7.74833C16.3594 7.79236 16.3384 7.83699 16.3153 7.88014C16.2899 7.92775 16.2624 7.97387 16.2355 8.02028C16.2116 8.06194 16.1885 8.10389 16.1634 8.14466C16.1348 8.19137 16.1041 8.2366 16.0737 8.28212C16.0477 8.3214 16.0226 8.36127 15.9954 8.39965C15.9636 8.44488 15.9297 8.48892 15.8961 8.53296C15.8681 8.57015 15.8409 8.60764 15.8117 8.64424C15.7766 8.68798 15.7398 8.72993 15.7033 8.77248C15.6732 8.80759 15.6437 8.8433 15.6128 8.87751C15.6087 8.88198 15.604 8.88644 15.5996 8.8912C15.1173 8.6368 14.6061 8.43149 14.0725 8.28272C14.8991 7.6427 15.436 6.63402 15.436 5.49769C15.436 3.5678 13.8943 1.99735 12 1.99735C10.1053 1.99735 8.56359 3.5678 8.56359 5.49769C8.56359 6.63223 9.09874 7.63942 9.92307 8.27944C9.38909 8.42703 8.87673 8.63025 8.393 8.88406C8.39096 8.88168 8.38891 8.87989 8.38687 8.87751C8.3559 8.8433 8.3264 8.80789 8.29661 8.77307C8.26009 8.73023 8.22299 8.68827 8.18794 8.64454C8.15873 8.60794 8.13156 8.57015 8.10352 8.53296C8.07022 8.48892 8.03634 8.44518 8.0045 8.39965C7.97733 8.36097 7.95192 8.3211 7.92592 8.28183C7.89583 8.2363 7.86516 8.19137 7.83653 8.14495C7.81141 8.1036 7.78804 8.06134 7.7638 8.01969C7.73722 7.97327 7.70976 7.92715 7.68435 7.88014C7.66127 7.8367 7.64024 7.79206 7.61804 7.74803C7.59467 7.70102 7.57042 7.654 7.54852 7.6064C7.52748 7.56057 7.50879 7.51356 7.48922 7.46714C7.46906 7.41954 7.44832 7.37252 7.42963 7.32432C7.41093 7.27552 7.39457 7.22583 7.37734 7.17644C7.36069 7.12913 7.34316 7.08242 7.32797 7.03451C7.31162 6.98274 7.29789 6.93037 7.28299 6.878C7.26984 6.83129 7.25524 6.78517 7.24355 6.73786C7.22983 6.68311 7.21873 6.62717 7.20675 6.57153C7.19711 6.52601 7.18601 6.48108 7.17725 6.43525C7.16644 6.37604 7.15826 6.31594 7.1492 6.25613C7.14278 6.21299 7.13489 6.17044 7.12934 6.127C7.12087 6.05945 7.1159 5.99132 7.11035 5.92318C7.10743 5.88658 7.10276 5.85087 7.10042 5.81428C7.094 5.70954 7.09049 5.60361 7.09049 5.49769C7.09049 5.39146 7.094 5.28583 7.10042 5.1808C7.10276 5.1442 7.10743 5.1082 7.11035 5.0719C7.11619 5.00376 7.12116 4.93532 7.12934 4.86808C7.1346 4.82464 7.14278 4.78209 7.1492 4.73894C7.15826 4.67914 7.16615 4.61903 7.17725 4.55982C7.18601 4.514 7.19711 4.46907 7.20675 4.42354C7.21873 4.3679 7.22983 4.31196 7.24355 4.25722C7.25524 4.2102 7.26984 4.16379 7.28299 4.11707C7.29789 4.065 7.31132 4.01234 7.32797 3.96086C7.34316 3.91296 7.36069 3.86594 7.37734 3.81893C7.39457 3.76954 7.41093 3.71985 7.42963 3.67135C7.44832 3.62315 7.46906 3.57613 7.48922 3.52853C7.50879 3.48211 7.52748 3.4351 7.54852 3.38927C7.57042 3.34137 7.59467 3.29465 7.61804 3.24764C7.63995 3.20361 7.66098 3.15897 7.68435 3.11553C7.70947 3.06822 7.73693 3.0224 7.7638 2.97598C7.78804 2.93403 7.81112 2.89178 7.83653 2.85072C7.86516 2.8043 7.89583 2.75937 7.92592 2.71384C7.95192 2.67427 7.97733 2.6344 8.0045 2.59572C8.03634 2.55049 8.07022 2.50675 8.10352 2.46272C8.13156 2.42552 8.15902 2.38773 8.18794 2.35143C8.22299 2.30769 8.2598 2.26544 8.29661 2.22289C8.3264 2.18778 8.3559 2.15237 8.38687 2.11816C8.42484 2.0762 8.46515 2.03544 8.50459 1.99468C8.53643 1.96195 8.56768 1.92862 8.6004 1.89678C8.64129 1.85661 8.68423 1.81853 8.72659 1.77955C8.76047 1.7489 8.79377 1.71766 8.82853 1.68761C8.87235 1.64982 8.91763 1.61382 8.96261 1.57781C8.99854 1.54895 9.03389 1.51979 9.07069 1.49182C9.11685 1.45671 9.16475 1.42339 9.21237 1.38976C9.24099 1.36953 9.26845 1.34811 9.29766 1.32847C9.29912 1.32817 9.30058 1.32787 9.30175 1.32758C11.0968 0.890184 12.9037 0.890184 14.6979 1.32817ZM5.14183 15.5696C5.65156 16.337 6.21825 17.1487 6.81795 17.4263C6.90091 17.5066 6.97277 17.5682 7.03674 17.6179C7.0309 17.7054 7.0271 17.8161 7.0271 17.9562C7.0271 18.7864 7.54355 19.2756 7.92008 19.6326C8.10527 19.8079 8.27966 19.9733 8.3597 20.1367C8.44383 20.308 8.4856 20.9391 8.41257 21.9681C6.44347 20.7353 5.12752 18.5213 5.12752 15.9996C5.12752 15.855 5.13336 15.7119 5.14183 15.5696ZM16.8849 8.84687C16.9354 8.77099 16.9845 8.69422 17.0315 8.61627C17.0581 8.57164 17.0841 8.52671 17.1098 8.48118C17.1545 8.40174 17.1974 8.3214 17.2383 8.23987C17.2602 8.19643 17.2827 8.15329 17.3035 8.10955C17.3499 8.01195 17.3929 7.91317 17.434 7.81319C17.446 7.78463 17.4592 7.75666 17.4706 7.7275C17.5214 7.59806 17.5678 7.46655 17.6096 7.33325C17.6198 7.30082 17.6283 7.26719 17.6379 7.23446C17.668 7.1327 17.6964 7.03064 17.7209 6.9274C17.7323 6.88009 17.7422 6.83248 17.7524 6.78457C17.7723 6.69263 17.7898 6.60009 17.8053 6.50696C17.8138 6.45697 17.8217 6.40669 17.8287 6.35611C17.8424 6.25881 17.8532 6.16092 17.862 6.06273C17.8661 6.01809 17.8713 5.97346 17.8746 5.92883C17.8845 5.78601 17.8909 5.64289 17.8909 5.49828C17.8909 5.35367 17.8848 5.21026 17.8746 5.06773C17.8713 5.0228 17.8661 4.97847 17.862 4.93384C17.8529 4.83535 17.8421 4.73746 17.8287 4.64016C17.8217 4.58987 17.8135 4.53959 17.8053 4.4893C17.7898 4.39617 17.772 4.30363 17.7524 4.21169C17.7422 4.16408 17.7323 4.11648 17.7209 4.06917C17.6961 3.96622 17.668 3.86386 17.6379 3.7624C17.6283 3.72937 17.6198 3.69604 17.6096 3.66361C17.5675 3.53031 17.5214 3.3988 17.4706 3.26936C17.4592 3.2405 17.446 3.21253 17.434 3.18367C17.3932 3.08369 17.3499 2.98491 17.3035 2.88731C17.2827 2.84328 17.2602 2.80013 17.2383 2.75669C17.1972 2.67546 17.1545 2.59483 17.1098 2.51538C17.0841 2.47015 17.0581 2.42493 17.0315 2.3803C16.9845 2.30234 16.9354 2.22557 16.8849 2.1494C16.8659 2.12054 16.849 2.09019 16.8294 2.06162C19.2851 3.15838 20.9972 4.80887 21.6448 5.49798C20.9972 6.1871 19.2851 7.83759 16.8294 8.93434C16.849 8.90608 16.8659 8.87603 16.8849 8.84687Z" fill="white"/>
</svg>