<svg width="31" height="32" viewBox="0 0 31 32" fill="none" xmlns="http://www.w3.org/2000/svg">
<path d="M0.5 10.5C0.5 5.25329 4.75329 1 10 1H21C26.2467 1 30.5 5.25329 30.5 10.5V21.5C30.5 26.7467 26.2467 31 21 31H10C4.75329 31 0.5 26.7467 0.5 21.5V10.5Z" fill="#C5FFFF"/>
<path d="M0.5 10.5C0.5 5.25329 4.75329 1 10 1H21C26.2467 1 30.5 5.25329 30.5 10.5V21.5C30.5 26.7467 26.2467 31 21 31H10C4.75329 31 0.5 26.7467 0.5 21.5V10.5Z" stroke="#04D9FF"/>
<g clip-path="url(#clip0_2261_11521)">
<path fill-rule="evenodd" clip-rule="evenodd" d="M15.5 10.05C12.2139 10.05 9.55 12.7139 9.55 16C9.55 17.4068 10.0382 18.6995 10.8545 19.7181C11.2836 18.6864 12.3013 17.961 13.4884 17.961H17.3824C17.9236 17.3994 18.6835 17.05 19.525 17.05C20.1616 17.05 20.7514 17.2499 21.2352 17.5904C21.3752 17.0846 21.45 16.5513 21.45 16C21.45 12.7139 18.7861 10.05 15.5 10.05ZM22.0554 18.4598C22.3429 17.6939 22.5 16.8648 22.5 16C22.5 12.134 19.366 9 15.5 9C11.634 9 8.5 12.134 8.5 16C8.5 18.0389 9.37172 19.8742 10.7628 21.1536C10.7924 21.1881 10.8264 21.2189 10.8639 21.2448C12.0986 22.337 13.7219 23 15.5 23C16.3648 23 17.1939 22.8429 17.9598 22.5554C18.4144 22.8373 18.9507 23 19.525 23C21.168 23 22.5 21.668 22.5 20.025C22.5 19.4507 22.3373 18.9144 22.0554 18.4598ZM17.0904 21.7352C16.7499 21.2514 16.55 20.6616 16.55 20.025C16.55 19.6689 16.6126 19.3274 16.7273 19.011H13.4884C12.5722 19.011 11.8157 19.695 11.7018 20.5802C12.7322 21.4356 14.056 21.95 15.5 21.95C16.0513 21.95 16.5845 21.8752 17.0904 21.7352ZM17.9846 18.8703C17.7431 19.1921 17.6 19.5918 17.6 20.025C17.6 21.0882 18.4618 21.95 19.525 21.95C20.5882 21.95 21.45 21.0882 21.45 20.025C21.45 18.9618 20.5882 18.1 19.525 18.1C18.9457 18.1 18.4261 18.3559 18.0732 18.7609C18.0486 18.8013 18.0187 18.8382 17.9846 18.8703ZM15.5011 12.9156C14.589 12.9156 13.8495 13.6551 13.8495 14.5672C13.8495 15.4793 14.589 16.2188 15.5011 16.2188C16.4132 16.2188 17.1527 15.4793 17.1527 14.5672C17.1527 13.6551 16.4132 12.9156 15.5011 12.9156ZM12.7996 14.5672C12.7996 13.0752 14.0091 11.8656 15.5011 11.8656C16.9932 11.8656 18.2027 13.0752 18.2027 14.5672C18.2027 16.0592 16.9932 17.2688 15.5011 17.2688C14.0091 17.2688 12.7996 16.0592 12.7996 14.5672ZM19.525 18.45C19.8149 18.45 20.05 18.6851 20.05 18.975V19.5H20.575C20.8649 19.5 21.1 19.7351 21.1 20.025C21.1 20.3149 20.8649 20.55 20.575 20.55H20.05V21.075C20.05 21.3649 19.8149 21.6 19.525 21.6C19.2351 21.6 19 21.3649 19 21.075V20.55H18.475C18.1851 20.55 17.95 20.3149 17.95 20.025C17.95 19.7351 18.1851 19.5 18.475 19.5H19V18.975C19 18.6851 19.2351 18.45 19.525 18.45Z" fill="#27313E"/>
</g>
<defs>
<clipPath id="clip0_2261_11521">
<rect width="18" height="18" fill="white" transform="translate(6.5 7)"/>
</clipPath>
</defs>
</svg>
