<svg width="17" height="18" viewBox="0 0 17 18" fill="none" xmlns="http://www.w3.org/2000/svg">
<g clip-path="url(#clip0_198_3773)">
<path fill-rule="evenodd" clip-rule="evenodd" d="M8.5 18C1.0885 18 -0.5 16.4115 -0.5 9C-0.5 1.5885 1.0885 0 8.5 0C15.9115 0 17.5 1.5885 17.5 9C17.5 16.4115 15.9115 18 8.5 18ZM1.3283 13.2076C1.09943 12.1777 1.00001 10.8187 1.00001 9C1.00001 7.18137 1.0994 5.8223 1.3283 4.79246C1.55337 3.77961 1.88324 3.17943 2.28135 2.78135C2.67946 2.38328 3.27965 2.05341 4.29246 1.8283C5.3223 1.59943 6.68137 1.50001 8.5 1.50001C10.3187 1.50001 11.6777 1.59943 12.7076 1.8283C13.7204 2.05337 14.3206 2.38328 14.7186 2.78135C15.1167 3.17946 15.4466 3.77965 15.6717 4.79246C15.9006 5.8223 16 7.18137 16 9C16 10.8187 15.9006 12.1777 15.6717 13.2076C15.4466 14.2204 15.1167 14.8206 14.7186 15.2186C14.3206 15.6167 13.7204 15.9466 12.7076 16.1717C11.6777 16.4006 10.3187 16.5 8.5 16.5C6.68137 16.5 5.32233 16.4006 4.29246 16.1717C3.27961 15.9466 2.67943 15.6167 2.28135 15.2186C1.88328 14.8206 1.55341 14.2204 1.3283 13.2076Z" fill="#F97F7F"/>
<path d="M11.9088 11.1895C12.1626 11.4433 12.1626 11.8549 11.9088 12.1087C11.6549 12.3626 11.2434 12.3626 10.9895 12.1087L8.44968 9.56887L5.90984 12.1087C5.656 12.3626 5.24444 12.3626 4.9906 12.1087C4.73676 11.8549 4.73676 11.4433 4.9906 11.1895L7.53044 8.64963L4.99043 6.10962C4.73659 5.85578 4.73659 5.44422 4.99043 5.19038C5.24427 4.93654 5.65583 4.93654 5.90967 5.19038L8.44968 7.73039L10.9897 5.19038C11.2435 4.93654 11.6551 4.93654 11.9089 5.19038C12.1628 5.44422 12.1628 5.85578 11.9089 6.10962L9.36892 8.64963L11.9088 11.1895Z" fill="#F97F7F"/>
</g>
<defs>
<clipPath id="clip0_198_3773">
<rect width="17" height="17" fill="white" transform="translate(0 0.5)"/>
</clipPath>
</defs>
</svg>
