<svg width="23" height="24" viewBox="0 0 23 24" fill="none" xmlns="http://www.w3.org/2000/svg">
<g clip-path="url(#clip0_1_17301)">
<path fill-rule="evenodd" clip-rule="evenodd" d="M11.5 2.41667C6.20727 2.41667 1.91667 6.70727 1.91667 12C1.91667 17.2927 6.20727 21.5833 11.5 21.5833C16.7927 21.5833 21.0833 17.2927 21.0833 12C21.0833 6.70727 16.7927 2.41667 11.5 2.41667ZM0 12C0 5.64872 5.14872 0.5 11.5 0.5C17.8513 0.5 23 5.64872 23 12C23 18.3513 17.8513 23.5 11.5 23.5C5.14872 23.5 0 18.3513 0 12Z" fill="#1E1E1E"/>
<path d="M8.14941 8.65234L14.8461 15.3491" stroke="#1E1E1E" stroke-width="2" stroke-linecap="round"/>
<path d="M14.8506 8.65234L8.15387 15.3491" stroke="#1E1E1E" stroke-width="2" stroke-linecap="round"/>
</g>
<defs>
<clipPath id="clip0_1_17301">
<rect width="23" height="23" fill="white" transform="translate(0 0.5)"/>
</clipPath>
</defs>
</svg>
