<svg width="38" height="32" viewBox="0 0 38 32" fill="none" xmlns="http://www.w3.org/2000/svg">
<path d="M0.5 10C0.5 4.7533 4.7533 0.5 10 0.5H28C33.2467 0.5 37.5 4.7533 37.5 10V22C37.5 27.2467 33.2467 31.5 28 31.5H10C4.75329 31.5 0.5 27.2467 0.5 22V10Z" stroke="#767676"/>
<g clip-path="url(#clip0_2261_96926)">
<path d="M15.25 22.75C14.8375 22.75 14.4845 22.6033 14.191 22.3097C13.8975 22.0162 13.7505 21.663 13.75 21.25V11.5H13V10H16.75V9.25H21.25V10H25V11.5H24.25V21.25C24.25 21.6625 24.1033 22.0157 23.8097 22.3097C23.5162 22.6038 23.163 22.7505 22.75 22.75H15.25ZM22.75 11.5H15.25V21.25H22.75V11.5ZM16.75 19.75H18.25V13H16.75V19.75ZM19.75 19.75H21.25V13H19.75V19.75Z" fill="#767676"/>
</g>
<defs>
<clipPath id="clip0_2261_96926">
<rect width="18" height="18" fill="white" transform="translate(10 7)"/>
</clipPath>
</defs>
</svg>
