<svg width="23" height="23" viewBox="0 0 23 23" fill="none" xmlns="http://www.w3.org/2000/svg">
<g id="Import">
<path id="Vector 9" d="M11.5 13.5L11.0757 13.9243L11.5 14.3485L11.9243 13.9243L11.5 13.5ZM12.1 4.5C12.1 4.16863 11.8314 3.9 11.5 3.9C11.1686 3.9 10.9 4.16863 10.9 4.5L12.1 4.5ZM6.07574 8.92426L11.0757 13.9243L11.9243 13.0757L6.92426 8.07574L6.07574 8.92426ZM11.9243 13.9243L16.9243 8.92426L16.0757 8.07574L11.0757 13.0757L11.9243 13.9243ZM12.1 13.5L12.1 4.5L10.9 4.5L10.9 13.5L12.1 13.5Z" fill="#12181F"/>
<path id="Vector 114" d="M4.5 15.5L4.5 16.5C4.5 17.6046 5.39543 18.5 6.5 18.5L16.5 18.5C17.6046 18.5 18.5 17.6046 18.5 16.5V15.5" stroke="#12181F" stroke-width="1.2"/>
</g>
</svg>
