<svg width="19" height="17" viewBox="0 0 19 17" fill="none" xmlns="http://www.w3.org/2000/svg">
<path fill-rule="evenodd" clip-rule="evenodd" d="M6.92858 2.71401C6.92858 2.35897 7.21638 2.07115 7.57143 2.07115H11.4286C11.7836 2.07115 12.0714 2.35897 12.0714 2.71401V5.92829H12.7143C12.9637 5.92829 13.1906 6.07261 13.2965 6.29845C13.4023 6.52435 13.3678 6.79107 13.2081 6.98271L9.99385 10.8398C9.8717 10.9864 9.6908 11.0711 9.5 11.0711C9.3092 11.0711 9.1283 10.9864 9.00616 10.8398L5.79188 6.98271C5.63218 6.79107 5.59776 6.52435 5.70355 6.29845C5.80936 6.07261 6.03629 5.92829 6.28572 5.92829H6.92858V2.71401ZM7.65391 7.2088L9.5 9.42415L11.3462 7.2088C11.03 7.1683 10.7857 6.89823 10.7857 6.57115V3.35686H8.21429V6.57115C8.21429 6.89823 7.97 7.1683 7.65391 7.2088Z" fill="#A6A6A6"/>
<path fill-rule="evenodd" clip-rule="evenodd" d="M0.5 2.07115C0.5 1.00603 1.36345 0.142578 2.42857 0.142578H16.5714C17.6366 0.142578 18.5 1.00603 18.5 2.07115V11.0711C18.5 12.1363 17.6366 12.9997 16.5714 12.9997H12.6298L13.0816 13.6775C13.9711 13.8491 14.6429 14.6316 14.6429 15.5711V16.214C14.6429 16.5691 14.3551 16.8569 14 16.8569H5C4.64496 16.8569 4.35714 16.5691 4.35714 16.214V15.5711C4.35714 14.6316 5.02894 13.8491 5.91839 13.6775L6.37025 12.9997H2.42857C1.36345 12.9997 0.5 12.1363 0.5 11.0711V2.07115ZM7.48689 13.6426H11.5131L11.0845 12.9997H7.91549L7.48689 13.6426ZM12.7143 14.9283H6.28571C5.93066 14.9283 5.64286 15.2161 5.64286 15.5711H13.3571C13.3571 15.2161 13.0693 14.9283 12.7143 14.9283ZM17.2143 11.0711C17.2143 11.4262 16.9265 11.714 16.5714 11.714H2.42857C2.07353 11.714 1.78571 11.4262 1.78571 11.0711V2.07115C1.78571 1.71611 2.07353 1.42829 2.42857 1.42829H16.5714C16.9265 1.42829 17.2143 1.71611 17.2143 2.07115V11.0711Z" fill="#A6A6A6"/>
</svg>
