<svg xmlns="http://www.w3.org/2000/svg" width="24" height="24" viewBox="0 0 24 24" fill="none">
  <path d="M11.5 13.4492L11.0757 13.8735L11.5 14.2977L11.9243 13.8735L11.5 13.4492ZM12.1 4.44922C12.1 4.11785 11.8314 3.84922 11.5 3.84922C11.1686 3.84922 10.9 4.11785 10.9 4.44922L12.1 4.44922ZM6.07574 8.87348L11.0757 13.8735L11.9243 13.025L6.92426 8.02495L6.07574 8.87348ZM11.9243 13.8735L16.9243 8.87348L16.0757 8.02496L11.0757 13.025L11.9243 13.8735ZM12.1 13.4492L12.1 4.44922L10.9 4.44922L10.9 13.4492L12.1 13.4492Z" fill="#686868"/>
  <path d="M4.5 15.4492L4.5 16.4492C4.5 17.5538 5.39543 18.4492 6.5 18.4492L16.5 18.4492C17.6046 18.4492 18.5 17.5538 18.5 16.4492V15.4492" stroke="#686868" stroke-width="1.2"/>
</svg>