<svg width="18" height="18" viewBox="0 0 18 18" fill="none" xmlns="http://www.w3.org/2000/svg">
<g id="icon-park-outline:earth">
<g id="Group">
<path id="Vector" d="M9 16.5C13.1422 16.5 16.5 13.1422 16.5 9C16.5 4.85775 13.1422 1.5 9 1.5C4.85775 1.5 1.5 4.85775 1.5 9C1.5 13.1422 4.85775 16.5 9 16.5Z" stroke="#161D26" stroke-linecap="round" stroke-linejoin="round"/>
<path id="Vector_2" d="M1.5 9H16.5" stroke="#161D26" stroke-linecap="round" stroke-linejoin="round"/>
<path id="Vector_3" d="M9 16.5C10.6568 16.5 12 13.1422 12 9C12 4.85775 10.6568 1.5 9 1.5C7.34325 1.5 6 4.85775 6 9C6 13.1422 7.34325 16.5 9 16.5Z" stroke="#161D26" stroke-linecap="round" stroke-linejoin="round"/>
<path id="Vector_4" d="M3.69531 3.80322C4.391 4.50066 5.21764 5.05377 6.12775 5.43075C7.03785 5.80774 8.01347 6.00119 8.99856 5.99997C9.98365 6.00119 10.9593 5.80774 11.8694 5.43075C12.7795 5.05377 13.6061 4.50066 14.3018 3.80322M14.3018 14.1967C13.6061 13.4993 12.7795 12.9462 11.8694 12.5692C10.9593 12.1922 9.98365 11.9988 8.99856 12C8.01347 11.9988 7.03785 12.1922 6.12775 12.5692C5.21764 12.9462 4.391 13.4993 3.69531 14.1967" stroke="#161D26" stroke-linecap="round" stroke-linejoin="round"/>
</g>
</g>
</svg>
