<svg xmlns="http://www.w3.org/2000/svg" width="17" height="17" viewBox="0 0 17 17" fill="none">
  <path d="M16.2724 0.572933L16.2519 0.554271C15.8606 0.196857 15.3534 0 14.8237 0C14.2299 0 13.6597 0.251383 13.2594 0.689634L5.68956 8.97704C5.62056 9.05257 5.56823 9.14169 5.53588 9.2387L4.64578 11.9071C4.54287 12.2156 4.59452 12.5568 4.78392 12.8197C4.97483 13.0847 5.2824 13.2429 5.60673 13.2429C5.74701 13.2429 5.88418 13.2141 6.01423 13.1571L8.59141 12.0297C8.68511 11.9887 8.76916 11.9285 8.83811 11.853L16.408 3.56565C17.1957 2.70333 17.1349 1.3609 16.2724 0.572933ZM6.35118 11.4142L6.87348 9.84838L6.91753 9.80014L7.90747 10.7043L7.86342 10.7526L6.35118 11.4142ZM15.3287 2.57976L8.89337 9.62506L7.90343 8.72088L14.3387 1.67553C14.4646 1.53773 14.6368 1.46181 14.8237 1.46181C14.9877 1.46181 15.1448 1.52282 15.2663 1.63382L15.2867 1.65248C15.5539 1.89656 15.5727 2.31254 15.3287 2.57976Z" fill="white"/>
  <path d="M14.804 6.74328C14.4003 6.74328 14.0731 7.07053 14.0731 7.47419V13.6794C14.0731 14.7044 13.2392 15.5382 12.2143 15.5382H3.35576C2.33079 15.5382 1.49697 14.7044 1.49697 13.6794V4.89287C1.49697 3.86794 2.33083 3.03408 3.35576 3.03408H9.76761C10.1713 3.03408 10.4985 2.70683 10.4985 2.30317C10.4985 1.89952 10.1713 1.57227 9.76761 1.57227H3.35576C1.52474 1.57227 0.0351562 3.0619 0.0351562 4.89287V13.6794C0.0351562 15.5104 1.52479 17 3.35576 17H12.2142C14.0452 17 15.5349 15.5104 15.5349 13.6794V7.47419C15.5349 7.07053 15.2076 6.74328 14.804 6.74328Z" fill="white"/>
</svg>