<svg width="31" height="32" viewBox="0 0 31 32" fill="none" xmlns="http://www.w3.org/2000/svg">
<path d="M0.5 10.5C0.5 5.25329 4.75329 1 10 1H21C26.2467 1 30.5 5.25329 30.5 10.5V21.5C30.5 26.7467 26.2467 31 21 31H10C4.75329 31 0.5 26.7467 0.5 21.5V10.5Z" fill="#EDEDED"/>
<path d="M0.5 10.5C0.5 5.25329 4.75329 1 10 1H21C26.2467 1 30.5 5.25329 30.5 10.5V21.5C30.5 26.7467 26.2467 31 21 31H10C4.75329 31 0.5 26.7467 0.5 21.5V10.5Z" stroke="#767676"/>
<g clip-path="url(#clip0_2282_45947)">
<path d="M23.7289 7.60663L23.7072 7.58687C23.2929 7.20844 22.7559 7 22.195 7C21.5662 7 20.9625 7.26617 20.5386 7.7302L12.5236 16.5051C12.4505 16.5851 12.3951 16.6794 12.3608 16.7822L11.4184 19.6075C11.3094 19.9342 11.3641 20.2954 11.5646 20.5738C11.7668 20.8544 12.0924 21.0219 12.4358 21.0219C12.5844 21.0219 12.7296 20.9914 12.8673 20.9311L15.5961 19.7373C15.6953 19.6939 15.7843 19.6302 15.8573 19.5502L23.8724 10.7754C24.7065 9.86235 24.6422 8.44095 23.7289 7.60663ZM13.2241 19.0856L13.7771 17.4277L13.8238 17.3766L14.8719 18.334L14.8253 18.3851L13.2241 19.0856ZM22.7297 9.73151L15.9158 17.1912L14.8676 16.2339L21.6815 8.77409C21.8147 8.62818 21.9971 8.5478 22.195 8.5478C22.3687 8.5478 22.5349 8.6124 22.6636 8.72993L22.6852 8.74969C22.9682 9.00812 22.9881 9.44857 22.7297 9.73151Z" fill="#686868"/>
<path d="M22.1747 14.1393C21.7473 14.1393 21.4008 14.4858 21.4008 14.9132V21.4834C21.4008 22.5686 20.5179 23.4516 19.4327 23.4516H10.053C8.96778 23.4516 8.08491 22.5686 8.08491 21.4834V12.18C8.08491 11.0948 8.96783 10.2119 10.053 10.2119H16.8421C17.2695 10.2119 17.616 9.86536 17.616 9.43796C17.616 9.01056 17.2695 8.66406 16.8421 8.66406H10.053C8.11432 8.66406 6.53711 10.2413 6.53711 12.18V21.4834C6.53711 23.422 8.11437 24.9993 10.053 24.9993H19.4326C21.3713 24.9993 22.9486 23.422 22.9486 21.4834V14.9132C22.9486 14.4858 22.6021 14.1393 22.1747 14.1393Z" fill="#686868"/>
</g>
<defs>
<clipPath id="clip0_2282_45947">
<rect width="18" height="18" fill="white" transform="translate(6.5 7)"/>
</clipPath>
</defs>
</svg>
