<svg width="104" height="105" viewBox="0 0 104 105" fill="none" xmlns="http://www.w3.org/2000/svg">
<ellipse cx="52.5" cy="49" rx="45.5" ry="46" fill="#FD504F"/>
<path d="M77.7407 77.6098C77.7196 77.7118 77.6699 77.8058 77.5973 77.8806C77.5248 77.9554 77.4324 78.0079 77.3311 78.0321C70.5734 79.6843 54.9592 73.7966 46.4997 65.3405C44.9909 63.8438 43.6154 62.2186 42.3888 60.4831C39.7801 60.7138 37.1714 60.5211 34.948 59.552C28.6749 56.791 26.8485 49.5867 26.3397 46.4877C26.3108 46.318 26.3217 46.144 26.3715 45.9793C26.4212 45.8146 26.5086 45.6637 26.6265 45.5385C26.7445 45.4132 26.8899 45.3171 27.0514 45.2575C27.2128 45.198 27.3859 45.1768 27.5569 45.1954L37.6306 46.3065C37.6378 45.547 37.6836 44.7884 37.7679 44.0336C37.8186 43.5094 38.0513 43.0195 38.4255 42.649L42.3265 38.7573C42.6973 38.3835 43.187 38.1509 43.711 38.0997C44.4616 38.0157 45.216 37.9699 45.9713 37.9624L44.866 27.9014C44.8475 27.7304 44.8689 27.5575 44.9285 27.3961C44.9882 27.2348 45.0843 27.0895 45.2095 26.9716C45.3347 26.8536 45.4855 26.7663 45.6501 26.7165C45.8147 26.6666 45.9886 26.6555 46.1582 26.6841C49.2515 27.1803 56.4684 29.0067 59.2132 35.2798C60.1824 37.5032 60.3809 40.0992 60.157 42.6952C61.8967 43.9219 63.5263 45.2977 65.0272 46.8073C73.5132 55.2506 79.3675 70.5163 77.7407 77.6098ZM56.5607 56.8798C55.7858 57.6542 55.258 58.641 55.044 59.7154C54.83 60.7898 54.9395 61.9035 55.3585 62.9157C55.7776 63.9278 56.4874 64.793 57.3983 65.4017C58.3091 66.0104 59.38 66.3353 60.4755 66.3353C61.571 66.3353 62.6419 66.0104 63.5527 65.4017C64.4635 64.793 65.1734 63.9278 65.5924 62.9157C66.0115 61.9035 66.1209 60.7898 65.907 59.7154C65.693 58.641 65.1651 57.6542 64.3903 56.8798C63.8764 56.3652 63.2662 55.957 62.5945 55.6785C61.9227 55.4 61.2027 55.2566 60.4755 55.2566C59.7483 55.2566 59.0282 55.4 58.3565 55.6785C57.6848 55.957 57.0745 56.3652 56.5607 56.8798Z" fill="white"/>
<path d="M42.0612 35.9394C41.4289 35.3059 40.4147 35.059 39.194 34.8479C36.4515 34.3806 34.0297 36.7505 34.5223 39.523C34.7104 40.5741 35.2665 42.0475 35.6127 42.3936C35.6883 42.4678 35.7387 42.564 35.7566 42.6684C35.7745 42.7729 35.759 42.8803 35.7124 42.9754C35.6658 43.0706 35.5904 43.1487 35.4969 43.1985C35.4034 43.2484 35.2965 43.2675 35.1915 43.2532C33.6579 43.0655 32.2311 42.3702 31.1383 41.2779C28.4258 38.5631 28.1696 28.4894 28.1696 28.4894C28.1696 28.4894 38.2491 28.7455 40.9616 31.4604C42.0573 32.5523 42.7535 33.9813 42.938 35.5171C42.9807 35.9994 42.3934 36.2867 42.0612 35.9394Z" fill="white"/>
</svg>
