<svg width="18" height="18" viewBox="0 0 18 18" fill="none" xmlns="http://www.w3.org/2000/svg">
<path d="M0.5 5C0.5 2.51472 2.51472 0.5 5 0.5H13C15.4853 0.5 17.5 2.51472 17.5 5V13C17.5 15.4853 15.4853 17.5 13 17.5H5C2.51472 17.5 0.5 15.4853 0.5 13V5Z" stroke="#222222"/>
<path fill-rule="evenodd" clip-rule="evenodd" d="M9.00001 3.59998C9.35899 3.59998 9.65001 3.89099 9.65001 4.24998V8.34998H13.75C14.109 8.34998 14.4 8.64099 14.4 8.99998C14.4 9.35896 14.109 9.64998 13.75 9.64998H9.65001V13.75C9.65001 14.109 9.35899 14.4 9.00001 14.4C8.64102 14.4 8.35001 14.109 8.35001 13.75V9.64998H4.25001C3.89102 9.64998 3.60001 9.35896 3.60001 8.99998C3.60001 8.64099 3.89102 8.34998 4.25001 8.34998H8.35001V4.24998C8.35001 3.89099 8.64102 3.59998 9.00001 3.59998Z" fill="#222222"/>
</svg>
