<svg width="22" height="22" viewBox="0 0 22 22" fill="none" xmlns="http://www.w3.org/2000/svg">
<path fill-rule="evenodd" clip-rule="evenodd" d="M8.42858 5.21425C8.42858 4.85921 8.71638 4.57139 9.07143 4.57139H12.9286C13.2836 4.57139 13.5714 4.85921 13.5714 5.21425V8.42854H14.2143C14.4637 8.42854 14.6906 8.57286 14.7965 8.79869C14.9023 9.02459 14.8678 9.29131 14.7081 9.48295L11.4938 13.3401C11.3717 13.4867 11.1908 13.5714 11 13.5714C10.8092 13.5714 10.6283 13.4867 10.5062 13.3401L7.29188 9.48295C7.13218 9.29131 7.09776 9.02459 7.20355 8.79869C7.30936 8.57286 7.53629 8.42854 7.78572 8.42854H8.42858V5.21425ZM9.15391 9.70904L11 11.9244L12.8462 9.70904C12.53 9.66854 12.2857 9.39848 12.2857 9.07139V5.85711H9.71429V9.07139C9.71429 9.39848 9.47 9.66854 9.15391 9.70904Z" fill="white"/>
<path fill-rule="evenodd" clip-rule="evenodd" d="M2 4.57139C2 3.50628 2.86345 2.64282 3.92857 2.64282H18.0714C19.1366 2.64282 20 3.50628 20 4.57139V13.5714C20 14.6365 19.1366 15.5 18.0714 15.5H14.1298L14.5816 16.1778C15.4711 16.3493 16.1429 17.1319 16.1429 18.0714V18.7143C16.1429 19.0693 15.8551 19.3571 15.5 19.3571H6.5C6.14496 19.3571 5.85714 19.0693 5.85714 18.7143V18.0714C5.85714 17.1319 6.52894 16.3493 7.41839 16.1778L7.87025 15.5H3.92857C2.86345 15.5 2 14.6365 2 13.5714V4.57139ZM8.98689 16.1428H13.0131L12.5845 15.5H9.41549L8.98689 16.1428ZM14.2143 17.4285H7.78571C7.43066 17.4285 7.14286 17.7163 7.14286 18.0714H14.8571C14.8571 17.7163 14.5693 17.4285 14.2143 17.4285ZM18.7143 13.5714C18.7143 13.9264 18.4265 14.2143 18.0714 14.2143H3.92857C3.57353 14.2143 3.28571 13.9264 3.28571 13.5714V4.57139C3.28571 4.21636 3.57353 3.92854 3.92857 3.92854H18.0714C18.4265 3.92854 18.7143 4.21636 18.7143 4.57139V13.5714Z" fill="white"/>
</svg>
