<svg width="17" height="18" viewBox="0 0 17 18" fill="none" xmlns="http://www.w3.org/2000/svg">
<g id="All Icon" clip-path="url(#clip0_1442_87291)">
<path id="Vector" d="M1.83333 1.5H15.1667C15.3877 1.5 15.5996 1.58919 15.7559 1.74795C15.9122 1.90671 16 2.12203 16 2.34655V3.68918C16 3.91368 15.9121 4.12897 15.7558 4.28769L10.4108 9.71746C10.2545 9.87618 10.1667 10.0915 10.1667 10.316V15.6535C10.1667 15.7822 10.1378 15.9091 10.0822 16.0248C10.0267 16.1404 9.94587 16.2417 9.84601 16.3208C9.74615 16.4 9.62983 16.455 9.50591 16.4816C9.38198 16.5083 9.25371 16.5059 9.13083 16.4746L7.46417 16.0514C7.28396 16.0055 7.12401 15.8998 7.00971 15.751C6.89542 15.6022 6.83334 15.4189 6.83333 15.2302V10.316C6.83329 10.0915 6.74546 9.87618 6.58917 9.71746L1.24417 4.28769C1.08788 4.12897 1.00005 3.91368 1 3.68918V2.34655C1 2.12203 1.0878 1.90671 1.24408 1.74795C1.40036 1.58919 1.61232 1.5 1.83333 1.5Z" stroke="#1E1E1E" stroke-width="1.5" stroke-linecap="round" stroke-linejoin="round"/>
</g>
<defs>
<clipPath id="clip0_1442_87291">
<rect width="17" height="17" fill="white" transform="translate(0 0.5)"/>
</clipPath>
</defs>
</svg>
