<svg xmlns="http://www.w3.org/2000/svg" width="24" height="24" viewBox="0 0 24 24" fill="none">
  <path d="M15.4799 16.7007C15.4799 17.3538 16.0113 17.8853 16.6645 17.8853C17.3177 17.8853 17.8491 17.3538 17.8491 16.7007C17.8491 16.0475 17.3177 15.5161 16.6645 15.5161C16.0113 15.5161 15.4799 16.0475 15.4799 16.7007ZM16.6645 16.2219C16.9284 16.2219 17.1432 16.4367 17.1432 16.7007C17.1432 16.9647 16.9285 17.1794 16.6645 17.1794C16.4005 17.1794 16.1858 16.9647 16.1858 16.7007C16.1858 16.4367 16.4005 16.2219 16.6645 16.2219ZM7.96568 7.92502C9.80069 7.92502 11.2936 6.43213 11.2936 4.59717C11.2936 2.76221 9.80069 1.26927 7.96568 1.26927C6.13072 1.26927 4.63783 2.76216 4.63783 4.59717C4.63783 6.43218 6.13072 7.92502 7.96568 7.92502ZM7.96568 1.97515C9.41147 1.97515 10.5877 3.15138 10.5877 4.59717C10.5877 6.04295 9.41147 7.21914 7.96568 7.21914C6.5199 7.21914 5.34371 6.04291 5.34371 4.59717C5.34376 3.15138 6.51995 1.97515 7.96568 1.97515ZM6.8246 3.87618C6.8246 3.37133 7.14051 2.97882 7.61274 2.84865V2.66682C7.61274 2.4719 7.77072 2.31388 7.96568 2.31388C8.16065 2.31388 8.31862 2.4719 8.31862 2.66682V2.86188C8.73796 3.00818 9.03961 3.40762 9.03961 3.87623C9.03961 4.07115 8.88159 4.22917 8.68667 4.22917C8.49175 4.22917 8.33373 4.07115 8.33373 3.87623C8.33373 3.67331 8.1686 3.50818 7.96568 3.50818C7.89302 3.50818 7.53048 3.52592 7.53048 3.87623C7.53048 4.22653 7.89302 4.24427 7.96568 4.24427C8.62691 4.24427 9.10681 4.6959 9.10681 5.31815C9.10681 5.823 8.79091 6.21556 8.31862 6.34573V6.52752C8.31862 6.72243 8.16065 6.88046 7.96568 6.88046C7.77072 6.88046 7.61274 6.72243 7.61274 6.52752V6.3325C7.19345 6.1862 6.8918 5.78677 6.8918 5.31815C6.8918 5.12324 7.04983 4.96521 7.24474 4.96521C7.43971 4.96521 7.59768 5.12324 7.59768 5.31815C7.59768 5.52107 7.76277 5.6862 7.96568 5.6862C8.03839 5.6862 8.40093 5.66846 8.40093 5.31815C8.40093 4.9679 8.03839 4.95016 7.96568 4.95016C7.30451 4.95011 6.8246 4.49849 6.8246 3.87618ZM22.7639 4.59717C22.7639 2.0623 20.7016 0 18.1667 0C15.6319 0 13.5696 2.0623 13.5696 4.59717C13.5696 5.33594 13.7451 6.03444 14.056 6.65359H12.0765C12.3875 6.03444 12.5629 5.33594 12.5629 4.59717C12.5629 2.0623 10.5006 0 7.96573 0C5.43086 0 3.36856 2.06225 3.36856 4.59717C3.36856 5.33594 3.544 6.03444 3.85496 6.65359H3.72682C2.77468 6.65359 2 7.42822 2 8.38041V22.4037C2 23.2839 2.71614 24 3.59633 24H19.6879C20.5681 24 21.2842 23.2839 21.2842 22.4037V10.9977C21.2842 10.1175 20.5681 9.40139 19.6879 9.40139H19.1427V9.08972C21.2103 8.64097 22.7639 6.79721 22.7639 4.59717ZM18.1667 0.705881C20.3124 0.705881 22.058 2.45148 22.058 4.59717C22.058 6.74286 20.3124 8.48845 18.1667 8.48845C16.0211 8.48845 14.2755 6.74286 14.2755 4.59717C14.2755 2.45148 16.0211 0.705881 18.1667 0.705881ZM7.96568 0.705881C10.1114 0.705881 11.857 2.45148 11.857 4.59717C11.857 6.74286 10.1113 8.48845 7.96568 8.48845C5.82004 8.48845 4.07444 6.74286 4.07444 4.59717C4.07444 2.45148 5.82009 0.705881 7.96568 0.705881ZM2.70588 22.4036V9.77198C2.99209 9.98252 3.34508 10.1073 3.72682 10.1073H4.95797V23.2941H3.59633C3.10532 23.2941 2.70588 22.8946 2.70588 22.4036ZM6.82931 10.1073V23.2941H5.66385V10.1073H6.82931ZM20.5783 18.5473H16.5149C15.4966 18.5473 14.6683 17.7189 14.6683 16.7007C14.6683 15.6825 15.4967 14.854 16.5149 14.854H20.5783V18.5473ZM20.5783 10.9977V14.1482H16.5149C15.1075 14.1482 13.9624 15.2932 13.9624 16.7007C13.9624 18.1081 15.1075 19.2532 16.5149 19.2532H20.5783V22.4036C20.5783 22.8946 20.1789 23.2941 19.6879 23.2941H7.53519V10.1073H19.6879C20.1789 10.1073 20.5783 10.5067 20.5783 10.9977ZM18.4368 9.40139H3.72682C3.16386 9.40139 2.70588 8.94337 2.70588 8.38041C2.70588 7.81744 3.16386 7.35947 3.72682 7.35947H4.29336C5.13308 8.47307 6.46667 9.19433 7.96568 9.19433C9.46469 9.19433 10.7983 8.47307 11.6381 7.35947H14.4944C15.3341 8.47307 16.6677 9.19433 18.1667 9.19433C18.2574 9.19433 18.3474 9.19142 18.4368 9.18619V9.40139ZM18.1667 7.92502C20.0018 7.92502 21.4946 6.43213 21.4946 4.59717C21.4946 2.76221 20.0018 1.26927 18.1667 1.26927C16.3317 1.26927 14.8388 2.76216 14.8388 4.59717C14.8388 6.43218 16.3317 7.92502 18.1667 7.92502ZM18.1667 1.97515C19.6125 1.97515 20.7888 3.15138 20.7888 4.59717C20.7888 6.04295 19.6125 7.21914 18.1667 7.21914C16.721 7.21914 15.5447 6.04291 15.5447 4.59717C15.5447 3.15138 16.721 1.97515 18.1667 1.97515ZM17.0257 3.87618C17.0257 3.37133 17.3416 2.97882 17.8138 2.84865V2.66682C17.8138 2.4719 17.9718 2.31388 18.1667 2.31388C18.3617 2.31388 18.5197 2.4719 18.5197 2.66682V2.86188C18.939 3.00818 19.2406 3.40762 19.2406 3.87623C19.2406 4.07115 19.0826 4.22917 18.8877 4.22917C18.6928 4.22917 18.5347 4.07115 18.5347 3.87623C18.5347 3.67331 18.3697 3.50818 18.1667 3.50818C18.0941 3.50818 17.7315 3.52592 17.7315 3.87623C17.7315 4.22653 18.0941 4.24427 18.1667 4.24427C18.828 4.24427 19.3079 4.6959 19.3079 5.31815C19.3079 5.823 18.992 6.21556 18.5197 6.34573V6.52752C18.5197 6.72243 18.3617 6.88046 18.1667 6.88046C17.9718 6.88046 17.8138 6.72243 17.8138 6.52752V6.3325C17.3945 6.1862 17.0928 5.78677 17.0928 5.31815C17.0928 5.12324 17.2508 4.96521 17.4458 4.96521C17.6407 4.96521 17.7987 5.12324 17.7987 5.31815C17.7987 5.52107 17.9638 5.6862 18.1667 5.6862C18.2395 5.6862 18.602 5.66846 18.602 5.31815C18.602 4.9679 18.2395 4.95016 18.1667 4.95016C17.5056 4.95011 17.0257 4.49849 17.0257 3.87618Z" fill="white"/>
</svg>