<svg xmlns="http://www.w3.org/2000/svg" width="24" height="24" viewBox="0 0 24 24" fill="none">
  <path d="M7.61433 2.83289H14.9314V4.00593H7.61433V2.83289Z" fill="white"/>
  <path d="M14.9314 5.53335H7.61433V6.7064H14.9314V5.53335Z" fill="white"/>
  <path d="M7.61433 8.23382H14.9314V9.40686H7.61433V8.23382Z" fill="white"/>
  <path fill-rule="evenodd" clip-rule="evenodd" d="M4.93742 2.03608C4.93742 1.44773 5.41811 1 5.97255 1H16.1535C16.7079 1 17.1886 1.44773 17.1886 2.03608V7.26991H17.9613C18.876 7.26991 19.6496 8.00612 19.6496 8.94896V10.2738H22.1488C22.7644 10.2738 23.3419 10.5755 23.6884 11.0917C24.0363 11.6096 24.0974 12.2644 23.8489 12.8386L19.8896 21.9843C19.6194 22.6084 19.0061 22.9998 18.3376 22.9998L1.68837 23C0.794755 23 0 22.2815 0 21.3188V14.1797L4.82361e-05 14.1719V7.0339C4.82361e-05 6.09112 0.77356 5.35484 1.68842 5.35484H4.93742V2.03608ZM1.15647 16.2555L1.15652 16.2477V7.0339C1.15652 6.77189 1.3789 6.52789 1.68842 6.52789H4.93742V11.0119C4.85177 11.1257 4.77806 11.2508 4.71937 11.3863L1.15647 19.6163V16.2555ZM6.09389 2.17304V10.3035C6.19969 10.2842 6.30847 10.2739 6.41941 10.2739H16.0321V2.17304H6.09389ZM17.1886 8.44305V10.2739H18.4931V8.94906C18.4931 8.68702 18.2707 8.44305 17.9612 8.44305H17.1886ZM6.41941 11.447C6.13138 11.447 5.88344 11.6155 5.77803 11.8585L1.48162 21.7834C1.54838 21.8117 1.61679 21.8248 1.68101 21.8257L1.68397 21.8257L1.69328 21.8257L1.72632 21.8258L18.3376 21.8268C18.5619 21.8268 18.7511 21.6962 18.8305 21.5125L22.7899 12.3667C22.8791 12.1609 22.8598 11.9415 22.7326 11.7523C22.6042 11.5611 22.3957 11.447 22.1488 11.447H6.41941Z" fill="white"/>
</svg>