<svg width="18" height="18" viewBox="0 0 18 18" fill="none" xmlns="http://www.w3.org/2000/svg">
<path d="M12.5303 6.21967C12.8232 6.51255 12.8232 6.98744 12.5303 7.28033L8.78035 11.0303C8.48747 11.3232 8.01258 11.3232 7.71969 11.0303L5.84467 9.15532C5.55178 8.86243 5.55178 8.38754 5.84467 8.09465C6.13755 7.80177 6.61244 7.80177 6.90533 8.09465L8.24999 9.43935L11.4697 6.21967C11.7626 5.92678 12.2374 5.92678 12.5303 6.21967Z" fill="#A3EA93"/>
<path fill-rule="evenodd" clip-rule="evenodd" d="M9 18C1.5885 18 0 16.4115 0 9C0 1.5885 1.5885 0 9 0C16.4115 0 18 1.5885 18 9C18 16.4115 16.4115 18 9 18ZM1.8283 13.2076C1.59943 12.1777 1.50001 10.8187 1.50001 9C1.50001 7.18137 1.5994 5.8223 1.8283 4.79246C2.05337 3.77961 2.38324 3.17943 2.78135 2.78135C3.17946 2.38328 3.77965 2.05341 4.79246 1.8283C5.8223 1.59943 7.18137 1.50001 9 1.50001C10.8187 1.50001 12.1777 1.59943 13.2076 1.8283C14.2204 2.05337 14.8206 2.38328 15.2186 2.78135C15.6167 3.17946 15.9466 3.77965 16.1717 4.79246C16.4006 5.8223 16.5 7.18137 16.5 9C16.5 10.8187 16.4006 12.1777 16.1717 13.2076C15.9466 14.2204 15.6167 14.8206 15.2186 15.2186C14.8206 15.6167 14.2204 15.9466 13.2076 16.1717C12.1777 16.4006 10.8187 16.5 9 16.5C7.18137 16.5 5.82233 16.4006 4.79246 16.1717C3.77961 15.9466 3.17943 15.6167 2.78135 15.2186C2.38328 14.8206 2.05341 14.2204 1.8283 13.2076Z" fill="#A3EA93"/>
</svg>
