<svg width="20" height="20" viewBox="0 0 20 20" fill="none" xmlns="http://www.w3.org/2000/svg">
<g clip-path="url(#clip0_271_24189)">
<path fill-rule="evenodd" clip-rule="evenodd" d="M9.21833 1.685V1.25176C9.21833 0.468695 8.50512 -0.138118 7.72372 0.0273816L0.985171 1.45457C0.405132 1.57742 0 2.09319 0 2.67896V17.3211C0 17.9068 0.405129 18.4226 0.985167 18.5455L7.72373 19.9726C8.50512 20.1381 9.21833 19.5313 9.21833 18.7483V18.315H13.7062C14.391 18.315 14.9461 17.7599 14.9461 17.0751V13.8745C14.9461 13.5619 14.6927 13.3085 14.3801 13.3085C14.0674 13.3085 13.814 13.5619 13.814 13.8745V17.183H9.21833V2.81702H13.814V6.1255C13.814 6.43811 14.0674 6.69151 14.3801 6.69151C14.6927 6.69151 14.9461 6.43811 14.9461 6.1255V2.92484C14.9461 2.24009 14.391 1.685 13.7062 1.685H9.21833ZM8.01827 1.12213L8.0598 1.17364C8.0658 1.18106 8.07064 1.18893 8.07444 1.19689L8.07602 1.20022L8.07637 1.2012L8.07688 1.20242L8.07823 1.20583C8.07894 1.20771 8.08105 1.21334 8.08277 1.22058L8.08328 1.22272C8.08486 1.23006 8.08626 1.23971 8.08626 1.25176V18.7483C8.08626 18.7601 8.08488 18.77 8.08312 18.7779L8.08184 18.7836L8.08013 18.7892L8.07634 18.7991L8.07453 18.8029C8.07028 18.8119 8.06532 18.8194 8.0605 18.8255L8.01902 18.878L1.18563 17.4308L1.16186 17.403L1.16145 17.4026L1.15894 17.3996C1.15057 17.3891 1.14396 17.3771 1.13938 17.3642C1.13491 17.3515 1.13208 17.3369 1.13208 17.3211V2.67896C1.13208 2.66327 1.13473 2.64898 1.13927 2.6361C1.14408 2.62257 1.15107 2.61038 1.15899 2.60045L1.1614 2.59742L1.18563 2.56926L8.01827 1.12213Z" fill="white"/>
<path d="M18.1085 9.43394H10.3369C10.0243 9.43394 9.77089 9.68734 9.77089 9.99995C9.77089 10.3126 10.0243 10.566 10.3369 10.566H18.1085L15.7998 12.9777C15.5836 13.2035 15.5914 13.5618 15.8172 13.7779C16.0431 13.9941 16.4014 13.9863 16.6176 13.7605L19.8428 10.3913C20.0524 10.1725 20.0524 9.82743 19.8428 9.60855L16.6176 6.23943C16.4014 6.01362 16.0431 6.00578 15.8172 6.22197C15.5914 6.43813 15.5836 6.79641 15.7998 7.02223L18.1085 9.43394Z" fill="white"/>
</g>
<defs>
<clipPath id="clip0_271_24189">
<rect width="20" height="20" fill="white"/>
</clipPath>
</defs>
</svg>
