<svg width="76" height="76" viewBox="0 0 76 76" fill="none" xmlns="http://www.w3.org/2000/svg">
<rect width="76" height="76" rx="24" fill="#04D9FF"/>
<g clip-path="url(#clip0_1_7610)">
<path d="M38.7469 15C38.7945 15.0294 38.8531 15.0441 38.8788 15.0808C38.9667 15.2131 39.0436 15.3563 39.1206 15.4922C44.8766 25.6489 50.6326 35.8019 56.3886 45.955C57.7113 48.2875 59.0339 50.6201 60.3566 52.9563C60.4446 53.1106 60.5252 53.2685 60.6094 53.4265C60.6424 53.4889 60.5911 53.5844 60.5288 53.5918C60.4775 53.5991 60.4226 53.6138 60.3713 53.6138C60.2284 53.6175 60.0892 53.6175 59.9463 53.6175C54.586 53.6175 49.2293 53.6175 43.869 53.6175C43.6931 53.6175 43.5136 53.6101 43.3377 53.6028C43.2425 53.5991 43.1985 53.5 43.2461 53.4081C43.2718 53.3604 43.2938 53.3126 43.3194 53.2649C43.4147 53.0959 43.5136 52.9232 43.6089 52.7543C44.4223 51.318 45.2393 49.8817 46.0527 48.4418C46.115 48.3353 46.1773 48.2251 46.2396 48.1186C46.3055 48.001 46.3971 47.9349 46.54 47.9349C46.7012 47.9386 46.8588 47.9312 47.02 47.9312C48.1558 47.9312 49.2916 47.9312 50.4274 47.9312C50.5666 47.9312 50.7095 47.9128 50.8488 47.8945C50.8707 47.8908 50.8964 47.8467 50.9001 47.8137C50.9037 47.7806 50.8964 47.7439 50.8817 47.7145C50.8158 47.5896 50.7498 47.461 50.6802 47.3398C46.8514 40.5846 43.0226 33.8331 39.1939 27.0778C39.0986 26.9089 38.9997 26.7399 38.8971 26.5709C38.8275 26.4571 38.7249 26.4607 38.6516 26.5856C38.56 26.7362 38.4684 26.8905 38.3841 27.0448C36.4386 30.4757 34.4931 33.9065 32.5475 37.3374C32.4596 37.4917 32.3607 37.6386 32.2691 37.7892C32.2434 37.8296 32.1628 37.8186 32.1335 37.7745C32.0749 37.6864 32.0162 37.5982 31.965 37.5064C31.0343 35.8681 30.1074 34.2298 29.1767 32.5915C29.1327 32.5143 29.0888 32.4372 29.0485 32.3564C28.9935 32.2535 29.0008 32.1507 29.0558 32.0515C29.1218 31.9266 29.1914 31.8017 29.261 31.6768C30.6276 29.2671 31.9943 26.8574 33.3609 24.4441C35.0426 21.476 36.7244 18.508 38.4061 15.5436C38.5124 15.3673 38.6003 15.1726 38.7469 15Z" fill="#010101"/>
<path d="M41.9823 43.8218C41.9749 43.8548 41.9713 43.8952 41.9566 43.9246C41.9016 44.0348 41.8394 44.145 41.7807 44.2515C38.7067 49.677 35.629 55.1025 32.5513 60.5243C32.4634 60.6786 32.3645 60.8255 32.2692 60.9724C32.2436 61.0128 32.1593 61.0092 32.13 60.9688C32.0457 60.8329 31.9578 60.7006 31.8772 60.561C31.0272 59.0623 30.1771 57.5636 29.3271 56.0649C28.1876 54.0556 27.0481 52.0463 25.905 50.0407C25.8317 49.9121 25.7951 49.7358 25.6156 49.6917C25.469 49.7505 25.4324 49.9011 25.3627 50.0223C24.7985 51.0104 24.2379 51.9985 23.6773 52.9867C23.6334 53.0638 23.5894 53.1409 23.5454 53.2181C23.3183 53.6148 23.3366 53.6185 22.8859 53.6185C21.021 53.6185 19.1597 53.6185 17.2948 53.6185C17.2252 53.6185 17.1519 53.6148 17.0823 53.6111C16.9394 53.6038 16.8845 53.523 16.9431 53.4091C17.0164 53.2695 17.0933 53.1263 17.1739 52.9903C18.4343 50.7643 19.6947 48.5383 20.9587 46.3123C22.406 43.763 23.8496 41.2137 25.2968 38.6644C25.3847 38.5102 25.4837 38.3632 25.5826 38.2163C25.5936 38.2016 25.6595 38.2016 25.6705 38.2163C25.7511 38.3302 25.8317 38.4477 25.9013 38.5726C26.6121 39.8252 27.3229 41.0741 28.0301 42.3267C29.3088 44.5821 30.5875 46.8412 31.8735 49.093C31.9651 49.2509 31.9908 49.475 32.2216 49.5301C32.3901 49.4382 32.4378 49.2546 32.522 49.1077C34.4529 45.7098 36.3801 42.3084 38.3074 38.9069C38.4136 38.7232 38.5162 38.5359 38.6224 38.3485C38.736 38.1538 38.8056 38.1502 38.9156 38.3338C38.9522 38.3963 38.9888 38.4551 39.0218 38.5175C39.9415 40.1411 40.8611 41.761 41.7807 43.3846C41.843 43.4912 41.9016 43.6014 41.9566 43.7116C41.9786 43.7483 41.9786 43.7887 41.9823 43.8218Z" fill="#010101"/>
</g>
<defs>
<clipPath id="clip0_1_7610">
<rect width="46" height="46" fill="white" transform="translate(15 15)"/>
</clipPath>
</defs>
</svg>
