<svg width="42" height="44" viewBox="0 0 42 44" fill="none" xmlns="http://www.w3.org/2000/svg">
<path d="M20.8792 0C20.9248 0.0281088 20.9808 0.0421632 21.0054 0.0772992C21.0895 0.203789 21.1631 0.340819 21.2367 0.470822C26.7424 10.1859 32.2482 19.8975 37.7539 29.6091C39.0191 31.8402 40.2843 34.0714 41.5494 36.306C41.6335 36.4536 41.7106 36.6047 41.7912 36.7558C41.8228 36.8155 41.7737 36.9069 41.7141 36.9139C41.6651 36.9209 41.6125 36.935 41.5634 36.935C41.4268 36.9385 41.2936 36.9385 41.1569 36.9385C36.0297 36.9385 30.9059 36.9385 25.7787 36.9385C25.6104 36.9385 25.4387 36.9315 25.2705 36.9244C25.1794 36.9209 25.1373 36.826 25.1829 36.7382C25.2074 36.6925 25.2284 36.6469 25.253 36.6012C25.3441 36.4396 25.4387 36.2744 25.5298 36.1128C26.3079 34.739 27.0894 33.3652 27.8674 31.9878C27.927 31.8859 27.9866 31.7805 28.0461 31.6786C28.1092 31.5662 28.1968 31.5029 28.3335 31.5029C28.4877 31.5065 28.6384 31.4994 28.7926 31.4994C29.8791 31.4994 30.9655 31.4994 32.0519 31.4994C32.1851 31.4994 32.3218 31.4819 32.4549 31.4643C32.476 31.4608 32.5005 31.4186 32.504 31.387C32.5075 31.3554 32.5005 31.3202 32.4865 31.2921C32.4234 31.1727 32.3603 31.0497 32.2937 30.9337C28.6314 24.4722 24.9691 18.0142 21.3068 11.5527C21.2157 11.3911 21.121 11.2295 21.0229 11.0678C20.9563 10.9589 20.8582 10.9624 20.7881 11.0819C20.7005 11.226 20.6129 11.3735 20.5323 11.5211C18.6713 14.8028 16.8104 18.0845 14.9494 21.3662C14.8653 21.5138 14.7707 21.6543 14.6831 21.7984C14.6585 21.837 14.5814 21.8265 14.5534 21.7843C14.4973 21.7 14.4412 21.6157 14.3922 21.5278C13.502 19.9608 12.6153 18.3937 11.7252 16.8266C11.6831 16.7528 11.6411 16.6791 11.6025 16.6018C11.5499 16.5034 11.5569 16.405 11.6095 16.3101C11.6726 16.1907 11.7392 16.0712 11.8058 15.9517C13.113 13.6468 14.4202 11.3419 15.7274 9.03347C17.3361 6.19448 18.9447 3.35549 20.5533 0.520013C20.6549 0.35136 20.739 0.165139 20.8792 0Z" fill="#04D9FF"/>
<path d="M23.9727 27.5675C23.9657 27.5992 23.9622 27.6378 23.9481 27.6659C23.8956 27.7713 23.836 27.8767 23.7799 27.9786C20.8395 33.1682 17.8957 38.3578 14.9518 43.5439C14.8677 43.6914 14.7731 43.832 14.6819 43.9725C14.6574 44.0112 14.5768 44.0077 14.5488 43.969C14.4682 43.839 14.3841 43.7125 14.3069 43.579C13.4939 42.1455 12.6808 40.7119 11.8677 39.2784C10.7778 37.3564 9.68787 35.4345 8.59443 33.5161C8.52434 33.3931 8.48929 33.2244 8.31757 33.1823C8.17738 33.2385 8.14233 33.3825 8.07575 33.4985C7.53604 34.4437 6.99983 35.3888 6.46363 36.334C6.42157 36.4078 6.37951 36.4815 6.33746 36.5553C6.12017 36.9348 6.1377 36.9383 5.70663 36.9383C3.92278 36.9383 2.14244 36.9383 0.35859 36.9383C0.292002 36.9383 0.22191 36.9348 0.155322 36.9313C0.0186426 36.9243 -0.0339266 36.847 0.0221472 36.738C0.0922394 36.6045 0.165836 36.4675 0.242938 36.3375C1.44852 34.2082 2.65411 32.079 3.8632 29.9498C5.24752 27.5113 6.62834 25.0729 8.01266 22.6344C8.09678 22.4869 8.1914 22.3463 8.28602 22.2058C8.29654 22.1917 8.35962 22.1917 8.37014 22.2058C8.44724 22.3147 8.52434 22.4271 8.59093 22.5466C9.27082 23.7447 9.95072 24.9394 10.6271 26.1375C11.8502 28.2949 13.0733 30.4557 14.3034 32.6096C14.3911 32.7606 14.4156 32.975 14.6364 33.0277C14.7976 32.9398 14.8432 32.7642 14.9238 32.6236C16.7707 29.3735 18.6141 26.1199 20.4575 22.8663C20.5592 22.6907 20.6573 22.5115 20.7589 22.3323C20.8676 22.1461 20.9342 22.1425 21.0393 22.3182C21.0744 22.3779 21.1094 22.4342 21.1409 22.4939C22.0206 24.0469 22.9003 25.5964 23.7799 27.1494C23.8395 27.2513 23.8956 27.3567 23.9481 27.4621C23.9692 27.4973 23.9692 27.5359 23.9727 27.5675Z" fill="#04D9FF"/>
</svg>
