<svg width="18" height="19" viewBox="0 0 18 19" fill="none" xmlns="http://www.w3.org/2000/svg">
<path d="M11 16C11 17.1046 10.1046 18 9 18C7.89543 18 7 17.1046 7 16C7 14.8954 7.89543 14 9 14C10.1046 14 11 14.8954 11 16Z" fill="white"/>
<path d="M11 9.5C11 10.6046 10.1046 11.5 9 11.5C7.89543 11.5 7 10.6046 7 9.5C7 8.39543 7.89543 7.5 9 7.5C10.1046 7.5 11 8.39543 11 9.5Z" fill="white"/>
<path d="M11 3C11 4.10457 10.1046 5 9 5C7.89543 5 7 4.10457 7 3C7 1.89543 7.89543 1 9 1C10.1046 1 11 1.89543 11 3Z" fill="white"/>
</svg>
