<svg width="24" height="24" viewBox="0 0 24 24" fill="none" xmlns="http://www.w3.org/2000/svg">
<path d="M8.12636 1C7.91926 0.999188 7.75071 1.16643 7.7499 1.37354V2.12134H6.9992C6.79325 2.12214 6.62649 2.28891 6.62568 2.49487C6.62649 2.70084 6.79325 2.86761 6.9992 2.86841H7.7499V3.62427C7.74908 3.83253 7.91811 4.00155 8.12636 4.00073C8.33346 3.99992 8.50067 3.83137 8.49986 3.62427V2.86841H9.24984C9.45694 2.86922 9.62547 2.70198 9.62628 2.49487C9.62547 2.28777 9.45694 2.12053 9.24984 2.12134H8.49986V1.37354C8.49905 1.16758 8.33231 1.00081 8.12636 1ZM19.3758 2.87134C19.2764 2.87077 19.1807 2.90976 19.11 2.97974L17.9858 4.1062C17.8403 4.25247 17.8403 4.48874 17.9858 4.63501C18.132 4.78045 18.3683 4.78045 18.5146 4.63501L18.9994 4.15161V4.74561C18.9994 6.87118 17.9859 8.11708 16.48 8.91455C14.9741 9.71202 12.9644 9.99707 11.1269 9.99707C10.9198 9.99626 10.7513 10.1635 10.7505 10.3706C10.7497 10.5789 10.9187 10.7479 11.1269 10.7471C13.0394 10.7471 15.1501 10.4693 16.8315 9.57886C18.513 8.68841 19.7494 7.12112 19.7494 4.74561V4.15015L20.2335 4.63501C20.3801 4.7824 20.6186 4.7824 20.7652 4.63501C20.9106 4.48874 20.9106 4.25247 20.7652 4.1062L19.6417 2.97974C19.571 2.90976 19.4753 2.87077 19.3758 2.87134ZM12.6298 4.75147C12.4239 4.75227 12.2571 4.91904 12.2563 5.125V5.50147H11.8798C11.6739 5.50228 11.5071 5.66904 11.5063 5.875C11.5055 6.0821 11.6727 6.25065 11.8798 6.25147H12.2563V6.625C12.2555 6.83211 12.4227 7.00066 12.6298 7.00147C12.8381 7.00228 13.0071 6.83325 13.0063 6.625V6.25147H13.3798C13.588 6.25228 13.757 6.08325 13.7562 5.875C13.7554 5.6679 13.5869 5.50066 13.3798 5.50147H13.0063V5.125C13.0054 4.9179 12.8369 4.75066 12.6298 4.75147ZM5.12576 6.24561C4.50885 6.24561 4.00154 6.75294 4.00154 7.36987C4.00154 7.9868 4.50885 8.49634 5.12576 8.49634C5.74265 8.49634 6.24924 7.9868 6.24924 7.36987C6.24924 6.75294 5.74265 6.24561 5.12576 6.24561ZM5.5022 7.36987C5.5022 7.58157 5.33723 7.74634 5.12576 7.74634C4.91426 7.74634 4.75223 7.58157 4.75223 7.36987C4.75223 7.16479 4.90419 7.00604 5.11587 6.99634C5.33723 6.99634 5.5022 7.15818 5.5022 7.36987ZM23.1236 23.5C23.3318 23.5008 23.5008 23.3318 23.5 23.1235V9.24634C23.5 8.62952 22.9933 8.11987 22.3766 8.11987H21.6265C21.0098 8.11987 20.4994 8.62952 20.4994 9.24634V22.75H19.7494V11.4971C19.7494 10.8803 19.2427 10.3706 18.626 10.3706H17.8753C17.2585 10.3706 16.7518 10.8803 16.7518 11.4971V22.75H16.0018V13.7478C16.0018 13.131 15.4914 12.6213 14.8747 12.6213H14.1247C13.5079 12.6213 13.0012 13.131 13.0012 13.7478V14.5762C12.1213 13.678 10.9287 13.1043 9.62635 13.011V10.3706C9.62564 10.1634 9.45708 9.99625 9.24991 9.99707C6.68548 9.99707 4.2671 11.1898 2.70602 13.2249C1.14492 15.2599 0.617082 17.9059 1.28079 20.3835C1.33408 20.584 1.53969 20.7024 1.73998 20.6487L2.83858 20.3542C3.16805 21.3584 3.72828 22.2743 4.47766 23.0239C4.62424 23.1712 4.8628 23.1712 5.00938 23.0239L5.81426 22.2183C6.78666 23.0608 8.0133 23.4986 9.25066 23.4996L23.1236 23.5ZM21.6265 8.86987H22.3765C22.5907 8.86987 22.75 9.03195 22.75 9.24634V22.75H21.2494V9.24634C21.2494 9.03195 21.4124 8.86987 21.6265 8.86987ZM8.87639 10.761V17.9607L1.91502 19.8247C1.45947 17.684 1.96151 15.4279 3.30145 13.6812C4.6411 11.9348 6.69193 10.8753 8.87639 10.761ZM17.8753 11.1206H18.626C18.8401 11.1206 18.9995 11.2827 18.9995 11.4971V22.75H17.4988V11.4971C17.4988 11.2827 17.6611 11.1206 17.8753 11.1206ZM14.1247 13.3713H14.8747C15.0888 13.3713 15.2511 13.5334 15.2511 13.7478V22.75H13.7512V20.9475C14.4639 19.7567 14.6984 18.2987 14.321 16.8899C14.1921 16.4087 13.9984 15.9583 13.7512 15.5466V13.7478C13.7512 13.5334 13.9105 13.3713 14.1247 13.3713ZM9.62635 13.7639C11.5047 13.9201 13.101 15.2358 13.5959 17.0833C14.1235 19.0529 13.2659 21.127 11.5005 22.1465C9.84432 23.103 7.78465 22.9053 6.34599 21.6865L9.50771 18.5225C9.58155 18.4533 9.62634 18.355 9.62634 18.2485L9.62635 13.7639ZM7.99313 18.9744L4.75085 22.2212C4.23218 21.6291 3.81809 20.9071 3.5651 20.1616L7.99313 18.9744ZM13.0012 21.9194V22.75H11.9539C12.3441 22.5155 12.6934 22.2345 13.0012 21.9194Z" fill="white"/>
</svg>
