<svg width="41" height="40" viewBox="0 0 41 40" fill="none" xmlns="http://www.w3.org/2000/svg">
<rect x="0.666626" width="40" height="40" rx="20" fill="#04D9FF"/>
<path fill-rule="evenodd" clip-rule="evenodd" d="M17.1167 20.9677V21.2903C16.6888 21.2903 16.2785 21.4603 15.976 21.7627C15.6735 22.0652 15.5036 22.4755 15.5036 22.9032C15.5036 23.331 15.6735 23.7412 15.976 24.0437C16.2785 24.3462 16.6888 24.5161 17.1167 24.5161V26.4516C16.86 26.4516 16.6138 26.3497 16.4323 26.1682C16.2508 25.9867 16.1488 25.7405 16.1488 25.4839V25.1613H15.5036V25.4839C15.5041 25.9115 15.6742 26.3214 15.9766 26.6238C16.279 26.9262 16.689 27.0963 17.1167 27.0968V27.4194H17.7619V27.0968C18.1897 27.0968 18.6 26.9268 18.9025 26.6244C19.205 26.3219 19.375 25.9116 19.375 25.4839C19.375 25.0561 19.205 24.6459 18.9025 24.3434C18.6 24.0409 18.1897 23.871 17.7619 23.871V21.9355C18.0186 21.9355 18.2648 22.0374 18.4463 22.2189C18.6278 22.4004 18.7297 22.6466 18.7297 22.9032V23.2258H19.375V22.9032C19.3745 22.4756 19.2043 22.0657 18.9019 21.7633C18.5995 21.4609 18.1895 21.2908 17.7619 21.2903V20.9677H17.1167ZM18.7297 25.4839C18.7297 25.7405 18.6278 25.9867 18.4463 26.1682C18.2648 26.3497 18.0186 26.4516 17.7619 26.4516V24.5161C18.0186 24.5161 18.2648 24.6181 18.4463 24.7996C18.6278 24.9811 18.7297 25.2272 18.7297 25.4839ZM17.1167 23.871C16.86 23.871 16.6138 23.769 16.4323 23.5875C16.2508 23.406 16.1488 23.1599 16.1488 22.9032C16.1488 22.6466 16.2508 22.4004 16.4323 22.2189C16.6138 22.0374 16.86 21.9355 17.1167 21.9355V23.871Z" fill="#09090B"/>
<path fill-rule="evenodd" clip-rule="evenodd" d="M12.9226 24.1935C12.9226 25.0868 13.1875 25.9599 13.6838 26.7026C14.1801 27.4452 14.8855 28.0241 15.7108 28.3659C16.5361 28.7077 17.4443 28.7972 18.3204 28.6229C19.1966 28.4486 20.0014 28.0185 20.633 27.3869C21.2647 26.7553 21.6948 25.9506 21.8691 25.0746C22.0434 24.1986 21.954 23.2905 21.6121 22.4653C21.2702 21.6401 20.6913 20.9348 19.9486 20.4385C19.2058 19.9423 18.3326 19.6774 17.4393 19.6774C16.2418 19.6787 15.0937 20.1549 14.2469 21.0016C13.4002 21.8482 12.9239 22.9962 12.9226 24.1935ZM21.3107 24.1935C21.3107 24.9592 21.0836 25.7076 20.6582 26.3441C20.2328 26.9807 19.6282 27.4769 18.9208 27.7699C18.2134 28.0628 17.435 28.1395 16.684 27.9901C15.933 27.8408 15.2432 27.4721 14.7018 26.9307C14.1604 26.3894 13.7916 25.6996 13.6423 24.9487C13.4929 24.1978 13.5695 23.4195 13.8626 22.7122C14.1556 22.0049 14.6518 21.4003 15.2884 20.975C15.9251 20.5496 16.6736 20.3226 17.4393 20.3226C18.4657 20.3237 19.4498 20.7319 20.1755 21.4576C20.9013 22.1833 21.3096 23.1672 21.3107 24.1935Z" fill="#09090B"/>
<path fill-rule="evenodd" clip-rule="evenodd" d="M24.5369 17.7419C24.4514 17.7419 24.3693 17.7079 24.3088 17.6474L23.2464 16.5852L20.8423 18.989C20.8571 19.0041 20.871 19.02 20.885 19.0358C20.9041 19.0576 20.9233 19.0794 20.9446 19.099L22.4502 20.489C22.8063 20.8208 23.1163 21.1988 23.3719 21.6129H30.344C30.4296 21.6129 30.5116 21.6469 30.5721 21.7074C30.6326 21.7679 30.6666 21.8499 30.6666 21.9355V29.6774C30.6666 29.763 30.6326 29.845 30.5721 29.9055C30.5116 29.966 30.4296 30 30.344 30H16.1489C15.0459 29.9995 13.9687 29.6666 13.0579 29.0446C12.1471 28.4226 11.4451 27.5405 11.0433 26.5135C10.6416 25.4864 10.5589 24.3621 10.8061 23.2873C11.0533 22.2125 11.6188 21.2372 12.4288 20.4887L13.9341 19.099C14.2462 18.8115 14.4904 18.4581 14.649 18.0645H14.5358C14.2791 18.0645 14.0329 17.9626 13.8514 17.7811C13.6699 17.5996 13.5679 17.3534 13.5679 17.0968C13.5679 16.8401 13.6699 16.594 13.8514 16.4125C14.0329 16.231 14.2791 16.129 14.5358 16.129H14.7268C14.6103 15.7581 14.4197 15.4146 14.1667 15.1194L13.5715 14.4245C13.3579 14.1752 13.2491 13.8528 13.268 13.525C13.287 13.1972 13.4321 12.8895 13.6731 12.6665C13.914 12.4434 14.232 12.3223 14.5603 12.3285C14.8886 12.3348 15.2017 12.4679 15.4339 12.7L15.8943 13.161C15.9225 13.1859 15.9565 13.2033 15.9931 13.2118C16.0298 13.2202 16.068 13.2194 16.1042 13.2093C16.1405 13.1992 16.1737 13.1803 16.2007 13.1542C16.2278 13.128 16.2479 13.0956 16.2592 13.0597L16.3237 12.8048C16.3859 12.5563 16.5294 12.3356 16.7314 12.178C16.9334 12.0203 17.1823 11.9347 17.4385 11.9347C17.6948 11.9347 17.9437 12.0203 18.1457 12.178C18.3476 12.3356 18.4911 12.5563 18.5533 12.8048L18.6179 13.0606C18.6293 13.0964 18.6494 13.1288 18.6765 13.1548C18.7036 13.1808 18.7367 13.1996 18.7729 13.2096C18.8091 13.2196 18.8472 13.2204 18.8838 13.212C18.9204 13.2036 18.9543 13.1861 18.9824 13.1613L19.4447 12.7C19.677 12.4679 19.9901 12.3348 20.3184 12.3285C20.6467 12.3223 20.9647 12.4434 21.2056 12.6665C21.4465 12.8895 21.5917 13.1972 21.6106 13.525C21.6296 13.8528 21.5208 14.1752 21.3072 14.4245L20.7123 15.119C20.459 15.4143 20.2683 15.7579 20.1519 16.129H20.2093L23.0183 13.3203C23.0788 13.2598 23.1609 13.2259 23.2464 13.2259C23.332 13.2259 23.414 13.2598 23.4745 13.3203L24.5369 14.3826L27.6295 11.2903L26.8897 10.5506C26.8446 10.5055 26.8139 10.4481 26.8015 10.3855C26.789 10.3229 26.7954 10.2581 26.8198 10.1991C26.8443 10.1402 26.8856 10.0898 26.9386 10.0544C26.9917 10.0189 27.054 10 27.1178 10H30.344C30.4296 10 30.5116 10.034 30.5721 10.0945C30.6326 10.155 30.6666 10.237 30.6666 10.3226V13.5484C30.6665 13.6121 30.6476 13.6745 30.6121 13.7274C30.5766 13.7804 30.5262 13.8217 30.4673 13.8461C30.4084 13.8705 30.3436 13.8768 30.281 13.8644C30.2185 13.8519 30.161 13.8212 30.1159 13.7761L29.3762 13.0368L24.765 17.6474C24.7045 17.7079 24.6225 17.7419 24.5369 17.7419ZM14.0615 14.0048L14.6568 14.6994C15.008 15.1129 15.2586 15.6023 15.3888 16.129H19.4899C19.6204 15.6021 19.8714 15.1126 20.2232 14.699L20.8181 14.0048C20.9236 13.8822 20.9775 13.7235 20.9683 13.562C20.9592 13.4005 20.8878 13.2488 20.7691 13.1389C20.6504 13.029 20.4938 12.9693 20.332 12.9725C20.1703 12.9758 20.0161 13.0416 19.9019 13.1561L19.4396 13.6184C19.3317 13.7262 19.1971 13.8036 19.0495 13.8424C18.902 13.8813 18.7468 13.8804 18.5997 13.8397C18.4527 13.7991 18.319 13.7201 18.2124 13.611C18.1058 13.5018 18.0301 13.3664 17.9929 13.2184L17.9284 12.9623C17.9012 12.8532 17.8383 12.7564 17.7497 12.6872C17.6611 12.618 17.5519 12.5804 17.4395 12.5804C17.3271 12.5804 17.2179 12.618 17.1293 12.6872C17.0407 12.7564 16.9778 12.8532 16.9506 12.9623L16.886 13.2174C16.8491 13.3655 16.7734 13.5012 16.6668 13.6105C16.5603 13.7198 16.4266 13.7989 16.2795 13.8397C16.1324 13.8804 15.977 13.8814 15.8294 13.8426C15.6818 13.8037 15.5471 13.7263 15.4391 13.6184L14.9778 13.1561C14.8636 13.0416 14.7094 12.9758 14.5476 12.9725C14.3859 12.9693 14.2292 13.029 14.1105 13.1389C13.9918 13.2488 13.9204 13.4005 13.9113 13.562C13.9022 13.7235 13.956 13.8822 14.0615 14.0048ZM14.3077 16.8687C14.2472 16.9292 14.2132 17.0112 14.2132 17.0968C14.2132 17.1823 14.2472 17.2644 14.3077 17.3249C14.3682 17.3854 14.4502 17.4194 14.5358 17.4194H18.9189L19.5641 16.7742H14.5358C14.4502 16.7742 14.3682 16.8082 14.3077 16.8687ZM30.0214 29.3548V22.2581H23.7223C23.8147 22.4613 23.8946 22.67 23.9617 22.8829C23.967 22.8854 23.9725 22.8878 23.9779 22.8902C23.9876 22.8944 23.9973 22.8987 24.0065 22.9032H28.0857C28.1713 22.9032 28.2533 22.9372 28.3138 22.9977C28.3743 23.0582 28.4083 23.1403 28.4083 23.2258C28.4083 23.3969 28.4763 23.561 28.5973 23.682C28.7183 23.803 28.8824 23.871 29.0535 23.871C29.1391 23.871 29.2212 23.905 29.2817 23.9654C29.3422 24.0259 29.3762 24.108 29.3762 24.1935V27.4194C29.3762 27.5049 29.3422 27.587 29.2817 27.6475C29.2212 27.708 29.1391 27.7419 29.0535 27.7419C28.8824 27.7419 28.7183 27.8099 28.5973 27.9309C28.4763 28.0519 28.4083 28.216 28.4083 28.3871C28.4083 28.4727 28.3743 28.5547 28.3138 28.6152C28.2533 28.6757 28.1713 28.7097 28.0857 28.7097H23.9981C23.359 29.0253 22.631 29.1126 21.9353 28.9571C21.735 29.1039 21.5248 29.2368 21.3062 29.3548H30.0214ZM25.0657 25.0412C24.9045 24.5255 24.5852 24.0736 24.153 23.7494C24.2812 24.5892 24.2084 25.4474 23.9405 26.2536C23.6726 27.0599 23.2173 27.791 22.6118 28.3871C23.1522 28.3859 23.6785 28.2149 24.1163 27.8983C24.5541 27.5817 24.8814 27.1355 25.0518 26.6228C25.2221 26.1101 25.227 25.5568 25.0657 25.0412ZM27.804 23.5484H24.9057C25.4972 24.1514 25.8276 24.9627 25.8268 25.8074C25.8259 26.6521 25.4933 27.4627 24.9005 28.0645H27.804C27.8621 27.8416 27.9786 27.6381 28.1416 27.4752C28.3045 27.3123 28.5079 27.1958 28.7309 27.1377V24.4752C28.5079 24.4171 28.3045 24.3006 28.1416 24.1377C27.9786 23.9748 27.8621 23.7713 27.804 23.5484ZM22.0127 20.9629L20.5068 19.5729C20.4817 19.5497 20.4591 19.524 20.4364 19.4983C20.4203 19.48 20.4041 19.4616 20.3871 19.4442L19.9257 19.9055C19.8652 19.966 19.7832 19.9999 19.6977 19.9999C19.6121 19.9999 19.5301 19.966 19.4696 19.9055L18.1791 18.6152C18.1186 18.5547 18.0846 18.4726 18.0846 18.3871C18.0846 18.3016 18.1186 18.2195 18.1791 18.159L18.2736 18.0645H15.3252C15.1431 18.6414 14.8146 19.1612 14.3716 19.5732L12.8662 20.9626C12.1515 21.623 11.6526 22.4836 11.4345 23.4319C11.2165 24.3803 11.2894 25.3723 11.6439 26.2786C11.9984 27.1848 12.6179 27.9631 13.4215 28.5119C14.2252 29.0607 15.1757 29.3545 16.1489 29.3548H18.7298C19.703 29.3545 20.6534 29.0607 21.457 28.512C22.2607 27.9632 22.8802 27.185 23.2347 26.2788C23.5892 25.3726 23.6622 24.3806 23.4442 23.4323C23.2262 22.484 22.7274 21.6234 22.0127 20.9629ZM18.8634 18.3871L19.6977 19.2213L23.0183 15.901C23.0788 15.8405 23.1609 15.8065 23.2464 15.8065C23.332 15.8065 23.414 15.8405 23.4745 15.901L24.5369 16.9632L29.1481 12.3526C29.2086 12.2921 29.2906 12.2581 29.3762 12.2581C29.4617 12.2581 29.5437 12.2921 29.6042 12.3526L30.0214 12.7694V10.6452H27.8966L28.3138 11.0623C28.3743 11.1228 28.4082 11.2048 28.4082 11.2903C28.4082 11.3759 28.3743 11.4579 28.3138 11.5184L24.765 15.0668C24.7045 15.1272 24.6225 15.1612 24.5369 15.1612C24.4514 15.1612 24.3693 15.1272 24.3088 15.0668L23.2464 14.0045L18.8634 18.3871Z" fill="#09090B"/>
</svg>
