<svg width="41" height="40" viewBox="0 0 41 40" fill="none" xmlns="http://www.w3.org/2000/svg">
<rect x="0.666504" width="40" height="40" rx="20" fill="#C5FFFF"/>
<g clip-path="url(#clip0_1_10703)">
<mask id="path-2-outside-1_1_10703" maskUnits="userSpaceOnUse" x="11.1685" y="9.5" width="20" height="20" fill="black">
<rect fill="white" x="11.1685" y="9.5" width="20" height="20"/>
<path d="M13.0665 21.9005C13.1846 21.9008 13.3017 21.8775 13.4107 21.8319C13.5197 21.7863 13.6185 21.7194 13.7013 21.635L15.1665 20.1749L15.6465 20.6612C15.3488 21.5448 15.1869 22.4684 15.1665 23.4005C15.1665 26.6405 17.3535 28.5005 21.1665 28.5005C24.9795 28.5005 27.1665 26.6405 27.1665 23.4005C27.1201 22.0751 26.8179 20.7712 26.2764 19.5605L28.3089 17.5283L28.9035 18.1232C28.9857 18.2053 29.0896 18.2621 29.2031 18.287C29.3165 18.3118 29.4347 18.3037 29.5437 18.2635C29.6526 18.2233 29.7478 18.1527 29.8179 18.0601C29.8881 17.9675 29.9302 17.8568 29.9394 17.741L30.1647 15.0608C30.1717 14.9725 30.1594 14.8836 30.1287 14.8005C30.0979 14.7173 30.0495 14.6419 29.9867 14.5793C29.924 14.5167 29.8484 14.4684 29.7651 14.438C29.6819 14.4075 29.593 14.3954 29.5047 14.4026L26.8275 14.6273C26.7115 14.6362 26.6005 14.6781 26.5077 14.7482C26.4148 14.8183 26.344 14.9135 26.3037 15.0226C26.2634 15.1317 26.2552 15.2501 26.2801 15.3637C26.305 15.4773 26.3621 15.5814 26.4444 15.6635L27.039 16.2581L25.4136 17.8835C24.993 17.1726 24.467 16.5296 23.8536 15.9764C23.9731 15.8743 24.0634 15.7423 24.1155 15.594C24.1675 15.4456 24.1795 15.2861 24.15 15.1317C24.1206 14.9773 24.0509 14.8334 23.9479 14.7145C23.845 14.5957 23.7125 14.5062 23.5638 14.4551L24.3045 13.1756C24.4555 12.9319 24.5044 12.6384 24.4405 12.3589C24.3767 12.0794 24.2053 11.8362 23.9634 11.6822C23.6624 11.4828 23.3147 11.365 22.9545 11.3405C22.7366 11.0776 22.4634 10.8659 22.1543 10.7206C21.8453 10.5753 21.508 10.5 21.1665 10.5C20.825 10.5 20.4877 10.5753 20.1786 10.7206C19.8696 10.8659 19.5964 11.0776 19.3785 11.3405C19.0183 11.3649 18.6706 11.4824 18.3696 11.6816C18.1279 11.8347 17.9562 12.0767 17.8917 12.3553C17.8271 12.634 17.8749 12.9268 18.0246 13.1705L18.7686 14.4563C18.6199 14.5074 18.4874 14.5969 18.3844 14.7157C18.2815 14.8346 18.2117 14.9785 18.1823 15.1329C18.1529 15.2873 18.1648 15.4468 18.2169 15.5952C18.269 15.7435 18.3593 15.8755 18.4788 15.9776C17.6048 16.7915 16.895 17.7655 16.3881 18.8468L15.8034 18.2678C15.6328 18.1029 15.4048 18.0107 15.1675 18.0107C14.9303 18.0107 14.7023 18.1029 14.5317 18.2678L12.4332 20.3678C12.3495 20.4507 12.2831 20.5492 12.2377 20.6578C12.1922 20.7664 12.1687 20.8829 12.1685 21.0006C12.1682 21.1183 12.1912 21.2349 12.2362 21.3437C12.2812 21.4524 12.3472 21.5513 12.4305 21.6344C12.5134 21.7189 12.6124 21.7859 12.7216 21.8316C12.8309 21.8773 12.9481 21.9008 13.0665 21.9005ZM27.6765 16.4705C27.7327 16.4143 27.7643 16.338 27.7643 16.2584C27.7643 16.1789 27.7327 16.1026 27.6765 16.0463L26.8764 15.2255L29.5665 15.0125L29.3265 17.6987L28.5198 16.892C28.4635 16.8358 28.3872 16.8042 28.3077 16.8042C28.2281 16.8042 28.1518 16.8358 28.0956 16.892L26.0106 18.9767C25.919 18.7877 25.8235 18.6022 25.7241 18.4202L27.6765 16.4705ZM18.6861 12.1919C18.9347 12.0226 19.2292 11.9334 19.53 11.9363C19.5799 11.9363 19.6291 11.9239 19.673 11.9001C19.7169 11.8763 19.7541 11.842 19.7814 11.8001C19.9413 11.5832 20.15 11.4068 20.3906 11.2853C20.6312 11.1638 20.8969 11.1004 21.1665 11.1004C21.436 11.1004 21.7018 11.1638 21.9424 11.2853C22.183 11.4068 22.3916 11.5832 22.5516 11.8001C22.5788 11.842 22.6161 11.8763 22.66 11.9001C22.7039 11.9239 22.7531 11.9363 22.803 11.9363C23.1038 11.9334 23.3983 12.0226 23.6469 12.1919C23.754 12.2641 23.8288 12.3751 23.8553 12.5015C23.8819 12.6279 23.8581 12.7596 23.7891 12.8687L22.9026 14.4005H19.4304L18.5403 12.8624C18.473 12.7536 18.4506 12.6228 18.4778 12.4977C18.505 12.3727 18.5797 12.2631 18.6861 12.1919ZM19.0665 15.0005H23.2665C23.346 15.0005 23.4224 15.0321 23.4786 15.0884C23.5349 15.1447 23.5665 15.221 23.5665 15.3005C23.5665 15.3801 23.5349 15.4564 23.4786 15.5127C23.4224 15.5689 23.346 15.6005 23.2665 15.6005H19.0665C18.9869 15.6005 18.9106 15.5689 18.8543 15.5127C18.7981 15.4564 18.7665 15.3801 18.7665 15.3005C18.7665 15.221 18.7981 15.1447 18.8543 15.0884C18.9106 15.0321 18.9869 15.0005 19.0665 15.0005ZM19.1658 16.2005H23.1672C24.924 17.4305 26.5665 20.8937 26.5665 23.4005C26.5665 27.3158 23.1834 27.9005 21.1665 27.9005C19.1496 27.9005 15.7665 27.3158 15.7665 23.4005C15.7665 20.8937 17.409 17.4305 19.1658 16.2005ZM12.8565 20.7905L14.9565 18.6905C15.0126 18.6353 15.0883 18.6046 15.167 18.605C15.2457 18.6055 15.321 18.6371 15.3765 18.6929L16.116 19.4249C16.0278 19.6262 15.9438 19.8293 15.8658 20.0345L15.378 19.541C15.3503 19.5128 15.3172 19.4903 15.2808 19.4748C15.2443 19.4594 15.2052 19.4513 15.1656 19.451C15.086 19.4511 15.0097 19.4827 14.9535 19.5389L13.2765 21.2129C13.2204 21.2682 13.1447 21.2989 13.066 21.2985C12.9873 21.298 12.9119 21.2664 12.8565 21.2105C12.8284 21.1832 12.8061 21.1506 12.7908 21.1145C12.7756 21.0785 12.7677 21.0397 12.7677 21.0005C12.7677 20.9614 12.7756 20.9226 12.7908 20.8865C12.8061 20.8505 12.8284 20.8178 12.8565 20.7905Z"/>
</mask>
<path d="M13.0665 21.9005C13.1846 21.9008 13.3017 21.8775 13.4107 21.8319C13.5197 21.7863 13.6185 21.7194 13.7013 21.635L15.1665 20.1749L15.6465 20.6612C15.3488 21.5448 15.1869 22.4684 15.1665 23.4005C15.1665 26.6405 17.3535 28.5005 21.1665 28.5005C24.9795 28.5005 27.1665 26.6405 27.1665 23.4005C27.1201 22.0751 26.8179 20.7712 26.2764 19.5605L28.3089 17.5283L28.9035 18.1232C28.9857 18.2053 29.0896 18.2621 29.2031 18.287C29.3165 18.3118 29.4347 18.3037 29.5437 18.2635C29.6526 18.2233 29.7478 18.1527 29.8179 18.0601C29.8881 17.9675 29.9302 17.8568 29.9394 17.741L30.1647 15.0608C30.1717 14.9725 30.1594 14.8836 30.1287 14.8005C30.0979 14.7173 30.0495 14.6419 29.9867 14.5793C29.924 14.5167 29.8484 14.4684 29.7651 14.438C29.6819 14.4075 29.593 14.3954 29.5047 14.4026L26.8275 14.6273C26.7115 14.6362 26.6005 14.6781 26.5077 14.7482C26.4148 14.8183 26.344 14.9135 26.3037 15.0226C26.2634 15.1317 26.2552 15.2501 26.2801 15.3637C26.305 15.4773 26.3621 15.5814 26.4444 15.6635L27.039 16.2581L25.4136 17.8835C24.993 17.1726 24.467 16.5296 23.8536 15.9764C23.9731 15.8743 24.0634 15.7423 24.1155 15.594C24.1675 15.4456 24.1795 15.2861 24.15 15.1317C24.1206 14.9773 24.0509 14.8334 23.9479 14.7145C23.845 14.5957 23.7125 14.5062 23.5638 14.4551L24.3045 13.1756C24.4555 12.9319 24.5044 12.6384 24.4405 12.3589C24.3767 12.0794 24.2053 11.8362 23.9634 11.6822C23.6624 11.4828 23.3147 11.365 22.9545 11.3405C22.7366 11.0776 22.4634 10.8659 22.1543 10.7206C21.8453 10.5753 21.508 10.5 21.1665 10.5C20.825 10.5 20.4877 10.5753 20.1786 10.7206C19.8696 10.8659 19.5964 11.0776 19.3785 11.3405C19.0183 11.3649 18.6706 11.4824 18.3696 11.6816C18.1279 11.8347 17.9562 12.0767 17.8917 12.3553C17.8271 12.634 17.8749 12.9268 18.0246 13.1705L18.7686 14.4563C18.6199 14.5074 18.4874 14.5969 18.3844 14.7157C18.2815 14.8346 18.2117 14.9785 18.1823 15.1329C18.1529 15.2873 18.1648 15.4468 18.2169 15.5952C18.269 15.7435 18.3593 15.8755 18.4788 15.9776C17.6048 16.7915 16.895 17.7655 16.3881 18.8468L15.8034 18.2678C15.6328 18.1029 15.4048 18.0107 15.1675 18.0107C14.9303 18.0107 14.7023 18.1029 14.5317 18.2678L12.4332 20.3678C12.3495 20.4507 12.2831 20.5492 12.2377 20.6578C12.1922 20.7664 12.1687 20.8829 12.1685 21.0006C12.1682 21.1183 12.1912 21.2349 12.2362 21.3437C12.2812 21.4524 12.3472 21.5513 12.4305 21.6344C12.5134 21.7189 12.6124 21.7859 12.7216 21.8316C12.8309 21.8773 12.9481 21.9008 13.0665 21.9005ZM27.6765 16.4705C27.7327 16.4143 27.7643 16.338 27.7643 16.2584C27.7643 16.1789 27.7327 16.1026 27.6765 16.0463L26.8764 15.2255L29.5665 15.0125L29.3265 17.6987L28.5198 16.892C28.4635 16.8358 28.3872 16.8042 28.3077 16.8042C28.2281 16.8042 28.1518 16.8358 28.0956 16.892L26.0106 18.9767C25.919 18.7877 25.8235 18.6022 25.7241 18.4202L27.6765 16.4705ZM18.6861 12.1919C18.9347 12.0226 19.2292 11.9334 19.53 11.9363C19.5799 11.9363 19.6291 11.9239 19.673 11.9001C19.7169 11.8763 19.7541 11.842 19.7814 11.8001C19.9413 11.5832 20.15 11.4068 20.3906 11.2853C20.6312 11.1638 20.8969 11.1004 21.1665 11.1004C21.436 11.1004 21.7018 11.1638 21.9424 11.2853C22.183 11.4068 22.3916 11.5832 22.5516 11.8001C22.5788 11.842 22.6161 11.8763 22.66 11.9001C22.7039 11.9239 22.7531 11.9363 22.803 11.9363C23.1038 11.9334 23.3983 12.0226 23.6469 12.1919C23.754 12.2641 23.8288 12.3751 23.8553 12.5015C23.8819 12.6279 23.8581 12.7596 23.7891 12.8687L22.9026 14.4005H19.4304L18.5403 12.8624C18.473 12.7536 18.4506 12.6228 18.4778 12.4977C18.505 12.3727 18.5797 12.2631 18.6861 12.1919ZM19.0665 15.0005H23.2665C23.346 15.0005 23.4224 15.0321 23.4786 15.0884C23.5349 15.1447 23.5665 15.221 23.5665 15.3005C23.5665 15.3801 23.5349 15.4564 23.4786 15.5127C23.4224 15.5689 23.346 15.6005 23.2665 15.6005H19.0665C18.9869 15.6005 18.9106 15.5689 18.8543 15.5127C18.7981 15.4564 18.7665 15.3801 18.7665 15.3005C18.7665 15.221 18.7981 15.1447 18.8543 15.0884C18.9106 15.0321 18.9869 15.0005 19.0665 15.0005ZM19.1658 16.2005H23.1672C24.924 17.4305 26.5665 20.8937 26.5665 23.4005C26.5665 27.3158 23.1834 27.9005 21.1665 27.9005C19.1496 27.9005 15.7665 27.3158 15.7665 23.4005C15.7665 20.8937 17.409 17.4305 19.1658 16.2005ZM12.8565 20.7905L14.9565 18.6905C15.0126 18.6353 15.0883 18.6046 15.167 18.605C15.2457 18.6055 15.321 18.6371 15.3765 18.6929L16.116 19.4249C16.0278 19.6262 15.9438 19.8293 15.8658 20.0345L15.378 19.541C15.3503 19.5128 15.3172 19.4903 15.2808 19.4748C15.2443 19.4594 15.2052 19.4513 15.1656 19.451C15.086 19.4511 15.0097 19.4827 14.9535 19.5389L13.2765 21.2129C13.2204 21.2682 13.1447 21.2989 13.066 21.2985C12.9873 21.298 12.9119 21.2664 12.8565 21.2105C12.8284 21.1832 12.8061 21.1506 12.7908 21.1145C12.7756 21.0785 12.7677 21.0397 12.7677 21.0005C12.7677 20.9614 12.7756 20.9226 12.7908 20.8865C12.8061 20.8505 12.8284 20.8178 12.8565 20.7905Z" fill="#27313E"/>
<path d="M13.0665 21.9005C13.1846 21.9008 13.3017 21.8775 13.4107 21.8319C13.5197 21.7863 13.6185 21.7194 13.7013 21.635L15.1665 20.1749L15.6465 20.6612C15.3488 21.5448 15.1869 22.4684 15.1665 23.4005C15.1665 26.6405 17.3535 28.5005 21.1665 28.5005C24.9795 28.5005 27.1665 26.6405 27.1665 23.4005C27.1201 22.0751 26.8179 20.7712 26.2764 19.5605L28.3089 17.5283L28.9035 18.1232C28.9857 18.2053 29.0896 18.2621 29.2031 18.287C29.3165 18.3118 29.4347 18.3037 29.5437 18.2635C29.6526 18.2233 29.7478 18.1527 29.8179 18.0601C29.8881 17.9675 29.9302 17.8568 29.9394 17.741L30.1647 15.0608C30.1717 14.9725 30.1594 14.8836 30.1287 14.8005C30.0979 14.7173 30.0495 14.6419 29.9867 14.5793C29.924 14.5167 29.8484 14.4684 29.7651 14.438C29.6819 14.4075 29.593 14.3954 29.5047 14.4026L26.8275 14.6273C26.7115 14.6362 26.6005 14.6781 26.5077 14.7482C26.4148 14.8183 26.344 14.9135 26.3037 15.0226C26.2634 15.1317 26.2552 15.2501 26.2801 15.3637C26.305 15.4773 26.3621 15.5814 26.4444 15.6635L27.039 16.2581L25.4136 17.8835C24.993 17.1726 24.467 16.5296 23.8536 15.9764C23.9731 15.8743 24.0634 15.7423 24.1155 15.594C24.1675 15.4456 24.1795 15.2861 24.15 15.1317C24.1206 14.9773 24.0509 14.8334 23.9479 14.7145C23.845 14.5957 23.7125 14.5062 23.5638 14.4551L24.3045 13.1756C24.4555 12.9319 24.5044 12.6384 24.4405 12.3589C24.3767 12.0794 24.2053 11.8362 23.9634 11.6822C23.6624 11.4828 23.3147 11.365 22.9545 11.3405C22.7366 11.0776 22.4634 10.8659 22.1543 10.7206C21.8453 10.5753 21.508 10.5 21.1665 10.5C20.825 10.5 20.4877 10.5753 20.1786 10.7206C19.8696 10.8659 19.5964 11.0776 19.3785 11.3405C19.0183 11.3649 18.6706 11.4824 18.3696 11.6816C18.1279 11.8347 17.9562 12.0767 17.8917 12.3553C17.8271 12.634 17.8749 12.9268 18.0246 13.1705L18.7686 14.4563C18.6199 14.5074 18.4874 14.5969 18.3844 14.7157C18.2815 14.8346 18.2117 14.9785 18.1823 15.1329C18.1529 15.2873 18.1648 15.4468 18.2169 15.5952C18.269 15.7435 18.3593 15.8755 18.4788 15.9776C17.6048 16.7915 16.895 17.7655 16.3881 18.8468L15.8034 18.2678C15.6328 18.1029 15.4048 18.0107 15.1675 18.0107C14.9303 18.0107 14.7023 18.1029 14.5317 18.2678L12.4332 20.3678C12.3495 20.4507 12.2831 20.5492 12.2377 20.6578C12.1922 20.7664 12.1687 20.8829 12.1685 21.0006C12.1682 21.1183 12.1912 21.2349 12.2362 21.3437C12.2812 21.4524 12.3472 21.5513 12.4305 21.6344C12.5134 21.7189 12.6124 21.7859 12.7216 21.8316C12.8309 21.8773 12.9481 21.9008 13.0665 21.9005ZM27.6765 16.4705C27.7327 16.4143 27.7643 16.338 27.7643 16.2584C27.7643 16.1789 27.7327 16.1026 27.6765 16.0463L26.8764 15.2255L29.5665 15.0125L29.3265 17.6987L28.5198 16.892C28.4635 16.8358 28.3872 16.8042 28.3077 16.8042C28.2281 16.8042 28.1518 16.8358 28.0956 16.892L26.0106 18.9767C25.919 18.7877 25.8235 18.6022 25.7241 18.4202L27.6765 16.4705ZM18.6861 12.1919C18.9347 12.0226 19.2292 11.9334 19.53 11.9363C19.5799 11.9363 19.6291 11.9239 19.673 11.9001C19.7169 11.8763 19.7541 11.842 19.7814 11.8001C19.9413 11.5832 20.15 11.4068 20.3906 11.2853C20.6312 11.1638 20.8969 11.1004 21.1665 11.1004C21.436 11.1004 21.7018 11.1638 21.9424 11.2853C22.183 11.4068 22.3916 11.5832 22.5516 11.8001C22.5788 11.842 22.6161 11.8763 22.66 11.9001C22.7039 11.9239 22.7531 11.9363 22.803 11.9363C23.1038 11.9334 23.3983 12.0226 23.6469 12.1919C23.754 12.2641 23.8288 12.3751 23.8553 12.5015C23.8819 12.6279 23.8581 12.7596 23.7891 12.8687L22.9026 14.4005H19.4304L18.5403 12.8624C18.473 12.7536 18.4506 12.6228 18.4778 12.4977C18.505 12.3727 18.5797 12.2631 18.6861 12.1919ZM19.0665 15.0005H23.2665C23.346 15.0005 23.4224 15.0321 23.4786 15.0884C23.5349 15.1447 23.5665 15.221 23.5665 15.3005C23.5665 15.3801 23.5349 15.4564 23.4786 15.5127C23.4224 15.5689 23.346 15.6005 23.2665 15.6005H19.0665C18.9869 15.6005 18.9106 15.5689 18.8543 15.5127C18.7981 15.4564 18.7665 15.3801 18.7665 15.3005C18.7665 15.221 18.7981 15.1447 18.8543 15.0884C18.9106 15.0321 18.9869 15.0005 19.0665 15.0005ZM19.1658 16.2005H23.1672C24.924 17.4305 26.5665 20.8937 26.5665 23.4005C26.5665 27.3158 23.1834 27.9005 21.1665 27.9005C19.1496 27.9005 15.7665 27.3158 15.7665 23.4005C15.7665 20.8937 17.409 17.4305 19.1658 16.2005ZM12.8565 20.7905L14.9565 18.6905C15.0126 18.6353 15.0883 18.6046 15.167 18.605C15.2457 18.6055 15.321 18.6371 15.3765 18.6929L16.116 19.4249C16.0278 19.6262 15.9438 19.8293 15.8658 20.0345L15.378 19.541C15.3503 19.5128 15.3172 19.4903 15.2808 19.4748C15.2443 19.4594 15.2052 19.4513 15.1656 19.451C15.086 19.4511 15.0097 19.4827 14.9535 19.5389L13.2765 21.2129C13.2204 21.2682 13.1447 21.2989 13.066 21.2985C12.9873 21.298 12.9119 21.2664 12.8565 21.2105C12.8284 21.1832 12.8061 21.1506 12.7908 21.1145C12.7756 21.0785 12.7677 21.0397 12.7677 21.0005C12.7677 20.9614 12.7756 20.9226 12.7908 20.8865C12.8061 20.8505 12.8284 20.8178 12.8565 20.7905Z" stroke="#27313E" stroke-width="0.2" mask="url(#path-2-outside-1_1_10703)"/>
<path d="M19.0164 23.9993L19.0164 23.9992C19.0164 23.9064 19.0533 23.8174 19.1189 23.7517C19.1846 23.6861 19.2736 23.6492 19.3664 23.6492C19.4592 23.6492 19.5483 23.6861 19.6139 23.7517C19.6795 23.8174 19.7164 23.9064 19.7164 23.9992M19.0164 23.9993L19.6664 23.9992M19.0164 23.9993C19.017 24.5158 19.2036 25.0149 19.542 25.4052C19.8709 25.7846 20.3219 26.0365 20.8164 26.1181M19.0164 23.9993L20.8164 26.1181M19.7164 23.9992C19.7164 23.9992 19.7164 23.9992 19.7164 23.9992H19.6664M19.7164 23.9992C19.7164 23.9992 19.7164 23.9992 19.7164 23.9992L19.6664 23.9992M19.7164 23.9992C19.7168 24.3333 19.8324 24.6571 20.0438 24.916C20.2421 25.1589 20.5133 25.3307 20.8164 25.4066M19.6664 23.9992C19.6668 24.3449 19.7864 24.6798 20.005 24.9476C20.2128 25.2021 20.4979 25.3812 20.8164 25.458V25.4066M20.8164 25.4066V22.5181M20.8164 25.4066C20.833 25.4107 20.8496 25.4146 20.8664 25.4181V22.4752M20.8164 22.5181V22.4752H20.8664M20.8164 22.5181C20.8307 22.5205 20.845 22.5227 20.8593 22.5247L20.8664 22.4752M20.8164 22.5181L20.8664 22.4752M20.8164 26.1181V26.3992C20.8164 26.492 20.8533 26.5811 20.9189 26.6467C20.9846 26.7123 21.0736 26.7492 21.1664 26.7492C21.2592 26.7492 21.3483 26.7123 21.4139 26.6467C21.4795 26.5811 21.5164 26.492 21.5164 26.3992V26.1181C22.011 26.0369 22.4621 25.785 22.791 25.4055C23.1293 25.0151 23.3156 24.5158 23.3156 23.9992C23.3156 23.4826 23.1293 22.9833 22.791 22.5929C22.4621 22.2134 22.011 21.9616 21.5164 21.8803V18.9919C21.8195 19.0677 22.0908 19.2395 22.2891 19.4825C22.5004 19.7413 22.616 20.0651 22.6164 20.3993C22.6164 20.4921 22.6533 20.5811 22.7189 20.6467C22.7846 20.7123 22.8736 20.7492 22.9664 20.7492C23.0592 20.7492 23.1483 20.7123 23.2139 20.6467C23.2795 20.5811 23.3164 20.492 23.3164 20.3992V20.3992C23.3158 19.8826 23.1292 19.3835 22.7908 18.9932C22.4619 18.6139 22.0109 18.3619 21.5164 18.2804L20.8164 26.1181ZM20.8164 18.2803V18.3232H20.8664L20.8593 18.2737C20.845 18.2758 20.8307 18.278 20.8164 18.2803ZM22.6164 23.9992C22.616 24.3334 22.5004 24.6571 22.2891 24.916C22.0908 25.1589 21.8195 25.3307 21.5164 25.4066V22.5919C21.8195 22.6677 22.0908 22.8395 22.2891 23.0825C22.5004 23.3413 22.616 23.6651 22.6164 23.9992ZM19.7164 20.3992C19.7168 20.0651 19.8325 19.7413 20.0438 19.4825C20.2421 19.2395 20.5133 19.0677 20.8164 18.9919V21.8066C20.5133 21.7307 20.2421 21.5589 20.0438 21.316C19.8325 21.0571 19.7168 20.7334 19.7164 20.3992Z" fill="#27313E" stroke="#27313E" stroke-width="0.1"/>
</g>
<defs>
<clipPath id="clip0_1_10703">
<rect width="18" height="18" fill="white" transform="translate(12.1665 10.5)"/>
</clipPath>
</defs>
</svg>
