<svg width="41" height="40" viewBox="0 0 41 40" fill="none" xmlns="http://www.w3.org/2000/svg">
<rect x="0.333313" width="40" height="40" rx="20" fill="#04D9FF"/>
<path d="M21.7869 18.5017C21.7869 18.4463 21.76 18.3909 21.7241 18.3448C21.6254 18.2525 21.3293 18.2525 21.2305 18.3448C21.1947 18.3909 21.1677 18.4463 21.1677 18.5017V19.1938L20.9075 19.2953C20.6832 19.3876 20.4858 19.5445 20.3422 19.7475C20.0281 20.1812 20.0102 20.7903 20.2884 21.2425C20.414 21.4547 20.5934 21.63 20.8178 21.7408L21.8676 22.2853C22.1009 22.4053 22.2445 22.6452 22.2445 22.922C22.2445 23.1066 22.1727 23.2912 22.0471 23.4204C21.8048 23.6695 21.3023 23.7064 21.0241 23.5219C20.8895 23.4388 20.8267 23.3281 20.7549 23.1897C20.751 23.1836 20.7475 23.1776 20.7441 23.1716C20.7318 23.1503 20.7202 23.1303 20.6921 23.1158C20.6204 23.0605 20.3601 23.0605 20.2794 23.0974C20.1807 23.1528 20.1358 23.2727 20.1717 23.3742C20.2435 23.568 20.3422 23.7433 20.4858 23.8818C20.6114 24.0018 20.755 24.094 20.9075 24.1586L21.1678 24.2693V24.9522C21.1678 25.0168 21.1947 25.0722 21.2306 25.1091C21.3293 25.2106 21.6254 25.2106 21.7241 25.1091C21.76 25.0722 21.7869 25.0168 21.7869 24.9522V24.2693L22.0471 24.1586C22.2715 24.0663 22.4689 23.9095 22.6124 23.7064C22.9265 23.2727 22.9445 22.6729 22.6663 22.2114C22.5407 21.9992 22.3612 21.8239 22.1369 21.7131L21.087 21.1779C20.6653 20.9564 20.5756 20.375 20.9076 20.0335C21.2485 19.6829 21.9754 19.7475 22.1818 20.2458C22.1997 20.2827 22.2266 20.3196 22.2625 20.3473C22.3343 20.3934 22.5945 20.4027 22.6753 20.3565C22.774 20.3011 22.8188 20.1904 22.7829 20.0797C22.7112 19.8859 22.6124 19.7105 22.4599 19.5721C22.3432 19.4521 22.1997 19.3599 22.0471 19.2953L21.7869 19.1937L21.7869 18.5017Z" fill="#09090B"/>
<path fill-rule="evenodd" clip-rule="evenodd" d="M27.2246 26.9267C27.4489 26.576 27.44 26.1146 27.1797 25.7731C26.8477 25.3394 26.2465 25.2656 25.8248 25.5978C25.403 25.9392 25.3312 26.5575 25.6632 26.9912C25.9235 27.3327 26.3632 27.4527 26.74 27.3142L27.2694 28.0063C27.5207 28.3386 28.0053 27.951 27.754 27.6188L27.2246 26.9267ZM26.6324 26.659C26.7849 26.5391 26.8118 26.3176 26.6952 26.1607C26.5785 26.0038 26.3542 25.9762 26.2106 26.0961C26.0581 26.2253 26.0311 26.4468 26.1478 26.6037C26.2645 26.7606 26.4798 26.7882 26.6324 26.659Z" fill="#09090B"/>
<path fill-rule="evenodd" clip-rule="evenodd" d="M28.3642 24.6291C28.9565 25.1367 29.3333 25.9026 29.3333 26.7608C29.3333 28.2927 28.1309 29.5386 26.6414 29.5386C25.9684 29.5386 25.3493 29.2802 24.8737 28.8557C23.8149 29.3263 22.6394 29.5201 21.4729 29.5201C20.3872 29.5201 19.2925 29.354 18.2785 28.9388C17.8298 29.557 16.6095 30 15.1738 30C13.3523 30 11.8717 29.2894 11.8717 28.4127V26.9823C11.8717 26.4933 12.3472 26.0503 13.0831 25.755V24.3892C12.0422 24.1216 11.3333 23.5956 11.3333 22.9865V21.5653C11.3333 20.6886 12.8139 19.9781 14.6354 19.9781H14.9226C15.6045 17.9478 16.8518 16.1114 18.2875 14.5611C18.1708 14.3765 18.108 14.155 18.108 13.9243C18.108 13.5275 18.2965 13.1676 18.6016 12.9553C18.5643 12.8659 18.5356 12.7809 18.5126 12.7125C18.5023 12.6822 18.4932 12.6551 18.4849 12.6324C18.3865 12.3661 18.2911 12.0967 18.1952 11.826C18.125 11.6277 18.0545 11.4287 17.9824 11.2297C17.7311 10.5376 18.5477 9.9562 19.0861 10.4545C19.3104 10.6575 19.5168 10.7683 19.786 10.6575C20.7999 9.78083 22.1549 9.78083 23.1688 10.6575C23.438 10.7683 23.6444 10.6575 23.8687 10.4545C24.4071 9.95616 25.2236 10.5468 24.9724 11.2297L24.3532 12.9554C24.6493 13.1676 24.8468 13.5183 24.8468 13.9243C24.8468 14.1551 24.7839 14.3765 24.6673 14.5611C25.9774 15.9823 27.1349 17.6434 27.8438 19.4613C28.4539 21.0301 28.7411 22.7558 28.4091 24.4261C28.4001 24.4907 28.3822 24.5645 28.3642 24.6291ZM23.7341 12.7523L24.3712 10.9989C24.3892 10.9528 24.3353 10.9066 24.2994 10.9435C23.8149 11.3865 23.3213 11.4788 22.8189 11.2296C22.0113 10.4729 20.9435 10.4729 20.1359 11.2296C19.6334 11.4787 19.1309 11.3865 18.6553 10.9435C18.6194 10.9066 18.5656 10.9527 18.5836 10.9989C18.6625 11.2221 18.7848 11.5625 18.9118 11.9158C19.0157 12.2051 19.1228 12.503 19.2117 12.7523H23.7341ZM26.6414 23.9923C27.0541 23.9923 27.44 24.0846 27.79 24.2507C28.2835 21.6483 27.2157 18.2708 24.1738 14.9855C24.0303 15.0501 23.8777 15.0871 23.7162 15.0871H19.2386C19.0771 15.0871 18.9245 15.0501 18.781 14.9855C17.2017 16.6836 16.1608 18.4093 15.5865 20.0427C16.9415 20.2365 17.9285 20.8455 17.9285 21.5653V22.9311C18.9694 23.1987 19.6783 23.7247 19.6783 24.3246V25.755C19.6783 26.2533 19.2027 26.687 18.4669 26.9823V28.3112C19.3283 28.6619 20.3333 28.8649 21.4729 28.8649C22.5856 28.8649 23.5726 28.6711 24.416 28.3389C24.1199 27.8867 23.9405 27.3423 23.9405 26.7609C23.9405 25.2289 25.1519 23.9923 26.6414 23.9923ZM19.2386 13.4167H23.7162C23.9853 13.4167 24.2097 13.6382 24.2097 13.9243C24.2097 14.2011 23.9853 14.4318 23.7162 14.4318H19.2386C18.9694 14.4318 18.7451 14.2011 18.7451 13.9243C18.7451 13.6382 18.9694 13.4167 19.2386 13.4167ZM13.2984 26.3271C12.8139 26.4932 12.5178 26.7239 12.5178 26.9823C12.5178 27.4991 13.7022 27.9143 15.1738 27.9143C16.43 27.9143 17.4799 27.6098 17.758 27.1945C17.3363 27.2868 16.8697 27.3422 16.3762 27.3422C14.9764 27.3422 13.774 26.9177 13.2984 26.3271ZM13.783 24.5184C14.0342 24.9428 15.102 25.2566 16.3762 25.2566C17.8478 25.2566 19.0322 24.8414 19.0322 24.3246C19.0322 23.9924 18.5117 23.6971 17.7311 23.531C17.2735 24.14 16.0531 24.5738 14.6354 24.5738C14.3393 24.5737 14.0522 24.5553 13.783 24.5184ZM17.2915 22.4973C16.6903 22.8942 15.7212 23.1433 14.6355 23.1433C13.5407 23.1433 12.5717 22.8942 11.9794 22.4973V22.9864C11.9794 23.5032 13.1639 23.9185 14.6355 23.9185C16.0981 23.9185 17.2915 23.5032 17.2915 22.9864V22.4973ZM14.6354 20.6333C16.098 20.6333 17.2914 21.0485 17.2914 21.5653C17.2914 22.0729 16.098 22.4881 14.6354 22.4881C13.1638 22.4881 11.9794 22.0729 11.9794 21.5653C11.9794 21.0485 13.1638 20.6333 14.6354 20.6333ZM19.0322 25.2659C18.431 25.6627 17.4709 25.9118 16.3762 25.9118C15.2905 25.9118 14.3214 25.6627 13.7202 25.2659V25.7549C13.7202 26.2717 14.9136 26.6778 16.3762 26.6778C17.8478 26.6778 19.0322 26.2717 19.0322 25.7549V25.2659ZM17.8298 27.9236C17.2287 28.3204 16.2596 28.5696 15.1738 28.5696C14.0791 28.5696 13.119 28.3204 12.5178 27.9236V28.4127C12.5178 28.9202 13.7023 29.3355 15.1738 29.3355C16.6364 29.3355 17.8298 28.9202 17.8298 28.4127V27.9236ZM26.6414 24.6476C27.772 24.6476 28.6962 25.5981 28.6962 26.7608C28.6962 27.9328 27.772 28.8741 26.6414 28.8741C25.5018 28.8741 24.5866 27.9328 24.5866 26.7608C24.5866 25.5981 25.5018 24.6476 26.6414 24.6476Z" fill="#09090B"/>
</svg>
