<svg width="41" height="40" viewBox="0 0 41 40" fill="none" xmlns="http://www.w3.org/2000/svg">
<rect x="0.333496" width="40" height="40" rx="20" fill="#C5FFFF"/>
<g clip-path="url(#clip0_1_10697)">
<path d="M10.966 18.4674C10.9092 18.3044 10.9953 18.1263 11.1583 18.0695C16.189 16.3176 20.6129 13.7672 24.3201 10.4848L23.5319 10.5276C23.3596 10.5366 23.2123 10.4048 23.2029 10.2325C23.1936 10.0601 23.3257 9.91287 23.4981 9.90349L25.1658 9.81295C25.2593 9.80795 25.3503 9.84502 25.4135 9.91424C25.4767 9.98342 25.5055 10.0773 25.492 10.17L25.2513 11.8228C25.2287 11.9783 25.0951 12.0903 24.9425 12.0903C24.9275 12.0903 24.9124 12.0892 24.8971 12.087C24.7263 12.0622 24.608 11.9036 24.6329 11.7328L24.7483 10.9404C20.977 14.2829 16.4782 16.8787 11.3639 18.6597C11.3299 18.6715 11.2952 18.6772 11.2611 18.6772C11.1318 18.6772 11.0109 18.5964 10.966 18.4674ZM29.1775 20.4579C29.389 20.6613 29.521 20.9468 29.521 21.2627V21.8536C29.521 22.1695 29.389 22.455 29.1775 22.6584C29.389 22.8618 29.521 23.1473 29.521 23.4632V24.0541C29.521 24.37 29.389 24.6555 29.1775 24.8589C29.389 25.0623 29.521 25.3478 29.521 25.6637V26.2545C29.521 26.8706 29.0197 27.3719 28.4036 27.3719H26.1941C25.5616 28.4568 24.3854 29.1875 23.0416 29.1875C21.0308 29.1875 19.395 27.5516 19.395 25.5409C19.395 25.2347 19.4331 24.9372 19.5046 24.6529H19.2255C19.2254 24.6529 19.2253 24.6529 19.2251 24.6529C19.225 24.6529 19.2249 24.6529 19.2247 24.6529H17.4394C17.439 24.6529 17.4387 24.6529 17.4383 24.6529C17.4379 24.6529 17.4376 24.6529 17.4372 24.6529H15.354C15.3536 24.6529 15.3533 24.6529 15.3529 24.6529C15.3525 24.6529 15.3521 24.6529 15.3517 24.6529H10.4585C10.2859 24.6529 10.146 24.5129 10.146 24.3404C10.146 24.1678 10.2859 24.0279 10.4585 24.0279H11.1681V20.3396C11.1681 20.167 11.308 20.0271 11.4806 20.0271H13.566C13.7386 20.0271 13.8785 20.167 13.8785 20.3396V24.0279H15.0404V18.2435C15.0404 18.0709 15.1803 17.931 15.3529 17.931H17.4383C17.6109 17.931 17.7508 18.0709 17.7508 18.2435V24.0279H18.9126V16.0547C18.9126 15.8821 19.0526 15.7422 19.2251 15.7422H21.3106C21.4831 15.7422 21.6231 15.8821 21.6231 16.0547V22.1814C21.8191 22.0983 22.0239 22.0321 22.2356 21.9841C22.2304 21.9408 22.2277 21.8972 22.2277 21.8535V21.2626C22.2277 20.9467 22.3597 20.6612 22.5712 20.4578C22.3597 20.2544 22.2277 19.9689 22.2277 19.653V19.0622C22.2277 18.6501 22.452 18.2897 22.7848 18.096V14.0857C22.7848 13.9131 22.9247 13.7732 23.0973 13.7732H25.1828C25.3553 13.7732 25.4953 13.9131 25.4953 14.0857V17.9449H28.4037C29.0197 17.9449 29.521 18.4461 29.521 19.0622V19.6531C29.521 19.969 29.389 20.2544 29.1775 20.4579ZM23.4099 14.3982V17.9449H24.8703V14.3982H23.4099ZM15.6654 24.0279H17.1258V18.556H15.6654V24.0279ZM11.7931 24.0279H13.2535V20.6521H11.7931V24.0279ZM19.724 24.0279C20.0037 23.417 20.4472 22.8962 20.9981 22.5221V16.3672H19.5376V24.0278H19.724V24.0279ZM26.0633 25.5409C26.0633 23.8747 24.7078 22.5192 23.0416 22.5192C21.3755 22.5192 20.02 23.8747 20.02 25.5409C20.02 27.207 21.3755 28.5625 23.0416 28.5625C24.7078 28.5625 26.0633 27.207 26.0633 25.5409ZM28.4037 25.1714H26.6697C26.6819 25.2929 26.6883 25.4162 26.6883 25.5409C26.6883 25.9634 26.6158 26.3692 26.483 26.7469H28.4036C28.6751 26.7469 28.896 26.5261 28.896 26.2546V25.6637C28.896 25.3922 28.6751 25.1714 28.4037 25.1714ZM28.4037 22.9709H25.6262C26.0565 23.4036 26.3793 23.9434 26.5504 24.5464H28.4037C28.6751 24.5464 28.896 24.3255 28.896 24.0541V23.4632C28.896 23.1917 28.6751 22.9709 28.4037 22.9709ZM28.4037 20.7704H23.3451C23.0736 20.7704 22.8527 20.9912 22.8527 21.2627V21.8536C22.8527 21.8689 22.8541 21.8839 22.8554 21.8989C22.9171 21.8958 22.9792 21.8942 23.0416 21.8942C23.6779 21.8942 24.2766 22.0582 24.7979 22.3459H28.4036C28.6751 22.3459 28.896 22.125 28.896 21.8535V21.2626C28.896 20.9912 28.6751 20.7704 28.4037 20.7704ZM28.4037 20.1454C28.6751 20.1454 28.896 19.9245 28.896 19.653V19.0622C28.896 18.7907 28.6751 18.5698 28.4037 18.5698H23.3451C23.0736 18.5698 22.8527 18.7907 22.8527 19.0622V19.653C22.8527 19.9245 23.0736 20.1454 23.3451 20.1454H28.4037ZM23.0953 25.2205C22.4132 25.1085 22.4003 24.8419 22.3954 24.7415C22.3812 24.4496 22.6251 24.2892 22.858 24.2363C23.1779 24.1638 23.5731 24.2632 23.7351 24.649C23.8019 24.8081 23.9851 24.8829 24.1442 24.8161C24.3033 24.7493 24.3781 24.5662 24.3113 24.407C24.1178 23.9461 23.7441 23.703 23.3541 23.6219V23.431C23.3541 23.2584 23.2142 23.1185 23.0416 23.1185C22.869 23.1185 22.7291 23.2584 22.7291 23.431V23.6247C22.726 23.6254 22.7228 23.6261 22.7197 23.6268C22.1256 23.7615 21.7444 24.2217 21.7711 24.7717C21.7904 25.1694 22.0182 25.677 22.994 25.8372C23.6612 25.9467 23.7726 26.1736 23.7951 26.359C23.8085 26.469 23.7847 26.5549 23.7204 26.6293C23.6013 26.767 23.349 26.8602 23.0777 26.8667C22.7681 26.8736 22.371 26.7464 22.2752 26.3621C22.2335 26.1946 22.0638 26.0927 21.8963 26.1345C21.7289 26.1762 21.627 26.3458 21.6687 26.5133C21.7919 27.0072 22.1992 27.3604 22.7291 27.4621V27.6507C22.7291 27.8233 22.869 27.9632 23.0416 27.9632C23.2142 27.9632 23.3541 27.8233 23.3541 27.6507V27.4671C23.7006 27.41 24.0034 27.2575 24.1931 27.0382C24.3733 26.8299 24.4502 26.569 24.4156 26.2837C24.346 25.7106 23.9018 25.3529 23.0953 25.2205Z" fill="#27313E"/>
</g>
<defs>
<clipPath id="clip0_1_10697">
<rect width="20" height="20" fill="white" transform="translate(9.8335 9.5)"/>
</clipPath>
</defs>
</svg>
