<svg width="17" height="18" viewBox="0 0 17 18" fill="none" xmlns="http://www.w3.org/2000/svg">
<g clip-path="url(#clip0_310_23130)">
<path fill-rule="evenodd" clip-rule="evenodd" d="M8.5 1.91667C4.58798 1.91667 1.41667 5.08798 1.41667 9C1.41667 12.912 4.58798 16.0833 8.5 16.0833C12.412 16.0833 15.5833 12.912 15.5833 9C15.5833 5.08798 12.412 1.91667 8.5 1.91667ZM0 9C0 4.30558 3.80558 0.5 8.5 0.5C13.1944 0.5 17 4.30558 17 9C17 13.6944 13.1944 17.5 8.5 17.5C3.80558 17.5 0 13.6944 0 9Z" fill="#F97F7F"/>
<path d="M6.02344 6.52539L10.9732 11.4751" stroke="#F97F7F" stroke-width="1.3" stroke-linecap="round"/>
<path d="M10.9766 6.52539L6.02681 11.4751" stroke="#F97F7F" stroke-width="1.3" stroke-linecap="round"/>
</g>
<defs>
<clipPath id="clip0_310_23130">
<rect width="17" height="17" fill="white" transform="translate(0 0.5)"/>
</clipPath>
</defs>
</svg>
