<svg width="41" height="40" viewBox="0 0 41 40" fill="none" xmlns="http://www.w3.org/2000/svg">
<rect x="0.199219" width="40" height="40" rx="20" fill="#C5FFFF"/>
<g clip-path="url(#clip0_328_44295)">
<path d="M29.3659 11.8333C29.3659 11.4797 29.2254 11.1406 28.9754 10.8905C28.7253 10.6405 28.3862 10.5 28.0326 10.5H12.0326C11.6789 10.5 11.3398 10.6405 11.0897 10.8905C10.8397 11.1406 10.6992 11.4797 10.6992 11.8333V27.8333C10.6992 28.187 10.8397 28.5261 11.0897 28.7761C11.3398 29.0262 11.6789 29.1667 12.0326 29.1667H22.7729C23.6509 30.0226 24.8309 30.4982 26.0571 30.4904C27.2833 30.4826 28.4571 29.992 29.3242 29.1249C30.1912 28.2579 30.6818 27.0841 30.6896 25.8579C30.6974 24.6317 30.2219 23.4517 29.3659 22.5737V11.8333ZM12.0326 11.1667H28.0326C28.2094 11.1667 28.3789 11.2369 28.504 11.3619C28.629 11.487 28.6992 11.6565 28.6992 11.8333V13.1667H11.3659V11.8333C11.3659 11.6565 11.4361 11.487 11.5611 11.3619C11.6862 11.2369 11.8557 11.1667 12.0326 11.1667ZM11.3659 27.8333V13.8333H28.6992V22.009C28.1975 21.6569 27.6311 21.4077 27.0326 21.2757V20.1667C27.2094 20.1667 27.3789 20.0964 27.504 19.9714C27.629 19.8464 27.6992 19.6768 27.6992 19.5V16.8333C27.6992 16.6565 27.629 16.487 27.504 16.3619C27.3789 16.2369 27.2094 16.1667 27.0326 16.1667V14.8333C27.0326 14.7449 26.9974 14.6601 26.9349 14.5976C26.8724 14.5351 26.7876 14.5 26.6992 14.5C26.6108 14.5 26.526 14.5351 26.4635 14.5976C26.401 14.6601 26.3659 14.7449 26.3659 14.8333V16.1667C26.1891 16.1667 26.0195 16.2369 25.8945 16.3619C25.7695 16.487 25.6992 16.6565 25.6992 16.8333V19.5C25.6992 19.6768 25.7695 19.8464 25.8945 19.9714C26.0195 20.0964 26.1891 20.1667 26.3659 20.1667V21.1837C26.2552 21.1757 26.1452 21.1667 26.0326 21.1667C25.4625 21.1675 24.8974 21.2736 24.3659 21.4797V20.8333C24.5427 20.8333 24.7123 20.7631 24.8373 20.6381C24.9623 20.513 25.0326 20.3435 25.0326 20.1667V17.5C25.0326 17.3232 24.9623 17.1536 24.8373 17.0286C24.7123 16.9036 24.5427 16.8333 24.3659 16.8333V15.5C24.3659 15.4116 24.3308 15.3268 24.2683 15.2643C24.2057 15.2018 24.121 15.1667 24.0326 15.1667C23.9441 15.1667 23.8594 15.2018 23.7969 15.2643C23.7343 15.3268 23.6992 15.4116 23.6992 15.5V16.8333C23.5224 16.8333 23.3528 16.9036 23.2278 17.0286C23.1028 17.1536 23.0326 17.3232 23.0326 17.5V20.1667C23.0326 20.3435 23.1028 20.513 23.2278 20.6381C23.3528 20.7631 23.5224 20.8333 23.6992 20.8333V21.798C23.1393 22.1199 22.6525 22.5549 22.2699 23.0753C21.8872 23.5956 21.6172 24.19 21.477 24.8205C21.3367 25.4509 21.3293 26.1037 21.4552 26.7372C21.5811 27.3707 21.8375 27.9711 22.2082 28.5H12.0326C11.8557 28.5 11.6862 28.4298 11.5611 28.3047C11.4361 28.1797 11.3659 28.0101 11.3659 27.8333ZM27.0326 16.8333V19.5H26.3659V16.8333H27.0326ZM24.3659 17.5V20.1667H23.6992V17.5H24.3659ZM26.0326 29.8333C25.2414 29.8333 24.4681 29.5987 23.8103 29.1592C23.1525 28.7197 22.6398 28.095 22.337 27.3641C22.0343 26.6332 21.9551 25.8289 22.1094 25.053C22.2638 24.2771 22.6447 23.5643 23.2041 23.0049C23.7635 22.4455 24.4763 22.0645 25.2522 21.9102C26.0281 21.7559 26.8324 21.8351 27.5633 22.1378C28.2942 22.4406 28.9189 22.9533 29.3584 23.6111C29.798 24.2689 30.0326 25.0422 30.0326 25.8333C30.0314 26.8938 29.6096 27.9106 28.8597 28.6605C28.1098 29.4104 27.0931 29.8322 26.0326 29.8333Z" fill="#27313E"/>
<path d="M13.6986 20.4997V19.1663C13.6986 19.0779 13.6634 18.9932 13.6009 18.9306C13.5384 18.8681 13.4536 18.833 13.3652 18.833C13.2768 18.833 13.192 18.8681 13.1295 18.9306C13.067 18.9932 13.0319 19.0779 13.0319 19.1663V20.4997C12.8551 20.4997 12.6855 20.5699 12.5605 20.6949C12.4355 20.82 12.3652 20.9895 12.3652 21.1663V23.833C12.3652 24.0098 12.4355 24.1794 12.5605 24.3044C12.6855 24.4294 12.8551 24.4997 13.0319 24.4997V25.833C13.0319 25.9214 13.067 26.0062 13.1295 26.0687C13.192 26.1312 13.2768 26.1663 13.3652 26.1663C13.4536 26.1663 13.5384 26.1312 13.6009 26.0687C13.6634 26.0062 13.6986 25.9214 13.6986 25.833V24.4997C13.8754 24.4997 14.0449 24.4294 14.17 24.3044C14.295 24.1794 14.3652 24.0098 14.3652 23.833V21.1663C14.3652 20.9895 14.295 20.82 14.17 20.6949C14.0449 20.5699 13.8754 20.4997 13.6986 20.4997ZM13.0319 23.833V21.1663H13.6986V23.833H13.0319Z" fill="#27313E"/>
<path d="M16.3665 18.8337V17.5003C16.3665 17.4119 16.3314 17.3271 16.2689 17.2646C16.2064 17.2021 16.1216 17.167 16.0332 17.167C15.9448 17.167 15.86 17.2021 15.7975 17.2646C15.735 17.3271 15.6999 17.4119 15.6999 17.5003V18.8337C15.5231 18.8337 15.3535 18.9039 15.2285 19.0289C15.1034 19.1539 15.0332 19.3235 15.0332 19.5003V22.167C15.0332 22.3438 15.1034 22.5134 15.2285 22.6384C15.3535 22.7634 15.5231 22.8337 15.6999 22.8337V24.167C15.6999 24.2554 15.735 24.3402 15.7975 24.4027C15.86 24.4652 15.9448 24.5003 16.0332 24.5003C16.1216 24.5003 16.2064 24.4652 16.2689 24.4027C16.3314 24.3402 16.3665 24.2554 16.3665 24.167V22.8337C16.5433 22.8337 16.7129 22.7634 16.8379 22.6384C16.963 22.5134 17.0332 22.3438 17.0332 22.167V19.5003C17.0332 19.3235 16.963 19.1539 16.8379 19.0289C16.7129 18.9039 16.5433 18.8337 16.3665 18.8337ZM15.6999 22.167V19.5003H16.3665V22.167H15.6999Z" fill="#27313E"/>
<path d="M19.0326 20.8337V19.5003C19.0326 19.4119 18.9974 19.3271 18.9349 19.2646C18.8724 19.2021 18.7876 19.167 18.6992 19.167C18.6108 19.167 18.526 19.2021 18.4635 19.2646C18.401 19.3271 18.3659 19.4119 18.3659 19.5003V20.8337C18.1891 20.8337 18.0195 20.9039 17.8945 21.0289C17.7695 21.1539 17.6992 21.3235 17.6992 21.5003V24.167C17.6992 24.3438 17.7695 24.5134 17.8945 24.6384C18.0195 24.7634 18.1891 24.8337 18.3659 24.8337V26.167C18.3659 26.2554 18.401 26.3402 18.4635 26.4027C18.526 26.4652 18.6108 26.5003 18.6992 26.5003C18.7876 26.5003 18.8724 26.4652 18.9349 26.4027C18.9974 26.3402 19.0326 26.2554 19.0326 26.167V24.8337C19.2094 24.8337 19.3789 24.7634 19.504 24.6384C19.629 24.5134 19.6992 24.3438 19.6992 24.167V21.5003C19.6992 21.3235 19.629 21.1539 19.504 21.0289C19.3789 20.9039 19.2094 20.8337 19.0326 20.8337ZM18.3659 24.167V21.5003H19.0326V24.167H18.3659Z" fill="#27313E"/>
<path d="M12.3665 12.4997H12.6999C12.7883 12.4997 12.8731 12.4646 12.9356 12.402C12.9981 12.3395 13.0332 12.2547 13.0332 12.1663C13.0332 12.0779 12.9981 11.9932 12.9356 11.9306C12.8731 11.8681 12.7883 11.833 12.6999 11.833H12.3665C12.2781 11.833 12.1933 11.8681 12.1308 11.9306C12.0683 11.9932 12.0332 12.0779 12.0332 12.1663C12.0332 12.2547 12.0683 12.3395 12.1308 12.402C12.1933 12.4646 12.2781 12.4997 12.3665 12.4997Z" fill="#27313E"/>
<path d="M14.0326 12.4997H14.3659C14.4543 12.4997 14.5391 12.4646 14.6016 12.402C14.6641 12.3395 14.6992 12.2547 14.6992 12.1663C14.6992 12.0779 14.6641 11.9932 14.6016 11.9306C14.5391 11.8681 14.4543 11.833 14.3659 11.833H14.0326C13.9441 11.833 13.8594 11.8681 13.7968 11.9306C13.7343 11.9932 13.6992 12.0779 13.6992 12.1663C13.6992 12.2547 13.7343 12.3395 13.7968 12.402C13.8594 12.4646 13.9441 12.4997 14.0326 12.4997Z" fill="#27313E"/>
<path d="M15.6986 12.4997H16.0319C16.1203 12.4997 16.2051 12.4646 16.2676 12.402C16.3301 12.3395 16.3652 12.2547 16.3652 12.1663C16.3652 12.0779 16.3301 11.9932 16.2676 11.9306C16.2051 11.8681 16.1203 11.833 16.0319 11.833H15.6986C15.6102 11.833 15.5254 11.8681 15.4629 11.9306C15.4004 11.9932 15.3652 12.0779 15.3652 12.1663C15.3652 12.2547 15.4004 12.3395 15.4629 12.402C15.5254 12.4646 15.6102 12.4997 15.6986 12.4997Z" fill="#27313E"/>
<path d="M25.6986 12.4997H27.6986C27.787 12.4997 27.8718 12.4646 27.9343 12.402C27.9968 12.3395 28.0319 12.2547 28.0319 12.1663C28.0319 12.0779 27.9968 11.9932 27.9343 11.9306C27.8718 11.8681 27.787 11.833 27.6986 11.833H25.6986C25.6102 11.833 25.5254 11.8681 25.4629 11.9306C25.4004 11.9932 25.3652 12.0779 25.3652 12.1663C25.3652 12.2547 25.4004 12.3395 25.4629 12.402C25.5254 12.4646 25.6102 12.4997 25.6986 12.4997Z" fill="#27313E"/>
<path d="M28.3652 26.5005H24.5032L24.6008 26.4028C24.6615 26.3399 24.6951 26.2557 24.6944 26.1683C24.6936 26.0809 24.6586 25.9973 24.5968 25.9355C24.535 25.8737 24.4514 25.8387 24.364 25.8379C24.2766 25.8371 24.1924 25.8707 24.1295 25.9315L23.4628 26.5981C23.4003 26.6606 23.3652 26.7454 23.3652 26.8338C23.3652 26.9222 23.4003 27.007 23.4628 27.0695L24.1295 27.7361C24.1924 27.7968 24.2766 27.8304 24.364 27.8297C24.4514 27.8289 24.535 27.7939 24.5968 27.7321C24.6586 27.6703 24.6936 27.5867 24.6944 27.4993C24.6951 27.4119 24.6615 27.3277 24.6008 27.2648L24.5032 27.1671H28.3652C28.4536 27.1671 28.5384 27.132 28.6009 27.0695C28.6634 27.007 28.6985 26.9222 28.6985 26.8338C28.6985 26.7454 28.6634 26.6606 28.6009 26.5981C28.5384 26.5356 28.4536 26.5005 28.3652 26.5005Z" fill="#27313E"/>
<path d="M27.9342 23.9315C27.8714 23.8707 27.7872 23.8371 27.6998 23.8379C27.6124 23.8387 27.5288 23.8737 27.467 23.9355C27.4052 23.9973 27.3701 24.0809 27.3693 24.1683C27.3686 24.2557 27.4022 24.3399 27.4629 24.4028L27.5606 24.5005H23.6986C23.6102 24.5005 23.5254 24.5356 23.4629 24.5981C23.4004 24.6606 23.3652 24.7454 23.3652 24.8338C23.3652 24.9222 23.4004 25.007 23.4629 25.0695C23.5254 25.132 23.6102 25.1671 23.6986 25.1671H27.5606L27.4629 25.2648C27.4311 25.2955 27.4057 25.3323 27.3882 25.373C27.3707 25.4137 27.3615 25.4574 27.3612 25.5017C27.3608 25.5459 27.3692 25.5898 27.386 25.6308C27.4027 25.6717 27.4275 25.709 27.4588 25.7403C27.4901 25.7716 27.5273 25.7963 27.5683 25.8131C27.6092 25.8298 27.6531 25.8383 27.6974 25.8379C27.7416 25.8375 27.7854 25.8283 27.826 25.8108C27.8667 25.7934 27.9035 25.768 27.9342 25.7361L28.6009 25.0695C28.6634 25.007 28.6985 24.9222 28.6985 24.8338C28.6985 24.7454 28.6634 24.6606 28.6009 24.5981L27.9342 23.9315Z" fill="#27313E"/>
<path d="M21.6986 22.5V21.1667C21.8754 21.1667 22.0449 21.0964 22.17 20.9714C22.295 20.8464 22.3652 20.6768 22.3652 20.5V17.8333C22.3652 17.6565 22.295 17.487 22.17 17.3619C22.0449 17.2369 21.8754 17.1667 21.6986 17.1667V15.8333C21.6986 15.7449 21.6634 15.6601 21.6009 15.5976C21.5384 15.5351 21.4536 15.5 21.3652 15.5C21.2768 15.5 21.192 15.5351 21.1295 15.5976C21.067 15.6601 21.0319 15.7449 21.0319 15.8333V17.1667C20.8551 17.1667 20.6855 17.2369 20.5605 17.3619C20.4355 17.487 20.3652 17.6565 20.3652 17.8333V20.5C20.3652 20.6768 20.4355 20.8464 20.5605 20.9714C20.6855 21.0964 20.8551 21.1667 21.0319 21.1667V22.5C21.0319 22.5884 21.067 22.6732 21.1295 22.7357C21.192 22.7982 21.2768 22.8333 21.3652 22.8333C21.4536 22.8333 21.5384 22.7982 21.6009 22.7357C21.6634 22.6732 21.6986 22.5884 21.6986 22.5ZM21.0319 17.8333H21.6986V20.5H21.0319V17.8333Z" fill="#27313E"/>
</g>
<defs>
<clipPath id="clip0_328_44295">
<rect width="20" height="20" fill="white" transform="translate(10.6992 10.5)"/>
</clipPath>
</defs>
</svg>
