<svg width="24" height="24" viewBox="0 0 24 24" fill="none" xmlns="http://www.w3.org/2000/svg">
<g id="nav icons">
<g id="Vector">
<path d="M8.51876 10.9097C8.55826 10.9002 8.59647 10.8855 8.63242 10.8662C8.68915 10.8356 8.73909 10.7939 8.77922 10.7435L11.3243 7.56218C11.3668 7.51201 11.3991 7.45404 11.4192 7.39142C11.4392 7.3288 11.4468 7.26284 11.4414 7.1973C11.436 7.13176 11.4177 7.06793 11.3876 7.00945C11.3575 6.95097 11.3162 6.89899 11.2661 6.85647C11.2159 6.81395 11.1578 6.78174 11.0952 6.76165C11.0326 6.74157 10.9666 6.73402 10.9011 6.73944C10.8356 6.74485 10.7717 6.76311 10.7133 6.79319C10.6561 6.8226 10.6051 6.86272 10.5632 6.91138L8.32209 9.73303L7.01672 8.63652C6.91802 8.55715 6.79223 8.51937 6.66608 8.53128C6.53999 8.54317 6.42355 8.60375 6.34144 8.70008C6.26322 8.79687 6.226 8.92047 6.2378 9.04442C6.24969 9.16919 6.3103 9.28425 6.40649 9.36461L8.09803 10.7813C8.18276 10.8512 8.29008 10.8894 8.39995 10.8882L8.46689 10.8875L8.51876 10.9097Z" fill="white"/>
<path d="M16.4702 17.0782C16.5451 17.1636 16.6484 17.2184 16.7605 17.2329C16.8726 17.2184 16.9759 17.1636 17.0508 17.0782L17.0529 17.0758C17.131 16.9885 17.1741 16.8755 17.1741 16.7585C17.1741 16.6439 17.1329 16.5333 17.058 16.4469L15.7831 15.1719L17.0221 13.9329C17.0498 13.8558 17.0573 13.7726 17.0433 13.6913C17.0267 13.5943 16.9803 13.5048 16.9107 13.4352C16.8411 13.3656 16.7516 13.3193 16.6546 13.3026C16.5733 13.2887 16.4901 13.2961 16.413 13.3239L15.174 14.5629L13.935 13.3239C13.8579 13.2961 13.7747 13.2887 13.6934 13.3026C13.5964 13.3193 13.5069 13.3656 13.4373 13.4352C13.3677 13.5048 13.3213 13.5943 13.3047 13.6913C13.2907 13.7726 13.2982 13.8558 13.3259 13.9329L14.5649 15.1719L13.29 16.4469C13.2151 16.5333 13.1739 16.6439 13.1739 16.7585C13.1739 16.8755 13.217 16.9885 13.2951 17.0758L13.2972 17.0782C13.3721 17.1636 13.4754 17.2184 13.5875 17.2329C13.6996 17.2184 13.8029 17.1636 13.8778 17.0782L13.8847 17.0703L15.174 15.781L16.4634 17.0703L16.4702 17.0782Z" fill="white"/>
<path fill-rule="evenodd" clip-rule="evenodd" d="M15.636 8.36397L15.6091 8.10851C15.4741 6.827 14.979 5.60992 14.1811 4.59811C13.3831 3.58629 12.315 2.82111 11.1003 2.39111C9.88552 1.96111 8.57386 1.88387 7.31705 2.16834C6.06025 2.4528 4.90968 3.08733 3.99851 3.99851C3.08733 4.90968 2.4528 6.06025 2.16834 7.31705C1.88387 8.57386 1.96111 9.88552 2.39111 11.1003C2.82111 12.315 3.58629 13.3831 4.59811 14.1811C5.60992 14.979 6.827 15.4741 8.10851 15.6091L8.36397 15.636L8.39088 15.8915C8.52587 17.173 9.02099 18.3901 9.81893 19.4019C10.6169 20.4137 11.685 21.1789 12.8997 21.6089C14.1145 22.0389 15.4261 22.1161 16.6829 21.8317C17.9398 21.5472 19.0903 20.9127 20.0015 20.0015C20.9127 19.0903 21.5472 17.9398 21.8317 16.6829C22.1161 15.4261 22.0389 14.1145 21.6089 12.8997C21.1789 11.685 20.4137 10.6169 19.4019 9.81893C18.3901 9.02099 17.173 8.52587 15.8915 8.39088L15.636 8.36397ZM2.95512 8.82504C2.96129 7.34285 3.52883 5.91806 4.54346 4.83758C5.55808 3.7571 6.94441 3.10119 8.42328 3.00194C9.90215 2.90268 11.3637 3.36746 12.5136 4.30267C13.6635 5.23788 14.4163 6.57406 14.6205 8.04212L14.6649 8.36093L14.3455 8.40076C12.8345 8.58923 11.4295 9.27615 10.3528 10.3528C9.27615 11.4295 8.58923 12.8345 8.40076 14.3455L8.36124 14.6624L8.04458 14.6209C6.63791 14.4364 5.34619 13.747 4.40993 12.6811C3.47366 11.6152 2.95664 10.2454 2.95512 8.8267L2.95512 8.82504ZM15.1736 21.0449C14.0124 21.0449 12.8773 20.7005 11.9118 20.0554C10.9462 19.4103 10.1937 18.4933 9.74932 17.4205C9.30494 16.3476 9.18867 15.1671 9.41522 14.0282C9.64176 12.8893 10.2009 11.8432 11.022 11.022C11.8432 10.2009 12.8893 9.64176 14.0282 9.41522C15.1671 9.18867 16.3476 9.30494 17.4205 9.74932C18.4933 10.1937 19.4103 10.9462 20.0554 11.9118C20.7005 12.8773 21.0449 14.0124 21.0449 15.1736C21.0419 16.7297 20.4225 18.2218 19.3221 19.3221C18.2218 20.4225 16.7297 21.0419 15.1736 21.0449Z" fill="white"/>
</g>
</g>
</svg>
