<svg xmlns="http://www.w3.org/2000/svg" width="24" height="24" viewBox="0 0 24 24" fill="none">
  <path d="M14.9229 8.77453C14.844 8.69449 14.7429 8.69449 14.664 8.77453C14.657 8.78164 14.6498 8.78839 14.6424 8.7948C14.277 9.14431 13.7264 9.1375 13.3682 8.77435C13.103 8.50541 13.0305 8.12948 13.1507 7.80205C13.0151 7.66804 13.002 7.44865 13.1253 7.29867C13.2548 7.14111 13.4857 7.11982 13.6411 7.25112L13.6548 7.26269C13.8376 7.18321 14.0338 7.17265 14.217 7.20979C14.4153 7.25002 14.544 7.44566 14.5043 7.64678C14.4646 7.8479 14.2717 7.97833 14.0733 7.93811C13.9955 7.92232 13.9437 7.93553 13.8992 7.97437C13.8912 7.98322 13.8829 7.99159 13.8743 7.99948C13.8075 8.07742 13.8114 8.17334 13.8862 8.24915C13.9651 8.3292 14.0662 8.3292 14.1451 8.24915C14.1521 8.24205 14.1594 8.23529 14.1668 8.22888C14.5322 7.87937 15.0828 7.88619 15.4409 8.24934C15.7138 8.52599 15.7827 8.91588 15.6476 9.24971C15.7673 9.39561 15.7597 9.61267 15.6248 9.74952C15.4892 9.88694 15.2739 9.89415 15.13 9.77113C14.9542 9.84131 14.7672 9.84939 14.5921 9.81389C14.3938 9.77367 14.2651 9.57802 14.3048 9.37691C14.3445 9.17579 14.5375 9.04536 14.7358 9.08558C14.8136 9.10135 14.8654 9.08818 14.9099 9.04939C14.9137 9.04511 14.9177 9.0409 14.9218 9.03676C14.9261 9.0324 14.9305 9.02818 14.9349 9.02408C15.0017 8.94617 14.9977 8.8503 14.9229 8.77453Z" fill="white"/>
  <path fill-rule="evenodd" clip-rule="evenodd" d="M14.407 5.62694C12.8357 5.62694 11.562 6.91845 11.562 8.51161C11.562 10.1048 12.8357 11.3963 14.407 11.3963C15.9783 11.3963 17.2521 10.1048 17.2521 8.51161C17.2521 6.91845 15.9783 5.62694 14.407 5.62694ZM12.2945 8.51161C12.2945 7.32865 13.2403 6.36968 14.407 6.36968C15.5737 6.36968 16.5196 7.32865 16.5196 8.51161C16.5196 9.69456 15.5737 10.6535 14.407 10.6535C13.2403 10.6535 12.2945 9.69456 12.2945 8.51161Z" fill="white"/>
  <path d="M12.6309 21.6817C12.4286 21.6817 12.2646 21.848 12.2646 22.0531C12.2646 22.2582 12.4286 22.4244 12.6309 22.4244H13.7778C13.9801 22.4244 14.1441 22.2582 14.1441 22.0531C14.1441 21.848 13.9801 21.6817 13.7778 21.6817H12.6309Z" fill="white"/>
  <path fill-rule="evenodd" clip-rule="evenodd" d="M19.3293 21.5279C19.3293 20.9085 19.8246 20.4063 20.4355 20.4063C21.0464 20.4063 21.5417 20.9085 21.5417 21.5279C21.5417 22.1474 21.0464 22.6495 20.4355 22.6495C19.8246 22.6495 19.3293 22.1474 19.3293 21.5279ZM20.4355 21.1491C20.2291 21.1491 20.0618 21.3187 20.0618 21.5279C20.0618 21.7372 20.2291 21.9068 20.4355 21.9068C20.6419 21.9068 20.8092 21.7372 20.8092 21.5279C20.8092 21.3187 20.6419 21.1491 20.4355 21.1491Z" fill="white"/>
  <path fill-rule="evenodd" clip-rule="evenodd" d="M17.4755 20.4063C16.8645 20.4063 16.3692 20.9085 16.3692 21.5279C16.3692 22.1474 16.8645 22.6495 17.4755 22.6495C18.0864 22.6495 18.5817 22.1474 18.5817 21.5279C18.5817 20.9085 18.0864 20.4063 17.4755 20.4063ZM17.1018 21.5279C17.1018 21.3187 17.2691 21.1491 17.4755 21.1491C17.6818 21.1491 17.8491 21.3187 17.8491 21.5279C17.8491 21.7372 17.6818 21.9068 17.4755 21.9068C17.2691 21.9068 17.1018 21.7372 17.1018 21.5279Z" fill="white"/>
  <path fill-rule="evenodd" clip-rule="evenodd" d="M5.96824 4.72632C5.38059 4.72632 4.89741 5.1951 4.86389 5.78266C3.9554 6.20474 3.30816 7.17111 3.30816 8.24869C3.30816 9.73117 4.47075 10.9026 5.92047 10.9458H6.00524C6.24692 10.9458 6.4529 11.1547 6.4529 11.3997C6.4529 11.6447 6.24692 11.8536 6.00524 11.8536C5.83982 11.8536 5.7033 11.7742 5.62115 11.6296C5.34025 11.12 4.67368 10.8953 4.12009 11.2282C3.61813 11.5149 3.39821 12.1925 3.7303 12.7536L3.73246 12.7572C4.02864 13.2452 4.45101 13.6006 4.93775 13.8259C4.97012 14.4145 5.4538 14.8846 6.04223 14.8846C6.61535 14.8846 7.08909 14.4387 7.14328 13.8716C8.0833 13.4584 8.73931 12.5203 8.73931 11.3997C8.73931 9.91198 7.57329 8.75103 6.10013 8.66568C6.09317 8.66528 6.0862 8.66508 6.07923 8.66508H6.00524C5.76356 8.66508 5.55757 8.45623 5.55757 8.21118C5.55757 7.96614 5.76356 7.75729 6.00524 7.75729C6.17065 7.75729 6.30717 7.83665 6.38933 7.98131C6.6859 8.51933 7.35669 8.65398 7.8709 8.3933C7.87564 8.39089 7.88034 8.38838 7.88497 8.38577C8.38968 8.10148 8.61248 7.42335 8.28228 6.86085C7.98522 6.33537 7.55949 5.97294 7.06993 5.74632C7.01901 5.17589 6.54372 4.72632 5.96824 4.72632ZM5.59457 5.84793C5.59457 5.6404 5.76356 5.46906 5.96824 5.46906C6.17292 5.46906 6.34191 5.6404 6.34191 5.84793V5.99798C6.34191 6.15492 6.43922 6.29492 6.58499 6.34771C7.03065 6.50909 7.40041 6.7933 7.64799 7.2326L7.652 7.23938C7.76117 7.42386 7.69135 7.64028 7.53574 7.73273C7.31351 7.84101 7.10162 7.75186 7.02838 7.61819L7.02619 7.6143C6.81228 7.23474 6.43121 7.01455 6.00524 7.01455C5.35899 7.01455 4.82503 7.55594 4.82503 8.21118C4.82503 8.86643 5.35899 9.40781 6.00524 9.40781H6.06839C7.17995 9.4771 8.00677 10.3398 8.00677 11.3997C8.00677 12.283 7.449 13.0066 6.67054 13.2592C6.51884 13.3084 6.4159 13.4514 6.4159 13.6129V13.763C6.4159 13.9705 6.24691 14.1418 6.04223 14.1418C5.83755 14.1418 5.66856 13.9705 5.66856 13.763V13.5754C5.66856 13.4184 5.57126 13.2784 5.42548 13.2257C4.97823 13.0637 4.60533 12.7771 4.35754 12.3699C4.2482 12.1832 4.32154 11.9643 4.48125 11.8744L4.49182 11.8682C4.67629 11.756 4.89311 11.8303 4.98209 11.9927L4.98428 11.9966C5.19819 12.3761 5.57926 12.5963 6.00524 12.5963C6.65149 12.5963 7.18544 12.0549 7.18544 11.3997C7.18544 10.7445 6.65127 10.2031 6.00502 10.2031H5.93684C4.87324 10.1687 4.0407 9.31531 4.0407 8.24869C4.0407 7.39657 4.60496 6.63762 5.34412 6.3878C5.49369 6.33725 5.59457 6.19534 5.59457 6.03549V5.84793Z" fill="white"/>
  <path d="M4.75162 16.6514C4.75162 16.4463 4.9156 16.28 5.11789 16.28H7.04173C7.24402 16.28 7.408 16.4463 7.408 16.6514C7.408 16.8565 7.24402 17.0227 7.04173 17.0227H5.11789C4.9156 17.0227 4.75162 16.8565 4.75162 16.6514Z" fill="white"/>
  <path d="M6.77818 20.1025C6.77818 19.97 6.91018 19.8362 7.04086 19.8362C7.15305 19.8362 7.24611 19.8958 7.28174 19.956C7.38582 20.1319 7.61081 20.1889 7.78426 20.0834C7.95772 19.9779 8.01397 19.7497 7.90989 19.5739C7.7925 19.3755 7.60978 19.2364 7.40769 19.1606C7.40557 18.9574 7.24241 18.7933 7.04144 18.7933C6.83916 18.7933 6.67517 18.9595 6.67517 19.1646V19.1681C6.31199 19.3208 6.04564 19.6896 6.04564 20.1025C6.04564 20.6453 6.50561 21.1116 7.04086 21.1116L7.04374 21.1116C7.17321 21.1141 7.30273 21.2467 7.30273 21.3779C7.30273 21.5092 7.17308 21.6419 7.04355 21.6442L7.04144 21.6442L7.03717 21.6442C6.92627 21.6432 6.8345 21.5842 6.79917 21.5245C6.6951 21.3486 6.47011 21.2916 6.29665 21.3971C6.12319 21.5026 6.06695 21.7307 6.17102 21.9066C6.2888 22.1056 6.4723 22.245 6.67517 22.3206V22.3532C6.67517 22.5583 6.83916 22.7246 7.04144 22.7246C7.24373 22.7246 7.40771 22.5583 7.40771 22.3532V22.3115C7.76989 22.1583 8.03527 21.7901 8.03527 21.3779C8.03527 20.8352 7.57531 20.3688 7.04005 20.3688H7.03718C6.90771 20.3664 6.77818 20.2338 6.77818 20.1025Z" fill="white"/>
  <path fill-rule="evenodd" clip-rule="evenodd" d="M14.3281 15.4547L22.4709 7.19856C22.9099 6.75343 22.9099 6.03064 22.4709 5.58552L17.2914 0.333843C16.8525 -0.111114 16.14 -0.111281 15.701 0.333343L10.923 5.14461V2.58432C10.923 1.51644 10.0931 0.674959 9.03986 0.674959H3.08334C2.03013 0.674959 1.2002 1.51644 1.2002 2.58432V17.0639C1.2002 18.1318 2.03013 18.9733 3.08334 18.9733H4.33921C4.01474 19.4824 3.8264 20.089 3.8264 20.7402C3.8264 22.5405 5.26583 24 7.04144 24C7.67699 24 8.26946 23.813 8.76827 23.4904C8.96892 23.6942 9.24511 23.8124 9.55868 23.8124H21.6567C22.2659 23.8124 22.7629 23.3085 22.7629 22.6908V19.3782C22.7635 19.3697 22.7638 19.3611 22.7638 19.3524C22.7638 19.3471 22.7637 19.3419 22.7635 19.3367L22.7629 19.3267V16.5763C22.7629 15.9586 22.2659 15.4547 21.6567 15.4547H14.3281ZM16.2184 0.859037C16.3714 0.70397 16.6204 0.70397 16.7734 0.859037L18.0016 2.10433C17.9105 2.28305 17.7922 2.45171 17.661 2.58466C16.8422 3.41494 15.5202 3.41494 14.7013 2.58466C14.668 2.55086 14.6351 2.51731 14.6039 2.48489L16.2176 0.859938L16.2184 0.859037ZM18.179 3.10985C18.3133 2.97372 18.4346 2.81625 18.5382 2.64841L20.1956 4.32886C20.0258 4.44914 19.8652 4.58782 19.732 4.72291C18.627 5.84325 18.627 7.65389 19.732 8.77423L19.7434 8.78582C19.763 8.8057 19.7841 8.82713 19.8067 8.84945L14.7571 13.9694C14.7288 13.9395 14.7018 13.9122 14.6772 13.8872L14.6657 13.8756C13.6416 12.8373 12.0327 12.7613 10.923 13.6477V6.19141L14.0839 3.00844C14.1153 3.04094 14.1447 3.07073 14.17 3.09636L14.1833 3.10985C15.2883 4.23019 17.0741 4.23019 18.179 3.10985ZM20.325 8.32398L21.9529 6.67336C22.1059 6.51829 22.1059 6.26578 21.9529 6.11071L20.7243 4.86492C20.5642 4.96475 20.3927 5.10342 20.25 5.2481C19.4311 6.07839 19.4311 7.41875 20.25 8.24903C20.2772 8.27664 20.3019 8.30151 20.325 8.32398ZM13.2921 15.4547L14.2387 14.495C14.2122 14.4666 14.1822 14.4357 14.1478 14.4008C13.3289 13.5705 12.0069 13.5705 11.188 14.4008C11.108 14.4819 11.0234 14.5926 10.923 14.7279V15.0575L11.3671 15.4547H13.2921ZM22.0304 18.981V18.0354H9.18501V18.3107C9.40125 18.5069 9.59113 18.7324 9.7486 18.981H22.0304ZM10.0971 19.7238C10.2005 20.0436 10.2565 20.3853 10.2565 20.7402C10.2565 21.0798 10.2053 21.4072 10.1102 21.7151C10.1565 21.6936 10.208 21.6817 10.2622 21.6817H11.3721C11.5744 21.6817 11.7384 21.848 11.7384 22.0531C11.7384 22.2582 11.5744 22.4244 11.3721 22.4244H10.2622C10.1077 22.4244 9.97552 22.3274 9.92171 22.1902C9.77233 22.4947 9.57735 22.7721 9.34585 23.0133C9.40381 23.0499 9.47496 23.0697 9.55868 23.0697H21.6567C21.8614 23.0697 22.0304 22.8983 22.0304 22.6908V19.7238H10.0971ZM22.0304 16.5763V17.2926H9.18501V16.5763C9.18501 16.3688 9.354 16.1975 9.55868 16.1975H21.6567C21.8614 16.1975 22.0304 16.3688 22.0304 16.5763ZM8.45247 17.8103V16.5763C8.45247 15.9586 8.94943 15.4547 9.55868 15.4547H10.1905V2.58432C10.1905 1.92664 9.6885 1.4177 9.03986 1.4177H8.26295L8.01713 2.11002C7.96481 2.25736 7.82696 2.3556 7.67251 2.3556H4.45377C4.29449 2.3556 4.15347 2.25122 4.10493 2.09741L3.89041 1.4177H3.08334C2.4347 1.4177 1.93274 1.92664 1.93274 2.58432V17.0639C1.93274 17.7216 2.4347 18.2306 3.08334 18.2306H4.98952C5.54626 17.7621 6.26141 17.4804 7.04144 17.4804C7.54763 17.4804 8.02649 17.599 8.45247 17.8103ZM8.68999 22.6222C8.63961 22.648 8.59726 22.6845 8.56465 22.7279C8.14412 23.0597 7.61554 23.2573 7.04144 23.2573C5.6704 23.2573 4.55894 22.1303 4.55894 20.7402C4.55894 19.3501 5.6704 18.2232 7.04144 18.2232C8.41249 18.2232 9.52394 19.3501 9.52394 20.7402C9.52394 21.4888 9.20161 22.1611 8.68999 22.6222ZM4.65954 1.4177L4.72113 1.61286H7.41509L7.48438 1.4177H4.65954Z" fill="white"/>
</svg>