<svg width="41" height="40" viewBox="0 0 41 40" fill="none" xmlns="http://www.w3.org/2000/svg">
<rect x="0.666748" width="40" height="40" rx="20" fill="#C5FFFF"/>
<path fill-rule="evenodd" clip-rule="evenodd" d="M12.5807 17.8337C12.6686 17.9084 12.7848 17.941 12.899 17.9225C12.951 17.9141 13.0014 17.9098 13.0486 17.9098C13.54 17.9098 13.9398 18.3101 13.9398 18.8022C13.9398 18.8624 13.9344 18.9206 13.9238 18.9751C13.9013 19.0905 13.9316 19.2101 14.0065 19.3008C14.0813 19.3916 14.1928 19.4442 14.3105 19.4442H24.9741C25.1917 19.4442 25.3689 19.2679 25.3689 19.0503C25.3689 19.0154 25.3643 18.9815 25.3557 18.9492C25.3462 18.8966 25.3415 18.8433 25.3415 18.7867C25.3415 18.2947 25.7408 17.8944 26.2315 17.8944C26.2488 17.8944 26.2652 17.8952 26.2817 17.896L26.2836 17.8961C26.3908 17.9007 26.4962 17.8621 26.5742 17.7878C26.6522 17.7135 26.6963 17.6104 26.6963 17.5027V15.3755C26.6963 15.2679 26.6523 15.165 26.5744 15.0907C26.4966 15.0163 26.3918 14.9767 26.2842 14.9821L26.2801 14.9823L26.2731 14.9826C26.2595 14.9832 26.2458 14.9838 26.2315 14.9838C25.7407 14.9838 25.3415 14.5836 25.3415 14.0915C25.3415 14.0574 25.3431 14.0237 25.3463 13.9912C25.3571 13.8806 25.3206 13.7706 25.2459 13.6883C25.1713 13.606 25.0653 13.5591 24.9542 13.5591H14.3248C14.2129 13.5591 14.1063 13.6067 14.0316 13.69C13.9569 13.7733 13.9211 13.8844 13.9332 13.9956C13.9376 14.0361 13.9397 14.0726 13.9397 14.107C13.9397 14.5991 13.54 14.9994 13.0486 14.9994C13.0015 14.9994 12.9511 14.9951 12.8987 14.9867C12.785 14.9685 12.6685 15.0008 12.5806 15.0757C12.4927 15.1506 12.4421 15.2602 12.4421 15.3756V17.5337C12.4421 17.6491 12.4928 17.7587 12.5807 17.8337ZM18.6382 18.0588C18.3135 17.6454 18.1346 17.0922 18.1346 16.5012C18.1346 15.9102 18.3135 15.3572 18.6382 14.9441C18.9408 14.559 19.3332 14.3469 19.7431 14.3469C20.1529 14.3469 20.5452 14.559 20.8479 14.9441C21.1726 15.3572 21.3515 15.9102 21.3515 16.5012C21.3515 17.0922 21.1726 17.6454 20.8479 18.0588C20.5451 18.4442 20.1528 18.6564 19.7431 18.6564C19.3333 18.6564 18.9409 18.4442 18.6382 18.0588ZM25.9084 15.7404V17.1378C25.1787 17.2809 24.6169 17.8991 24.5586 18.6564H21.3725C21.8437 18.1186 22.1393 17.3516 22.1393 16.5011C22.1393 15.651 21.8438 14.8844 21.3727 14.3469H24.573C24.68 15.0464 25.2194 15.6052 25.9084 15.7404ZM13.23 15.7774C13.9917 15.6951 14.6024 15.1011 14.7106 14.3469H18.1133C17.6423 14.8844 17.3467 15.651 17.3467 16.5011C17.3467 17.3516 17.6424 18.1186 18.1136 18.6564H14.7214C14.6524 17.858 14.023 17.2174 13.23 17.1317V15.7774Z" fill="#27313E"/>
<path d="M28.3004 23.8505H25.9813C26.1026 23.7096 26.1105 23.498 25.99 23.3477C25.8539 23.178 25.606 23.1507 25.4362 23.2868L24.6248 23.9371L24.6236 23.9382C24.6021 23.9557 24.5819 23.9755 24.5639 23.998C24.4278 24.1677 24.4551 24.4156 24.6248 24.5517L25.4362 25.202C25.5089 25.2603 25.5959 25.2887 25.6823 25.2887C25.7978 25.2887 25.9121 25.2382 25.99 25.1411C26.1105 24.9907 26.1026 24.7792 25.9813 24.6383H28.3004C28.5179 24.6383 28.6943 24.4619 28.6943 24.2444C28.6943 24.0269 28.5179 23.8505 28.3004 23.8505Z" fill="#27313E"/>
<path fill-rule="evenodd" clip-rule="evenodd" d="M28.8193 20.2859C28.8193 20.4509 28.7844 20.6113 28.7196 20.7585C29.8887 21.498 30.6667 22.8029 30.6667 24.2864C30.6667 26.5861 28.7973 28.457 26.4994 28.457C24.3633 28.457 22.5977 26.841 22.3589 24.7666H11.5477C11.0619 24.7666 10.6667 24.3713 10.6667 23.8854V12.7179C10.6667 12.07 11.1935 11.543 11.841 11.543H27.6451C28.2926 11.543 28.8193 12.07 28.8193 12.7179V20.2859ZM11.841 12.3308C11.628 12.3308 11.4546 12.5045 11.4546 12.7179V20.2858C11.4546 20.4993 11.628 20.6729 11.841 20.6729H22.0938C22.0957 20.6729 22.0976 20.6729 22.0994 20.673H24.4197C25.0322 20.3186 25.7425 20.1157 26.4994 20.1157C27.0333 20.1157 27.5439 20.2169 28.0134 20.4007C28.025 20.3639 28.0315 20.3253 28.0315 20.2859V12.7179C28.0315 12.5045 27.8582 12.3308 27.6451 12.3308H11.841ZM21.297 21.4607H11.841C11.7057 21.4607 11.5757 21.4374 11.4546 21.395V22.2323C11.4546 22.283 11.4973 22.3259 11.5477 22.3259H22.8212C22.9894 22.0114 23.1966 21.7208 23.4364 21.4608H21.3026C21.3008 21.4608 21.2989 21.4608 21.297 21.4607ZM11.4546 23.1088V23.8854C11.4546 23.9361 11.4973 23.9789 11.5477 23.9789H22.3424C22.3642 23.6808 22.4176 23.3913 22.4991 23.1138H11.5477C11.5163 23.1138 11.4852 23.112 11.4546 23.1088ZM23.12 24.3729C23.1661 26.1984 24.6643 27.6692 26.4994 27.6692C28.3628 27.6692 29.8789 26.1516 29.8789 24.2864C29.8789 22.4211 28.3628 20.9035 26.4994 20.9035C24.6354 20.9035 23.1189 22.4211 23.1189 24.2864C23.1189 24.3152 23.1193 24.3443 23.12 24.3729Z" fill="#27313E"/>
</svg>
