<svg width="25" height="24" viewBox="0 0 25 24" fill="none" xmlns="http://www.w3.org/2000/svg">
<path d="M7.62512 9.75C7.62512 10.0605 7.87712 10.3125 8.18762 10.3125H10.4376C10.7481 10.3125 11.0001 10.0605 11.0001 9.75C11.0001 9.4395 10.7481 9.1875 10.4376 9.1875H8.18762C7.87712 9.1875 7.62512 9.4395 7.62512 9.75Z" fill="#A6A6A6"/>
<path d="M8.18762 13.3125C7.87712 13.3125 7.62512 13.0605 7.62512 12.75C7.62512 12.4395 7.87712 12.1875 8.18762 12.1875H12.6876C12.9981 12.1875 13.2501 12.4395 13.2501 12.75C13.2501 13.0605 12.9981 13.3125 12.6876 13.3125H8.18762Z" fill="#A6A6A6"/>
<path d="M7.62512 15C7.62512 15.3105 7.87712 15.5625 8.18762 15.5625H11.9376C12.2481 15.5625 12.5001 15.3105 12.5001 15C12.5001 14.6895 12.2481 14.4375 11.9376 14.4375H8.18762C7.87712 14.4375 7.62512 14.6895 7.62512 15Z" fill="#A6A6A6"/>
<path fill-rule="evenodd" clip-rule="evenodd" d="M17.169 19.9351C17.2058 19.905 17.2391 19.87 17.2679 19.8307L20.2679 15.7057C20.3916 15.5347 20.4096 15.3082 20.3136 15.12C20.2176 14.931 20.0241 14.8125 19.8126 14.8125H18.8751V11.25C18.8751 10.9395 18.6231 10.6875 18.3126 10.6875H17.3751V8.54925C17.3751 8.21325 17.2461 7.88925 17.0144 7.6455L13.8794 4.34625C13.6319 4.08525 13.2876 3.9375 12.9284 3.9375H5.93762C5.21237 3.9375 4.62512 4.5255 4.62512 5.25V18.75C4.62512 19.098 4.76312 19.4317 5.00987 19.6777C5.25587 19.9245 5.58962 20.0625 5.93762 20.0625H16.8126C16.9478 20.0625 17.0719 20.0147 17.169 19.9351ZM15.3126 10.6875H16.2501V8.8125H14.0001C13.6521 8.8125 13.3184 8.6745 13.0724 8.42775C12.8256 8.18175 12.6876 7.848 12.6876 7.5V5.0625H5.93762C5.83412 5.0625 5.75012 5.1465 5.75012 5.25V18.75C5.75012 18.7995 5.76962 18.8475 5.80487 18.8827C5.84012 18.918 5.88812 18.9375 5.93762 18.9375H15.7077L13.3574 15.7057C13.2336 15.5347 13.2156 15.3082 13.3116 15.12C13.4076 14.931 13.6011 14.8125 13.8126 14.8125H14.7501V11.25C14.7501 10.9395 15.0021 10.6875 15.3126 10.6875ZM13.8126 5.9089L15.5023 7.6875H14.0001C13.9506 7.6875 13.9026 7.668 13.8674 7.63275C13.8321 7.5975 13.8126 7.5495 13.8126 7.5V5.9089ZM15.8751 15.375V11.8125H17.7501V15.375C17.7501 15.6855 18.0021 15.9375 18.3126 15.9375H18.7079L16.8126 18.5438L14.9174 15.9375H15.3126C15.6231 15.9375 15.8751 15.6855 15.8751 15.375Z" fill="#A6A6A6"/>
</svg>
