<svg width="618" height="38" viewBox="0 0 618 38" fill="none" xmlns="http://www.w3.org/2000/svg">
<mask id="path-1-inside-1_2431_166632" fill="white">
<path d="M0 0H618V38H0V0Z"/>
</mask>
<path d="M0 0H618V38H0V0Z" fill="#F5F5F5"/>
<path d="M618 37H0V39H618V37Z" fill="#D2D2D2" mask="url(#path-1-inside-1_2431_166632)"/>
<path d="M234.632 22L238.4 13.54H239.432L243.212 22H241.94L241.052 19.936H236.768L235.892 22H234.632ZM238.904 14.92L237.212 18.928H240.632L238.928 14.92H238.904ZM245.576 22L243.056 16.144H244.364L246.152 20.596L247.988 16.144H249.224L246.668 22H245.576ZM251.849 22.108C251.441 22.108 251.077 22.028 250.757 21.868C250.437 21.708 250.181 21.492 249.989 21.22C249.805 20.948 249.713 20.64 249.713 20.296C249.713 19.864 249.821 19.524 250.037 19.276C250.261 19.028 250.625 18.848 251.129 18.736C251.641 18.624 252.329 18.568 253.193 18.568H253.601V18.256C253.601 17.8 253.505 17.472 253.313 17.272C253.121 17.072 252.805 16.972 252.365 16.972C252.029 16.972 251.693 17.024 251.357 17.128C251.021 17.224 250.677 17.38 250.325 17.596L249.953 16.744C250.257 16.528 250.637 16.356 251.093 16.228C251.549 16.1 251.985 16.036 252.401 16.036C253.201 16.036 253.793 16.228 254.177 16.612C254.561 16.988 254.753 17.58 254.753 18.388V22H253.613V21.028C253.469 21.364 253.245 21.628 252.941 21.82C252.637 22.012 252.273 22.108 251.849 22.108ZM252.089 21.244C252.521 21.244 252.881 21.092 253.169 20.788C253.457 20.484 253.601 20.1 253.601 19.636V19.312H253.205C252.621 19.312 252.161 19.34 251.825 19.396C251.497 19.452 251.261 19.548 251.117 19.684C250.981 19.812 250.913 19.992 250.913 20.224C250.913 20.528 251.017 20.776 251.225 20.968C251.433 21.152 251.721 21.244 252.089 21.244ZM256.314 14.788V13.528H257.73V14.788H256.314ZM256.422 22V16.144H257.634V22H256.422ZM261.248 22.108C260.608 22.108 260.128 21.928 259.808 21.568C259.496 21.208 259.34 20.68 259.34 19.984V13.54H260.552V19.912C260.552 20.704 260.876 21.1 261.524 21.1C261.62 21.1 261.708 21.096 261.788 21.088C261.876 21.08 261.964 21.064 262.052 21.04L262.028 22.012C261.756 22.076 261.496 22.108 261.248 22.108ZM264.88 22.108C264.472 22.108 264.108 22.028 263.788 21.868C263.468 21.708 263.212 21.492 263.02 21.22C262.836 20.948 262.744 20.64 262.744 20.296C262.744 19.864 262.852 19.524 263.068 19.276C263.292 19.028 263.656 18.848 264.16 18.736C264.672 18.624 265.36 18.568 266.224 18.568H266.632V18.256C266.632 17.8 266.536 17.472 266.344 17.272C266.152 17.072 265.836 16.972 265.396 16.972C265.06 16.972 264.724 17.024 264.388 17.128C264.052 17.224 263.708 17.38 263.356 17.596L262.984 16.744C263.288 16.528 263.668 16.356 264.124 16.228C264.58 16.1 265.016 16.036 265.432 16.036C266.232 16.036 266.824 16.228 267.208 16.612C267.592 16.988 267.784 17.58 267.784 18.388V22H266.644V21.028C266.5 21.364 266.276 21.628 265.972 21.82C265.668 22.012 265.304 22.108 264.88 22.108ZM265.12 21.244C265.552 21.244 265.912 21.092 266.2 20.788C266.488 20.484 266.632 20.1 266.632 19.636V19.312H266.236C265.652 19.312 265.192 19.34 264.856 19.396C264.528 19.452 264.292 19.548 264.148 19.684C264.012 19.812 263.944 19.992 263.944 20.224C263.944 20.528 264.048 20.776 264.256 20.968C264.464 21.152 264.752 21.244 265.12 21.244ZM272.598 22.108C272.15 22.108 271.754 22.008 271.41 21.808C271.066 21.608 270.81 21.34 270.642 21.004V22H269.454V13.54H270.666V17.092C270.842 16.772 271.098 16.516 271.434 16.324C271.778 16.132 272.166 16.036 272.598 16.036C273.118 16.036 273.57 16.16 273.954 16.408C274.346 16.656 274.646 17.008 274.854 17.464C275.07 17.912 275.178 18.448 275.178 19.072C275.178 19.696 275.07 20.236 274.854 20.692C274.646 21.148 274.346 21.5 273.954 21.748C273.57 21.988 273.118 22.108 272.598 22.108ZM272.298 21.172C272.802 21.172 273.202 20.992 273.498 20.632C273.802 20.272 273.954 19.752 273.954 19.072C273.954 18.392 273.802 17.876 273.498 17.524C273.202 17.164 272.802 16.984 272.298 16.984C271.794 16.984 271.39 17.164 271.086 17.524C270.79 17.876 270.642 18.392 270.642 19.072C270.642 19.752 270.79 20.272 271.086 20.632C271.39 20.992 271.794 21.172 272.298 21.172ZM278.451 22.108C277.811 22.108 277.331 21.928 277.011 21.568C276.699 21.208 276.543 20.68 276.543 19.984V13.54H277.755V19.912C277.755 20.704 278.079 21.1 278.727 21.1C278.823 21.1 278.911 21.096 278.991 21.088C279.079 21.08 279.167 21.064 279.255 21.04L279.231 22.012C278.959 22.076 278.699 22.108 278.451 22.108ZM282.901 22.108C281.941 22.108 281.185 21.84 280.633 21.304C280.081 20.76 279.805 20.02 279.805 19.084C279.805 18.484 279.925 17.956 280.165 17.5C280.413 17.036 280.753 16.676 281.185 16.42C281.617 16.164 282.113 16.036 282.673 16.036C283.481 16.036 284.117 16.296 284.581 16.816C285.045 17.328 285.277 18.036 285.277 18.94V19.348H280.981C281.069 20.564 281.713 21.172 282.913 21.172C283.249 21.172 283.577 21.12 283.897 21.016C284.225 20.912 284.533 20.74 284.821 20.5L285.181 21.34C284.917 21.58 284.577 21.768 284.161 21.904C283.745 22.04 283.325 22.108 282.901 22.108ZM282.721 16.888C282.217 16.888 281.817 17.044 281.521 17.356C281.225 17.668 281.045 18.084 280.981 18.604H284.257C284.233 18.06 284.089 17.64 283.825 17.344C283.561 17.04 283.193 16.888 282.721 16.888ZM289.882 22V13.54H293.386C294.298 13.54 295.002 13.768 295.498 14.224C295.994 14.672 296.242 15.304 296.242 16.12C296.242 16.944 295.994 17.584 295.498 18.04C295.002 18.488 294.298 18.712 293.386 18.712H291.13V22H289.882ZM291.13 17.716H293.206C294.422 17.716 295.03 17.184 295.03 16.12C295.03 15.064 294.422 14.536 293.206 14.536H291.13V17.716ZM299.905 22.108C298.945 22.108 298.189 21.84 297.637 21.304C297.085 20.76 296.809 20.02 296.809 19.084C296.809 18.484 296.929 17.956 297.169 17.5C297.417 17.036 297.757 16.676 298.189 16.42C298.621 16.164 299.117 16.036 299.677 16.036C300.485 16.036 301.121 16.296 301.585 16.816C302.049 17.328 302.281 18.036 302.281 18.94V19.348H297.985C298.073 20.564 298.717 21.172 299.917 21.172C300.253 21.172 300.581 21.12 300.901 21.016C301.229 20.912 301.537 20.74 301.825 20.5L302.185 21.34C301.921 21.58 301.581 21.768 301.165 21.904C300.749 22.04 300.329 22.108 299.905 22.108ZM299.725 16.888C299.221 16.888 298.821 17.044 298.525 17.356C298.229 17.668 298.049 18.084 297.985 18.604H301.261C301.237 18.06 301.093 17.64 300.829 17.344C300.565 17.04 300.197 16.888 299.725 16.888ZM303.602 22V16.144H304.778V17.188C305.082 16.492 305.714 16.104 306.674 16.024L307.07 16L307.154 17.032L306.422 17.104C305.358 17.208 304.826 17.756 304.826 18.748V22H303.602ZM308.103 22V16.144H309.279V17.092C309.455 16.756 309.699 16.496 310.011 16.312C310.323 16.128 310.687 16.036 311.103 16.036C311.999 16.036 312.579 16.428 312.843 17.212C313.027 16.844 313.291 16.556 313.635 16.348C313.979 16.14 314.371 16.036 314.811 16.036C316.123 16.036 316.779 16.82 316.779 18.388V22H315.567V18.448C315.567 17.952 315.479 17.588 315.303 17.356C315.135 17.124 314.855 17.008 314.463 17.008C314.023 17.008 313.675 17.164 313.419 17.476C313.163 17.78 313.035 18.196 313.035 18.724V22H311.823V18.448C311.823 17.952 311.739 17.588 311.571 17.356C311.403 17.124 311.123 17.008 310.731 17.008C310.291 17.008 309.943 17.164 309.687 17.476C309.439 17.78 309.315 18.196 309.315 18.724V22H308.103ZM318.365 14.788V13.528H319.781V14.788H318.365ZM318.473 22V16.144H319.685V22H318.473ZM323.443 22.108C322.963 22.108 322.515 22.048 322.099 21.928C321.683 21.8 321.335 21.624 321.055 21.4L321.403 20.584C321.699 20.792 322.023 20.952 322.375 21.064C322.735 21.176 323.095 21.232 323.455 21.232C323.879 21.232 324.199 21.156 324.415 21.004C324.631 20.852 324.739 20.648 324.739 20.392C324.739 20.184 324.667 20.024 324.523 19.912C324.379 19.792 324.163 19.7 323.875 19.636L322.735 19.408C321.727 19.2 321.223 18.68 321.223 17.848C321.223 17.296 321.443 16.856 321.883 16.528C322.323 16.2 322.899 16.036 323.611 16.036C324.019 16.036 324.407 16.096 324.775 16.216C325.151 16.336 325.463 16.516 325.711 16.756L325.363 17.572C325.123 17.364 324.847 17.204 324.535 17.092C324.223 16.98 323.915 16.924 323.611 16.924C323.195 16.924 322.879 17.004 322.663 17.164C322.447 17.316 322.339 17.524 322.339 17.788C322.339 18.188 322.603 18.444 323.131 18.556L324.271 18.784C324.791 18.888 325.183 19.064 325.447 19.312C325.719 19.56 325.855 19.896 325.855 20.32C325.855 20.88 325.635 21.32 325.195 21.64C324.755 21.952 324.171 22.108 323.443 22.108ZM329.256 22.108C328.776 22.108 328.328 22.048 327.912 21.928C327.496 21.8 327.148 21.624 326.868 21.4L327.216 20.584C327.512 20.792 327.836 20.952 328.188 21.064C328.548 21.176 328.908 21.232 329.268 21.232C329.692 21.232 330.012 21.156 330.228 21.004C330.444 20.852 330.552 20.648 330.552 20.392C330.552 20.184 330.48 20.024 330.336 19.912C330.192 19.792 329.976 19.7 329.688 19.636L328.548 19.408C327.54 19.2 327.036 18.68 327.036 17.848C327.036 17.296 327.256 16.856 327.696 16.528C328.136 16.2 328.712 16.036 329.424 16.036C329.832 16.036 330.22 16.096 330.588 16.216C330.964 16.336 331.276 16.516 331.524 16.756L331.176 17.572C330.936 17.364 330.66 17.204 330.348 17.092C330.036 16.98 329.728 16.924 329.424 16.924C329.008 16.924 328.692 17.004 328.476 17.164C328.26 17.316 328.152 17.524 328.152 17.788C328.152 18.188 328.416 18.444 328.944 18.556L330.084 18.784C330.604 18.888 330.996 19.064 331.26 19.312C331.532 19.56 331.668 19.896 331.668 20.32C331.668 20.88 331.448 21.32 331.008 21.64C330.568 21.952 329.984 22.108 329.256 22.108ZM332.908 14.788V13.528H334.324V14.788H332.908ZM333.016 22V16.144H334.228V22H333.016ZM338.478 22.108C337.886 22.108 337.374 21.984 336.942 21.736C336.51 21.488 336.174 21.14 335.934 20.692C335.702 20.236 335.586 19.696 335.586 19.072C335.586 18.448 335.702 17.912 335.934 17.464C336.174 17.008 336.51 16.656 336.942 16.408C337.374 16.16 337.886 16.036 338.478 16.036C339.054 16.036 339.558 16.16 339.99 16.408C340.422 16.656 340.758 17.008 340.998 17.464C341.238 17.912 341.358 18.448 341.358 19.072C341.358 19.696 341.238 20.236 340.998 20.692C340.758 21.14 340.422 21.488 339.99 21.736C339.558 21.984 339.054 22.108 338.478 22.108ZM338.478 21.172C338.974 21.172 339.374 20.992 339.678 20.632C339.982 20.272 340.134 19.752 340.134 19.072C340.134 18.392 339.982 17.876 339.678 17.524C339.374 17.164 338.974 16.984 338.478 16.984C337.974 16.984 337.57 17.164 337.266 17.524C336.962 17.876 336.81 18.392 336.81 19.072C336.81 19.752 336.962 20.272 337.266 20.632C337.57 20.992 337.974 21.172 338.478 21.172ZM342.719 22V16.144H343.895V17.116C344.095 16.764 344.367 16.496 344.711 16.312C345.063 16.128 345.455 16.036 345.887 16.036C347.271 16.036 347.963 16.82 347.963 18.388V22H346.751V18.46C346.751 17.956 346.651 17.588 346.451 17.356C346.259 17.124 345.955 17.008 345.539 17.008C345.051 17.008 344.659 17.164 344.363 17.476C344.075 17.78 343.931 18.184 343.931 18.688V22H342.719ZM351.685 22.108C351.205 22.108 350.757 22.048 350.341 21.928C349.925 21.8 349.577 21.624 349.297 21.4L349.645 20.584C349.941 20.792 350.265 20.952 350.617 21.064C350.977 21.176 351.337 21.232 351.697 21.232C352.121 21.232 352.441 21.156 352.657 21.004C352.873 20.852 352.981 20.648 352.981 20.392C352.981 20.184 352.909 20.024 352.765 19.912C352.621 19.792 352.405 19.7 352.117 19.636L350.977 19.408C349.969 19.2 349.465 18.68 349.465 17.848C349.465 17.296 349.685 16.856 350.125 16.528C350.565 16.2 351.141 16.036 351.853 16.036C352.261 16.036 352.649 16.096 353.017 16.216C353.393 16.336 353.705 16.516 353.953 16.756L353.605 17.572C353.365 17.364 353.089 17.204 352.777 17.092C352.465 16.98 352.157 16.924 351.853 16.924C351.437 16.924 351.121 17.004 350.905 17.164C350.689 17.316 350.581 17.524 350.581 17.788C350.581 18.188 350.845 18.444 351.373 18.556L352.513 18.784C353.033 18.888 353.425 19.064 353.689 19.312C353.961 19.56 354.097 19.896 354.097 20.32C354.097 20.88 353.877 21.32 353.437 21.64C352.997 21.952 352.413 22.108 351.685 22.108Z" fill="#1E1E1E"/>
<mask id="path-4-outside-2_2431_166632" maskUnits="userSpaceOnUse" x="366.5" y="10" width="15" height="18" fill="black">
<rect fill="white" x="366.5" y="10" width="15" height="18"/>
<path d="M370.289 26.9678C370.331 26.9907 370.379 27.0017 370.427 26.9998C370.475 26.9978 370.521 26.9829 370.562 26.9566L372.766 25.5166L374.97 26.9566C375.01 26.9828 375.057 26.9977 375.105 26.9997C375.153 27.0016 375.201 26.9906 375.243 26.9677C375.285 26.9449 375.32 26.911 375.345 26.8698C375.369 26.8285 375.382 26.7814 375.382 26.7334V21.1334C375.637 21.0903 375.875 20.9782 376.071 20.8091C376.267 20.6401 376.412 20.4207 376.492 20.1748L376.667 19.6337C376.725 19.457 376.837 19.303 376.987 19.1935L377.448 18.858C377.603 18.7457 377.733 18.6022 377.83 18.4367C379.332 18.1327 380.612 17.338 381.27 16.2407C381.295 16.1992 381.308 16.1517 381.308 16.1033C381.308 16.0549 381.295 16.0075 381.27 15.966C380.478 14.6476 378.79 13.7644 376.892 13.6487C376.79 13.5493 376.713 13.4276 376.667 13.2932L376.491 12.7482C376.398 12.4647 376.219 12.2177 375.977 12.0427C375.736 11.8676 375.445 11.7734 375.147 11.7735H374.577C374.39 11.7733 374.209 11.7148 374.058 11.606L373.597 11.2692C373.355 11.0942 373.064 11 372.765 11C372.467 11 372.176 11.0942 371.934 11.2692L371.473 11.6058C371.322 11.7144 371.141 11.7731 370.955 11.7735H370.384C370.086 11.7735 369.795 11.8679 369.554 12.0434C369.312 12.2188 369.132 12.4662 369.04 12.75L368.864 13.2937C368.806 13.4703 368.694 13.6243 368.544 13.7337L368.084 14.0692C367.842 14.2434 367.661 14.4904 367.569 14.7743C367.477 15.0581 367.477 15.3641 367.571 15.6476L367.747 16.1921C367.804 16.369 367.804 16.5595 367.747 16.7364L367.571 17.2772C367.477 17.5611 367.476 17.8675 367.569 18.1519C367.661 18.4364 367.842 18.6839 368.084 18.8585L368.546 19.1945C368.696 19.3039 368.808 19.4579 368.866 19.6345L369.042 20.1761C369.122 20.4215 369.267 20.6405 369.462 20.8092C369.657 20.978 369.895 21.0901 370.149 21.1334V26.7334C370.149 26.7814 370.162 26.8286 370.187 26.8698C370.211 26.9111 370.247 26.945 370.289 26.9678ZM370.682 21.1545H370.955C371.087 21.1545 371.218 21.1848 371.336 21.243V25.8137L370.682 26.2404V21.1545ZM372.62 24.9756L371.871 25.4657V21.6116L371.936 21.659C372.178 21.834 372.469 21.9282 372.768 21.9282C373.066 21.9282 373.357 21.834 373.599 21.659L373.663 21.6124V25.4654L372.911 24.9758C372.868 24.9477 372.817 24.9327 372.766 24.9327C372.714 24.9327 372.663 24.9474 372.62 24.9756ZM374.195 25.8134V21.2401C374.314 21.183 374.445 21.1536 374.577 21.154H374.849V26.2409L374.195 25.8134ZM371.664 15.9668C371.639 16.0083 371.626 16.0559 371.626 16.1044C371.626 16.1529 371.639 16.2005 371.664 16.242C372.358 17.3959 373.737 18.2172 375.339 18.482C374.997 18.9184 374.549 19.2606 374.038 19.4764C373.527 19.6922 372.97 19.7746 372.418 19.7158C371.867 19.657 371.339 19.4589 370.885 19.1402C370.432 18.8215 370.066 18.3926 369.823 17.8938C369.581 17.3951 369.469 16.8428 369.498 16.2889C369.528 15.7351 369.698 15.1978 369.992 14.7276C370.286 14.2574 370.695 13.8697 371.18 13.601C371.665 13.3322 372.211 13.1913 372.766 13.1913C373.479 13.1892 374.173 13.4237 374.739 13.858C373.396 14.2105 372.269 14.9615 371.664 15.9668ZM374.653 14.4343C374.232 14.8884 373.997 15.4853 373.997 16.1052C373.997 16.7251 374.232 17.322 374.653 17.7761C373.672 17.5126 372.81 16.923 372.209 16.1044C372.81 15.2863 373.673 14.6973 374.653 14.4343ZM374.53 16.1057C374.53 15.7287 374.639 15.3597 374.846 15.0442C375.052 14.7287 375.346 14.4805 375.692 14.33C376.038 14.1795 376.42 14.1334 376.792 14.1973C377.163 14.2612 377.508 14.4324 377.784 14.6897C377.732 14.6814 377.68 14.6761 377.628 14.674C377.29 14.6789 376.968 14.8163 376.731 15.0567C376.495 15.297 376.362 15.6209 376.362 15.9584C376.362 16.2959 376.495 16.6198 376.731 16.8601C376.968 17.1005 377.29 17.2379 377.628 17.2428C377.787 17.2421 377.945 17.2113 378.093 17.1521C377.867 17.5042 377.534 17.7736 377.142 17.9199C376.75 18.0662 376.321 18.0816 375.92 17.9638C375.518 17.8459 375.166 17.6011 374.915 17.2662C374.665 16.9312 374.53 16.524 374.53 16.1057ZM378.379 15.9583C378.379 16.1069 378.335 16.2521 378.253 16.3757C378.17 16.4993 378.053 16.5956 377.916 16.6525C377.778 16.7094 377.627 16.7243 377.482 16.6953C377.336 16.6664 377.202 16.5949 377.097 16.4898C376.992 16.3848 376.92 16.2509 376.891 16.1052C376.862 15.9595 376.877 15.8084 376.934 15.6711C376.991 15.5338 377.087 15.4165 377.211 15.334C377.334 15.2514 377.479 15.2073 377.628 15.2073C377.827 15.2076 378.018 15.2868 378.159 15.4276C378.3 15.5683 378.379 15.7592 378.379 15.9583ZM380.726 16.1044C380.125 16.924 379.262 17.514 378.281 17.7769C378.703 17.3227 378.937 16.7255 378.937 16.1053C378.937 15.4852 378.703 14.888 378.281 14.4337C379.262 14.6963 380.124 15.2857 380.724 16.1044H380.726ZM369.548 20.011L369.371 19.4695C369.278 19.186 369.099 18.939 368.858 18.7631L368.397 18.4268C368.245 18.3182 368.133 18.1642 368.075 17.9871C368.018 17.8101 368.018 17.6193 368.077 17.4425L368.253 16.9004C368.345 16.6167 368.345 16.311 368.253 16.0273L368.077 15.4825C368.018 15.3062 368.018 15.1158 368.076 14.9393C368.133 14.7627 368.246 14.6092 368.397 14.5009L368.86 14.1639C369.1 13.9879 369.278 13.7412 369.371 13.4583L369.546 12.9154C369.604 12.7384 369.716 12.5841 369.866 12.4748C370.017 12.3655 370.198 12.3067 370.384 12.3068H370.955C371.254 12.3062 371.545 12.2118 371.787 12.037L372.247 11.7018C372.398 11.5928 372.579 11.5342 372.765 11.5342C372.951 11.5342 373.132 11.5928 373.283 11.7018L373.745 12.038C373.987 12.2125 374.278 12.3065 374.577 12.3068H375.147C375.333 12.3068 375.514 12.3655 375.664 12.4746C375.815 12.5837 375.927 12.7376 375.984 12.9143L376.161 13.4607C376.181 13.5228 376.207 13.5833 376.236 13.642C375.953 13.6511 375.672 13.6773 375.393 13.7207C374.828 13.1806 374.111 12.8276 373.338 12.7098C372.566 12.5921 371.776 12.7153 371.076 13.0626C370.376 13.4099 369.8 13.9645 369.426 14.651C369.053 15.3374 368.9 16.1222 368.988 16.8986C369.077 17.675 369.402 18.4053 369.921 18.99C370.439 19.5747 371.125 19.9855 371.885 20.1664C372.646 20.3472 373.443 20.2894 374.169 20.0008C374.895 19.7122 375.515 19.2068 375.944 18.5535C376.117 18.5665 376.29 18.5756 376.467 18.5756C376.632 18.5756 376.795 18.5676 376.957 18.5561L376.673 18.7631C376.432 18.9391 376.253 19.1863 376.16 19.4697L375.984 20.0108C375.927 20.1881 375.816 20.3427 375.665 20.4524C375.515 20.5622 375.333 20.6214 375.147 20.6214H374.577C374.291 20.6204 374.012 20.7066 373.777 20.8686L373.779 20.8726C373.768 20.8792 373.757 20.8864 373.747 20.8942L373.744 20.8913L373.284 21.2265C373.134 21.3356 372.952 21.3943 372.766 21.3943C372.58 21.3943 372.399 21.3356 372.248 21.2265L371.778 20.8854L371.776 20.8892C371.768 20.8834 371.761 20.878 371.752 20.8732L371.754 20.8686C371.519 20.7066 371.24 20.6204 370.954 20.6214H370.384C370.198 20.6211 370.017 20.5619 369.866 20.4522C369.716 20.3426 369.605 20.1881 369.548 20.011Z"/>
</mask>
<path d="M370.289 26.9678C370.331 26.9907 370.379 27.0017 370.427 26.9998C370.475 26.9978 370.521 26.9829 370.562 26.9566L372.766 25.5166L374.97 26.9566C375.01 26.9828 375.057 26.9977 375.105 26.9997C375.153 27.0016 375.201 26.9906 375.243 26.9677C375.285 26.9449 375.32 26.911 375.345 26.8698C375.369 26.8285 375.382 26.7814 375.382 26.7334V21.1334C375.637 21.0903 375.875 20.9782 376.071 20.8091C376.267 20.6401 376.412 20.4207 376.492 20.1748L376.667 19.6337C376.725 19.457 376.837 19.303 376.987 19.1935L377.448 18.858C377.603 18.7457 377.733 18.6022 377.83 18.4367C379.332 18.1327 380.612 17.338 381.27 16.2407C381.295 16.1992 381.308 16.1517 381.308 16.1033C381.308 16.0549 381.295 16.0075 381.27 15.966C380.478 14.6476 378.79 13.7644 376.892 13.6487C376.79 13.5493 376.713 13.4276 376.667 13.2932L376.491 12.7482C376.398 12.4647 376.219 12.2177 375.977 12.0427C375.736 11.8676 375.445 11.7734 375.147 11.7735H374.577C374.39 11.7733 374.209 11.7148 374.058 11.606L373.597 11.2692C373.355 11.0942 373.064 11 372.765 11C372.467 11 372.176 11.0942 371.934 11.2692L371.473 11.6058C371.322 11.7144 371.141 11.7731 370.955 11.7735H370.384C370.086 11.7735 369.795 11.8679 369.554 12.0434C369.312 12.2188 369.132 12.4662 369.04 12.75L368.864 13.2937C368.806 13.4703 368.694 13.6243 368.544 13.7337L368.084 14.0692C367.842 14.2434 367.661 14.4904 367.569 14.7743C367.477 15.0581 367.477 15.3641 367.571 15.6476L367.747 16.1921C367.804 16.369 367.804 16.5595 367.747 16.7364L367.571 17.2772C367.477 17.5611 367.476 17.8675 367.569 18.1519C367.661 18.4364 367.842 18.6839 368.084 18.8585L368.546 19.1945C368.696 19.3039 368.808 19.4579 368.866 19.6345L369.042 20.1761C369.122 20.4215 369.267 20.6405 369.462 20.8092C369.657 20.978 369.895 21.0901 370.149 21.1334V26.7334C370.149 26.7814 370.162 26.8286 370.187 26.8698C370.211 26.9111 370.247 26.945 370.289 26.9678ZM370.682 21.1545H370.955C371.087 21.1545 371.218 21.1848 371.336 21.243V25.8137L370.682 26.2404V21.1545ZM372.62 24.9756L371.871 25.4657V21.6116L371.936 21.659C372.178 21.834 372.469 21.9282 372.768 21.9282C373.066 21.9282 373.357 21.834 373.599 21.659L373.663 21.6124V25.4654L372.911 24.9758C372.868 24.9477 372.817 24.9327 372.766 24.9327C372.714 24.9327 372.663 24.9474 372.62 24.9756ZM374.195 25.8134V21.2401C374.314 21.183 374.445 21.1536 374.577 21.154H374.849V26.2409L374.195 25.8134ZM371.664 15.9668C371.639 16.0083 371.626 16.0559 371.626 16.1044C371.626 16.1529 371.639 16.2005 371.664 16.242C372.358 17.3959 373.737 18.2172 375.339 18.482C374.997 18.9184 374.549 19.2606 374.038 19.4764C373.527 19.6922 372.97 19.7746 372.418 19.7158C371.867 19.657 371.339 19.4589 370.885 19.1402C370.432 18.8215 370.066 18.3926 369.823 17.8938C369.581 17.3951 369.469 16.8428 369.498 16.2889C369.528 15.7351 369.698 15.1978 369.992 14.7276C370.286 14.2574 370.695 13.8697 371.18 13.601C371.665 13.3322 372.211 13.1913 372.766 13.1913C373.479 13.1892 374.173 13.4237 374.739 13.858C373.396 14.2105 372.269 14.9615 371.664 15.9668ZM374.653 14.4343C374.232 14.8884 373.997 15.4853 373.997 16.1052C373.997 16.7251 374.232 17.322 374.653 17.7761C373.672 17.5126 372.81 16.923 372.209 16.1044C372.81 15.2863 373.673 14.6973 374.653 14.4343ZM374.53 16.1057C374.53 15.7287 374.639 15.3597 374.846 15.0442C375.052 14.7287 375.346 14.4805 375.692 14.33C376.038 14.1795 376.42 14.1334 376.792 14.1973C377.163 14.2612 377.508 14.4324 377.784 14.6897C377.732 14.6814 377.68 14.6761 377.628 14.674C377.29 14.6789 376.968 14.8163 376.731 15.0567C376.495 15.297 376.362 15.6209 376.362 15.9584C376.362 16.2959 376.495 16.6198 376.731 16.8601C376.968 17.1005 377.29 17.2379 377.628 17.2428C377.787 17.2421 377.945 17.2113 378.093 17.1521C377.867 17.5042 377.534 17.7736 377.142 17.9199C376.75 18.0662 376.321 18.0816 375.92 17.9638C375.518 17.8459 375.166 17.6011 374.915 17.2662C374.665 16.9312 374.53 16.524 374.53 16.1057ZM378.379 15.9583C378.379 16.1069 378.335 16.2521 378.253 16.3757C378.17 16.4993 378.053 16.5956 377.916 16.6525C377.778 16.7094 377.627 16.7243 377.482 16.6953C377.336 16.6664 377.202 16.5949 377.097 16.4898C376.992 16.3848 376.92 16.2509 376.891 16.1052C376.862 15.9595 376.877 15.8084 376.934 15.6711C376.991 15.5338 377.087 15.4165 377.211 15.334C377.334 15.2514 377.479 15.2073 377.628 15.2073C377.827 15.2076 378.018 15.2868 378.159 15.4276C378.3 15.5683 378.379 15.7592 378.379 15.9583ZM380.726 16.1044C380.125 16.924 379.262 17.514 378.281 17.7769C378.703 17.3227 378.937 16.7255 378.937 16.1053C378.937 15.4852 378.703 14.888 378.281 14.4337C379.262 14.6963 380.124 15.2857 380.724 16.1044H380.726ZM369.548 20.011L369.371 19.4695C369.278 19.186 369.099 18.939 368.858 18.7631L368.397 18.4268C368.245 18.3182 368.133 18.1642 368.075 17.9871C368.018 17.8101 368.018 17.6193 368.077 17.4425L368.253 16.9004C368.345 16.6167 368.345 16.311 368.253 16.0273L368.077 15.4825C368.018 15.3062 368.018 15.1158 368.076 14.9393C368.133 14.7627 368.246 14.6092 368.397 14.5009L368.86 14.1639C369.1 13.9879 369.278 13.7412 369.371 13.4583L369.546 12.9154C369.604 12.7384 369.716 12.5841 369.866 12.4748C370.017 12.3655 370.198 12.3067 370.384 12.3068H370.955C371.254 12.3062 371.545 12.2118 371.787 12.037L372.247 11.7018C372.398 11.5928 372.579 11.5342 372.765 11.5342C372.951 11.5342 373.132 11.5928 373.283 11.7018L373.745 12.038C373.987 12.2125 374.278 12.3065 374.577 12.3068H375.147C375.333 12.3068 375.514 12.3655 375.664 12.4746C375.815 12.5837 375.927 12.7376 375.984 12.9143L376.161 13.4607C376.181 13.5228 376.207 13.5833 376.236 13.642C375.953 13.6511 375.672 13.6773 375.393 13.7207C374.828 13.1806 374.111 12.8276 373.338 12.7098C372.566 12.5921 371.776 12.7153 371.076 13.0626C370.376 13.4099 369.8 13.9645 369.426 14.651C369.053 15.3374 368.9 16.1222 368.988 16.8986C369.077 17.675 369.402 18.4053 369.921 18.99C370.439 19.5747 371.125 19.9855 371.885 20.1664C372.646 20.3472 373.443 20.2894 374.169 20.0008C374.895 19.7122 375.515 19.2068 375.944 18.5535C376.117 18.5665 376.29 18.5756 376.467 18.5756C376.632 18.5756 376.795 18.5676 376.957 18.5561L376.673 18.7631C376.432 18.9391 376.253 19.1863 376.16 19.4697L375.984 20.0108C375.927 20.1881 375.816 20.3427 375.665 20.4524C375.515 20.5622 375.333 20.6214 375.147 20.6214H374.577C374.291 20.6204 374.012 20.7066 373.777 20.8686L373.779 20.8726C373.768 20.8792 373.757 20.8864 373.747 20.8942L373.744 20.8913L373.284 21.2265C373.134 21.3356 372.952 21.3943 372.766 21.3943C372.58 21.3943 372.399 21.3356 372.248 21.2265L371.778 20.8854L371.776 20.8892C371.768 20.8834 371.761 20.878 371.752 20.8732L371.754 20.8686C371.519 20.7066 371.24 20.6204 370.954 20.6214H370.384C370.198 20.6211 370.017 20.5619 369.866 20.4522C369.716 20.3426 369.605 20.1881 369.548 20.011Z" fill="#04D9FF"/>
<path d="M370.289 26.9678C370.331 26.9907 370.379 27.0017 370.427 26.9998C370.475 26.9978 370.521 26.9829 370.562 26.9566L372.766 25.5166L374.97 26.9566C375.01 26.9828 375.057 26.9977 375.105 26.9997C375.153 27.0016 375.201 26.9906 375.243 26.9677C375.285 26.9449 375.32 26.911 375.345 26.8698C375.369 26.8285 375.382 26.7814 375.382 26.7334V21.1334C375.637 21.0903 375.875 20.9782 376.071 20.8091C376.267 20.6401 376.412 20.4207 376.492 20.1748L376.667 19.6337C376.725 19.457 376.837 19.303 376.987 19.1935L377.448 18.858C377.603 18.7457 377.733 18.6022 377.83 18.4367C379.332 18.1327 380.612 17.338 381.27 16.2407C381.295 16.1992 381.308 16.1517 381.308 16.1033C381.308 16.0549 381.295 16.0075 381.27 15.966C380.478 14.6476 378.79 13.7644 376.892 13.6487C376.79 13.5493 376.713 13.4276 376.667 13.2932L376.491 12.7482C376.398 12.4647 376.219 12.2177 375.977 12.0427C375.736 11.8676 375.445 11.7734 375.147 11.7735H374.577C374.39 11.7733 374.209 11.7148 374.058 11.606L373.597 11.2692C373.355 11.0942 373.064 11 372.765 11C372.467 11 372.176 11.0942 371.934 11.2692L371.473 11.6058C371.322 11.7144 371.141 11.7731 370.955 11.7735H370.384C370.086 11.7735 369.795 11.8679 369.554 12.0434C369.312 12.2188 369.132 12.4662 369.04 12.75L368.864 13.2937C368.806 13.4703 368.694 13.6243 368.544 13.7337L368.084 14.0692C367.842 14.2434 367.661 14.4904 367.569 14.7743C367.477 15.0581 367.477 15.3641 367.571 15.6476L367.747 16.1921C367.804 16.369 367.804 16.5595 367.747 16.7364L367.571 17.2772C367.477 17.5611 367.476 17.8675 367.569 18.1519C367.661 18.4364 367.842 18.6839 368.084 18.8585L368.546 19.1945C368.696 19.3039 368.808 19.4579 368.866 19.6345L369.042 20.1761C369.122 20.4215 369.267 20.6405 369.462 20.8092C369.657 20.978 369.895 21.0901 370.149 21.1334V26.7334C370.149 26.7814 370.162 26.8286 370.187 26.8698C370.211 26.9111 370.247 26.945 370.289 26.9678ZM370.682 21.1545H370.955C371.087 21.1545 371.218 21.1848 371.336 21.243V25.8137L370.682 26.2404V21.1545ZM372.62 24.9756L371.871 25.4657V21.6116L371.936 21.659C372.178 21.834 372.469 21.9282 372.768 21.9282C373.066 21.9282 373.357 21.834 373.599 21.659L373.663 21.6124V25.4654L372.911 24.9758C372.868 24.9477 372.817 24.9327 372.766 24.9327C372.714 24.9327 372.663 24.9474 372.62 24.9756ZM374.195 25.8134V21.2401C374.314 21.183 374.445 21.1536 374.577 21.154H374.849V26.2409L374.195 25.8134ZM371.664 15.9668C371.639 16.0083 371.626 16.0559 371.626 16.1044C371.626 16.1529 371.639 16.2005 371.664 16.242C372.358 17.3959 373.737 18.2172 375.339 18.482C374.997 18.9184 374.549 19.2606 374.038 19.4764C373.527 19.6922 372.97 19.7746 372.418 19.7158C371.867 19.657 371.339 19.4589 370.885 19.1402C370.432 18.8215 370.066 18.3926 369.823 17.8938C369.581 17.3951 369.469 16.8428 369.498 16.2889C369.528 15.7351 369.698 15.1978 369.992 14.7276C370.286 14.2574 370.695 13.8697 371.18 13.601C371.665 13.3322 372.211 13.1913 372.766 13.1913C373.479 13.1892 374.173 13.4237 374.739 13.858C373.396 14.2105 372.269 14.9615 371.664 15.9668ZM374.653 14.4343C374.232 14.8884 373.997 15.4853 373.997 16.1052C373.997 16.7251 374.232 17.322 374.653 17.7761C373.672 17.5126 372.81 16.923 372.209 16.1044C372.81 15.2863 373.673 14.6973 374.653 14.4343ZM374.53 16.1057C374.53 15.7287 374.639 15.3597 374.846 15.0442C375.052 14.7287 375.346 14.4805 375.692 14.33C376.038 14.1795 376.42 14.1334 376.792 14.1973C377.163 14.2612 377.508 14.4324 377.784 14.6897C377.732 14.6814 377.68 14.6761 377.628 14.674C377.29 14.6789 376.968 14.8163 376.731 15.0567C376.495 15.297 376.362 15.6209 376.362 15.9584C376.362 16.2959 376.495 16.6198 376.731 16.8601C376.968 17.1005 377.29 17.2379 377.628 17.2428C377.787 17.2421 377.945 17.2113 378.093 17.1521C377.867 17.5042 377.534 17.7736 377.142 17.9199C376.75 18.0662 376.321 18.0816 375.92 17.9638C375.518 17.8459 375.166 17.6011 374.915 17.2662C374.665 16.9312 374.53 16.524 374.53 16.1057ZM378.379 15.9583C378.379 16.1069 378.335 16.2521 378.253 16.3757C378.17 16.4993 378.053 16.5956 377.916 16.6525C377.778 16.7094 377.627 16.7243 377.482 16.6953C377.336 16.6664 377.202 16.5949 377.097 16.4898C376.992 16.3848 376.92 16.2509 376.891 16.1052C376.862 15.9595 376.877 15.8084 376.934 15.6711C376.991 15.5338 377.087 15.4165 377.211 15.334C377.334 15.2514 377.479 15.2073 377.628 15.2073C377.827 15.2076 378.018 15.2868 378.159 15.4276C378.3 15.5683 378.379 15.7592 378.379 15.9583ZM380.726 16.1044C380.125 16.924 379.262 17.514 378.281 17.7769C378.703 17.3227 378.937 16.7255 378.937 16.1053C378.937 15.4852 378.703 14.888 378.281 14.4337C379.262 14.6963 380.124 15.2857 380.724 16.1044H380.726ZM369.548 20.011L369.371 19.4695C369.278 19.186 369.099 18.939 368.858 18.7631L368.397 18.4268C368.245 18.3182 368.133 18.1642 368.075 17.9871C368.018 17.8101 368.018 17.6193 368.077 17.4425L368.253 16.9004C368.345 16.6167 368.345 16.311 368.253 16.0273L368.077 15.4825C368.018 15.3062 368.018 15.1158 368.076 14.9393C368.133 14.7627 368.246 14.6092 368.397 14.5009L368.86 14.1639C369.1 13.9879 369.278 13.7412 369.371 13.4583L369.546 12.9154C369.604 12.7384 369.716 12.5841 369.866 12.4748C370.017 12.3655 370.198 12.3067 370.384 12.3068H370.955C371.254 12.3062 371.545 12.2118 371.787 12.037L372.247 11.7018C372.398 11.5928 372.579 11.5342 372.765 11.5342C372.951 11.5342 373.132 11.5928 373.283 11.7018L373.745 12.038C373.987 12.2125 374.278 12.3065 374.577 12.3068H375.147C375.333 12.3068 375.514 12.3655 375.664 12.4746C375.815 12.5837 375.927 12.7376 375.984 12.9143L376.161 13.4607C376.181 13.5228 376.207 13.5833 376.236 13.642C375.953 13.6511 375.672 13.6773 375.393 13.7207C374.828 13.1806 374.111 12.8276 373.338 12.7098C372.566 12.5921 371.776 12.7153 371.076 13.0626C370.376 13.4099 369.8 13.9645 369.426 14.651C369.053 15.3374 368.9 16.1222 368.988 16.8986C369.077 17.675 369.402 18.4053 369.921 18.99C370.439 19.5747 371.125 19.9855 371.885 20.1664C372.646 20.3472 373.443 20.2894 374.169 20.0008C374.895 19.7122 375.515 19.2068 375.944 18.5535C376.117 18.5665 376.29 18.5756 376.467 18.5756C376.632 18.5756 376.795 18.5676 376.957 18.5561L376.673 18.7631C376.432 18.9391 376.253 19.1863 376.16 19.4697L375.984 20.0108C375.927 20.1881 375.816 20.3427 375.665 20.4524C375.515 20.5622 375.333 20.6214 375.147 20.6214H374.577C374.291 20.6204 374.012 20.7066 373.777 20.8686L373.779 20.8726C373.768 20.8792 373.757 20.8864 373.747 20.8942L373.744 20.8913L373.284 21.2265C373.134 21.3356 372.952 21.3943 372.766 21.3943C372.58 21.3943 372.399 21.3356 372.248 21.2265L371.778 20.8854L371.776 20.8892C371.768 20.8834 371.761 20.878 371.752 20.8732L371.754 20.8686C371.519 20.7066 371.24 20.6204 370.954 20.6214H370.384C370.198 20.6211 370.017 20.5619 369.866 20.4522C369.716 20.3426 369.605 20.1881 369.548 20.011Z" stroke="#04D9FF" stroke-width="0.02" mask="url(#path-4-outside-2_2431_166632)"/>
</svg>
