<svg width="18" height="19" viewBox="0 0 18 19" fill="none" xmlns="http://www.w3.org/2000/svg">
<g id="mingcute:phone-line">
<g id="Group">
<path id="Vector" fill-rule="evenodd" clip-rule="evenodd" d="M6.12924 12.3716C9.01299 15.2554 11.6852 15.5711 12.4697 15.6004C13.4177 15.6349 14.3852 14.8609 14.8037 14.0681C14.1362 13.2851 13.267 12.6776 12.3152 12.0191C11.7535 12.5801 11.0612 13.6226 10.1395 13.2491C9.61524 13.0384 8.32074 12.4421 7.18974 11.3104C6.05874 10.1786 5.46249 8.88486 5.25024 8.36136C4.87674 7.43811 5.92224 6.74436 6.48399 6.18261C5.82549 5.21511 5.22849 4.32336 4.44699 3.68961C3.64299 4.10961 2.86449 5.06961 2.89974 6.03036C2.92899 6.81486 3.24474 9.48711 6.12924 12.3716ZM12.4142 17.0996C11.3342 17.0599 8.27349 16.6369 5.06799 13.4321C1.86324 10.2266 1.44099 7.16661 1.40049 6.08586C1.34049 4.43886 2.60199 2.83911 4.05924 2.21436C4.23473 2.13858 4.42689 2.10973 4.61689 2.13064C4.80689 2.15154 4.98819 2.22149 5.14299 2.33361C6.34899 3.21336 7.18074 4.54611 7.89549 5.59011C8.04418 5.8072 8.1123 6.06943 8.08805 6.33144C8.06381 6.59345 7.94874 6.83873 7.76274 7.02486L6.74574 8.04261C6.98199 8.56386 7.46274 9.46236 8.25024 10.2499C9.03774 11.0374 9.93624 11.5181 10.4582 11.7544L11.4745 10.7374C11.6611 10.5506 11.9075 10.4354 12.1704 10.4119C12.4334 10.3885 12.6963 10.4583 12.913 10.6091C13.978 11.3471 15.229 12.1669 16.141 13.3346C16.2622 13.4905 16.3393 13.6762 16.3643 13.8721C16.3892 14.068 16.361 14.267 16.2827 14.4484C15.655 15.9131 14.0665 17.1604 12.4142 17.0996Z" fill="#161D26" stroke="white" stroke-width="0.2"/>
</g>
</g>
</svg>
