<svg width="19" height="18" viewBox="0 0 19 18" fill="none" xmlns="http://www.w3.org/2000/svg">
<g clip-path="url(#clip0_310_23625)">
<path fill-rule="evenodd" clip-rule="evenodd" d="M12.7095 9.75C14.1592 9.75 15.3345 10.9252 15.3345 12.375C15.3329 13.8241 14.1585 14.9984 12.7095 15C11.2597 15 10.0845 13.8248 10.0845 12.375C10.0845 10.9252 11.2597 9.75 12.7095 9.75ZM12.7095 11.25C12.0882 11.25 11.5845 11.7537 11.5845 12.375C11.5852 12.996 12.0884 13.4993 12.7095 13.5C13.3308 13.5 13.8345 12.9963 13.8345 12.375C13.8345 11.7537 13.3308 11.25 12.7095 11.25Z" fill="#686868"/>
<path fill-rule="evenodd" clip-rule="evenodd" d="M8.58447 5.625C8.58447 4.17524 7.40923 3 5.95947 3C4.50971 3 3.33447 4.17524 3.33447 5.625C3.33447 7.07476 4.50971 8.25 5.95947 8.25C7.40855 8.2484 8.58288 7.07408 8.58447 5.625ZM4.83448 5.625C4.83448 5.00369 5.33816 4.50001 5.95947 4.50001C6.58078 4.50001 7.08446 5.00369 7.08446 5.625C7.08446 6.24631 6.58078 6.74999 5.95947 6.74999C5.33846 6.74934 4.83516 6.24604 4.83448 5.625Z" fill="#686868"/>
<path d="M14.3646 5.0304L5.36463 14.0304L5.35122 14.0438C5.05465 14.3329 4.57984 14.3269 4.29066 14.0304C4.00147 13.7338 4.00749 13.2589 4.30406 12.9698L13.304 3.96983C13.5953 3.68584 14.0599 3.68584 14.3512 3.96983C14.6478 4.25899 14.6538 4.73383 14.3646 5.0304Z" fill="#686868"/>
<path fill-rule="evenodd" clip-rule="evenodd" d="M18.3345 14.8912C18.3326 16.6074 16.9418 17.9981 15.2257 18H3.44322C1.7271 17.9981 0.336362 16.6074 0.334473 14.8912L0.334473 3.10875C0.336392 1.39263 1.7271 0.00191907 3.44322 0L15.2257 0C16.9418 0.00188955 18.3326 1.39263 18.3345 3.10875V14.8912ZM1.83448 3.10875L1.83448 14.8912C1.83542 15.7793 2.55514 16.499 3.44322 16.5H15.2257C16.1138 16.499 16.8335 15.7793 16.8345 14.8912V3.10875C16.8335 2.22066 16.1138 1.50095 15.2257 1.50001L3.44322 1.50001C2.55514 1.50095 1.83542 2.22066 1.83448 3.10875Z" fill="#686868"/>
</g>
<defs>
<clipPath id="clip0_310_23625">
<rect width="17.9978" height="18" fill="#686868" transform="translate(0.335449)"/>
</clipPath>
</defs>
</svg>
