<svg width="31" height="32" viewBox="0 0 31 32" fill="none" xmlns="http://www.w3.org/2000/svg">
<path d="M0 10.5C0 4.97715 4.47715 0.5 10 0.5H21C26.5228 0.5 31 4.97715 31 10.5V21.5C31 27.0228 26.5228 31.5 21 31.5H10C4.47715 31.5 0 27.0228 0 21.5V10.5Z" fill="#04D9FF"/>
<g clip-path="url(#clip0_2282_104165)">
<path d="M15.1599 9C13.0191 9 11.2889 10.7302 11.2889 12.871V13.8094H9.5V22.8125H20.7905V13.7801H19.0016V12.8417C19.0309 10.7302 17.3007 9 15.1599 9ZM12.1687 12.871C12.1687 11.2288 13.5176 9.87978 15.1599 9.87978C16.8021 9.87978 18.1511 11.2288 18.1511 12.871V13.8094H12.1687V12.871ZM19.94 14.6599V21.9034H10.3798V14.6599H11.2889H19.0016H19.94Z" fill="black"/>
<path d="M17.9744 20.9354C17.7984 19.7624 16.9186 18.8239 15.8043 18.56C16.4494 18.2961 16.9186 17.6802 16.9186 16.9178C16.9186 15.95 16.1268 15.1582 15.1591 15.1582C14.1913 15.1582 13.3995 15.95 13.3995 16.9178C13.3995 17.6802 13.8688 18.2961 14.5139 18.56C13.3995 18.8239 12.5198 19.733 12.3438 20.9354L12.2852 21.4339H18.033L17.9744 20.9354ZM15.1591 16.038C15.6576 16.038 16.0389 16.4192 16.0389 16.9178C16.0389 17.4163 15.6576 17.7975 15.1591 17.7975C14.6606 17.7975 14.2793 17.4163 14.2793 16.9178C14.2793 16.4192 14.6606 16.038 15.1591 16.038ZM13.3702 20.5542C13.6635 19.8503 14.3673 19.3811 15.1591 19.3811C15.9509 19.3811 16.6547 19.8503 16.948 20.5542H13.3702Z" fill="black"/>
</g>
<defs>
<clipPath id="clip0_2282_104165">
<rect width="18" height="18" fill="white" transform="translate(6.5 7)"/>
</clipPath>
</defs>
</svg>
