<svg width="31" height="32" viewBox="0 0 31 32" fill="none" xmlns="http://www.w3.org/2000/svg">
<path d="M0.5 10.5C0.5 5.25329 4.75329 1 10 1H21C26.2467 1 30.5 5.25329 30.5 10.5V21.5C30.5 26.7467 26.2467 31 21 31H10C4.75329 31 0.5 26.7467 0.5 21.5V10.5Z" stroke="#04D9FF"/>
<g clip-path="url(#clip0_2282_83143)">
<path d="M23.1875 15.6875H16.9062C16.7337 15.6875 16.5938 15.8274 16.5938 16C16.5938 16.1726 16.7337 16.3125 16.9062 16.3125H18.6846C18.6636 17.4547 18.528 18.55 18.2895 19.5332H12.7105C12.472 18.55 12.3363 17.4546 12.3154 16.3125H14.0938C14.2663 16.3125 14.4062 16.1726 14.4062 16C14.4062 15.8274 14.2663 15.6875 14.0938 15.6875H7.8125C7.63991 15.6875 7.5 15.8274 7.5 16C7.5 18.1369 8.33213 20.1458 9.84316 21.6569C11.3542 23.1678 13.3631 24 15.5 24C17.6369 24 19.6458 23.1678 21.1568 21.6569C22.6679 20.1458 23.5 18.1369 23.5 16C23.5 15.8274 23.3601 15.6875 23.1875 15.6875ZM18.1194 20.1582C17.9954 20.5671 17.8522 20.9517 17.6906 21.3064C17.0921 22.621 16.2936 23.375 15.5 23.375C14.7064 23.375 13.9079 22.621 13.3094 21.3064C13.1478 20.9517 13.0046 20.5671 12.8806 20.1582H18.1194V20.1582ZM11.6903 16.3125C11.7105 17.4467 11.8402 18.5399 12.0688 19.5332H9.02297C8.48553 18.5513 8.17875 17.4552 8.13147 16.3125H11.6903ZM9.40659 20.1582H12.2297C12.3734 20.6618 12.5442 21.134 12.7406 21.5653C13.0451 22.2342 13.3979 22.7746 13.7848 23.1751C12.4704 22.8634 11.2643 22.1941 10.2851 21.2149C9.95688 20.8867 9.66347 20.533 9.40659 20.1582ZM20.7149 21.2149C19.7358 22.1941 18.5296 22.8635 17.2153 23.1751C17.6021 22.7746 17.9549 22.2343 18.2595 21.5654C18.4559 21.134 18.6266 20.6619 18.7703 20.1582H21.5934C21.3365 20.533 21.0431 20.8867 20.7149 21.2149ZM21.977 19.5332H18.9312C19.1598 18.5399 19.2895 17.4467 19.3097 16.3125H22.8685C22.8212 17.4552 22.5145 18.5513 21.977 19.5332Z" fill="#161D26"/>
<path d="M22.1262 11.5548C22.2588 11.3539 22.3363 11.1134 22.3363 10.8552V10.5238C22.3363 9.82141 21.7649 9.25 21.0625 9.25C20.3761 9.25 19.8151 9.79575 19.7899 10.4761C19.6516 10.4001 19.5024 10.3419 19.3453 10.3042C19.4777 10.1034 19.5551 9.86319 19.5551 9.60516V9.27381C19.5551 8.57141 18.9836 8 18.2812 8C17.5789 8 17.0074 8.57141 17.0074 9.27381V9.60519C17.0074 9.86322 17.0848 10.1034 17.2172 10.3043C17.0602 10.342 16.911 10.4002 16.7726 10.4762C16.7475 9.79581 16.1864 9.25 15.5 9.25C14.8134 9.25 14.2523 9.79609 14.2274 10.4767C14.089 10.4005 13.9397 10.3422 13.7828 10.3044C13.9152 10.1035 13.9926 9.86325 13.9926 9.60516V9.27381C13.9926 8.57141 13.4212 8 12.7188 8C12.0164 8 11.4449 8.57141 11.4449 9.27381V9.60519C11.4449 9.86319 11.5223 10.1034 11.6546 10.3042C11.4976 10.3419 11.3484 10.4 11.2101 10.476C11.1848 9.79569 10.6238 9.25 9.9375 9.25C9.23513 9.25 8.66369 9.82141 8.66369 10.5238V10.8552C8.66369 11.1135 8.74119 11.3539 8.87381 11.5549C8.08653 11.7459 7.5 12.4562 7.5 13.3014V14.7462C7.5 14.9187 7.63991 15.0587 7.8125 15.0587H23.1875C23.3601 15.0587 23.5 14.9187 23.5 14.7462V13.3014C23.5 12.4562 22.9135 11.7459 22.1262 11.5548ZM20.4137 10.5238C20.4137 10.166 20.7048 9.875 21.0625 9.875C21.4202 9.875 21.7113 10.166 21.7113 10.5238V10.8552C21.7113 11.2129 21.4203 11.504 21.0625 11.504C20.7047 11.504 20.4137 11.213 20.4137 10.8552V10.5238ZM17.6324 9.27381C17.6324 8.91603 17.9235 8.625 18.2812 8.625C18.639 8.625 18.9301 8.91603 18.9301 9.27381V9.60519C18.9301 9.96294 18.639 10.254 18.2812 10.254C17.9235 10.254 17.6324 9.96297 17.6324 9.60519V9.27381ZM17.6412 10.879H18.9213C19.3896 10.879 19.7988 11.1512 19.986 11.5578C19.2051 11.7534 18.625 12.4608 18.625 13.3014V14.4337H17.9375V13.3014C17.9375 12.4608 17.3574 11.7534 16.5766 11.5578C16.7638 11.1512 17.1731 10.879 17.6412 10.879ZM14.8512 10.5238C14.8512 10.166 15.1423 9.875 15.5 9.875C15.8577 9.875 16.1488 10.166 16.1488 10.5238V10.8552C16.1488 11.2129 15.8577 11.504 15.5 11.504C15.1423 11.504 14.8512 11.213 14.8512 10.8552V10.5238ZM12.0699 9.27381C12.0699 8.91603 12.361 8.625 12.7188 8.625C13.0765 8.625 13.3676 8.91603 13.3676 9.27381V9.60519C13.3676 9.96294 13.0765 10.254 12.7188 10.254C12.361 10.254 12.0699 9.96297 12.0699 9.60519V9.27381ZM12.0788 10.879H13.3588C13.8262 10.879 14.2358 11.1515 14.4233 11.5579C13.6425 11.7535 13.0625 12.4609 13.0625 13.3014V14.4337H12.375V13.3014C12.375 12.4608 11.7948 11.7533 11.014 11.5578C11.2011 11.1512 11.6102 10.879 12.0788 10.879ZM9.28869 10.5238C9.28869 10.166 9.57975 9.875 9.9375 9.875C10.2952 9.875 10.5863 10.166 10.5863 10.5238V10.8552C10.5863 11.2129 10.2952 11.504 9.9375 11.504C9.57975 11.504 9.28869 11.213 9.28869 10.8552V10.5238ZM8.125 13.3014C8.125 12.6549 8.65097 12.1289 9.2975 12.1289H10.5775C11.224 12.1289 11.75 12.6549 11.75 13.3014V14.4337H8.125V13.3014ZM13.6875 14.4337V13.3015C13.6875 12.655 14.2135 12.129 14.86 12.129H16.14C16.7865 12.129 17.3125 12.6549 17.3125 13.3015V14.4337H13.6875ZM22.875 14.4337H19.25V13.3015C19.25 12.655 19.776 12.129 20.4225 12.129H21.7025C22.349 12.129 22.875 12.6549 22.875 13.3015V14.4337H22.875Z" fill="#161D26"/>
<path d="M15.5 16.3125C15.6726 16.3125 15.8125 16.1726 15.8125 16C15.8125 15.8274 15.6726 15.6875 15.5 15.6875C15.3274 15.6875 15.1875 15.8274 15.1875 16C15.1875 16.1726 15.3274 16.3125 15.5 16.3125Z" fill="#161D26"/>
</g>
<defs>
<clipPath id="clip0_2282_83143">
<rect width="16" height="16" fill="white" transform="translate(7.5 8)"/>
</clipPath>
</defs>
</svg>
