<svg width="18" height="18" viewBox="0 0 18 18" fill="none" xmlns="http://www.w3.org/2000/svg">
<path fill-rule="evenodd" clip-rule="evenodd" d="M14.7666 8.02586C14.9912 7.90713 15.247 7.83984 15.5182 7.83984C16.4083 7.83984 17.1325 8.56403 17.1325 9.45425V12.0269C17.1325 13.5447 16.6344 15.0372 15.7262 16.2509V17.4726C15.7262 17.7639 15.4901 18 15.1989 18H7.86313C7.72328 18 7.58916 17.9444 7.49026 17.8455C7.39137 17.7466 7.33578 17.6125 7.33578 17.4726V16.2877C6.19736 15.0913 5.54872 13.4766 5.54883 11.8218L5.5489 10.7237C5.5489 9.83377 6.27273 9.10969 7.16243 9.10969H7.38662L7.38652 4.26213C7.00487 3.92544 6.74312 3.48604 6.62874 3H1.5C1.22386 3 1 2.77614 1 2.5C1 2.22386 1.22386 2 1.5 2H6.60285C6.80917 0.864075 7.8057 0 9.00022 0C10.1948 0 11.1913 0.864063 11.3976 2H16.5C16.7761 2 17 2.22386 17 2.5C17 2.77614 16.7761 3 16.5 3H11.3709C11.2559 3.4843 10.9938 3.925 10.6138 4.26118L10.6138 6.61296C10.7881 6.54834 10.9765 6.51308 11.1729 6.51308C11.7863 6.51308 12.3208 6.85712 12.5938 7.36246C12.8183 7.24373 13.0741 7.17648 13.3453 7.17648C13.9588 7.17648 14.4935 7.52052 14.7666 8.02586ZM10.3821 2.43654C10.3821 1.6746 9.7622 1.05469 9.00022 1.05469C8.23828 1.05469 7.61837 1.6746 7.61837 2.4365C7.61837 2.6448 7.66453 2.84555 7.75049 3.02734C8.04664 2.66498 8.49682 2.43316 9.00022 2.43316C9.50345 2.43316 9.95348 2.66481 10.2496 3.02695C10.3358 2.84463 10.3821 2.64357 10.3821 2.43654ZM14.7852 15.7444C15.6187 14.6906 16.0778 13.3704 16.0778 12.0268L16.0778 9.45408C16.0778 9.14551 15.8267 8.89443 15.5181 8.89443C15.2102 8.89443 14.9596 9.14498 14.9596 9.45295V10.923C14.9596 11.2142 14.7235 11.4503 14.4322 11.4503C14.141 11.4503 13.9049 11.2142 13.9049 10.923V8.79071C13.9049 8.48215 13.6538 8.23106 13.3452 8.23106C13.0372 8.23106 12.7867 8.48162 12.7867 8.78959V9.92791C12.7867 10.2191 12.5506 10.4553 12.2593 10.4553C11.9681 10.4553 11.732 10.2191 11.732 9.92791L11.732 8.12735C11.732 7.81875 11.4812 7.5677 11.1729 7.5677C10.8647 7.5677 10.6139 7.81847 10.6139 8.12675L10.6138 9.26455C10.6138 9.55579 10.3777 9.79189 10.0865 9.79189C9.79525 9.79189 9.55914 9.55579 9.55914 9.26455L9.559 4.04634C9.55896 3.73834 9.3083 3.48782 9.00019 3.48782C8.69197 3.48782 8.44117 3.73859 8.44117 4.04684L8.44131 9.63696C8.44131 9.77685 8.38576 9.91097 8.28687 10.0099C8.18794 10.1088 8.05385 10.1643 7.91396 10.1643H7.16239C6.85425 10.1643 6.60355 10.4153 6.60355 10.7237L6.60348 11.8218C6.60341 13.27 7.19695 14.6816 8.23195 15.6946C8.33331 15.7938 8.39044 15.9297 8.39044 16.0715V16.9452H14.6715V16.0715C14.6715 15.9528 14.7115 15.8375 14.7852 15.7444Z" fill="#A6A6A6"/>
</svg>
