<svg width="38" height="32" viewBox="0 0 38 32" fill="none" xmlns="http://www.w3.org/2000/svg">
<path d="M0.5 10C0.5 4.7533 4.7533 0.5 10 0.5H28C33.2467 0.5 37.5 4.7533 37.5 10V22C37.5 27.2467 33.2467 31.5 28 31.5H10C4.75329 31.5 0.5 27.2467 0.5 22V10Z" fill="#FFE1E1"/>
<path d="M0.5 10C0.5 4.7533 4.7533 0.5 10 0.5H28C33.2467 0.5 37.5 4.7533 37.5 10V22C37.5 27.2467 33.2467 31.5 28 31.5H10C4.75329 31.5 0.5 27.2467 0.5 22V10Z" stroke="#F20000"/>
<g clip-path="url(#clip0_2261_21655)">
<path fill-rule="evenodd" clip-rule="evenodd" d="M19 8.5C14.8579 8.5 11.5 11.8579 11.5 16C11.5 20.1421 14.8579 23.5 19 23.5C23.1421 23.5 26.5 20.1421 26.5 16C26.5 11.8579 23.1421 8.5 19 8.5ZM10 16C10 11.0294 14.0294 7 19 7C23.9705 7 28 11.0294 28 16C28 20.9705 23.9705 25 19 25C14.0294 25 10 20.9705 10 16Z" fill="#F20000"/>
<path d="M16.377 13.3799L21.6179 18.6208" stroke="#F20000" stroke-width="1.3" stroke-linecap="round"/>
<path d="M21.623 13.3799L16.3821 18.6208" stroke="#F20000" stroke-width="1.3" stroke-linecap="round"/>
</g>
<defs>
<clipPath id="clip0_2261_21655">
<rect width="18" height="18" fill="white" transform="translate(10 7)"/>
</clipPath>
</defs>
</svg>
