<svg width="41" height="40" viewBox="0 0 41 40" fill="none" xmlns="http://www.w3.org/2000/svg">
<rect x="0.398438" width="40" height="40" rx="20" fill="#C5FFFF"/>
<path d="M27.0897 10.3823H24.5036C24.3304 9.89654 23.8705 9.5459 23.3261 9.5459H17.4715C16.9271 9.5459 16.4672 9.89654 16.294 10.3823H13.7079C12.7854 10.3823 12.0352 11.1325 12.0352 12.055V28.7823C12.0352 29.7048 12.7854 30.455 13.7079 30.455H27.0897C28.0122 30.455 28.7624 29.7048 28.7624 28.7823V12.055C28.7624 11.1325 28.0122 10.3823 27.0897 10.3823ZM17.4715 10.3823H23.3261C23.5568 10.3823 23.7442 10.5697 23.7442 10.8004V11.6368C23.7442 11.8675 23.5568 12.055 23.3261 12.055H17.4715C17.2408 12.055 17.0533 11.8675 17.0533 11.6368V10.8004C17.0533 10.5697 17.2408 10.3823 17.4715 10.3823ZM27.9261 28.7823C27.9261 29.2433 27.5508 29.6186 27.0897 29.6186H13.7079C13.2468 29.6186 12.8715 29.2433 12.8715 28.7823V12.055C12.8715 11.5939 13.2468 11.2186 13.7079 11.2186V28.3641C13.7079 28.5952 13.8949 28.7823 14.1261 28.7823H18.7261C18.9572 28.7823 19.1442 28.5952 19.1442 28.3641C19.1442 28.1329 18.9572 27.9459 18.7261 27.9459H14.5442V11.2186H16.217V11.6368C16.217 12.3286 16.7797 12.8914 17.4715 12.8914H23.3261C24.0179 12.8914 24.5806 12.3286 24.5806 11.6368V11.2186H26.2533V27.9459H22.0715C21.8404 27.9459 21.6533 28.1329 21.6533 28.3641C21.6533 28.5952 21.8404 28.7823 22.0715 28.7823H26.6715C26.9027 28.7823 27.0897 28.5952 27.0897 28.3641V11.2186C27.5508 11.2186 27.9261 11.5939 27.9261 12.055V28.7823Z" fill="#27313E"/>
<path d="M16.217 19.1645H16.6352V20.0008C16.6352 20.232 16.8222 20.419 17.0534 20.419C17.2845 20.419 17.4716 20.232 17.4716 20.0008V19.1645H17.8897C18.1209 19.1645 18.3079 18.9774 18.3079 18.7463V16.2372C18.3079 16.006 18.1209 15.819 17.8897 15.819H17.4716V14.9826C17.4716 14.7515 17.2845 14.5645 17.0534 14.5645C16.8222 14.5645 16.6352 14.7515 16.6352 14.9826V15.819H16.217C15.9859 15.819 15.7988 16.006 15.7988 16.2372V18.7463C15.7988 18.9774 15.9859 19.1645 16.217 19.1645ZM16.6352 16.6554H17.4716V18.3281H16.6352V16.6554Z" fill="#27313E"/>
<path d="M19.5627 22.9276H19.9809V23.3458C19.9809 23.5769 20.1679 23.7639 20.3991 23.7639C20.6302 23.7639 20.8173 23.5769 20.8173 23.3458V22.9276H21.2354C21.4666 22.9276 21.6536 22.7405 21.6536 22.5094V19.5821C21.6536 19.351 21.4666 19.1639 21.2354 19.1639H20.8173V17.9094C20.8173 17.6783 20.6302 17.4912 20.3991 17.4912C20.1679 17.4912 19.9809 17.6783 19.9809 17.9094V19.1639H19.5627C19.3316 19.1639 19.1445 19.351 19.1445 19.5821V22.5094C19.1445 22.7405 19.3316 22.9276 19.5627 22.9276ZM19.9809 20.0003H20.8173V22.0912H19.9809V20.0003Z" fill="#27313E"/>
<path d="M22.9084 19.1639H23.3266V20.0003C23.3266 20.2314 23.5136 20.4184 23.7448 20.4184C23.9759 20.4184 24.163 20.2314 24.163 20.0003V19.1639H24.5811C24.8123 19.1639 24.9993 18.9769 24.9993 18.7457V16.2366C24.9993 16.0055 24.8123 15.8184 24.5811 15.8184H24.163V14.1457C24.163 13.9146 23.9759 13.7275 23.7448 13.7275C23.5136 13.7275 23.3266 13.9146 23.3266 14.1457V15.8184H22.9084C22.6773 15.8184 22.4902 16.0055 22.4902 16.2366V18.7457C22.4902 18.9769 22.6773 19.1639 22.9084 19.1639ZM23.3266 16.6548H24.163V18.3275H23.3266V16.6548Z" fill="#27313E"/>
<path d="M19.8584 15.2777L19.9809 15.1552V16.2366C19.9809 16.4678 20.1679 16.6548 20.3991 16.6548C20.6302 16.6548 20.8173 16.4678 20.8173 16.2366V15.1552C20.8173 15.1552 20.9397 15.2777 20.9398 15.2777C21.0945 15.4325 21.3657 15.4431 21.5311 15.2777C21.6945 15.1144 21.6945 14.8498 21.5311 14.6864L20.6947 13.8501C20.5314 13.6867 20.2668 13.6867 20.1034 13.8501L19.267 14.6864C19.1037 14.8498 19.1037 15.1144 19.267 15.2777C19.4304 15.4411 19.695 15.4411 19.8584 15.2777Z" fill="#27313E"/>
<path d="M15.799 25.4369C16.03 25.4369 16.2172 25.2497 16.2172 25.0188C16.2172 24.7878 16.03 24.6006 15.799 24.6006C15.5681 24.6006 15.3809 24.7878 15.3809 25.0188C15.3809 25.2497 15.5681 25.4369 15.799 25.4369Z" fill="#27313E"/>
<path d="M15.799 27.1098C16.03 27.1098 16.2172 26.9226 16.2172 26.6916C16.2172 26.4607 16.03 26.2734 15.799 26.2734C15.5681 26.2734 15.3809 26.4607 15.3809 26.6916C15.3809 26.9226 15.5681 27.1098 15.799 27.1098Z" fill="#27313E"/>
<path d="M15.799 23.7641H17.4718C17.7029 23.7641 17.89 23.5771 17.89 23.3459C17.89 23.1148 17.7029 22.9277 17.4718 22.9277H15.799C15.5679 22.9277 15.3809 23.1148 15.3809 23.3459C15.3809 23.5771 15.5679 23.7641 15.799 23.7641Z" fill="#27313E"/>
<path d="M17.4709 24.6006C17.2398 24.6006 17.0527 24.7876 17.0527 25.0188C17.0527 25.2499 17.2398 25.4369 17.4709 25.4369H19.5618C19.793 25.4369 19.98 25.2499 19.98 25.0188C19.98 24.7876 19.793 24.6006 19.5618 24.6006H17.4709Z" fill="#27313E"/>
<path d="M19.5618 26.2734H17.4709C17.2398 26.2734 17.0527 26.4605 17.0527 26.6916C17.0527 26.9228 17.2398 27.1098 17.4709 27.1098H19.5618C19.793 27.1098 19.98 26.9228 19.98 26.6916C19.98 26.4605 19.793 26.2734 19.5618 26.2734Z" fill="#27313E"/>
<path d="M21.2346 25.4369C21.4655 25.4369 21.6528 25.2497 21.6528 25.0188C21.6528 24.7878 21.4655 24.6006 21.2346 24.6006C21.0036 24.6006 20.8164 24.7878 20.8164 25.0188C20.8164 25.2497 21.0036 25.4369 21.2346 25.4369Z" fill="#27313E"/>
<path d="M21.2346 27.1098C21.4655 27.1098 21.6528 26.9226 21.6528 26.6916C21.6528 26.4607 21.4655 26.2734 21.2346 26.2734C21.0036 26.2734 20.8164 26.4607 20.8164 26.6916C20.8164 26.9226 21.0036 27.1098 21.2346 27.1098Z" fill="#27313E"/>
<path d="M22.9084 25.4369H24.9993C25.2305 25.4369 25.4175 25.2499 25.4175 25.0188C25.4175 24.7876 25.2305 24.6006 24.9993 24.6006H22.9084C22.6773 24.6006 22.4902 24.7876 22.4902 25.0188C22.4902 25.2499 22.6773 25.4369 22.9084 25.4369Z" fill="#27313E"/>
<path d="M22.9084 27.1098H24.9993C25.2305 27.1098 25.4175 26.9228 25.4175 26.6916C25.4175 26.4605 25.2305 26.2734 24.9993 26.2734H22.9084C22.6773 26.2734 22.4902 26.4605 22.4902 26.6916C22.4902 26.9228 22.6773 27.1098 22.9084 27.1098Z" fill="#27313E"/>
<path d="M20.3987 28.7827C20.6296 28.7827 20.8168 28.5954 20.8168 28.3645C20.8168 28.1335 20.6296 27.9463 20.3987 27.9463C20.1677 27.9463 19.9805 28.1335 19.9805 28.3645C19.9805 28.5954 20.1677 28.7827 20.3987 28.7827Z" fill="#27313E"/>
</svg>
