<svg xmlns="http://www.w3.org/2000/svg" width="24" height="24" viewBox="0 0 24 24" fill="none">
  <g clip-path="url(#clip0_84_3862)">
    <path d="M14.278 21.3343C14.341 21.5388 14.2263 21.7556 14.0217 21.8186C13.1144 22.098 12.1866 22.2342 11.2679 22.2342C8.83438 22.2342 6.46222 21.2793 4.68475 19.5018C3.51546 18.3325 2.67707 16.8736 2.26024 15.2828C1.91411 13.9619 1.86384 12.5761 2.10754 11.2359L1.24428 11.8845C1.0733 12.0131 0.830361 11.9786 0.701757 11.8076C0.57325 11.6365 0.607747 11.3936 0.778784 11.2651L2.5055 9.96766C2.60082 9.89605 2.72371 9.87234 2.83872 9.90316C2.95378 9.93408 3.04822 10.0161 3.09481 10.1258L3.93969 12.1131C4.02339 12.31 3.93166 12.5375 3.73474 12.6213C3.68529 12.6423 3.6339 12.6522 3.58334 12.6522C3.43263 12.6522 3.28927 12.5637 3.22661 12.4163L2.84506 11.5188C2.40399 14.2153 3.28399 17.0052 5.23274 18.9539C7.47775 21.1989 10.7581 22.0129 13.7938 21.0781C13.9981 21.0152 14.2151 21.1298 14.278 21.3343ZM10.3913 3.10842C13.428 2.17389 16.709 2.98766 18.9539 5.23257C20.9163 7.19497 21.787 9.96969 21.3419 12.6702L20.9586 11.77C20.8748 11.5732 20.6472 11.4814 20.4503 11.5653C20.2534 11.6491 20.1617 11.8767 20.2456 12.0736L21.0918 14.0609C21.1384 14.1705 21.2329 14.2525 21.3479 14.2834C21.381 14.2923 21.4147 14.2966 21.4482 14.2966C21.5313 14.2966 21.6131 14.2699 21.681 14.2189L23.4077 12.9214C23.5788 12.7929 23.6133 12.55 23.4848 12.379C23.3562 12.2079 23.1133 12.1734 22.9422 12.302L22.0809 12.9492C22.6254 9.95629 21.6792 6.86214 19.5018 4.68472C17.0534 2.23635 13.475 1.34865 10.1634 2.36791C9.95881 2.43085 9.8441 2.64771 9.90704 2.85218C9.96999 3.05665 10.1869 3.17151 10.3913 3.10842ZM2.20262 4.55955C2.20262 3.25991 3.25995 2.20263 4.55958 2.20263C5.85844 2.20263 6.91514 3.25996 6.91514 4.55955C6.91514 5.85842 5.85844 6.91512 4.55958 6.91512C3.2599 6.91507 2.20262 5.85837 2.20262 4.55955ZM2.97748 4.55955C2.97748 5.43114 3.68718 6.1402 4.55953 6.1402C5.43112 6.1402 6.14018 5.43114 6.14018 4.55955C6.14018 3.68719 5.43112 2.9775 4.55953 2.9775C3.68718 2.9775 2.97748 3.68719 2.97748 4.55955ZM0.755269 5.67998L0.248257 5.48485C0.0987027 5.42727 0 5.28352 0 5.12322V3.99448C0 3.83423 0.0987027 3.69048 0.248257 3.6329L0.755414 3.43767C0.834619 3.16948 0.942127 2.91015 1.07668 2.66295L0.856149 2.16557C0.791218 2.01911 0.823055 1.84783 0.936369 1.73456L1.7346 0.936325C1.84782 0.823058 2.01924 0.791173 2.16556 0.856104L2.66299 1.07664C2.91018 0.942082 3.16952 0.834525 3.43771 0.755369L3.63289 0.248258C3.69047 0.0986547 3.83421 0 3.99451 0H5.12325C5.2835 0 5.42725 0.0987031 5.48487 0.248258L5.68 0.755272C5.94781 0.834235 6.20719 0.941792 6.45477 1.07669L6.9522 0.856153C7.09847 0.791222 7.26989 0.823107 7.38316 0.936373L8.18134 1.73461C8.29466 1.84788 8.32649 2.01916 8.26156 2.16561L8.04127 2.66256C8.17539 2.90831 8.28295 3.16779 8.36244 3.43777L8.86946 3.63295C9.01906 3.69053 9.11771 3.83428 9.11771 3.99452V5.12327C9.11771 5.28352 9.01901 5.42727 8.86946 5.48485L8.36254 5.67998C8.28324 5.94962 8.17573 6.20915 8.04122 6.45528L8.26151 6.95218C8.32644 7.09864 8.29461 7.26992 8.18129 7.38319L7.38311 8.18142C7.26989 8.29469 7.09861 8.32658 6.95215 8.26169L6.45521 8.0414C6.20908 8.17581 5.94955 8.28337 5.67995 8.36267L5.48487 8.86959C5.42729 9.01919 5.28355 9.11785 5.12325 9.11785H3.99451C3.83426 9.11785 3.69051 9.01914 3.63289 8.86959L3.43776 8.36257C3.16773 8.28308 2.90825 8.17557 2.66255 8.0414L2.16561 8.26169C2.01929 8.32662 1.84797 8.29474 1.73465 8.18147L0.936418 7.38323C0.823103 7.26997 0.791267 7.09869 0.856198 6.95223L1.07668 6.45485C0.941788 6.20717 0.83428 5.94788 0.755269 5.67998ZM0.774865 4.85721L1.21782 5.02771C1.33708 5.07363 1.42601 5.17533 1.45557 5.29963C1.53318 5.62574 1.66285 5.93854 1.84105 6.22923C1.90758 6.33785 1.91653 6.47222 1.86485 6.58872L1.67229 7.02321L2.09458 7.44551L2.52906 7.25289C2.64591 7.20117 2.78071 7.21021 2.88952 7.27737C3.17566 7.45392 3.48817 7.5834 3.81839 7.66227C3.94254 7.69193 4.04415 7.78081 4.09002 7.89998L4.26047 8.34293H4.85719L5.02765 7.89998C5.07356 7.78076 5.17531 7.69178 5.29956 7.66222C5.62881 7.58388 5.94123 7.45446 6.22809 7.27742C6.33691 7.21021 6.4717 7.20112 6.58855 7.25294L7.02308 7.44555L7.44533 7.02326L7.25276 6.58877C7.20094 6.47192 7.21009 6.33703 7.2772 6.22826C7.45423 5.94135 7.58371 5.62893 7.66209 5.29968C7.69165 5.17543 7.78058 5.07368 7.8998 5.02781L8.34275 4.85731V4.26049L7.8998 4.08999C7.78068 4.04412 7.6918 3.94256 7.66214 3.81841C7.58327 3.48814 7.45375 3.17563 7.2772 2.88949C7.21009 2.78072 7.20094 2.64582 7.25276 2.52898L7.44533 2.09449L7.02308 1.6722L6.58855 1.86481C6.47209 1.91634 6.33768 1.90749 6.22906 1.84096C5.93827 1.66276 5.62552 1.53309 5.29951 1.45553C5.17526 1.42597 5.07351 1.33699 5.0276 1.21777L4.85714 0.774819H4.26052L4.09007 1.21777C4.0442 1.33689 3.94259 1.42582 3.81844 1.45548C3.49146 1.53353 3.17857 1.66324 2.88855 1.84101C2.77988 1.90753 2.64552 1.91644 2.52906 1.86486L2.09458 1.67224L1.67229 2.09454L1.86485 2.52903C1.91648 2.64549 1.90758 2.7799 1.84105 2.88852C1.66333 3.17848 1.53362 3.49133 1.45553 3.81846C1.42587 3.94261 1.33699 4.04421 1.21787 4.09003L0.774865 4.26054V4.85721ZM14.0997 7.67354C14.3137 7.67354 14.4872 7.84699 14.4872 8.061V15.3218C14.4872 15.5358 14.3137 15.7092 14.0997 15.7092H12.2729C12.0589 15.7092 11.8854 15.5358 11.8854 15.3218V8.061C11.8854 7.84699 12.0589 7.67354 12.2729 7.67354H14.0997ZM13.7123 8.44845H12.6604V14.9344H13.7123V8.44845ZM10.7067 9.59089C10.9207 9.59089 11.0941 9.76435 11.0941 9.97835V15.3218C11.0941 15.5358 10.9207 15.7092 10.7067 15.7092H8.87845C8.66445 15.7092 8.491 15.5358 8.491 15.3218V9.97835C8.491 9.76435 8.66445 9.59089 8.87845 9.59089H10.7067ZM10.3192 10.3658H9.26586V14.9343H10.3192V10.3658ZM7.31358 11.4274C7.52758 11.4274 7.70104 11.6009 7.70104 11.8149V15.3218C7.70104 15.5358 7.52758 15.7093 7.31358 15.7093H5.48535C5.27135 15.7093 5.0979 15.5358 5.0979 15.3218V11.8149C5.0979 11.6009 5.27135 11.4274 5.48535 11.4274H7.31358ZM6.92612 12.2023H5.87276V14.9343H6.92612V12.2023ZM24 19.5598C24 22.0081 22.0081 24 19.5598 24C17.1121 24 15.1209 22.0081 15.1209 19.5598C15.1209 18.5905 15.4334 17.693 15.9626 16.9621H5.08213C4.86953 16.9621 4.69535 16.7879 4.69535 16.5753C4.69535 16.3628 4.86953 16.1886 5.08213 16.1886H16.6754C16.8853 16.0087 17.112 15.8479 17.353 15.7092H15.6661C15.4521 15.7092 15.2786 15.5358 15.2786 15.3218V6.33427C15.2786 6.12032 15.4521 5.94681 15.6661 5.94681H17.4929C17.7069 5.94681 17.8803 6.12027 17.8803 6.33427V15.3218C17.8803 15.3713 17.8707 15.4184 17.8538 15.4619C18.3793 15.2423 18.9556 15.1208 19.5598 15.1208C22.0081 15.1208 24 17.1121 24 19.5598ZM17.1054 6.72173H16.0535V14.9344H17.1054V6.72173ZM23.2251 19.5598C23.2251 17.5394 21.5808 15.8958 19.5597 15.8958C17.5394 15.8958 15.8957 17.5394 15.8957 19.5598C15.8957 21.5809 17.5394 23.2251 19.5597 23.2251C21.5808 23.2251 23.2251 21.5809 23.2251 19.5598ZM19.6247 19.1664C19.0707 19.0762 19.0611 18.8789 19.0579 18.814C19.045 18.5485 19.3255 18.4641 19.4118 18.4446C19.6034 18.4011 19.9667 18.4209 20.113 18.77C20.1957 18.9674 20.423 19.0602 20.6201 18.9776C20.8175 18.8948 20.9104 18.6678 20.8276 18.4704C20.6467 18.0388 20.3086 17.798 19.9471 17.7022V17.6026C19.9471 17.3886 19.7737 17.2151 19.5597 17.2151C19.3457 17.2151 19.1722 17.3886 19.1722 17.6026V17.7059C18.6121 17.8607 18.2578 18.3134 18.284 18.8516C18.3 19.1835 18.4794 19.7651 19.4999 19.9311C20.1263 20.0335 20.1518 20.2418 20.1625 20.3302C20.1739 20.425 20.1453 20.4726 20.1157 20.5068C20.0237 20.6131 19.813 20.6881 19.5915 20.6934C19.3409 20.6991 19.0189 20.5997 18.944 20.2988C18.8925 20.0911 18.6825 19.9646 18.4746 20.0162C18.2669 20.0678 18.1404 20.278 18.192 20.4857C18.3093 20.9574 18.6821 21.3014 19.1722 21.4218V21.5182C19.1722 21.7322 19.3457 21.9057 19.5597 21.9057C19.7737 21.9057 19.9471 21.7322 19.9471 21.5182V21.4287C20.2566 21.3624 20.5261 21.2167 20.7016 21.0139C20.8876 20.7991 20.9672 20.5306 20.9318 20.2369C20.8611 19.6567 20.4214 19.2966 19.6247 19.1664ZM23.0413 19.5598C23.0413 21.4795 21.4795 23.0414 19.5597 23.0414C17.64 23.0414 16.0781 21.4795 16.0781 19.5598C16.0781 17.64 17.64 16.0782 19.5597 16.0782C21.4795 16.0782 23.0413 17.64 23.0413 19.5598ZM22.2664 19.5598C22.2664 18.0673 21.0522 16.8531 19.5598 16.8531C18.0673 16.8531 16.8531 18.0673 16.8531 19.5598C16.8531 21.0522 18.0673 22.2665 19.5598 22.2665C21.0522 22.2665 22.2664 21.0522 22.2664 19.5598Z" fill="white"/>
  </g>
  <defs>
    <clipPath id="clip0_84_3862">
      <rect width="24" height="24" fill="white"/>
    </clipPath>
  </defs>
</svg>