<svg width="41" height="40" viewBox="0 0 41 40" fill="none" xmlns="http://www.w3.org/2000/svg">
<rect x="0.333496" width="40" height="40" rx="20" fill="#C5FFFF"/>
<path d="M17.123 20.2215H19.418C20.2292 20.2215 21.0123 20.4568 21.6822 20.9015C21.9026 21.0481 22.1991 20.9881 22.3452 20.7681C22.4907 20.5482 22.4312 20.2512 22.2113 20.1051C21.772 19.8135 21.2917 19.6005 20.7897 19.4591C22.0232 18.6405 22.8387 17.2401 22.8387 15.6522C22.8387 13.1335 20.7897 11.084 18.2705 11.084C15.7513 11.084 13.7023 13.1335 13.7023 15.6522C13.7023 17.2406 14.5183 18.6405 15.7518 19.4597C13.6311 20.0595 12.0708 22.0075 12.0708 24.3174V24.9709C12.0708 25.6896 12.5787 26.3075 13.2762 26.4387C14.9002 26.7548 16.5806 26.9147 18.2705 26.9147H18.313C18.577 26.9147 18.7699 26.7006 18.7699 26.4366C18.7699 26.1725 18.5345 25.9585 18.2705 25.9585C16.6417 25.9585 15.0224 25.8039 13.4558 25.4995C13.2077 25.4527 13.0276 25.2306 13.0276 24.9709V24.3174C13.0276 22.0585 14.8646 20.2215 17.123 20.2215ZM14.6591 15.6522C14.6591 13.6605 16.2788 12.0402 18.2705 12.0402C20.2621 12.0402 21.8819 13.6605 21.8819 15.6522C21.8819 17.6439 20.2621 19.2642 18.2705 19.2642C16.2788 19.2642 14.6591 17.6439 14.6591 15.6522Z" fill="#27313E"/>
<path d="M25.3997 21.8848H20.7852C20.126 21.8848 19.5889 22.4213 19.5889 23.0811V25.7204C19.5889 26.3797 20.1254 26.9157 20.7842 26.9157H25.3997C26.059 26.9157 26.5961 26.3791 26.5961 25.7193V23.0811C26.5961 22.4213 26.059 21.8848 25.3997 21.8848ZM20.7852 22.841H25.3997C25.532 22.841 25.6393 22.9489 25.6393 23.0811V23.486H20.5456V23.0811C20.5456 22.9489 20.653 22.841 20.7852 22.841ZM25.3997 25.9595H20.7842C20.6524 25.9595 20.5456 25.8521 20.5456 25.7204V24.4422H25.6393V25.7193C25.6393 25.8516 25.532 25.9595 25.3997 25.9595Z" fill="#27313E"/>
</svg>
