<svg xmlns="http://www.w3.org/2000/svg" width="24" height="24" viewBox="0 0 24 24" fill="none">
  <g clip-path="url(#clip0_84_27665)">
    <path fill-rule="evenodd" clip-rule="evenodd" d="M4.5475 8.27985H3.63263C3.47247 8.27985 3.32886 8.18129 3.27138 8.03182L3.10276 7.59373C2.87017 7.52395 2.64571 7.43066 2.43214 7.31584L2.00199 7.50634C1.85572 7.57118 1.68463 7.53929 1.57151 7.42616L0.853711 6.70829C0.740441 6.59502 0.708603 6.42368 0.773682 6.27731C0.773682 6.27731 0.96461 5.84792 0.96461 5.84797C0.849647 5.63482 0.756698 5.41031 0.686685 5.17824L0.248072 5.00942C0.0986093 4.95189 0 4.80827 0 4.64816V3.63276C0 3.4726 0.0986093 3.32898 0.248072 3.2715C0.248072 3.2715 0.68654 3.10268 0.68654 3.10273C0.756602 2.87013 0.849598 2.64571 0.964707 2.43213L0.773682 2.00255C0.708603 1.85618 0.740441 1.68484 0.853711 1.57156L1.57151 0.853742C1.68478 0.740468 1.85611 0.708629 2.00248 0.77371C2.00248 0.77371 2.43209 0.964742 2.43204 0.964742C2.64557 0.849677 2.86983 0.756774 3.10194 0.687194L3.27148 0.247742C3.32911 0.0984677 3.47262 0 3.63263 0H4.64799C4.8082 0 4.95185 0.0987097 5.00934 0.248274L5.17801 0.68729C5.40997 0.756871 5.63414 0.849726 5.84751 0.964742L6.27708 0.77371C6.42345 0.708629 6.59478 0.740468 6.70805 0.853742L7.42589 1.57156C7.53902 1.68469 7.5709 1.85579 7.50607 2.00206L7.31572 2.43184C7.43088 2.64556 7.52392 2.87013 7.59355 3.10292L8.03153 3.2715C8.18099 3.32898 8.27956 3.4726 8.27956 3.63276V4.10385H8.48577V4.00055C8.48577 3.78677 8.65904 3.61345 8.87286 3.61345C8.87286 3.61345 10.381 3.61345 10.381 3.6135C10.6548 2.9909 11.277 2.55673 11.9996 2.55673C12.7221 2.55673 13.3443 2.9909 13.6182 3.61345H15.1263C15.3401 3.61345 15.5134 3.78677 15.5134 4.00055V4.10385H18.2515C18.9136 4.10385 19.4516 4.64264 19.4516 5.3025V14.4131L23.8161 21.9713L23.8162 21.9715C24.0613 22.3971 24.0613 22.8976 23.8159 23.3239L23.8155 23.3245C23.5692 23.7488 23.1356 24 22.6442 24H13.8149C13.3245 24 12.8894 23.7484 12.644 23.3235L12.6439 23.3233C12.3988 22.8976 12.3988 22.3971 12.644 21.9713L12.9488 21.4433H5.74765C5.08554 21.4433 4.5475 20.9045 4.5475 20.2446V8.27985ZM8.20393 4.87805C8.16106 4.93611 8.10193 4.98232 8.03153 5.00942C8.03153 5.00942 7.59331 5.1781 7.59331 5.17805C7.58769 5.19663 7.58198 5.21511 7.57613 5.23355H8.48577V4.87805H8.20393ZM7.38646 6.00774L7.50607 6.27779C7.5709 6.42411 7.53902 6.59516 7.42589 6.70829L6.70805 7.42616C6.63813 7.49613 6.54601 7.53498 6.45132 7.53914V19.5394H14.048L14.8624 18.1287H11.8335C11.6199 18.1287 11.4464 17.9552 11.4464 17.7416C11.4464 17.5279 11.6199 17.3545 11.8335 17.3545H15.3094L15.7117 16.6576H11.8335C11.6199 16.6576 11.4464 16.4841 11.4464 16.2705C11.4464 16.0569 11.6199 15.8834 11.8335 15.8834H16.1587L17.0585 14.3248C17.1803 14.1132 17.3489 13.9449 17.5478 13.8291V6.00774H15.5134V6.111C15.5134 6.32477 15.3401 6.4981 15.1263 6.4981H8.87286C8.65904 6.4981 8.48577 6.32477 8.48577 6.111V6.00774H7.38646ZM5.67715 7.4024C5.56136 7.45703 5.44267 7.50537 5.32166 7.54727V20.2446C5.32166 20.4786 5.51293 20.6691 5.74765 20.6691H13.3958L13.601 20.3136H6.06423C5.85042 20.3136 5.67715 20.1403 5.67715 19.9265V7.4024ZM14.7392 5.7239V4.38765H13.3418C13.1629 4.38765 13.0073 4.26503 12.9654 4.09103C12.8605 3.65448 12.4674 3.33092 11.9996 3.33092C11.5318 3.33092 11.1386 3.65448 11.0337 4.09103C10.9918 4.26503 10.8362 4.38765 10.6573 4.38765H9.25994V5.7239H14.7392ZM18.6775 13.7218V5.3025C18.6775 5.06855 18.4862 4.87805 18.2515 4.87805H15.5134V5.23355H17.9349C18.1487 5.23355 18.322 5.40682 18.322 5.62065V13.651C18.4456 13.659 18.5647 13.683 18.6775 13.7218ZM4.52592 1.14866L4.38207 0.774194H3.89817L3.75345 1.14919C3.70753 1.26823 3.60592 1.35697 3.48181 1.38644C3.19063 1.45563 2.91294 1.57069 2.65771 1.72795C2.54894 1.79502 2.41414 1.80402 2.29738 1.75215L1.93091 1.58918L1.58912 1.93098L1.75208 2.29747C1.80395 2.41423 1.79495 2.54903 1.72789 2.65781C1.57044 2.91334 1.45533 3.19137 1.38518 3.48377C1.35547 3.60765 1.26668 3.70897 1.1478 3.75474L0.774166 3.89855V4.38237L1.1478 4.52618C1.26658 4.5719 1.35532 4.67308 1.38513 4.79685C1.45524 5.08819 1.5702 5.36705 1.7276 5.62156C1.7949 5.73039 1.80405 5.86548 1.75208 5.98239L1.58912 6.34887L1.9312 6.69097L2.29787 6.52853C2.41419 6.477 2.54841 6.48595 2.65689 6.55239C2.91231 6.70892 3.19024 6.8251 3.48258 6.89439C3.60689 6.92385 3.70869 7.01274 3.75461 7.13202L3.89841 7.50566H4.38221L4.52601 7.13202C4.57188 7.01284 4.67354 6.92395 4.79775 6.89444C5.08874 6.82529 5.36719 6.71042 5.62136 6.55326C5.73004 6.48605 5.86489 6.47681 5.98169 6.52853L6.3484 6.69097L6.69073 6.34863L6.5283 5.9819C6.47677 5.86558 6.48572 5.7314 6.55215 5.62292C6.70873 5.36739 6.8249 5.08945 6.89419 4.79792C6.9237 4.67371 7.01259 4.57205 7.13176 4.52618L7.50539 4.38237V3.89855L7.13176 3.75474C7.01249 3.70882 6.9236 3.60702 6.89414 3.48271C6.82495 3.19064 6.70994 2.913 6.55268 2.65781C6.48577 2.54923 6.47667 2.41461 6.5283 2.29795L6.69073 1.93127L6.34864 1.58918L5.98217 1.75215C5.86547 1.80402 5.73062 1.79502 5.62185 1.72795C5.36661 1.57069 5.08893 1.45563 4.79775 1.38644C4.67344 1.35692 4.57174 1.26794 4.52592 1.14866ZM4.13917 1.59029C5.54748 1.59029 6.68932 2.73092 6.68932 4.13932C6.68932 5.54763 5.54743 6.68956 4.13917 6.68956C2.73082 6.68956 1.59023 5.54768 1.59023 4.13932C1.59023 2.73087 2.73077 1.59029 4.13917 1.59029ZM4.13917 2.36448C3.15855 2.36448 2.3644 3.15866 2.3644 4.13932C2.3644 5.12003 3.15845 5.91537 4.13917 5.91537C5.1199 5.91537 5.91516 5.12008 5.91516 4.13932C5.91516 3.15856 5.11985 2.36448 4.13917 2.36448ZM3.75272 2.87226C3.75272 2.65863 3.92613 2.48516 4.1398 2.48516C4.35342 2.48516 4.52689 2.65863 4.52689 2.87226V4.23547C4.52689 4.44914 4.35342 4.62256 4.1398 4.62256C3.92613 4.62256 3.75272 4.44914 3.75272 4.23547V2.87226ZM4.1398 5.68635C3.92289 5.68635 3.74609 5.50955 3.74609 5.29263C3.74609 5.07571 3.92289 4.8989 4.1398 4.8989C4.35667 4.8989 4.53351 5.07571 4.53351 5.29263C4.53351 5.50955 4.35667 5.68635 4.1398 5.68635ZM18.7297 14.711C18.625 14.5291 18.4397 14.4223 18.2296 14.4223C18.0201 14.4223 17.8342 14.5291 17.7294 14.7113L13.3147 22.3578C13.2098 22.5402 13.2098 22.7545 13.3147 22.9368C13.4195 23.1182 13.6053 23.2258 13.8149 23.2258H22.6442C22.8546 23.2258 23.04 23.1179 23.146 22.9359C23.2503 22.7537 23.2501 22.5399 23.1454 22.3579L18.7298 14.7113L18.7297 14.711ZM18.6171 20.1048C18.6171 20.3184 18.4437 20.4919 18.2301 20.4919C18.0164 20.4919 17.843 20.3184 17.843 20.1048V16.5104C17.843 16.2967 18.0164 16.1233 18.2301 16.1233C18.4437 16.1233 18.6171 16.2967 18.6171 16.5104V20.1048ZM18.1077 21.0562L18.3349 21.052C18.551 21.1 18.7133 21.2935 18.7133 21.5238C18.7133 21.7901 18.4963 22.0071 18.2301 22.0071C17.9638 22.0071 17.7468 21.7901 17.7468 21.5238C17.7468 21.2998 17.9004 21.1106 18.1077 21.0562ZM7.89368 15.331H9.93734C10.2985 15.331 10.5913 15.6238 10.5913 15.985V18.0286C10.5913 18.3899 10.2985 18.6827 9.93734 18.6827H7.89368C7.53249 18.6827 7.23971 18.3899 7.23971 18.0286V15.985C7.23971 15.6238 7.53249 15.331 7.89368 15.331ZM8.01387 17.9085H9.81715V16.1052H8.01387V17.9085ZM7.89368 7.05687H9.93734C10.2985 7.05687 10.5913 7.34966 10.5913 7.71087V9.75614C10.5913 10.1135 10.2985 10.4101 9.93734 10.4101H7.89368C7.53249 10.4101 7.23971 10.1135 7.23971 9.75614V7.71087C7.23971 7.34966 7.53249 7.05687 7.89368 7.05687ZM8.01387 7.83106V9.63595H9.81715V7.83106H8.01387ZM7.89368 11.1939H9.93734C10.2985 11.1939 10.5913 11.4867 10.5913 11.8479V13.8916C10.5913 14.2529 10.2985 14.5456 9.93734 14.5456H7.89368C7.53249 14.5456 7.23971 14.2529 7.23971 13.8916V11.8479C7.23971 11.4867 7.53249 11.1939 7.89368 11.1939ZM8.01387 11.9681V13.7715H9.81715V11.9681H8.01387ZM11.8335 13.9932C11.6199 13.9932 11.4464 13.8197 11.4464 13.6061C11.4464 13.3924 11.6199 13.219 11.8335 13.219H16.3723C16.586 13.219 16.7594 13.3924 16.7594 13.6061C16.7594 13.8197 16.586 13.9932 16.3723 13.9932H11.8335ZM11.8335 8.38505C11.6199 8.38505 11.4464 8.21158 11.4464 7.99795C11.4464 7.78432 11.6199 7.61085 11.8335 7.61085H16.3723C16.586 7.61085 16.7594 7.78432 16.7594 7.99795C16.7594 8.21158 16.586 8.38505 16.3723 8.38505H11.8335ZM11.8335 9.85616C11.6199 9.85616 11.4464 9.68269 11.4464 9.46906C11.4464 9.25539 11.6199 9.08197 11.8335 9.08197H16.3723C16.586 9.08197 16.7594 9.25539 16.7594 9.46906C16.7594 9.68269 16.586 9.85616 16.3723 9.85616H11.8335ZM11.8335 12.5221C11.6199 12.5221 11.4464 12.3486 11.4464 12.135C11.4464 11.9214 11.6199 11.7479 11.8335 11.7479H16.3723C16.586 11.7479 16.7594 11.9214 16.7594 12.135C16.7594 12.3486 16.586 12.5221 16.3723 12.5221H11.8335ZM11.9996 4.44126C11.7978 4.44126 11.6349 4.27679 11.6349 4.07661C11.6349 3.87489 11.7978 3.71037 11.9996 3.71037C12.2013 3.71037 12.3642 3.87489 12.3642 4.07661C12.3642 4.27679 12.2013 4.44126 11.9996 4.44126Z" fill="white"/>
  </g>
  <defs>
    <clipPath id="clip0_84_27665">
      <rect width="24" height="24" fill="white"/>
    </clipPath>
  </defs>
</svg>