<svg width="40" height="40" viewBox="0 0 40 40" fill="none" xmlns="http://www.w3.org/2000/svg">
<rect width="40" height="40" rx="20" fill="#C5FFFF"/>
<g clip-path="url(#clip0_328_44347)">
<path d="M29.5774 22.8136C29.1829 22.1312 28.3064 21.896 27.6232 22.2895L27.2621 22.498C27.1352 22.2038 26.9104 21.9572 26.6151 21.8017C26.177 21.5709 25.6606 21.5802 25.2337 21.8267L22.913 23.1667C22.8139 23.1079 22.7055 23.0613 22.5888 23.03L18.4428 21.9195C18.0646 21.7964 17.6 21.8443 17.2557 22.0426L14.3989 23.6918L14.1752 23.3044C14.0607 23.1057 13.8751 22.9633 13.6528 22.9033C13.4303 22.8434 13.1982 22.8735 12.9992 22.9882L11.6516 23.7666C11.2766 23.9829 11.1414 24.437 11.3151 24.8965L13.1398 29.7284C13.2083 29.9103 13.3412 30.048 13.5242 30.1264C13.6315 30.1724 13.7525 30.1952 13.8776 30.1952C14.0192 30.1952 14.1659 30.1659 14.3037 30.1075L16.5195 29.1633C16.7207 29.0784 16.8714 28.9126 16.9436 28.6965C17.023 28.4589 16.995 28.1871 16.8691 27.9702L16.6455 27.5829L17.0286 27.362C17.2085 27.2578 17.2738 27.2597 17.5515 27.3211L21.6857 28.4287C21.8362 28.4692 21.989 28.4893 22.1411 28.4893C22.4449 28.4893 22.7457 28.4092 23.0175 28.2525L29.053 24.7669C29.383 24.5769 29.6194 24.2684 29.7186 23.8983C29.8178 23.5284 29.7677 23.1432 29.5774 22.8135L29.5774 22.8136ZM25.5465 22.3685C25.7862 22.2301 26.0767 22.2252 26.3236 22.3552C26.5124 22.4547 26.65 22.6197 26.7134 22.8148L23.4836 24.6797C23.4907 24.6579 23.4972 24.6358 23.5031 24.6135C23.5962 24.2664 23.5379 23.9138 23.3691 23.6258L25.5464 22.3685H25.5465ZM16.3502 28.4983C16.3354 28.5427 16.3104 28.5726 16.2752 28.5875L14.059 29.5318C13.9602 29.5737 13.8416 29.5818 13.7706 29.5514C13.7387 29.5377 13.7307 29.5224 13.7252 29.5077L11.9004 24.6754C11.8898 24.6477 11.8026 24.4017 11.9643 24.3085C11.9645 24.3085 11.9645 24.3084 11.9646 24.3084L13.312 23.5301C13.3476 23.5096 13.3873 23.4991 13.4278 23.4991C13.4485 23.4991 13.4695 23.5019 13.4902 23.5074C13.5513 23.5239 13.6021 23.5627 13.6334 23.617L16.3278 28.2838C16.3641 28.3463 16.3729 28.4305 16.3502 28.4983ZM29.1143 23.7363C29.0584 23.9448 28.9257 24.1183 28.7404 24.2251L22.7048 27.7107C22.442 27.8622 22.1379 27.9027 21.848 27.8246L17.7068 26.7151C17.7024 26.7139 17.698 26.7128 17.6936 26.7119C17.348 26.6352 17.0934 26.6015 16.7155 26.8205L16.3327 27.0413L14.7117 24.2336L17.5683 22.5845C17.7609 22.4736 18.0429 22.4454 18.254 22.516C18.2601 22.5181 18.2662 22.5199 18.2723 22.5215L22.4268 23.6344C22.7823 23.7297 22.9941 24.0962 22.8987 24.452C22.8535 24.6218 22.7465 24.7615 22.5975 24.8454C22.4478 24.9298 22.2699 24.9508 22.0968 24.9046L22.0963 24.9045C22.0938 24.9038 22.0913 24.9035 22.0889 24.9029L18.9725 24.0784C18.8053 24.0341 18.6343 24.1338 18.5902 24.3008C18.5459 24.4678 18.6455 24.639 18.8125 24.6832L21.9473 25.5125C21.9491 25.513 21.951 25.5131 21.9529 25.5136L22.4336 25.641C22.8103 25.7404 23.022 25.6688 23.508 25.3879L27.9357 22.8314C28.3203 22.61 28.8137 22.7424 29.0357 23.1264C29.1423 23.3112 29.1702 23.5278 29.1144 23.7362L29.1143 23.7363ZM13.6379 25.0002C13.7245 25.1498 13.6735 25.3411 13.524 25.4277C13.4746 25.4563 13.4207 25.4699 13.3675 25.4699C13.2595 25.4699 13.1545 25.4139 13.0965 25.3137L12.7112 24.6483C12.6246 24.4987 12.6757 24.3074 12.8252 24.2208C12.9747 24.1343 13.1661 24.1853 13.2526 24.3347L13.6379 25.0002L13.6379 25.0002ZM23.2625 16.0407C23.2625 16.2874 23.3481 16.5143 23.4909 16.6937C23.3114 16.551 23.0845 16.4654 22.8379 16.4654H19.7319C19.1528 16.4654 18.6816 16.936 18.6816 17.5145C18.6816 17.761 18.7672 17.9877 18.9099 18.1671C18.7308 18.0246 18.5043 17.9391 18.2581 17.9391H15.1521C14.573 17.9391 14.1019 18.4097 14.1019 18.9883C14.1019 19.275 14.2177 19.5352 14.4051 19.7248C14.2178 19.9145 14.1019 20.175 14.1019 20.462C14.1019 21.0406 14.573 21.5112 15.1521 21.5112H18.2581C18.5448 21.5112 18.805 21.3954 18.9946 21.2083C19.1844 21.3954 19.4448 21.5112 19.7319 21.5112H22.8379C23.1249 21.5112 23.3854 21.3954 23.5752 21.2083C23.7647 21.3954 24.0249 21.5112 24.3117 21.5112H27.4176C27.9967 21.5112 28.4679 21.0405 28.4679 20.462C28.4679 20.175 28.352 19.9145 28.1647 19.7248C28.352 19.5352 28.4679 19.2751 28.4679 18.9883C28.4679 18.7015 28.352 18.4413 28.1647 18.2517C28.352 18.062 28.4679 17.8015 28.4679 17.5145C28.4679 17.2274 28.352 16.9675 28.1647 16.7779C28.352 16.5882 28.4679 16.3277 28.4679 16.0406C28.4679 15.6542 28.2575 15.3161 27.9452 15.1341C28.273 14.7005 28.4679 14.1611 28.4679 13.577C28.4679 12.1504 27.3073 10.9898 25.8807 10.9898C24.4541 10.9898 23.2936 12.1504 23.2936 13.577C23.2936 14.1554 23.4845 14.6902 23.8065 15.1215C23.4825 15.3003 23.2626 15.6452 23.2626 16.0407L23.2625 16.0407ZM23.8881 16.0407C23.8881 15.8133 24.0686 15.6276 24.2937 15.6181C24.7323 15.9599 25.2829 16.1642 25.8806 16.1642C26.4784 16.1642 27.027 15.9606 27.4651 15.6201C27.6769 15.6437 27.8422 15.8233 27.8422 16.0408C27.8422 16.2749 27.6517 16.4654 27.4176 16.4654H24.3116C24.0781 16.4654 23.8881 16.2749 23.8881 16.0408L23.8881 16.0407ZM27.8422 17.5145C27.8422 17.7486 27.6518 17.9392 27.4176 17.9392H24.3117C24.0781 17.9392 23.8881 17.7487 23.8881 17.5145C23.8881 17.2803 24.0781 17.091 24.3117 17.091H27.4176C27.6518 17.091 27.8422 17.281 27.8422 17.5145ZM27.8422 18.9883C27.8422 19.2219 27.6518 19.4119 27.4176 19.4119H24.3117C24.0781 19.4119 23.8881 19.2219 23.8881 18.9883C23.8881 18.7547 24.0781 18.5647 24.3117 18.5647H27.4176C27.6518 18.5647 27.8422 18.7547 27.8422 18.9883ZM19.732 19.4119C19.4978 19.4119 19.3073 19.2219 19.3073 18.9883C19.3073 18.7547 19.4978 18.5647 19.732 18.5647H22.8379C23.072 18.5647 23.2625 18.7547 23.2625 18.9883C23.2625 19.2219 23.072 19.4119 22.8379 19.4119H19.732ZM19.732 17.091H22.8379C23.072 17.091 23.2625 17.281 23.2625 17.5145C23.2625 17.7481 23.072 17.9392 22.8379 17.9392H19.732C19.4978 17.9392 19.3073 17.7487 19.3073 17.5145C19.3073 17.2803 19.4978 17.091 19.732 17.091ZM15.1522 18.5647H18.2582C18.4917 18.5647 18.6817 18.7547 18.6817 18.9883C18.6817 19.2219 18.4917 19.4119 18.2582 19.4119H15.1521C14.918 19.4119 14.7275 19.2219 14.7275 18.9883C14.7275 18.7547 14.918 18.5647 15.1521 18.5647H15.1522ZM18.2582 20.8856H15.1521C14.918 20.8856 14.7275 20.6956 14.7275 20.4621C14.7275 20.2285 14.918 20.0374 15.1521 20.0374H18.2581C18.4916 20.0374 18.6816 20.2279 18.6816 20.4621C18.6816 20.6963 18.4916 20.8856 18.2581 20.8856H18.2582ZM22.8379 20.8856H19.732C19.4978 20.8856 19.3073 20.6956 19.3073 20.4621C19.3073 20.2285 19.4978 20.0374 19.732 20.0374H22.8379C23.072 20.0374 23.2625 20.2279 23.2625 20.4621C23.2625 20.6963 23.072 20.8856 22.8379 20.8856ZM27.4176 20.8856H24.3117C24.0781 20.8856 23.8881 20.6956 23.8881 20.4621C23.8881 20.2285 24.0781 20.0374 24.3117 20.0374H27.4176C27.6518 20.0374 27.8422 20.2279 27.8422 20.4621C27.8422 20.6963 27.6518 20.8856 27.4176 20.8856ZM25.8806 11.6154C26.9622 11.6154 27.8422 12.4954 27.8422 13.577C27.8422 14.6586 26.9623 15.5386 25.8806 15.5386C24.799 15.5386 23.9191 14.6586 23.9191 13.577C23.9191 12.4954 24.799 11.6154 25.8806 11.6154ZM26.1602 13.9989C26.1602 13.9397 26.1103 13.8898 26.0512 13.8898H25.7101C25.2982 13.8898 24.9754 13.5622 24.9754 13.1441C24.9754 12.7877 25.2306 12.49 25.5678 12.4235V12.2394C25.5678 12.0667 25.7079 11.9266 25.8806 11.9266C26.0534 11.9266 26.1934 12.0667 26.1934 12.2394V12.4094H26.473C26.6458 12.4094 26.7859 12.5494 26.7859 12.7222C26.7859 12.895 26.6458 13.035 26.473 13.035H25.7101C25.651 13.035 25.6011 13.085 25.6011 13.1441C25.6011 13.2038 25.6385 13.2642 25.7101 13.2642H26.0512C26.4563 13.2642 26.7859 13.5938 26.7859 13.9989C26.7859 14.3675 26.535 14.6654 26.1934 14.7309V14.9135C26.1934 15.0863 26.0534 15.2263 25.8806 15.2263C25.7079 15.2263 25.5678 15.0863 25.5678 14.9135V14.7447H25.2882C25.1155 14.7447 24.9754 14.6046 24.9754 14.4319C24.9754 14.2591 25.1155 14.119 25.2882 14.119H26.0512C26.1228 14.119 26.1602 14.0586 26.1602 13.9989ZM13.9237 15.9385C13.9196 15.7658 14.0563 15.6225 14.229 15.6184C17.968 15.5294 20.458 14.2414 21.8174 11.6889L21.2489 11.8994C21.087 11.9594 20.907 11.8767 20.847 11.7147C20.787 11.5527 20.8697 11.3727 21.0317 11.3127L22.3118 10.8388C22.3921 10.809 22.4811 10.8136 22.558 10.8513C22.635 10.889 22.6931 10.9566 22.7188 11.0383L23.0864 12.2076C23.1382 12.3724 23.0466 12.5481 22.8818 12.5999C22.8506 12.6097 22.819 12.6144 22.7879 12.6144C22.6549 12.6144 22.5316 12.5289 22.4896 12.3953L22.3637 11.9949C20.8986 14.7219 18.1713 16.1504 14.2439 16.2439C14.2414 16.2439 14.2388 16.244 14.2363 16.244C14.067 16.244 13.9278 16.1088 13.9237 15.9386V15.9385Z" fill="#27313E"/>
</g>
<defs>
<clipPath id="clip0_328_44347">
<rect width="20" height="20" fill="white" transform="translate(10.5 10.5)"/>
</clipPath>
</defs>
</svg>
