<svg width="18" height="18" viewBox="0 0 18 18" fill="none" xmlns="http://www.w3.org/2000/svg">
<path d="M14.984 12.4659C14.4575 11.9349 13.6204 11.8314 12.9589 12.1374C12.9409 12.1104 12.9274 12.0789 12.9004 12.0519L12.4729 11.6244C14.8175 8.84787 14.6825 4.68535 12.0679 2.07084C9.30942 -0.687676 4.8229 -0.687676 2.06889 2.07084C-0.689629 4.82935 -0.689629 9.31588 2.06889 12.0699C3.44589 13.4469 5.2594 14.1399 7.06841 14.1399C8.69292 14.1399 10.3129 13.5819 11.6224 12.4749L12.0499 12.9024C12.0724 12.9249 12.1039 12.9384 12.1309 12.9564C11.8114 13.6179 11.9194 14.4369 12.4684 14.9814L14.966 17.4789C16.019 18.4554 17.144 17.8164 17.477 17.4789C17.8145 17.1414 18.4625 16.0299 17.477 14.9679L14.984 12.4659ZM2.91939 11.2149C0.628878 8.92438 0.628878 5.20286 2.91939 2.91234C4.0624 1.76934 5.5654 1.19333 7.07291 1.19333C8.57592 1.19333 10.0789 1.76484 11.2264 2.91234C13.5169 5.20286 13.5169 8.92888 11.2264 11.2149C8.93592 13.5054 5.2099 13.5054 2.91939 11.2149ZM16.631 16.6239C16.415 16.8399 16.0325 16.8444 15.8165 16.6239L13.3189 14.1264C13.0939 13.9014 13.0939 13.5369 13.3189 13.3119C13.4269 13.2039 13.5709 13.1409 13.7284 13.1409C13.8814 13.1409 14.0255 13.1994 14.138 13.3119L16.6355 15.8094C16.9595 16.1919 16.7435 16.5159 16.631 16.6239Z" fill="#09090B"/>
<path d="M7.07262 2.32228C4.4581 2.32228 2.32959 4.45079 2.32959 7.0653C2.32959 7.39831 2.59959 7.66381 2.92809 7.66381C3.2611 7.66381 3.5266 7.39381 3.5266 7.0653C3.5266 5.11229 5.11511 3.52378 7.06812 3.52378C7.40112 3.52378 7.66662 3.25378 7.66662 2.92528C7.67112 2.58778 7.40562 2.32228 7.07262 2.32228Z" fill="#09090B"/>
</svg>
