<svg xmlns="http://www.w3.org/2000/svg" width="18" height="18" viewBox="0 0 18 18" fill="none">
  <g clip-path="url(#clip0_182_4893)">
    <path d="M13.6052 7.565C13.7074 7.49957 13.8382 7.47541 13.9809 7.50159C14.1109 7.52525 14.2167 7.59442 14.2828 7.69623C14.3488 7.79786 14.3729 7.92826 14.3469 8.07085C14.1791 8.90487 13.7767 9.6738 13.177 10.2713C12.5758 10.8671 11.8114 11.267 10.9783 11.4352L10.9732 11.4362C10.702 11.462 10.482 11.286 10.4306 11.0379L10.4303 11.0367C10.3804 10.76 10.5578 10.5172 10.7974 10.4676L10.7986 10.4674C11.4365 10.3518 12.0303 10.02 12.5061 9.58131L12.5122 9.57525C12.9967 9.09247 13.2964 8.53344 13.4081 7.86494L13.4083 7.86388C13.4326 7.73542 13.5029 7.63054 13.6052 7.565Z" fill="#12181F"/>
    <path fill-rule="evenodd" clip-rule="evenodd" d="M3.90577 7.49861C3.90577 3.88053 6.85141 0.949219 10.4792 0.949219C14.1102 0.949219 17.0492 3.87712 17.0492 7.49526C17.0492 11.1134 14.1069 14.0447 10.4758 14.0447C9.52541 14.0447 8.62432 13.843 7.80797 13.4818L7.67418 13.4227L5.36137 16.0621C4.46619 16.9381 3.63541 17.1128 2.98805 17.0313C2.32695 16.948 1.83104 16.5936 1.63032 16.3778L1.62413 16.3716C1.40279 16.1511 1.04972 15.6581 0.967004 15.0062C0.886012 14.3679 1.0603 13.5481 1.93535 12.6473L1.93825 12.6443L4.56161 10.3589L4.49997 10.225C4.11809 9.39577 3.90577 8.47193 3.90577 7.49861ZM10.4792 1.96541C7.4125 1.96541 4.92534 4.44368 4.92534 7.49861C4.92534 10.5536 7.4125 13.0318 10.4792 13.0318C13.5493 13.0318 16.033 10.5535 16.033 7.49861C16.033 4.44368 13.5459 1.96541 10.4792 1.96541ZM2.58511 13.4023L2.57926 13.4077C2.07115 13.8828 1.93106 14.3984 1.96172 14.83C1.9768 15.0422 2.03284 15.2305 2.10186 15.3806C2.16896 15.5264 2.25485 15.65 2.34084 15.7229C2.80613 16.1176 3.3056 16.1489 3.72484 16.0298C4.13305 15.9139 4.46694 15.6566 4.64469 15.4608L6.80694 12.9333L6.63218 12.8082C6.0875 12.4182 5.60744 11.9434 5.20537 11.406L5.07728 11.2348L2.58511 13.4023Z" fill="#12181F"/>
  </g>
  <defs>
    <clipPath id="clip0_182_4893">
      <rect width="18" height="18" fill="white"/>
    </clipPath>
  </defs>
</svg>