<svg width="18" height="18" viewBox="0 0 18 18" fill="none" xmlns="http://www.w3.org/2000/svg">
<path d="M9.47754 3.16123L5.49477 7.64116C5.16463 8.01181 4.98221 8.49086 4.98221 8.98722C4.98221 9.48358 5.16463 9.96264 5.49477 10.3333L9.47701 14.8132C9.65382 15.0142 9.86893 15.1778 10.1098 15.2946C10.3506 15.4114 10.6123 15.479 10.8795 15.4934C10.9186 15.4956 10.9572 15.4966 10.9957 15.4966C11.3861 15.4956 11.7679 15.3819 12.0953 15.1691C12.4226 14.9564 12.6815 14.6536 12.841 14.2973C13.0004 13.9409 13.0536 13.5461 12.9941 13.1602C12.9346 12.7744 12.7649 12.4139 12.5055 12.1222L9.7202 8.98717L12.505 5.85335C12.682 5.6547 12.818 5.42313 12.9054 5.17186C12.9928 4.92059 13.0299 4.65456 13.0144 4.38898C12.9989 4.12339 12.9313 3.86346 12.8153 3.62404C12.6993 3.38463 12.5372 3.17042 12.3384 2.99366C11.9306 2.6503 11.4068 2.4763 10.8746 2.50747C10.3424 2.53864 9.84244 2.77261 9.47754 3.16123ZM11.7088 5.14456L8.60822 8.63304C8.52152 8.73065 8.47363 8.85667 8.47363 8.98722C8.47363 9.11778 8.52152 9.2438 8.60822 9.34141L11.7092 12.8304C11.7931 12.9248 11.8575 13.0347 11.8988 13.1541C11.9401 13.2734 11.9574 13.3997 11.9497 13.5257C11.942 13.6517 11.9095 13.775 11.854 13.8884C11.7985 14.0018 11.7212 14.1031 11.6264 14.1866C11.5337 14.2703 11.4251 14.3348 11.3072 14.3762C11.1893 14.4176 11.0643 14.4351 10.9395 14.4277C10.8127 14.4207 10.6887 14.3885 10.5745 14.3331C10.4603 14.2777 10.3583 14.2001 10.2743 14.1049L6.29156 9.62417C6.13532 9.44869 6.049 9.22192 6.049 8.98696C6.049 8.752 6.13532 8.52523 6.29156 8.34974L10.2754 3.86906C10.3591 3.77495 10.4606 3.69825 10.574 3.64335C10.6874 3.58844 10.8105 3.55641 10.9363 3.54908C11.062 3.54175 11.188 3.55927 11.307 3.60063C11.426 3.64199 11.5357 3.70638 11.6298 3.79013C11.7239 3.87388 11.8006 3.97535 11.8555 4.08874C11.9104 4.20213 11.9425 4.32523 11.9498 4.451C11.9571 4.57677 11.9396 4.70275 11.8983 4.82175C11.8569 4.94076 11.7925 5.05045 11.7088 5.14456Z" fill="white"/>
</svg>
