<svg xmlns="http://www.w3.org/2000/svg" width="91" height="92" viewBox="0 0 91 92" fill="none">
  <ellipse cx="45.5" cy="46" rx="45.5" ry="46" fill="#0CCE6B"/>
  <path d="M44.8485 13.6442C44.9356 13.587 45.0371 13.5557 45.1413 13.5541C45.2455 13.5525 45.348 13.5807 45.4368 13.6352C51.3835 17.2454 58.2611 32.4495 58.2635 44.4106C58.2721 46.5358 58.0955 48.6577 57.7357 50.7522C59.7435 52.4337 61.4518 54.4146 62.3387 56.672C64.8221 63.0601 61.0194 69.4457 59.1879 71.9969C59.0883 72.1372 58.9576 72.2526 58.8059 72.3338C58.6543 72.4151 58.4858 72.4601 58.3138 72.4652C58.1418 72.4704 57.971 72.4355 57.8148 72.3635C57.6585 72.2914 57.5211 72.1841 57.4134 72.0499L51.0759 64.1411C50.5338 64.673 49.9649 65.1771 49.3716 65.6512C48.9651 65.986 48.4542 66.1679 47.9275 66.1652L42.4173 66.1587C41.8908 66.1608 41.38 65.979 40.9732 65.6447C40.3831 65.1733 39.8173 64.6723 39.2779 64.1435L32.9453 72.0393C32.8374 72.1733 32.7 72.2804 32.5438 72.3523C32.3876 72.4242 32.2168 72.459 32.0449 72.4539C31.873 72.4487 31.7046 72.4038 31.553 72.3227C31.4013 72.2416 31.2705 72.1264 31.1708 71.9863C29.3344 69.4482 25.5227 63.0536 28.0176 56.6769C28.9044 54.4195 30.5997 52.4435 32.5937 50.7661C32.2309 48.6686 32.0516 46.5434 32.0577 44.4147C32.0275 32.4438 38.6823 17.5097 44.8485 13.6442ZM45.1667 43.2791C46.2622 43.2794 47.3332 42.9549 48.2442 42.3465C49.1552 41.7381 49.8654 40.8731 50.2848 39.8611C50.7042 38.8491 50.814 37.7354 50.6004 36.6609C50.3867 35.5864 49.8592 34.5995 49.0846 33.8248C48.31 33.0502 47.323 32.5227 46.2485 32.3091C45.174 32.0954 44.0604 32.2053 43.0483 32.6247C42.0363 33.0441 41.1714 33.7542 40.563 34.6652C39.9546 35.5762 39.63 36.6472 39.6304 37.7427C39.6298 38.4699 39.7727 39.1901 40.0507 39.862C40.3288 40.5339 40.7366 41.1445 41.2508 41.6587C41.765 42.1729 42.3755 42.5806 43.0474 42.8587C43.7194 43.1367 44.4395 43.2796 45.1667 43.2791Z" fill="white"/>
  <path d="M40.6116 68.3394C40.6108 69.2344 41.1534 70.1261 41.8672 71.1386C43.4761 73.4083 46.8643 73.445 48.4764 71.1362C49.0867 70.2599 49.7353 68.8249 49.7353 68.3353C49.7342 68.2294 49.7666 68.1258 49.8278 68.0393C49.889 67.9528 49.9759 67.8877 50.0761 67.8534C50.1764 67.8191 50.2849 67.8172 50.3863 67.8481C50.4877 67.8789 50.5767 67.941 50.6409 68.0253C51.5926 69.2425 52.1099 70.743 52.1102 72.2881C52.1086 76.1259 45.1665 83.4302 45.1665 83.4302C45.1665 83.4302 38.2204 76.1218 38.222 72.284C38.2193 70.7372 38.7375 69.2345 39.693 68.018C40.0038 67.6468 40.6223 67.8589 40.6116 68.3394Z" fill="white"/>
</svg>