<svg xmlns="http://www.w3.org/2000/svg" width="24" height="24" viewBox="0 0 24 24" fill="none">
  <path d="M9.00223 9.3918C8.58207 9.3918 8.19024 9.61811 7.97952 9.98237C7.82107 10.2563 7.47062 10.3499 7.19669 10.1915C6.92276 10.0331 6.82918 9.6826 6.98757 9.40867C7.40238 8.6914 8.17439 8.24584 9.00223 8.24584C9.83001 8.24584 10.602 8.6914 11.0169 9.4086C11.1753 9.68253 11.0818 10.033 10.8078 10.1914C10.7176 10.2437 10.6188 10.2685 10.5215 10.2686C10.3236 10.2686 10.1312 10.166 10.025 9.98244C9.81428 9.61805 9.42232 9.3918 9.00223 9.3918ZM12.0159 15.4672C11.5958 15.4672 11.2039 15.2409 10.9931 14.8767C10.8347 14.6027 10.4842 14.5091 10.2103 14.6675C9.93638 14.8259 9.8428 15.1764 10.0012 15.4504C10.416 16.1676 11.188 16.6132 12.0159 16.6132C12.8437 16.6132 13.6157 16.1676 14.0306 15.4504C14.189 15.1765 14.0954 14.826 13.8215 14.6676C13.5477 14.5091 13.1971 14.6027 13.0387 14.8766C12.828 15.2409 12.4361 15.4672 12.0159 15.4672ZM24 9.88294V12.4957C24 13.4702 23.2332 14.2912 22.2587 14.2912H21.2005C20.853 15.3734 20.3015 16.4212 19.5589 17.3577C18.3385 18.8966 16.6593 20.0143 14.7919 20.5779C14.7079 21.5206 13.914 22.2488 12.9501 22.2488H11.0818C10.0621 22.2488 9.23255 21.4224 9.23255 20.4027C9.23255 19.3828 10.0621 18.5565 11.0818 18.5565H12.9501C13.6212 18.5565 14.21 18.9258 14.5341 19.4622C18.0656 18.3696 20.4914 15.1182 20.4914 11.3772C20.4914 7.73611 18.1836 4.62388 14.9538 3.42668C14.1144 4.45849 13.0589 5.31689 11.8795 5.92389C10.5306 6.61798 9.01044 6.98492 7.48348 6.98492C7.30631 6.98492 7.1259 6.97996 6.94733 6.97015C6.63138 6.9529 6.38922 6.68273 6.40654 6.36678C6.42385 6.05083 6.69301 5.80676 7.00991 5.82592C7.16779 5.83458 7.32713 5.83884 7.48354 5.83884C9.90271 5.83884 12.1404 4.84249 13.7436 3.07833C13.2071 2.9668 12.6525 2.90575 12.0845 2.90123C12.0812 2.90091 12.0756 2.90047 12.071 2.90047C12.069 2.90059 12.0666 2.899 12.0645 2.899C12.0601 2.89887 12.0551 2.89607 12.0507 2.89607C12.0485 2.89607 12.0465 2.89607 12.0443 2.89607C12.04 2.89607 12.0349 2.89607 12.0303 2.89607C12.0281 2.89607 12.0263 2.89607 12.0239 2.89607C12.0212 2.89607 12.0185 2.89607 12.0159 2.89607C7.34247 2.89595 3.56499 6.70373 3.56499 11.3771V13.69C3.56499 14.0065 3.28386 14.2912 2.96747 14.2912H1.77314C0.798621 14.2912 0 13.4702 0 12.4957V9.88294C0 9.11296 0.495661 8.4367 1.23011 8.20026C1.53135 8.10306 1.85634 8.26876 1.95329 8.57007C2.05025 8.87118 1.88327 9.19407 1.58203 9.29102C1.32694 9.37314 1.14583 9.61652 1.14583 9.88294V12.4957C1.14583 12.8383 1.43039 13.1453 1.77307 13.1453H2.4191V11.3771C2.4191 6.07184 6.71064 1.75006 12.0159 1.75006C12.0189 1.75006 12.0221 1.75006 12.025 1.75006C12.0274 1.75006 12.0299 1.75006 12.0323 1.75006C12.0346 1.75006 12.037 1.75006 12.0393 1.75006C12.0421 1.75006 12.0455 1.75006 12.0484 1.75006C12.0507 1.75006 12.0533 1.75006 12.0555 1.75006C12.0578 1.75006 12.0602 1.75006 12.0625 1.75006H12.063C12.066 1.75006 12.0688 1.75006 12.0718 1.75006C12.0744 1.75006 12.0766 1.75006 12.0791 1.75006C12.0815 1.75006 12.0844 1.75006 12.0868 1.75006C12.0897 1.75006 12.0923 1.75006 12.0952 1.75006C12.0977 1.75006 12.0998 1.75006 12.1022 1.75006C12.1054 1.75006 12.1077 1.75006 12.1106 1.75006C12.1132 1.75006 12.1159 1.75006 12.1186 1.75006C12.1208 1.75006 12.1234 1.75006 12.1257 1.75006C12.1288 1.75006 12.1315 1.75006 12.1347 1.75006C12.137 1.75006 12.1399 1.75006 12.1421 1.75006C12.1443 1.75006 12.1468 1.74993 12.149 1.75006C12.1519 1.75006 12.1553 1.75006 12.1583 1.75006C12.1607 1.75006 12.1629 1.75006 12.1654 1.75006C12.1675 1.75006 12.1702 1.75362 12.1722 1.75356C12.1752 1.75369 12.1782 1.757 12.1813 1.75712C12.1836 1.75706 12.1864 1.75706 12.1886 1.75725C12.1906 1.75725 12.1934 1.75719 12.1954 1.75738C12.1984 1.75731 12.2017 1.7575 12.2048 1.7575C12.2072 1.75763 12.2093 1.75757 12.2118 1.7577C12.2138 1.7577 12.2166 1.75776 12.2187 1.75782C12.2215 1.75789 12.2254 1.75808 12.2284 1.75801C12.2308 1.75814 12.2329 1.75814 12.2352 1.75821C12.2375 1.75821 12.2397 1.75833 12.2419 1.75833C12.2448 1.75852 12.2485 1.75846 12.2514 1.75859C12.2537 1.75852 12.2559 1.75871 12.2583 1.75871C12.2606 1.75891 12.2628 1.75891 12.2651 1.75891C12.2681 1.75903 12.2713 1.75903 12.2744 1.75916C12.2767 1.75929 12.2788 1.75929 12.2813 1.75935C12.2835 1.75948 12.286 1.75948 12.2881 1.75948C12.2911 1.75967 12.2934 1.75954 12.2964 1.75967C12.2989 1.7598 12.3014 1.75967 12.304 1.75967C12.3064 1.7598 12.3084 1.75941 12.311 1.75954C12.3135 1.75961 12.3159 1.75859 12.3184 1.7591C12.3212 1.75922 12.324 1.75763 12.3268 1.75795C12.3293 1.75801 12.3312 1.75534 12.3338 1.75528C12.3386 1.75547 12.3435 1.75012 12.3484 1.75012H12.3491C12.3514 1.75012 12.3538 1.75012 12.3561 1.75012H12.3565C13.232 1.81378 14.095 1.93862 14.9267 2.20236C14.9384 2.20606 14.9498 2.21943 14.9611 2.22382C18.8303 3.47067 21.6372 7.11282 21.6372 11.3912C21.6372 11.9819 21.5851 12.5724 21.4823 13.1453H22.2586C22.6013 13.1453 22.854 12.8384 22.854 12.4958V9.883C22.854 9.61658 22.6856 9.37321 22.4305 9.29109C22.1293 9.19413 21.9735 8.87131 22.0705 8.57013C22.1674 8.26895 22.4837 8.1035 22.7849 8.20026C23.5195 8.43676 24 9.11296 24 9.88294ZM13.6534 20.4102C13.6534 20.3627 13.6487 20.3271 13.6397 20.2823C13.6384 20.2768 13.6373 20.2663 13.6362 20.2608C13.5655 19.9471 13.2847 19.7024 12.9502 19.7024H11.0818C10.694 19.7024 10.3785 20.0148 10.3785 20.4025C10.3785 20.7906 10.694 21.1029 11.0818 21.1029H12.9502C13.3379 21.1028 13.6534 20.798 13.6534 20.4102ZM13.224 10.1914C13.4979 10.35 13.8484 10.2563 14.0068 9.98244C14.2176 9.61805 14.6095 9.3918 15.0296 9.3918C15.4497 9.3918 15.8417 9.61811 16.0524 9.98244C16.1586 10.166 16.351 10.2686 16.5489 10.2686C16.6462 10.2685 16.7449 10.2437 16.8352 10.1914C17.1091 10.033 17.2027 9.68253 17.0443 9.4086C16.6294 8.6914 15.8574 8.24584 15.0296 8.24584C14.2018 8.24584 13.4298 8.6914 13.0149 9.4086C12.8565 9.68253 12.9501 10.033 13.224 10.1914Z" fill="white"/>
</svg>