<svg width="40" height="40" viewBox="0 0 40 40" fill="none" xmlns="http://www.w3.org/2000/svg">
<rect width="40" height="40" rx="20" fill="#04D9FF"/>
<path fill-rule="evenodd" clip-rule="evenodd" d="M11.5625 17.8281C11.5625 15.8034 13.2097 14.1562 15.2344 14.1562C17.2591 14.1562 18.9062 15.8034 18.9062 17.8281C18.9062 19.8528 17.2591 21.5 15.2344 21.5C13.2097 21.5 11.5625 19.8528 11.5625 17.8281ZM14.7354 18.9542C14.0721 18.9542 13.524 19.4561 13.4505 20.1001C13.9422 20.487 14.5616 20.7187 15.2344 20.7187C15.9072 20.7187 16.5266 20.487 17.0183 20.1001C16.9447 19.4561 16.3967 18.9542 15.7334 18.9542H14.7354ZM15.2344 18.1729C15.5911 18.1729 15.8814 17.8826 15.8814 17.5259V17.1537C15.8814 16.7969 15.5911 16.5067 15.2344 16.5067C14.8776 16.5067 14.5874 16.7969 14.5874 17.1537V17.5259C14.5874 17.8826 14.8776 18.1729 15.2344 18.1729ZM16.4364 18.2958C16.9768 18.491 17.4134 18.9044 17.6396 19.4292C17.946 18.9705 18.125 18.4199 18.125 17.8281C18.125 16.2342 16.8283 14.9375 15.2344 14.9375C13.6405 14.9375 12.3438 16.2342 12.3438 17.8281C12.3438 18.4199 12.5228 18.9705 12.8291 19.4292C13.0554 18.9044 13.492 18.491 14.0323 18.2958C13.8894 18.0734 13.8061 17.8093 13.8061 17.5259V17.1537C13.8061 16.3662 14.4468 15.7254 15.2344 15.7254C16.0219 15.7254 16.6626 16.3662 16.6626 17.1537V17.5259C16.6626 17.8093 16.5793 18.0734 16.4364 18.2958Z" fill="#09090B"/>
<path fill-rule="evenodd" clip-rule="evenodd" d="M26.4627 14.8184C26.6785 14.8184 26.8534 14.9933 26.8534 15.209V16.7715C26.8534 16.9873 26.6785 17.1622 26.4627 17.1622H20.1334C19.9177 17.1622 19.7428 16.9873 19.7428 16.7715V15.209C19.7428 14.9933 19.9177 14.8184 20.1334 14.8184H26.4627ZM20.524 16.3809H26.0721V15.5997H20.524V16.3809Z" fill="#09090B"/>
<path d="M26.4627 18.2187C26.6785 18.2187 26.8534 18.3937 26.8534 18.6094C26.8534 18.8251 26.6785 19 26.4627 19H20.1334C19.9177 19 19.7428 18.8251 19.7428 18.6094C19.7428 18.3937 19.9177 18.2187 20.1334 18.2187H26.4627Z" fill="#09090B"/>
<path d="M20.1334 20.0566C19.9177 20.0566 19.7428 20.2315 19.7428 20.4472C19.7428 20.6629 19.9177 20.8378 20.1334 20.8378H21.45C21.6657 20.8378 21.8406 20.6629 21.8406 20.4472C21.8406 20.2315 21.6657 20.0566 21.45 20.0566H20.1334Z" fill="#09090B"/>
<path d="M26.2279 23.229C26.2279 22.9545 25.964 22.7312 25.6396 22.7312C25.3153 22.7312 25.0514 22.9545 25.0514 23.229C25.0514 23.5034 25.3153 23.7267 25.6396 23.7267C26.3948 23.7267 27.0092 24.3005 27.0092 25.0057C27.0092 25.5845 26.5953 26.0745 26.0295 26.2317C26.0217 26.4405 25.8504 26.6075 25.6396 26.6075C25.4289 26.6075 25.2576 26.4405 25.2498 26.2317C24.684 26.0745 24.2701 25.5845 24.2701 25.0057C24.2701 24.79 24.445 24.6151 24.6607 24.6151C24.8765 24.6151 25.0514 24.79 25.0514 25.0057C25.0514 25.2802 25.3153 25.5035 25.6396 25.5035C25.964 25.5035 26.2279 25.2802 26.2279 25.0057C26.2279 24.7313 25.964 24.508 25.6396 24.508C24.8845 24.508 24.2701 23.9342 24.2701 23.229C24.2701 22.6505 24.6836 22.1607 25.249 22.0032V21.971C25.249 21.7553 25.4239 21.5804 25.6396 21.5804C25.8554 21.5804 26.0303 21.7553 26.0303 21.971V22.0032C26.5957 22.1607 27.0092 22.6505 27.0092 23.229C27.0092 23.4447 26.8343 23.6196 26.6186 23.6196C26.4028 23.6196 26.2279 23.4447 26.2279 23.229Z" fill="#09090B"/>
<path fill-rule="evenodd" clip-rule="evenodd" d="M26.4844 11.5C27.5613 11.5 28.4375 12.3762 28.4375 13.4531V20.7993C29.392 21.5998 30 22.8006 30 24.1409C30 26.5452 28.0439 28.5012 25.6396 28.5012C23.2405 28.5012 21.2879 26.5535 21.2795 24.1562H11.9531C10.8762 24.1562 10 23.2801 10 22.2031V13.4531C10 12.3762 10.8762 11.5 11.9531 11.5H26.4844ZM27.6562 13.4531C27.6562 12.807 27.1305 12.2812 26.4844 12.2812H11.9531C11.307 12.2812 10.7812 12.807 10.7812 13.4531V22.2031C10.7812 22.8493 11.307 23.375 11.9531 23.375H21.3467C21.7097 21.3346 23.4966 19.7805 25.6396 19.7805C26.3668 19.7805 27.0528 19.9597 27.6562 20.2758V13.4531ZM22.0606 24.1409C22.0606 26.1143 23.6662 27.7199 25.6396 27.7199C27.6132 27.7199 29.2188 26.1144 29.2188 24.1409C29.2188 22.1673 27.6132 20.5618 25.6396 20.5618C23.6662 20.5618 22.0606 22.1673 22.0606 24.1409Z" fill="#09090B"/>
</svg>
