<svg xmlns="http://www.w3.org/2000/svg" width="24" height="24" viewBox="0 0 24 24" fill="none">
  <g clip-path="url(#clip0_84_3870)">
    <path d="M18.5224 18.4282C18.6924 18.3942 18.8453 18.3022 18.9552 18.1681C19.0651 18.034 19.1251 17.8659 19.125 17.6925V16.5H20.625C20.8239 16.5 21.0147 16.421 21.1553 16.2803C21.296 16.1397 21.375 15.9489 21.375 15.75V15C21.375 14.8011 21.296 14.6103 21.1553 14.4697C21.0147 14.329 20.8239 14.25 20.625 14.25V0.75C20.625 0.551088 20.546 0.360322 20.4053 0.21967C20.2647 0.0790176 20.0739 0 19.875 0L17.625 0C17.4261 0 17.2353 0.0790176 17.0947 0.21967C16.954 0.360322 16.875 0.551088 16.875 0.75V14.25H16.125V3.75C16.125 3.55109 16.046 3.36032 15.9053 3.21967C15.7647 3.07902 15.5739 3 15.375 3H13.125C12.9261 3 12.7353 3.07902 12.5947 3.21967C12.454 3.36032 12.375 3.55109 12.375 3.75V14.25H11.625V6.75C11.625 6.55109 11.546 6.36032 11.4053 6.21967C11.2647 6.07902 11.0739 6 10.875 6H8.625C8.42609 6 8.23532 6.07902 8.09467 6.21967C7.95402 6.36032 7.875 6.55109 7.875 6.75V14.25H7.125V9.75C7.125 9.55109 7.04598 9.36032 6.90533 9.21967C6.76468 9.07902 6.57391 9 6.375 9H4.125C3.92609 9 3.73532 9.07902 3.59467 9.21967C3.45402 9.36032 3.375 9.55109 3.375 9.75V14.25C3.17609 14.25 2.98532 14.329 2.84467 14.4697C2.70402 14.6103 2.625 14.8011 2.625 15V15.75C2.625 15.9489 2.70402 16.1397 2.84467 16.2803C2.98532 16.421 3.17609 16.5 3.375 16.5H4.875V17.6925C4.87488 17.8655 4.93454 18.0332 5.04389 18.1672C5.15323 18.3012 5.30553 18.3933 5.475 18.4279L6.66937 18.6652C6.7499 18.9094 6.84764 19.1475 6.96187 19.3778L6.29288 20.385C6.19543 20.5295 6.15121 20.7034 6.16776 20.8769C6.18431 21.0505 6.26061 21.2129 6.38363 21.3364L7.53863 22.4914C7.66165 22.6145 7.82366 22.691 7.99689 22.7077C8.17011 22.7245 8.34378 22.6805 8.48812 22.5833L9.49575 21.9116C9.72603 22.0259 9.96413 22.1236 10.2083 22.2041L10.4453 23.3974C10.4794 23.5676 10.5715 23.7208 10.706 23.8307C10.8404 23.9406 11.0088 24.0004 11.1825 24H12.8175C12.9905 24.0001 13.1582 23.9405 13.2922 23.8311C13.4262 23.7218 13.5183 23.5695 13.5529 23.4L13.7902 22.2056C14.0344 22.1251 14.2725 22.0274 14.5028 21.9131L15.5085 22.5836C15.653 22.6811 15.8269 22.7254 16.0005 22.7089C16.174 22.6923 16.3364 22.616 16.4599 22.4929L17.6149 21.3379C17.738 21.2148 17.8145 21.0528 17.8312 20.8796C17.848 20.7064 17.804 20.5327 17.7067 20.3884L17.0351 19.3807C17.1494 19.1505 17.2471 18.9124 17.3276 18.6683L18.5224 18.4282ZM17.625 0.75H19.875V1.5H17.625V0.75ZM17.625 2.25H19.875V14.25H17.625V2.25ZM13.125 3.75H15.375V4.5H13.125V3.75ZM13.125 5.25H15.375V14.25H13.125V5.25ZM8.625 6.75H10.875V7.5H8.625V6.75ZM8.625 8.25H10.875V14.25H8.625V8.25ZM4.125 9.75H6.375V10.5H4.125V9.75ZM4.125 11.25H6.375V14.25H4.125V11.25ZM5.25 15.75H3.375V15H20.625V15.75H5.25ZM12 19.5C12.6959 19.4992 13.3632 19.2224 13.8553 18.7303C14.3474 18.2382 14.6242 17.5709 14.625 16.875V16.5H15.375V16.875C15.375 17.7701 15.0194 18.6285 14.3865 19.2615C13.7535 19.8944 12.8951 20.25 12 20.25C11.1049 20.25 10.2464 19.8944 9.61351 19.2615C8.98058 18.6285 8.625 17.7701 8.625 16.875V16.5H9.375V16.875C9.37579 17.5709 9.65261 18.2382 10.1447 18.7303C10.6368 19.2224 11.3041 19.4992 12 19.5ZM10.125 16.875V16.5H13.875V16.875C13.875 17.3723 13.6775 17.8492 13.3258 18.2008C12.9742 18.5525 12.4973 18.75 12 18.75C11.5027 18.75 11.0258 18.5525 10.6742 18.2008C10.3225 17.8492 10.125 17.3723 10.125 16.875ZM16.2892 19.6125L17.0861 20.808L15.9281 21.9611L14.7356 21.1661C14.6785 21.1281 14.6121 21.1064 14.5435 21.1035C14.4749 21.1006 14.4069 21.1165 14.3468 21.1496C14.0355 21.3205 13.7059 21.4557 13.3643 21.5524C13.2977 21.5712 13.2377 21.608 13.1908 21.6587C13.1439 21.7095 13.1119 21.7722 13.0984 21.84L12.8175 23.25L11.1829 23.2519L10.9016 21.8381C10.8881 21.7703 10.8561 21.7076 10.8092 21.6568C10.7623 21.6061 10.7023 21.5693 10.6357 21.5505C10.2941 21.4538 9.96449 21.3187 9.65325 21.1478C9.59313 21.1147 9.52507 21.0987 9.4565 21.1016C9.38793 21.1045 9.32148 21.1262 9.26437 21.1642L8.06888 21.9611L6.91575 20.8031L7.71075 19.6106C7.74882 19.5535 7.77049 19.4871 7.7734 19.4185C7.77631 19.3499 7.76035 19.2819 7.72725 19.2218C7.55634 18.9105 7.42123 18.5809 7.3245 18.2393C7.30572 18.1727 7.26892 18.1127 7.21816 18.0658C7.1674 18.0189 7.10466 17.9869 7.03687 17.9734L5.625 17.6925V16.5H7.875V16.875C7.875 17.969 8.3096 19.0182 9.08318 19.7918C9.85677 20.5654 10.906 21 12 21C13.094 21 14.1432 20.5654 14.9168 19.7918C15.6904 19.0182 16.125 17.969 16.125 16.875V16.5H18.375V17.6921L16.9613 17.9734C16.8935 17.9869 16.8307 18.0189 16.78 18.0658C16.7292 18.1127 16.6924 18.1727 16.6736 18.2393C16.5769 18.5809 16.4418 18.9105 16.2709 19.2218C16.2377 19.2823 16.2218 19.3508 16.2251 19.4197C16.2283 19.4887 16.2505 19.5554 16.2892 19.6125Z" fill="white"/>
  </g>
  <defs>
    <clipPath id="clip0_84_3870">
      <rect width="24" height="24" fill="white"/>
    </clipPath>
  </defs>
</svg>