<svg width="20" height="21" viewBox="0 0 20 21" fill="none" xmlns="http://www.w3.org/2000/svg">
<g clip-path="url(#clip0_290_26244)">
<path d="M3 7.83333C3.16561 7.83354 3.32867 7.79256 3.4745 7.71409C3.62034 7.63562 3.74437 7.52211 3.83544 7.38379C3.92651 7.24547 3.98175 7.08667 3.99619 6.9217C4.01064 6.75672 3.98384 6.59074 3.91819 6.4387L6.87083 3.71462C7.06394 3.81953 7.28674 3.8564 7.50336 3.81929C7.71997 3.78218 7.91779 3.67324 8.06496 3.51003L11.0064 4.76978C11.005 4.7912 11 4.81156 11 4.83333C11 5.09855 11.1054 5.3529 11.2929 5.54044C11.4804 5.72798 11.7348 5.83333 12 5.83333C12.2652 5.83333 12.5196 5.72798 12.7071 5.54044C12.8946 5.3529 13 5.09855 13 4.83333C12.9986 4.72823 12.9805 4.62401 12.9462 4.52464L15.7919 2.33842C15.9786 2.45841 16.1999 2.51279 16.4209 2.49299C16.6419 2.47319 16.8501 2.38033 17.0124 2.22907C17.1748 2.07781 17.2821 1.87677 17.3175 1.65771C17.3529 1.43864 17.3143 1.21403 17.2078 1.01935C17.1013 0.824665 16.933 0.670999 16.7295 0.58262C16.5259 0.49424 16.2988 0.476183 16.0838 0.531299C15.8689 0.586416 15.6784 0.711566 15.5425 0.886985C15.4066 1.0624 15.333 1.2781 15.3333 1.5C15.3347 1.6051 15.3528 1.7093 15.3871 1.80867L12.5414 3.9949C12.3447 3.86606 12.1084 3.81157 11.8751 3.84121C11.6418 3.87085 11.4267 3.98268 11.2684 4.15663L8.32692 2.89688C8.32829 2.87547 8.33333 2.8551 8.33333 2.83333C8.33357 2.68479 8.3007 2.53805 8.23713 2.4038C8.17355 2.26954 8.08086 2.15113 7.9658 2.05718C7.85074 1.96323 7.71619 1.89609 7.57193 1.86065C7.42767 1.82521 7.27733 1.82235 7.13183 1.85228C6.98633 1.88222 6.84933 1.94419 6.73077 2.0337C6.61222 2.12321 6.5151 2.238 6.44647 2.36975C6.37784 2.50149 6.33941 2.64687 6.334 2.79531C6.32858 2.94376 6.35631 3.09155 6.41516 3.22795L3.46252 5.95205C3.32039 5.87522 3.16157 5.83446 3 5.83333C2.73478 5.83333 2.48043 5.93869 2.29289 6.12623C2.10536 6.31376 2 6.56812 2 6.83333C2 7.09855 2.10536 7.3529 2.29289 7.54044C2.48043 7.72798 2.73478 7.83333 3 7.83333ZM16.3333 1.16667C16.3993 1.16667 16.4637 1.18622 16.5185 1.22284C16.5733 1.25947 16.6161 1.31153 16.6413 1.37244C16.6665 1.43335 16.6731 1.50037 16.6603 1.56503C16.6474 1.62969 16.6157 1.68908 16.569 1.7357C16.5224 1.78232 16.463 1.81407 16.3984 1.82693C16.3337 1.83979 16.2667 1.83319 16.2058 1.80796C16.1449 1.78273 16.0928 1.74001 16.0562 1.68519C16.0196 1.63037 16 1.56593 16 1.5C16.0001 1.41163 16.0353 1.32691 16.0978 1.26442C16.1602 1.20194 16.245 1.16678 16.3333 1.16667ZM12 4.5C12.0659 4.5 12.1304 4.51955 12.1852 4.55618C12.24 4.5928 12.2827 4.64486 12.308 4.70577C12.3332 4.76668 12.3398 4.8337 12.3269 4.89836C12.3141 4.96302 12.2823 5.02242 12.2357 5.06904C12.1891 5.11565 12.1297 5.1474 12.065 5.16026C12.0004 5.17312 11.9333 5.16652 11.8724 5.14129C11.8115 5.11606 11.7595 5.07334 11.7228 5.01852C11.6862 4.96371 11.6667 4.89926 11.6667 4.83333C11.6668 4.74496 11.7019 4.66024 11.7644 4.59776C11.8269 4.53527 11.9116 4.50011 12 4.5ZM7.33333 2.5C7.39926 2.5 7.46371 2.51955 7.51852 2.55618C7.57334 2.5928 7.61606 2.64486 7.64129 2.70577C7.66652 2.76668 7.67312 2.8337 7.66026 2.89836C7.6474 2.96302 7.61565 3.02242 7.56904 3.06904C7.52242 3.11565 7.46302 3.1474 7.39836 3.16026C7.3337 3.17312 7.26668 3.16652 7.20577 3.14129C7.14486 3.11606 7.0928 3.07334 7.05618 3.01852C7.01955 2.96371 7 2.89926 7 2.83333C7.00011 2.74496 7.03527 2.66024 7.09776 2.59776C7.16025 2.53527 7.24496 2.50011 7.33333 2.5ZM3 6.5C3.06593 6.5 3.13037 6.51955 3.18519 6.55618C3.24001 6.5928 3.28273 6.64486 3.30796 6.70577C3.33319 6.76668 3.33979 6.8337 3.32693 6.89836C3.31407 6.96302 3.28232 7.02242 3.2357 7.06904C3.18908 7.11565 3.12969 7.1474 3.06503 7.16026C3.00037 7.17312 2.93335 7.16652 2.87244 7.14129C2.81153 7.11606 2.75947 7.07334 2.72284 7.01852C2.68622 6.96371 2.66667 6.89926 2.66667 6.83333C2.66678 6.74496 2.70194 6.66025 2.76442 6.59776C2.82691 6.53527 2.91163 6.50011 3 6.5ZM8.33333 5.83333H7.33333C7.06821 5.83362 6.81402 5.93907 6.62655 6.12655C6.43907 6.31402 6.33362 6.56821 6.33333 6.83333V16.5H5V10.1667C4.99971 9.90154 4.89426 9.64735 4.70679 9.45988C4.51931 9.27241 4.26513 9.16696 4 9.16667H3C2.73487 9.16696 2.48069 9.27241 2.29321 9.45988C2.10574 9.64735 2.00029 9.90154 2 10.1667V16.5H1C0.911622 16.4999 0.826888 16.4648 0.764395 16.4023C0.701902 16.3398 0.666755 16.255 0.666667 16.1667V0.833333C0.666667 0.744928 0.631548 0.660143 0.569036 0.597631C0.506523 0.535119 0.421739 0.5 0.333333 0.5C0.244928 0.5 0.160143 0.535119 0.0976311 0.597631C0.0351189 0.660143 0 0.744928 0 0.833333V16.1667C0.000289399 16.4318 0.105739 16.686 0.293213 16.8735C0.480687 17.0609 0.734872 17.1664 1 17.1667H7C7.08841 17.1667 7.17319 17.1315 7.2357 17.069C7.29821 17.0065 7.33333 16.9217 7.33333 16.8333C7.33333 16.7449 7.29821 16.6601 7.2357 16.5976C7.17319 16.5351 7.08841 16.5 7 16.5V6.83333C7.00011 6.74496 7.03527 6.66025 7.09776 6.59776C7.16025 6.53527 7.24496 6.50011 7.33333 6.5H8.33333C8.4217 6.50011 8.50642 6.53527 8.56891 6.59776C8.6314 6.66025 8.66655 6.74496 8.66667 6.83333V14.0898C8.66667 14.1782 8.70179 14.263 8.7643 14.3255C8.82681 14.3881 8.91159 14.4232 9 14.4232C9.08841 14.4232 9.17319 14.3881 9.2357 14.3255C9.29821 14.263 9.33333 14.1782 9.33333 14.0898V6.83333C9.33304 6.56821 9.22759 6.31402 9.04012 6.12655C8.85265 5.93907 8.59846 5.83362 8.33333 5.83333ZM4.33333 16.5H2.66667V10.1667C2.66678 10.0783 2.70194 9.99358 2.76442 9.93109C2.82691 9.8686 2.91163 9.83345 3 9.83333H4C4.08837 9.83345 4.17309 9.8686 4.23558 9.93109C4.29806 9.99358 4.33322 10.0783 4.33333 10.1667V16.5ZM13 12.1992V8.16667C12.9999 8.0783 12.9647 7.99358 12.9022 7.93109C12.8398 7.8686 12.755 7.83345 12.6667 7.83333H11.6667C11.5783 7.83345 11.4936 7.8686 11.4311 7.93109C11.3686 7.99358 11.3334 8.0783 11.3333 8.16667V12.8141C11.3333 12.9025 11.2982 12.9873 11.2357 13.0498C11.1732 13.1123 11.0884 13.1475 11 13.1475C10.9116 13.1475 10.8268 13.1123 10.7643 13.0498C10.7018 12.9873 10.6667 12.9025 10.6667 12.8141V8.16667C10.667 7.90154 10.7724 7.64735 10.9599 7.45988C11.1474 7.27241 11.4015 7.16696 11.6667 7.16667H12.6667C12.9318 7.16696 13.186 7.27241 13.3735 7.45988C13.5609 7.64735 13.6664 7.90154 13.6667 8.16667V12.1992C13.6667 12.2876 13.6315 12.3724 13.569 12.4349C13.5065 12.4974 13.4217 12.5326 13.3333 12.5326C13.2449 12.5326 13.1601 12.4974 13.0976 12.4349C13.0351 12.3724 13 12.2876 13 12.1992ZM17 4.5C17.2651 4.50029 17.5193 4.60574 17.7068 4.79321C17.8943 4.98069 17.9997 5.23487 18 5.5V13.153C18 13.2414 17.9649 13.3262 17.9024 13.3887C17.8399 13.4512 17.7551 13.4863 17.6667 13.4863C17.5783 13.4863 17.4935 13.4512 17.431 13.3887C17.3685 13.3262 17.3333 13.2414 17.3333 13.153V5.5C17.3332 5.41163 17.2981 5.32691 17.2356 5.26442C17.1731 5.20194 17.0884 5.16678 17 5.16667H16C15.9116 5.16678 15.8269 5.20194 15.7644 5.26442C15.7019 5.32691 15.6668 5.41163 15.6667 5.5V12.291C15.6667 12.3794 15.6315 12.4642 15.569 12.5267C15.5065 12.5892 15.4217 12.6244 15.3333 12.6244C15.2449 12.6244 15.1601 12.5892 15.0976 12.5267C15.0351 12.4642 15 12.3794 15 12.291V5.5C15.0003 5.23487 15.1057 4.98069 15.2932 4.79321C15.4807 4.60574 15.7349 4.50029 16 4.5H17ZM19.9525 16.6618C19.8669 16.5192 17.8115 13.1667 14 13.1667C10.1885 13.1667 8.13314 16.5192 8.04753 16.6618C8.01645 16.7136 8.00004 16.7729 8.00004 16.8333C8.00004 16.8938 8.01645 16.9531 8.04753 17.0049C8.13314 17.1475 10.1885 20.5 14 20.5C17.8115 20.5 19.8669 17.1475 19.9525 17.0049C19.9835 16.9531 20 16.8938 20 16.8333C20 16.7729 19.9835 16.7136 19.9525 16.6618ZM14 19.8333C11.0413 19.8333 9.19564 17.4941 8.7334 16.8333C9.19564 16.1725 11.0413 13.8333 14 13.8333C16.9587 13.8333 18.8044 16.1725 19.2666 16.8333C18.8044 17.4941 16.9587 19.8333 14 19.8333ZM14 14.8333C13.6044 14.8333 13.2178 14.9506 12.8889 15.1704C12.56 15.3902 12.3036 15.7025 12.1522 16.068C12.0009 16.4334 11.9613 16.8356 12.0384 17.2235C12.1156 17.6115 12.3061 17.9678 12.5858 18.2475C12.8655 18.5273 13.2219 18.7177 13.6098 18.7949C13.9978 18.8721 14.3999 18.8325 14.7654 18.6811C15.1308 18.5297 15.4432 18.2734 15.6629 17.9445C15.8827 17.6156 16 17.2289 16 16.8333C15.9994 16.3031 15.7885 15.7947 15.4136 15.4198C15.0386 15.0448 14.5303 14.8339 14 14.8333ZM14 18.1667C13.7363 18.1667 13.4785 18.0885 13.2592 17.942C13.04 17.7955 12.8691 17.5872 12.7682 17.3436C12.6672 17.0999 12.6408 16.8319 12.6923 16.5732C12.7437 16.3146 12.8707 16.077 13.0572 15.8905C13.2437 15.7041 13.4812 15.5771 13.7399 15.5256C13.9985 15.4742 14.2666 15.5006 14.5102 15.6015C14.7539 15.7024 14.9621 15.8733 15.1086 16.0926C15.2551 16.3118 15.3333 16.5696 15.3333 16.8333C15.333 17.1868 15.1924 17.5258 14.9424 17.7757C14.6924 18.0257 14.3535 18.1663 14 18.1667Z" fill="#04D9FF"/>
</g>
<defs>
<clipPath id="clip0_290_26244">
<rect width="20" height="20" fill="white" transform="translate(0 0.5)"/>
</clipPath>
</defs>
</svg>
