<svg width="38" height="33" viewBox="0 0 38 33" fill="none" xmlns="http://www.w3.org/2000/svg">
<path d="M0.5 10.3496C0.5 5.1029 4.7533 0.849609 10 0.849609H28C33.2467 0.849609 37.5 5.1029 37.5 10.3496V22.3496C37.5 27.5963 33.2467 31.8496 28 31.8496H10C4.75329 31.8496 0.5 27.5963 0.5 22.3496V10.3496Z" fill="#CDFFDD"/>
<path d="M0.5 10.3496C0.5 5.1029 4.7533 0.849609 10 0.849609H28C33.2467 0.849609 37.5 5.1029 37.5 10.3496V22.3496C37.5 27.5963 33.2467 31.8496 28 31.8496H10C4.75329 31.8496 0.5 27.5963 0.5 22.3496V10.3496Z" stroke="#009017"/>
<g clip-path="url(#clip0_2282_84337)">
<path d="M26.0321 17.1928C25.4696 20.0053 23.3489 22.6536 20.3733 23.2453C18.922 23.5343 17.4166 23.3581 16.0713 22.7417C14.726 22.1254 13.6095 21.1003 12.8807 19.8125C12.1519 18.5246 11.848 17.0397 12.0122 15.5691C12.1764 14.0984 12.8005 12.7171 13.7954 11.6218C15.8362 9.37405 19.2821 8.7553 22.0946 9.8803" stroke="#009017" stroke-width="1.5" stroke-linecap="round" stroke-linejoin="round"/>
<path d="M16.4688 16.0684L19.2812 18.8809L26.0312 11.5684" stroke="#009017" stroke-width="1.5" stroke-linecap="round" stroke-linejoin="round"/>
</g>
<defs>
<clipPath id="clip0_2282_84337">
<rect width="18" height="18" fill="white" transform="translate(10 7.34961)"/>
</clipPath>
</defs>
</svg>
