<svg xmlns="http://www.w3.org/2000/svg" width="24" height="24" viewBox="0 0 24 24" fill="none">
  <path d="M23.752 7.49452L22.785 7.11979C22.6443 6.60004 22.4391 6.10157 22.173 5.63321L22.5938 4.67925C22.6588 4.53193 22.627 4.35948 22.5137 4.24548L21.1812 2.90388C21.0679 2.78989 20.8968 2.75778 20.7504 2.82331L19.8025 3.24714C19.3374 2.97925 18.8424 2.77269 18.3265 2.63102L17.9542 1.65723C17.8967 1.50675 17.7531 1.40751 17.5929 1.40751H15.7085C15.5483 1.40751 15.4048 1.5068 15.3472 1.65723L14.9749 2.63107C14.4589 2.77269 13.964 2.9793 13.4988 3.24719L12.551 2.82335C12.4046 2.75783 12.2334 2.78994 12.1201 2.90393L10.7876 4.24558C10.6744 4.35958 10.6426 4.53198 10.7076 4.67935L11.1285 5.63351C10.8624 6.10182 10.6573 6.60009 10.5165 7.11974L9.54943 7.49457C9.40002 7.55249 9.3014 7.69703 9.3014 7.85828V9.75554C9.3014 9.91679 9.40002 10.0613 9.54943 10.1193L10.5164 10.494C10.6571 11.0137 10.8624 11.5123 11.1285 11.9806L10.7076 12.9345C10.6426 13.0818 10.6744 13.2543 10.7876 13.3682L12.1201 14.7098C12.2334 14.8238 12.4046 14.8559 12.551 14.7905L13.4989 14.3666C13.9641 14.6345 14.459 14.8411 14.9749 14.9828L15.3472 15.9565C15.4047 16.107 15.5483 16.2063 15.7085 16.2063H17.5929C17.7531 16.2063 17.8966 16.107 17.9542 15.9565L18.3264 14.983C18.8426 14.8413 19.3377 14.6347 19.8029 14.3667L20.7504 14.7904C20.8968 14.8559 21.068 14.8238 21.1813 14.7098L22.5137 13.3682C22.627 13.2543 22.6588 13.0818 22.5938 12.9345L22.1728 11.9801C22.4389 11.5118 22.644 11.0135 22.7847 10.4941L23.752 10.1193C23.9014 10.0614 24 9.91679 24 9.75554V7.85828C24 7.69698 23.9014 7.55239 23.752 7.49452ZM23.2258 9.48789L22.32 9.8389C22.2009 9.88503 22.1121 9.98733 22.0826 10.1124C21.9458 10.691 21.7189 11.242 21.4082 11.75C21.3413 11.8595 21.3323 11.995 21.384 12.1125L21.7783 13.0062L20.8216 13.9694L19.9343 13.5726C19.8177 13.5204 19.683 13.5295 19.5742 13.597C19.0697 13.9098 18.5223 14.1383 17.9472 14.276C17.823 14.3058 17.7214 14.3952 17.6756 14.5152L17.327 15.4268H15.9742L15.6255 14.5149C15.5797 14.3949 15.4781 14.3055 15.3539 14.2757C14.7793 14.1381 14.232 13.9096 13.7274 13.5968C13.6186 13.5294 13.4839 13.5204 13.3673 13.5725L12.4796 13.9694L11.5229 13.0062L11.9171 12.1129C11.9688 11.9954 11.9598 11.8597 11.8929 11.7503C11.5822 11.2425 11.3553 10.6913 11.2184 10.1122C11.1889 9.98719 11.1 9.88488 10.9809 9.83875L10.0755 9.48789V8.12579L10.9811 7.77478C11.1002 7.7286 11.1891 7.6263 11.2186 7.50129C11.3554 6.92244 11.5823 6.37146 11.893 5.86359C11.96 5.75413 11.969 5.6185 11.9172 5.501L11.523 4.60739L12.4797 3.64422L13.3674 4.04117C13.484 4.09324 13.6187 4.08423 13.7274 4.01681C14.232 3.70405 14.7792 3.47562 15.354 3.3379C15.4781 3.30813 15.5798 3.21869 15.6256 3.09875L15.9743 2.18688H17.3271L17.6758 3.09875C17.7216 3.21869 17.8232 3.30813 17.9474 3.3379C18.5222 3.47562 19.0694 3.70405 19.5739 4.01681C19.6827 4.08423 19.8174 4.09324 19.934 4.04117L20.8217 3.64422L21.7784 4.60739L21.3842 5.50075C21.3325 5.61821 21.3415 5.75388 21.4084 5.8633C21.7191 6.37122 21.946 6.92235 22.0829 7.50134C22.1124 7.62635 22.2012 7.7287 22.3203 7.77483L23.2258 8.12579V9.48789ZM16.6506 4.79461C14.4532 4.79461 12.6655 6.59449 12.6655 8.80684C12.6655 11.0192 14.4532 12.8191 16.6506 12.8191C18.848 12.8191 20.6357 11.0192 20.6357 8.80684C20.6357 6.59449 18.848 4.79461 16.6506 4.79461ZM14.5667 11.2633C14.7625 10.2717 15.6267 9.54591 16.6506 9.54591C17.6746 9.54591 18.5388 10.2717 18.7346 11.2632C18.1732 11.7467 17.4455 12.0396 16.6506 12.0396C15.8558 12.0396 15.128 11.7467 14.5667 11.2633ZM16.6507 8.76645C16.1637 8.76645 15.7674 8.36752 15.7674 7.87719C15.7674 7.38686 16.1636 6.98792 16.6507 6.98792C17.1377 6.98792 17.5339 7.38681 17.5339 7.87719C17.5339 8.36756 17.1377 8.76645 16.6507 8.76645ZM19.3351 10.5775C19.0544 9.88459 18.5192 9.33156 17.8506 9.0266C18.1338 8.72709 18.3082 8.32236 18.3082 7.87719C18.3082 6.95703 17.5647 6.20846 16.6507 6.20846C15.7368 6.20846 14.9932 6.95703 14.9932 7.87719C14.9932 8.32236 15.1676 8.72704 15.4508 9.02655C14.7821 9.33156 14.247 9.88459 13.9662 10.5775C13.6338 10.0685 13.4398 9.46022 13.4398 8.80684C13.4398 7.02431 14.8802 5.57407 16.6507 5.57407C18.4212 5.57407 19.8615 7.02431 19.8615 8.80684C19.8615 9.46017 19.6674 10.0684 19.3351 10.5775ZM19.3002 17.3993L14.8012 18.6315C14.6032 18.6857 14.4095 18.713 14.2163 18.713C14.2159 18.713 14.2155 18.713 14.2151 18.713C14.3061 18.6186 14.3879 18.5092 14.4589 18.3854C14.8647 17.6778 14.627 16.7607 13.9176 16.2976C13.903 16.2881 13.8877 16.2795 13.872 16.272C12.8098 15.7683 11.8139 15.0695 11.0138 14.508C10.7353 14.3125 10.4722 14.1279 10.2458 13.9801C9.32647 13.3796 8.31077 13.5404 7.43845 13.7768L4.12292 14.6756L3.98666 14.1455C3.92119 13.8909 3.76069 13.6769 3.53468 13.5428C3.30861 13.4089 3.04485 13.3714 2.79203 13.4372L1.5346 13.7648C1.01134 13.9012 0.69571 14.4407 0.831097 14.9676L2.52145 21.5442C2.58687 21.7988 2.74737 22.0128 2.97344 22.1468C3.12668 22.2376 3.29719 22.2842 3.46998 22.2841C3.55205 22.2841 3.6346 22.2736 3.71603 22.2524L4.97352 21.9248C5.22639 21.8589 5.4389 21.6974 5.57202 21.4698C5.70513 21.2422 5.74239 20.9767 5.67697 20.7221L5.51003 20.0726L6.23197 19.8779L10.8478 22.561C11.3495 22.8526 11.8841 23 12.4269 23C12.7263 23 13.0283 22.9551 13.3285 22.865L21.556 20.3919C22.3206 20.1621 22.8021 19.1939 22.566 18.3606C22.4516 17.9566 21.8778 16.6932 19.3002 17.3993ZM4.9049 21.0743C4.8886 21.1022 4.85061 21.1517 4.77958 21.1702L3.5221 21.4978C3.45092 21.5163 3.39397 21.4915 3.36624 21.4751C3.33852 21.4587 3.28935 21.4205 3.27097 21.349L1.58066 14.7723C1.55269 14.6634 1.62039 14.5476 1.72858 14.5194L2.98602 14.1918C3.00387 14.1872 3.0209 14.1852 3.03673 14.1852C3.08395 14.1852 3.12116 14.2022 3.14192 14.2145C3.1696 14.2309 3.21881 14.2692 3.23719 14.3406L4.9275 20.9173C4.94584 20.9889 4.92121 21.0464 4.9049 21.0743ZM12.4661 18.9898L12.929 19.1996C13.6283 19.5143 14.3073 19.5745 15.0044 19.3836L19.5034 18.1514C20.7808 17.8016 21.6473 17.9597 21.8215 18.5745C21.941 18.9963 21.6953 19.5366 21.3345 19.6451L13.107 22.1181C12.4626 22.3117 11.8327 22.2336 11.235 21.886L6.48019 19.1222C6.39131 19.0705 6.28558 19.0565 6.18648 19.0833L5.3161 19.3181L4.3169 15.4303L7.63979 14.5294C8.38282 14.328 9.1619 14.2012 9.82452 14.634C10.0401 14.7748 10.2862 14.9475 10.5711 15.1474C11.3888 15.7212 12.4049 16.4343 13.5162 16.9649C13.8703 17.209 13.9878 17.6481 13.7885 17.9957C13.5264 18.4528 13.1008 18.4042 12.7845 18.2788C12.2441 18.0061 11.7418 17.7031 11.2103 17.3824C10.9578 17.23 10.6967 17.0724 10.4268 16.9155C10.2417 16.8079 10.0049 16.8717 9.89806 17.0582C9.79113 17.2446 9.85461 17.4829 10.0397 17.5905C10.3041 17.7442 10.5625 17.9001 10.8123 18.0509M3.00189 15.3514C2.97595 15.5743 2.77548 15.7338 2.55406 15.7077C2.33269 15.6816 2.17427 15.4797 2.20021 15.2568C2.22615 15.034 2.42661 14.8744 2.64803 14.9005C2.8694 14.9266 3.02782 15.1285 3.00189 15.3514ZM1.1549 7.92493L0.913403 8.4724C0.848419 8.61972 0.88021 8.79218 0.993435 8.90617L1.84761 9.76616C1.96089 9.88016 2.13203 9.91221 2.27845 9.84679L2.82252 9.6035C3.09213 9.75281 3.37631 9.87144 3.67127 9.95776L3.8849 10.5166C3.94239 10.6671 4.086 10.7664 4.24616 10.7664H5.45419C5.61435 10.7664 5.75792 10.6671 5.81545 10.5166L6.02903 9.95796C6.32419 9.87158 6.60852 9.75291 6.87813 9.6036L7.42185 9.84674C7.56808 9.91216 7.73942 9.88021 7.85269 9.76616L8.70687 8.90612C8.8201 8.79213 8.85189 8.61972 8.7869 8.47235L8.54531 7.92464C8.69361 7.65309 8.81144 7.36698 8.89718 7.0701L9.45227 6.85497C9.60174 6.7971 9.70035 6.65251 9.70035 6.49126V5.27505C9.70035 5.1138 9.60174 4.96926 9.45232 4.91134L8.89737 4.69625C8.81163 4.39918 8.69371 4.11297 8.5454 3.84143L8.7869 3.29395C8.85189 3.14664 8.8201 2.97418 8.70687 2.86018L7.85274 2.00024C7.73947 1.88625 7.56832 1.85419 7.4219 1.91962L6.87789 2.16286C6.60832 2.01359 6.3241 1.89492 6.02913 1.80859L5.8155 1.24972C5.75802 1.09928 5.6144 1 5.45424 1H4.24621C4.08605 1 3.94248 1.09928 3.88495 1.24972L3.67127 1.80859C3.37635 1.89497 3.09213 2.01359 2.82252 2.16291L2.2785 1.91962C2.13208 1.85419 1.96084 1.88625 1.84766 2.00024L0.993435 2.86028C0.88021 2.97428 0.848419 3.14668 0.913403 3.29405L1.155 3.84167C1.00669 4.11317 0.888823 4.39933 0.803081 4.69625L0.248032 4.91139C0.0986129 4.96926 0 5.11385 0 5.2751V6.49135C0 6.6526 0.0986129 6.79714 0.248032 6.85507L0.802935 7.0701C0.888774 7.36722 1.00665 7.65348 1.1549 7.92493ZM0.774194 5.54265L1.26571 5.35217C1.38484 5.30599 1.47368 5.20368 1.50324 5.07868C1.58744 4.72227 1.72723 4.38281 1.91865 4.06986C1.98561 3.96039 1.99461 3.82477 1.94284 3.70731L1.72882 3.22224L2.20713 2.74068L2.68902 2.95616C2.80563 3.00828 2.94029 2.99922 3.04906 2.93185C3.36 2.73908 3.69711 2.59838 4.05111 2.51357C4.17523 2.4838 4.27689 2.39436 4.32271 2.27442L4.51195 1.77951H5.18835L5.37755 2.27442C5.42337 2.39436 5.52503 2.4838 5.64915 2.51357C6.00319 2.59838 6.34031 2.73912 6.65119 2.9318C6.75987 2.99922 6.89468 3.00823 7.01124 2.95616L7.49313 2.74068L7.97144 3.22224L7.75752 3.70717C7.70574 3.82462 7.71474 3.96025 7.78171 4.06971C7.97318 4.38276 8.11297 4.72227 8.19716 5.07877C8.22668 5.20378 8.31556 5.30613 8.43469 5.35232L8.92611 5.54275V6.22375L8.4345 6.41424C8.31537 6.46042 8.22653 6.56272 8.19697 6.68778C8.11282 7.04409 7.97303 7.38349 7.78156 7.69659C7.71464 7.80606 7.70565 7.94164 7.75742 8.05909L7.97144 8.54421L7.49313 9.02582L7.01148 8.81044C6.89492 8.75827 6.76016 8.76733 6.65139 8.8348C6.34065 9.02752 6.00344 9.16822 5.64915 9.25308C5.52498 9.28285 5.42332 9.37229 5.3775 9.49223L5.18835 9.98694H4.51195L4.32276 9.49203C4.27694 9.3721 4.17527 9.28265 4.05111 9.25289C3.69716 9.16807 3.36 9.02738 3.04911 8.83466C2.94034 8.76723 2.80563 8.75822 2.68906 8.8103L2.20713 9.02577L1.72882 8.54416L1.94274 8.05924C1.99452 7.94178 1.98552 7.80616 1.91855 7.69669C1.72718 7.38379 1.58739 7.04428 1.50305 6.68758C1.47353 6.56258 1.38469 6.46022 1.26556 6.41409L0.774194 6.22375V5.54265ZM4.85018 8.39402C6.22529 8.39402 7.34405 7.2677 7.34405 5.88323C7.34405 4.49876 6.22529 3.37234 4.85018 3.37234C3.47506 3.37234 2.35631 4.49871 2.35631 5.88323C2.35631 7.2677 3.47506 8.39402 4.85018 8.39402ZM4.85018 4.15185C5.79842 4.15185 6.56985 4.92853 6.56985 5.88328C6.56985 6.83792 5.79842 7.61461 4.85018 7.61461C3.90194 7.61461 3.1305 6.83792 3.1305 5.88328C3.1305 4.92853 3.90198 4.15185 4.85018 4.15185Z" fill="white"/>
</svg>