<svg width="17" height="18" viewBox="0 0 17 18" fill="none" xmlns="http://www.w3.org/2000/svg">
<g clip-path="url(#clip0_310_23099)">
<path fill-rule="evenodd" clip-rule="evenodd" d="M8.5 1.91667C4.58798 1.91667 1.41667 5.08798 1.41667 9C1.41667 12.912 4.58798 16.0833 8.5 16.0833C12.412 16.0833 15.5833 12.912 15.5833 9C15.5833 5.08798 12.412 1.91667 8.5 1.91667ZM0 9C0 4.30558 3.80558 0.5 8.5 0.5C13.1944 0.5 17 4.30558 17 9C17 13.6944 13.1944 17.5 8.5 17.5C3.80558 17.5 0 13.6944 0 9Z" fill="#A3EA93"/>
<path fill-rule="evenodd" clip-rule="evenodd" d="M12.5202 6.35158C12.8089 6.61556 12.8289 7.0636 12.5649 7.35231L8.03161 12.3107C7.89795 12.4569 7.70911 12.5405 7.51092 12.541C7.31279 12.5416 7.12346 12.4591 6.98888 12.3136L4.36804 9.48031C4.10239 9.19315 4.11985 8.74499 4.40703 8.47936C4.69421 8.21374 5.14237 8.23116 5.40801 8.51839L7.50582 10.7863L11.5194 6.39639C11.7834 6.10767 12.2315 6.08761 12.5202 6.35158Z" fill="#A3EA93"/>
</g>
<defs>
<clipPath id="clip0_310_23099">
<rect width="17" height="17" fill="white" transform="translate(0 0.5)"/>
</clipPath>
</defs>
</svg>
