<svg width="80" height="80" viewBox="0 0 80 80" fill="none" xmlns="http://www.w3.org/2000/svg">
<g id="Frame">
<g id="Icon">
<path id="Vector" d="M40 75C59.33 75 75 59.33 75 40C75 20.67 59.33 5 40 5C20.67 5 5 20.67 5 40C5 59.33 20.67 75 40 75Z" fill="#FFD6D6"/>
<path id="Vector_2" d="M40 70C56.5685 70 70 56.5685 70 40C70 23.4315 56.5685 10 40 10C23.4315 10 10 23.4315 10 40C10 56.5685 23.4315 70 40 70Z" fill="#EE3624"/>
</g>
<path id="Vector_3" d="M54.2707 46.5484L47.7222 40L54.2707 33.4515C55.2431 32.4792 55.2431 30.9026 54.2707 29.9302L50.0698 25.7293C49.0974 24.7569 47.5208 24.7569 46.5485 25.7293L40 32.2778L33.4516 25.7293C32.4792 24.7569 30.9026 24.7569 29.9302 25.7293L25.7293 29.9302C24.7569 30.9026 24.7569 32.4792 25.7293 33.4515L32.2778 40L25.7293 46.5485C24.7569 47.5209 24.7569 49.0974 25.7293 50.0698L29.9302 54.2707C30.9026 55.2431 32.4791 55.2431 33.4515 54.2707L40 47.7222L46.5485 54.2707C47.5208 55.2431 49.0974 55.2431 50.0698 54.2707L54.2707 50.0698C55.2431 49.0974 55.2431 47.5208 54.2707 46.5484Z" fill="white"/>
</g>
</svg>
