<svg width="41" height="40" viewBox="0 0 41 40" fill="none" xmlns="http://www.w3.org/2000/svg">
<rect x="0.599609" width="40" height="40" rx="20" fill="#C5FFFF"/>
<g clip-path="url(#clip0_328_44321)">
<mask id="path-2-outside-1_328_44321" maskUnits="userSpaceOnUse" x="10.4121" y="9.82129" width="21" height="21" fill="black">
<rect fill="white" x="10.4121" y="9.82129" width="21" height="21"/>
<path d="M30.4746 18.3123H29.2246C29.1788 18.3123 29.1336 18.3223 29.0921 18.3417C29.0507 18.3611 29.014 18.3893 28.9846 18.4245L27.5159 20.1873H25.1621C25.1107 20.1873 25.06 20.2 25.0147 20.2242C24.9693 20.2485 24.9307 20.2836 24.9021 20.3263L23.1199 22.9998H22.1199C22.0663 22.6272 22.0386 22.2512 22.0371 21.8748V21.2685C23.013 20.4461 23.8165 19.4386 24.4012 18.3042C25.2805 18.2589 26.109 17.878 26.7157 17.2399C27.3224 16.6018 27.6612 15.7553 27.6621 14.8748V14.5623C27.6621 14.4794 27.6292 14.3999 27.5706 14.3413C27.512 14.2827 27.4325 14.2498 27.3496 14.2498H25.464C25.469 14.1248 25.4746 13.9976 25.4746 13.8707V13.6248C25.4746 13.5419 25.4417 13.4624 25.3831 13.4038C25.3245 13.3452 25.245 13.3123 25.1621 13.3123H23.8937C23.8148 12.6266 23.4864 11.9938 22.9712 11.5345C22.456 11.0751 21.7899 10.8213 21.0996 10.8213C20.4094 10.8213 19.7432 11.0751 19.228 11.5345C18.7128 11.9938 18.3845 12.6266 18.3055 13.3123H17.0371C16.9542 13.3123 16.8747 13.3452 16.8161 13.4038C16.7575 13.4624 16.7246 13.5419 16.7246 13.6248V13.8707C16.7246 13.9976 16.7302 14.1235 16.7352 14.2498H14.8496C14.7667 14.2498 14.6872 14.2827 14.6286 14.3413C14.57 14.3999 14.5371 14.4794 14.5371 14.5623V14.8748C14.5383 15.7551 14.8771 16.6014 15.4838 17.2393C16.0906 17.8772 16.9189 18.258 17.798 18.3032C18.3828 19.4376 19.1862 20.4451 20.1621 21.2676V21.8748C20.1609 22.2512 20.1336 22.6271 20.0802 22.9998H18.5996C18.5494 22.9998 18.4999 23.0119 18.4553 23.0352C18.4108 23.0584 18.3725 23.092 18.3437 23.1332L16.3312 26.0082L14.7105 24.9276C14.6504 24.8875 14.5783 24.8695 14.5064 24.8766C14.4345 24.8837 14.3673 24.9155 14.3162 24.9667L11.5037 27.7792C11.4451 27.8377 11.4122 27.917 11.4121 27.9998V29.8748C11.4121 29.9577 11.445 30.0371 11.5036 30.0957C11.5622 30.1544 11.6417 30.1873 11.7246 30.1873H30.4746C30.5575 30.1873 30.637 30.1544 30.6956 30.0957C30.7542 30.0371 30.7871 29.9577 30.7871 29.8748V18.6248C30.7871 18.5419 30.7542 18.4624 30.6956 18.4038C30.637 18.3452 30.5575 18.3123 30.4746 18.3123ZM14.8496 25.7713L16.0996 26.6045V29.5623H14.8496V25.7713ZM16.7246 26.5357L18.2871 24.3035V26.4373C18.2042 26.4373 18.1247 26.4702 18.0661 26.5288C18.0075 26.5874 17.9746 26.6669 17.9746 26.7498V29.5623H16.7246V26.5357ZM23.9121 26.4373H23.5996V23.406L24.8496 21.531V29.5623H24.2246V26.7498C24.2246 26.6669 24.1917 26.5874 24.1331 26.5288C24.0745 26.4702 23.995 26.4373 23.9121 26.4373ZM25.4746 20.8123H27.3496V29.5623H25.4746V20.8123ZM22.9746 23.6248V25.6426C22.6368 25.0066 22.3867 24.3279 22.2312 23.6248H22.9746ZM22.7077 26.4373H19.4915C20.0253 25.5727 20.4021 24.6205 20.6046 23.6248H21.5946C21.7971 24.6205 22.1739 25.5727 22.7077 26.4373ZM27.0371 14.8748C27.036 15.5357 26.8023 16.1751 26.3771 16.6811C25.952 17.1871 25.3623 17.5273 24.7115 17.6423C25.0841 16.7601 25.3233 15.8274 25.4212 14.8748H27.0371ZM21.0996 11.4373C21.5323 11.4373 21.9552 11.5656 22.3149 11.8059C22.6747 12.0463 22.955 12.3879 23.1206 12.7877C23.2862 13.1874 23.3295 13.6272 23.2451 14.0515C23.1607 14.4759 22.9523 14.8656 22.6464 15.1716C22.3405 15.4775 21.9507 15.6858 21.5264 15.7702C21.102 15.8546 20.6622 15.8113 20.2625 15.6458C19.8628 15.4802 19.5211 15.1998 19.2808 14.8401C19.0404 14.4804 18.9121 14.0574 18.9121 13.6248C18.9128 13.0448 19.1435 12.4888 19.5535 12.0787C19.9636 11.6686 20.5197 11.4379 21.0996 11.4373ZM15.1621 14.8748H16.778C16.876 15.8274 17.1151 16.7601 17.4877 17.6423C16.8369 17.5273 16.2473 17.1871 15.8221 16.6811C15.3969 16.1751 15.1633 15.5357 15.1621 14.8748ZM17.3496 13.9373H18.3052C18.3841 14.623 18.7125 15.2558 19.2277 15.7151C19.7429 16.1744 20.409 16.4283 21.0993 16.4283C21.7895 16.4283 22.4557 16.1744 22.9709 15.7151C23.4861 15.2558 23.8145 14.623 23.8934 13.9373H24.8496C24.8423 15.2497 24.5488 16.5447 23.9897 17.7321C23.4306 18.9195 22.6192 19.9706 21.6121 20.8123H20.5871C19.5801 19.9706 18.7687 18.9195 18.2095 17.7321C17.6504 16.5447 17.3569 15.2497 17.3496 13.9373ZM20.7871 21.8748V21.4373H21.4121V21.8748C21.414 22.2511 21.44 22.6268 21.4899 22.9998H20.7087C20.7588 22.6268 20.785 22.2511 20.7871 21.8748ZM18.9121 26.1817V23.6248H19.968C19.767 24.5318 19.4097 25.397 18.9121 26.1817ZM12.0371 28.1292L14.2246 25.9417V29.5623H12.0371V28.1292ZM18.5996 29.5623V27.0623H23.5996V29.5623H18.5996ZM30.1621 29.5623H27.9746V20.6129L29.3709 18.9373H30.1621V29.5623Z"/>
</mask>
<path d="M30.4746 18.3123H29.2246C29.1788 18.3123 29.1336 18.3223 29.0921 18.3417C29.0507 18.3611 29.014 18.3893 28.9846 18.4245L27.5159 20.1873H25.1621C25.1107 20.1873 25.06 20.2 25.0147 20.2242C24.9693 20.2485 24.9307 20.2836 24.9021 20.3263L23.1199 22.9998H22.1199C22.0663 22.6272 22.0386 22.2512 22.0371 21.8748V21.2685C23.013 20.4461 23.8165 19.4386 24.4012 18.3042C25.2805 18.2589 26.109 17.878 26.7157 17.2399C27.3224 16.6018 27.6612 15.7553 27.6621 14.8748V14.5623C27.6621 14.4794 27.6292 14.3999 27.5706 14.3413C27.512 14.2827 27.4325 14.2498 27.3496 14.2498H25.464C25.469 14.1248 25.4746 13.9976 25.4746 13.8707V13.6248C25.4746 13.5419 25.4417 13.4624 25.3831 13.4038C25.3245 13.3452 25.245 13.3123 25.1621 13.3123H23.8937C23.8148 12.6266 23.4864 11.9938 22.9712 11.5345C22.456 11.0751 21.7899 10.8213 21.0996 10.8213C20.4094 10.8213 19.7432 11.0751 19.228 11.5345C18.7128 11.9938 18.3845 12.6266 18.3055 13.3123H17.0371C16.9542 13.3123 16.8747 13.3452 16.8161 13.4038C16.7575 13.4624 16.7246 13.5419 16.7246 13.6248V13.8707C16.7246 13.9976 16.7302 14.1235 16.7352 14.2498H14.8496C14.7667 14.2498 14.6872 14.2827 14.6286 14.3413C14.57 14.3999 14.5371 14.4794 14.5371 14.5623V14.8748C14.5383 15.7551 14.8771 16.6014 15.4838 17.2393C16.0906 17.8772 16.9189 18.258 17.798 18.3032C18.3828 19.4376 19.1862 20.4451 20.1621 21.2676V21.8748C20.1609 22.2512 20.1336 22.6271 20.0802 22.9998H18.5996C18.5494 22.9998 18.4999 23.0119 18.4553 23.0352C18.4108 23.0584 18.3725 23.092 18.3437 23.1332L16.3312 26.0082L14.7105 24.9276C14.6504 24.8875 14.5783 24.8695 14.5064 24.8766C14.4345 24.8837 14.3673 24.9155 14.3162 24.9667L11.5037 27.7792C11.4451 27.8377 11.4122 27.917 11.4121 27.9998V29.8748C11.4121 29.9577 11.445 30.0371 11.5036 30.0957C11.5622 30.1544 11.6417 30.1873 11.7246 30.1873H30.4746C30.5575 30.1873 30.637 30.1544 30.6956 30.0957C30.7542 30.0371 30.7871 29.9577 30.7871 29.8748V18.6248C30.7871 18.5419 30.7542 18.4624 30.6956 18.4038C30.637 18.3452 30.5575 18.3123 30.4746 18.3123ZM14.8496 25.7713L16.0996 26.6045V29.5623H14.8496V25.7713ZM16.7246 26.5357L18.2871 24.3035V26.4373C18.2042 26.4373 18.1247 26.4702 18.0661 26.5288C18.0075 26.5874 17.9746 26.6669 17.9746 26.7498V29.5623H16.7246V26.5357ZM23.9121 26.4373H23.5996V23.406L24.8496 21.531V29.5623H24.2246V26.7498C24.2246 26.6669 24.1917 26.5874 24.1331 26.5288C24.0745 26.4702 23.995 26.4373 23.9121 26.4373ZM25.4746 20.8123H27.3496V29.5623H25.4746V20.8123ZM22.9746 23.6248V25.6426C22.6368 25.0066 22.3867 24.3279 22.2312 23.6248H22.9746ZM22.7077 26.4373H19.4915C20.0253 25.5727 20.4021 24.6205 20.6046 23.6248H21.5946C21.7971 24.6205 22.1739 25.5727 22.7077 26.4373ZM27.0371 14.8748C27.036 15.5357 26.8023 16.1751 26.3771 16.6811C25.952 17.1871 25.3623 17.5273 24.7115 17.6423C25.0841 16.7601 25.3233 15.8274 25.4212 14.8748H27.0371ZM21.0996 11.4373C21.5323 11.4373 21.9552 11.5656 22.3149 11.8059C22.6747 12.0463 22.955 12.3879 23.1206 12.7877C23.2862 13.1874 23.3295 13.6272 23.2451 14.0515C23.1607 14.4759 22.9523 14.8656 22.6464 15.1716C22.3405 15.4775 21.9507 15.6858 21.5264 15.7702C21.102 15.8546 20.6622 15.8113 20.2625 15.6458C19.8628 15.4802 19.5211 15.1998 19.2808 14.8401C19.0404 14.4804 18.9121 14.0574 18.9121 13.6248C18.9128 13.0448 19.1435 12.4888 19.5535 12.0787C19.9636 11.6686 20.5197 11.4379 21.0996 11.4373ZM15.1621 14.8748H16.778C16.876 15.8274 17.1151 16.7601 17.4877 17.6423C16.8369 17.5273 16.2473 17.1871 15.8221 16.6811C15.3969 16.1751 15.1633 15.5357 15.1621 14.8748ZM17.3496 13.9373H18.3052C18.3841 14.623 18.7125 15.2558 19.2277 15.7151C19.7429 16.1744 20.409 16.4283 21.0993 16.4283C21.7895 16.4283 22.4557 16.1744 22.9709 15.7151C23.4861 15.2558 23.8145 14.623 23.8934 13.9373H24.8496C24.8423 15.2497 24.5488 16.5447 23.9897 17.7321C23.4306 18.9195 22.6192 19.9706 21.6121 20.8123H20.5871C19.5801 19.9706 18.7687 18.9195 18.2095 17.7321C17.6504 16.5447 17.3569 15.2497 17.3496 13.9373ZM20.7871 21.8748V21.4373H21.4121V21.8748C21.414 22.2511 21.44 22.6268 21.4899 22.9998H20.7087C20.7588 22.6268 20.785 22.2511 20.7871 21.8748ZM18.9121 26.1817V23.6248H19.968C19.767 24.5318 19.4097 25.397 18.9121 26.1817ZM12.0371 28.1292L14.2246 25.9417V29.5623H12.0371V28.1292ZM18.5996 29.5623V27.0623H23.5996V29.5623H18.5996ZM30.1621 29.5623H27.9746V20.6129L29.3709 18.9373H30.1621V29.5623Z" fill="#27313E"/>
<path d="M30.4746 18.3123H29.2246C29.1788 18.3123 29.1336 18.3223 29.0921 18.3417C29.0507 18.3611 29.014 18.3893 28.9846 18.4245L27.5159 20.1873H25.1621C25.1107 20.1873 25.06 20.2 25.0147 20.2242C24.9693 20.2485 24.9307 20.2836 24.9021 20.3263L23.1199 22.9998H22.1199C22.0663 22.6272 22.0386 22.2512 22.0371 21.8748V21.2685C23.013 20.4461 23.8165 19.4386 24.4012 18.3042C25.2805 18.2589 26.109 17.878 26.7157 17.2399C27.3224 16.6018 27.6612 15.7553 27.6621 14.8748V14.5623C27.6621 14.4794 27.6292 14.3999 27.5706 14.3413C27.512 14.2827 27.4325 14.2498 27.3496 14.2498H25.464C25.469 14.1248 25.4746 13.9976 25.4746 13.8707V13.6248C25.4746 13.5419 25.4417 13.4624 25.3831 13.4038C25.3245 13.3452 25.245 13.3123 25.1621 13.3123H23.8937C23.8148 12.6266 23.4864 11.9938 22.9712 11.5345C22.456 11.0751 21.7899 10.8213 21.0996 10.8213C20.4094 10.8213 19.7432 11.0751 19.228 11.5345C18.7128 11.9938 18.3845 12.6266 18.3055 13.3123H17.0371C16.9542 13.3123 16.8747 13.3452 16.8161 13.4038C16.7575 13.4624 16.7246 13.5419 16.7246 13.6248V13.8707C16.7246 13.9976 16.7302 14.1235 16.7352 14.2498H14.8496C14.7667 14.2498 14.6872 14.2827 14.6286 14.3413C14.57 14.3999 14.5371 14.4794 14.5371 14.5623V14.8748C14.5383 15.7551 14.8771 16.6014 15.4838 17.2393C16.0906 17.8772 16.9189 18.258 17.798 18.3032C18.3828 19.4376 19.1862 20.4451 20.1621 21.2676V21.8748C20.1609 22.2512 20.1336 22.6271 20.0802 22.9998H18.5996C18.5494 22.9998 18.4999 23.0119 18.4553 23.0352C18.4108 23.0584 18.3725 23.092 18.3437 23.1332L16.3312 26.0082L14.7105 24.9276C14.6504 24.8875 14.5783 24.8695 14.5064 24.8766C14.4345 24.8837 14.3673 24.9155 14.3162 24.9667L11.5037 27.7792C11.4451 27.8377 11.4122 27.917 11.4121 27.9998V29.8748C11.4121 29.9577 11.445 30.0371 11.5036 30.0957C11.5622 30.1544 11.6417 30.1873 11.7246 30.1873H30.4746C30.5575 30.1873 30.637 30.1544 30.6956 30.0957C30.7542 30.0371 30.7871 29.9577 30.7871 29.8748V18.6248C30.7871 18.5419 30.7542 18.4624 30.6956 18.4038C30.637 18.3452 30.5575 18.3123 30.4746 18.3123ZM14.8496 25.7713L16.0996 26.6045V29.5623H14.8496V25.7713ZM16.7246 26.5357L18.2871 24.3035V26.4373C18.2042 26.4373 18.1247 26.4702 18.0661 26.5288C18.0075 26.5874 17.9746 26.6669 17.9746 26.7498V29.5623H16.7246V26.5357ZM23.9121 26.4373H23.5996V23.406L24.8496 21.531V29.5623H24.2246V26.7498C24.2246 26.6669 24.1917 26.5874 24.1331 26.5288C24.0745 26.4702 23.995 26.4373 23.9121 26.4373ZM25.4746 20.8123H27.3496V29.5623H25.4746V20.8123ZM22.9746 23.6248V25.6426C22.6368 25.0066 22.3867 24.3279 22.2312 23.6248H22.9746ZM22.7077 26.4373H19.4915C20.0253 25.5727 20.4021 24.6205 20.6046 23.6248H21.5946C21.7971 24.6205 22.1739 25.5727 22.7077 26.4373ZM27.0371 14.8748C27.036 15.5357 26.8023 16.1751 26.3771 16.6811C25.952 17.1871 25.3623 17.5273 24.7115 17.6423C25.0841 16.7601 25.3233 15.8274 25.4212 14.8748H27.0371ZM21.0996 11.4373C21.5323 11.4373 21.9552 11.5656 22.3149 11.8059C22.6747 12.0463 22.955 12.3879 23.1206 12.7877C23.2862 13.1874 23.3295 13.6272 23.2451 14.0515C23.1607 14.4759 22.9523 14.8656 22.6464 15.1716C22.3405 15.4775 21.9507 15.6858 21.5264 15.7702C21.102 15.8546 20.6622 15.8113 20.2625 15.6458C19.8628 15.4802 19.5211 15.1998 19.2808 14.8401C19.0404 14.4804 18.9121 14.0574 18.9121 13.6248C18.9128 13.0448 19.1435 12.4888 19.5535 12.0787C19.9636 11.6686 20.5197 11.4379 21.0996 11.4373ZM15.1621 14.8748H16.778C16.876 15.8274 17.1151 16.7601 17.4877 17.6423C16.8369 17.5273 16.2473 17.1871 15.8221 16.6811C15.3969 16.1751 15.1633 15.5357 15.1621 14.8748ZM17.3496 13.9373H18.3052C18.3841 14.623 18.7125 15.2558 19.2277 15.7151C19.7429 16.1744 20.409 16.4283 21.0993 16.4283C21.7895 16.4283 22.4557 16.1744 22.9709 15.7151C23.4861 15.2558 23.8145 14.623 23.8934 13.9373H24.8496C24.8423 15.2497 24.5488 16.5447 23.9897 17.7321C23.4306 18.9195 22.6192 19.9706 21.6121 20.8123H20.5871C19.5801 19.9706 18.7687 18.9195 18.2095 17.7321C17.6504 16.5447 17.3569 15.2497 17.3496 13.9373ZM20.7871 21.8748V21.4373H21.4121V21.8748C21.414 22.2511 21.44 22.6268 21.4899 22.9998H20.7087C20.7588 22.6268 20.785 22.2511 20.7871 21.8748ZM18.9121 26.1817V23.6248H19.968C19.767 24.5318 19.4097 25.397 18.9121 26.1817ZM12.0371 28.1292L14.2246 25.9417V29.5623H12.0371V28.1292ZM18.5996 29.5623V27.0623H23.5996V29.5623H18.5996ZM30.1621 29.5623H27.9746V20.6129L29.3709 18.9373H30.1621V29.5623Z" stroke="#27313E" stroke-width="0.1" mask="url(#path-2-outside-1_328_44321)"/>
<path d="M20.8121 14.225V14.25C20.8121 14.3262 20.8424 14.3994 20.8963 14.4533C20.9502 14.5072 21.0234 14.5375 21.0996 14.5375C21.1759 14.5375 21.249 14.5072 21.3029 14.4533C21.3568 14.3994 21.3871 14.3262 21.3871 14.25C21.3871 14.1738 21.3568 14.1006 21.3029 14.0467C21.249 13.9928 21.1759 13.9625 21.0996 13.9625C20.8728 13.9629 20.6532 13.8831 20.4797 13.7371C20.3061 13.5911 20.1898 13.3884 20.1514 13.1649C20.113 12.9414 20.1549 12.7115 20.2697 12.5159C20.3816 12.3255 20.5555 12.1796 20.7621 12.1025V11.75V11.725H20.7871H21.4121H21.4371V11.75V12.1025C21.6171 12.1699 21.7729 12.2897 21.8843 12.4466C21.9992 12.6083 22.0613 12.8015 22.0621 12.9999L22.0622 13.025H22.0371H21.4121H21.3871V13C21.3871 12.9431 21.3702 12.8876 21.3387 12.8403C21.3071 12.793 21.2622 12.7561 21.2096 12.7344C21.1571 12.7126 21.0993 12.7069 21.0435 12.718C20.9878 12.7291 20.9365 12.7565 20.8963 12.7967C20.8561 12.8369 20.8287 12.8881 20.8176 12.9439C20.8065 12.9997 20.8122 13.0575 20.834 13.11C20.8558 13.1626 20.8926 13.2075 20.9399 13.239C20.9871 13.2706 21.0427 13.2875 21.0996 13.2875C21.0996 13.2875 21.0996 13.2875 21.0996 13.2875V13.3125C21.3205 13.3121 21.5344 13.3898 21.7034 13.532C21.8725 13.6742 21.9857 13.8716 22.0232 14.0893C22.0606 14.307 22.0198 14.5309 21.9079 14.7214C21.7961 14.9119 21.6204 15.0566 21.4121 15.13L20.8121 14.225ZM20.8121 14.225H20.7871H20.1621H20.137L20.1371 14.2501C20.1379 14.4485 20.2 14.6417 20.3149 14.8034C20.4263 14.9603 20.5821 15.0801 20.7621 15.1475V15.5V15.525H20.7871H21.4121H21.4371V15.5V15.1475L20.8121 14.225Z" fill="#27313E" stroke="#27313E" stroke-width="0.05"/>
<path d="M29.776 12.3013L29.7937 12.2837L29.776 12.266L29.3335 11.8241L29.3158 11.8064L29.2981 11.8242L29.1535 11.9695L29.1534 11.9695C28.8352 12.2894 28.4567 12.543 28.0398 12.7156C27.6229 12.8882 27.1759 12.9765 26.7247 12.9752L26.6996 12.9752V13.0002V13.6252V13.6502L26.7245 13.6502C27.2645 13.6518 27.7994 13.5462 28.2982 13.3396C28.7971 13.133 29.25 12.8295 29.6308 12.4466L29.776 12.3013Z" fill="#27313E" stroke="#27313E" stroke-width="0.05"/>
<path d="M28.5996 13.6H28.5746V13.625V14.25V14.275H28.5996H28.9121C29.237 14.275 29.5486 14.4041 29.7783 14.6338C30.008 14.8635 30.1371 15.1751 30.1371 15.5V15.525H30.1621H30.7871H30.8121L30.8121 15.5C30.8116 14.9962 30.6113 14.5133 30.2551 14.157C29.8989 13.8008 29.4159 13.6005 28.9121 13.6H28.9121H28.5996Z" fill="#27313E" stroke="#27313E" stroke-width="0.05"/>
<path d="M15.4752 13.6502L15.5002 13.6502V13.6252V13.0002V12.9752L15.4751 12.9752C15.0239 12.9766 14.5769 12.8883 14.1601 12.7157C13.7432 12.5431 13.3648 12.2894 13.0466 11.9695L13.0466 11.9695L12.9016 11.8241L12.8839 11.8064L12.8662 11.8241L12.4237 12.266L12.406 12.2837L12.4237 12.3013L12.569 12.4466C12.569 12.4466 12.569 12.4466 12.569 12.4466C12.9498 12.8295 13.4027 13.133 13.9015 13.3396C14.4004 13.5462 14.9353 13.6518 15.4752 13.6502Z" fill="#27313E" stroke="#27313E" stroke-width="0.05"/>
<path d="M27.6371 16.75V16.7751L27.6622 16.775C28.1134 16.7737 28.5603 16.8619 28.9772 17.0346C29.394 17.2072 29.7725 17.4608 30.0906 17.7808L30.0907 17.7808L30.2357 17.9261L30.2533 17.9438L30.271 17.9261L30.7135 17.4843L30.7312 17.4666L30.7135 17.4489L30.5683 17.3036C30.5683 17.3036 30.5682 17.3036 30.5682 17.3036C30.1875 16.9208 29.7346 16.6173 29.2357 16.4107C28.7369 16.2041 28.202 16.0985 27.662 16.1L27.6371 16.1001V16.125V16.75Z" fill="#27313E" stroke="#27313E" stroke-width="0.05"/>
<path d="M11.4862 17.4489L11.4685 17.4666L11.4862 17.4843L11.9287 17.9261L11.9465 17.9438L11.9641 17.9261L12.1088 17.7808L12.1088 17.7808C12.4271 17.4609 12.8056 17.2073 13.2225 17.0346C13.6394 16.862 14.0864 16.7738 14.5376 16.775L14.5627 16.7751V16.75V16.125V16.1001L14.5377 16.1C13.9978 16.0985 13.4629 16.2041 12.964 16.4107C12.4652 16.6173 12.0123 16.9208 11.6315 17.3036L11.4862 17.4489Z" fill="#27313E" stroke="#27313E" stroke-width="0.05"/>
<path d="M13.5996 14.275H13.6246V14.25V13.625V13.6H13.5996L13.2871 13.6L13.2871 13.6C12.7833 13.6005 12.3004 13.8008 11.9442 14.157C11.5879 14.5133 11.3876 14.9962 11.3871 15.5L11.3871 15.525H11.4121H12.0371H12.0621V15.5C12.0621 15.1751 12.1912 14.8635 12.4209 14.6338C12.6506 14.4041 12.9622 14.275 13.2871 14.275H13.5996Z" fill="#27313E" stroke="#27313E" stroke-width="0.05"/>
</g>
<defs>
<clipPath id="clip0_328_44321">
<rect width="20" height="20" fill="white" transform="translate(11.0996 10.5)"/>
</clipPath>
</defs>
</svg>
