<svg width="18" height="19" viewBox="0 0 18 19" fill="none" xmlns="http://www.w3.org/2000/svg">
<g id="Layer_1">
<path id="Vector" d="M4.01996 11.7588C3.91376 11.6526 3.74276 11.6526 3.63836 11.7588L3.30176 12.0954L2.96516 11.7588C2.86076 11.6526 2.68796 11.6526 2.58356 11.7588C2.47916 11.865 2.47736 12.036 2.58356 12.1404L2.92016 12.477L2.58356 12.8137C2.47736 12.9198 2.47736 13.0908 2.58356 13.1952C2.63576 13.2474 2.70596 13.2744 2.77436 13.2744C2.84276 13.2744 2.91296 13.2474 2.96516 13.1952L3.30176 12.8586L3.63836 13.1952C3.69056 13.2474 3.76076 13.2744 3.82916 13.2744C3.89756 13.2744 3.96776 13.2474 4.01996 13.1952C4.12616 13.089 4.12616 12.918 4.01996 12.8137L3.68336 12.477L4.01996 12.1404C4.12616 12.036 4.12616 11.865 4.01996 11.7588Z" fill="black"/>
<path id="Vector_2" d="M6.26996 11.7588C6.16376 11.6526 5.99276 11.6526 5.88836 11.7588L5.55176 12.0954L5.21516 11.7588C5.10896 11.6526 4.93796 11.6526 4.83356 11.7588C4.72916 11.865 4.72736 12.036 4.83356 12.1404L5.17016 12.477L4.83356 12.8137C4.72736 12.9198 4.72736 13.0908 4.83356 13.1952C4.88576 13.2474 4.95596 13.2744 5.02436 13.2744C5.09276 13.2744 5.16296 13.2474 5.21516 13.1952L5.55176 12.8586L5.88836 13.1952C5.94056 13.2474 6.01076 13.2744 6.07916 13.2744C6.14756 13.2744 6.21776 13.2474 6.26996 13.1952C6.37616 13.089 6.37616 12.918 6.26996 12.8137L5.93336 12.477L6.26996 12.1404C6.37616 12.036 6.37616 11.865 6.26996 11.7588Z" fill="black"/>
<path id="Vector_3" d="M8.51996 11.7588C8.41376 11.6526 8.24276 11.6526 8.13836 11.7588L7.80176 12.0954L7.46516 11.7588C7.36076 11.6526 7.18796 11.6526 7.08356 11.7588C6.97916 11.865 6.97736 12.036 7.08356 12.1404L7.42016 12.477L7.08356 12.8137C6.97736 12.9198 6.97736 13.0908 7.08356 13.1952C7.13576 13.2474 7.20596 13.2744 7.27436 13.2744C7.34276 13.2744 7.41296 13.2474 7.46516 13.1952L7.80176 12.8586L8.13836 13.1952C8.19056 13.2474 8.26076 13.2744 8.32916 13.2744C8.39756 13.2744 8.46776 13.2474 8.51996 13.1952C8.62616 13.089 8.62616 12.918 8.51996 12.8137L8.18336 12.477L8.51996 12.1404C8.62436 12.036 8.62436 11.865 8.51996 11.7588Z" fill="black"/>
<path id="Vector_4" d="M10.77 11.7588C10.6638 11.6526 10.4928 11.6526 10.3884 11.7588L10.0518 12.0954L9.71516 11.7588C9.60896 11.6526 9.43796 11.6526 9.33356 11.7588C9.22916 11.865 9.22736 12.036 9.33356 12.1404L9.67016 12.477L9.33356 12.8137C9.22736 12.9198 9.22736 13.0908 9.33356 13.1952C9.38576 13.2474 9.45596 13.2744 9.52436 13.2744C9.59276 13.2744 9.66296 13.2474 9.71516 13.1952L10.0518 12.8586L10.3884 13.1952C10.4406 13.2474 10.5108 13.2744 10.5792 13.2744C10.6476 13.2744 10.7178 13.2474 10.77 13.1952C10.8762 13.089 10.8762 12.918 10.77 12.8137L10.4334 12.477L10.77 12.1404C10.8762 12.036 10.8762 11.865 10.77 11.7588Z" fill="black"/>
<path id="Vector_5" d="M13.02 11.7588C12.9138 11.6526 12.7428 11.6526 12.6384 11.7588L12.3018 12.0954L11.9652 11.7588C11.8608 11.6526 11.688 11.6526 11.5836 11.7588C11.4792 11.865 11.4774 12.036 11.5836 12.1404L11.9202 12.477L11.5836 12.8137C11.4774 12.9198 11.4774 13.0908 11.5836 13.1952C11.6358 13.2474 11.706 13.2744 11.7744 13.2744C11.8428 13.2744 11.913 13.2474 11.9652 13.1952L12.3018 12.8586L12.6384 13.1952C12.6906 13.2474 12.7608 13.2744 12.8292 13.2744C12.8976 13.2744 12.9678 13.2474 13.02 13.1952C13.1262 13.089 13.1262 12.918 13.02 12.8137L12.6834 12.477L13.02 12.1404C13.1262 12.036 13.1262 11.865 13.02 11.7588Z" fill="black"/>
<path id="Vector_6" d="M13.0919 6.51018H12.5033L13.3187 5.23758C13.3727 5.15478 13.3763 5.04858 13.3277 4.96218C13.2809 4.87578 13.1891 4.82178 13.0901 4.82178H12.0083C11.8589 4.82178 11.7383 4.94238 11.7383 5.09178C11.7383 5.24118 11.8589 5.36178 12.0083 5.36178H12.5969L11.7815 6.63438C11.7275 6.71718 11.7239 6.82338 11.7725 6.90978C11.8193 6.99618 11.9111 7.05018 12.0101 7.05018H13.0919C13.2413 7.05018 13.3619 6.92958 13.3619 6.78018C13.3619 6.63078 13.2413 6.51018 13.0919 6.51018Z" fill="black"/>
<path id="Vector_7" d="M15.1177 4.82373H14.5903C14.4409 4.82373 14.3203 4.94433 14.3203 5.09373V6.14853V6.78213C14.3203 6.93153 14.4409 7.05213 14.5903 7.05213C14.7397 7.05213 14.8603 6.93153 14.8603 6.78213V6.41853H15.1177C15.5569 6.41853 15.9151 6.06033 15.9151 5.62113C15.9151 5.18193 15.5587 4.82373 15.1177 4.82373ZM15.1177 5.87853H14.8603V5.36373H15.1177C15.2599 5.36373 15.3751 5.47893 15.3751 5.62113C15.3751 5.76333 15.2599 5.87853 15.1177 5.87853Z" fill="black"/>
<path id="Vector_8" d="M13.77 4.82373C13.6206 4.82373 13.5 4.94433 13.5 5.09373V6.78213C13.5 6.93153 13.6206 7.05213 13.77 7.05213C13.9194 7.05213 14.04 6.93153 14.04 6.78213V5.09373C14.04 4.94433 13.9194 4.82373 13.77 4.82373Z" fill="black"/>
<path id="Vector_9" d="M11.1895 8.61536L11.1895 8.61535C11.1307 8.56017 11.0746 8.50418 11.0182 8.44039C10.9911 8.41118 10.9662 8.38054 10.9436 8.35282L10.9434 8.35257C10.901 8.30304 10.8563 8.25091 10.815 8.19651C10.7959 8.17194 10.7771 8.14545 10.7601 8.12155C10.7535 8.11227 10.7472 8.10338 10.7412 8.09514L10.8223 8.0366M11.1895 8.61536L12.0526 9.2326H2.92491V8.0538H10.7101C10.7145 8.05961 10.7188 8.06529 10.7229 8.07072C10.7299 8.07997 10.7364 8.08849 10.7417 8.09573L10.8223 8.0366M11.1895 8.61536L11.191 8.61672C11.2007 8.62542 11.2079 8.63297 11.2171 8.64248C11.2228 8.64846 11.2293 8.65521 11.2376 8.66351L11.2375 8.66359L11.2412 8.66695C11.318 8.73638 11.3974 8.80481 11.4794 8.86812L11.4794 8.86813L11.4805 8.869C11.4921 8.8777 11.504 8.88629 11.5151 8.89422L11.5154 8.89445C11.5268 8.90265 11.5372 8.91018 11.5471 8.91759L11.5471 8.9176L11.5483 8.91847L11.5491 8.91904C11.6079 8.9618 11.6688 9.00612 11.7337 9.04878M11.1895 8.61536L12.0053 9.20782C11.9484 9.17659 11.8917 9.14368 11.8371 9.11095C11.8319 9.10792 11.8266 9.10485 11.8211 9.10173C11.7934 9.0858 11.7634 9.06854 11.7337 9.04878M10.8223 8.0366C10.8151 8.0268 10.8077 8.01701 10.8002 8.00714C10.7871 7.98978 10.7737 7.97215 10.7611 7.9538L10.8943 8.1356C10.8765 8.11271 10.8596 8.08892 10.843 8.06551C10.836 8.05578 10.8292 8.04611 10.8223 8.0366ZM11.7337 9.04878C11.7336 9.04872 11.7335 9.04866 11.7334 9.0486L11.7889 8.9654L11.734 9.04897C11.7339 9.04891 11.7338 9.04884 11.7337 9.04878ZM13.3837 9.5288C13.3069 9.51976 13.2301 9.50946 13.1543 9.49685V9.59819M13.3837 9.5288L2.55491 7.4174C2.40551 7.4174 2.28491 7.538 2.28491 7.6874V9.6062C2.28491 9.7556 2.40551 9.8762 2.55491 9.8762H12.7843C12.9337 9.8762 13.0543 9.7556 13.0543 9.6062V9.58167C13.0589 9.58239 13.0633 9.58301 13.0671 9.58355L13.0681 9.58369C13.0781 9.58512 13.0847 9.58609 13.0905 9.58725L13.0905 9.58727L13.0924 9.58761C13.113 9.59132 13.1336 9.59484 13.1543 9.59819M13.3837 9.5288C13.3945 9.5297 13.4049 9.53105 13.4152 9.5324C13.4256 9.53375 13.4359 9.5351 13.4467 9.536L13.3837 9.5288ZM13.1543 9.59819V9.6062C13.1543 9.81082 12.9889 9.9762 12.7843 9.9762H2.55491C2.35028 9.9762 2.18491 9.81082 2.18491 9.6062V7.6874C2.18491 7.48277 2.35028 7.3174 2.55491 7.3174H10.3096C10.146 6.90761 10.055 6.46952 10.0447 6.0234H1.27014C1.26997 6.02348 1.26969 6.02366 1.26933 6.02401C1.26912 6.02423 1.26898 6.02439 1.26891 6.0245V16.0336C1.26899 16.0337 1.26917 16.034 1.26952 16.0344C1.26974 16.0346 1.2699 16.0347 1.27002 16.0348H14.0703V16.034V9.63391C14.0498 9.63517 14.0297 9.63619 14.0101 9.63718C13.9955 9.63792 13.9811 9.63864 13.9672 9.63943C13.9536 9.64024 13.9393 9.64118 13.9247 9.64215C13.8788 9.64519 13.8289 9.6485 13.78 9.64859L13.7772 9.64888L13.7687 9.64975C13.7652 9.65005 13.7602 9.6504 13.7545 9.6504C13.6484 9.6504 13.5429 9.64481 13.438 9.63561C13.425 9.63452 13.4129 9.63294 13.4031 9.63166L13.4023 9.63156C13.3916 9.63016 13.3835 9.62913 13.3754 9.62845L13.372 9.62817L13.372 9.62811C13.2997 9.6196 13.2268 9.60992 13.1543 9.59819ZM17.4671 5.93609C17.469 3.88994 15.8041 2.2252 13.7563 2.2252C11.9589 2.2252 10.4189 3.54355 10.1059 5.2834H1.26971C0.859695 5.2834 0.528906 5.61635 0.528906 6.0242V16.034C0.528906 16.444 0.861861 16.7748 1.26971 16.7748H14.0695C14.4795 16.7748 14.8103 16.4418 14.8103 16.034V9.49267C16.3663 9.03161 17.4671 7.58279 17.4671 5.93609ZM17.4671 5.93609L17.3671 5.936H17.4671C17.4671 5.93603 17.4671 5.93606 17.4671 5.93609ZM13.7808 9.64851C13.7809 9.6485 13.7809 9.64851 13.7806 9.64852L13.7808 9.64851ZM14.3659 8.8459L14.3658 8.84592C13.8836 8.94688 13.3643 8.9242 12.8928 8.77978L12.8922 8.77961C12.7182 8.72741 12.5512 8.65954 12.3928 8.57774L12.3923 8.57751C12.2192 8.48923 12.0574 8.3815 11.9034 8.25897C11.8099 8.1845 11.7229 8.10455 11.6389 8.01881L11.6382 8.01809C11.5953 7.97514 11.5537 7.93012 11.5115 7.88264C11.4064 7.76001 11.309 7.63112 11.2223 7.49243C10.9352 7.02602 10.7837 6.48812 10.7837 5.936C10.7837 5.85053 10.7872 5.76515 10.7942 5.68162C10.923 4.15851 12.2242 2.9634 13.7563 2.9634C15.3949 2.9634 16.7289 4.29742 16.7289 5.936C16.7289 7.33768 15.7343 8.56039 14.3659 8.8459Z" fill="black" stroke="black" stroke-width="0.2"/>
</g>
</svg>
